<svg width="24" height="24" viewBox="0 0 24 24" fill="none" xmlns="http://www.w3.org/2000/svg">
<path d="M18.077 8.96C17.588 9.092 13.12 12.557 12.825 13.408C12.761 13.701 12.832 16.549 12.897 16.976C13.191 17.042 15.317 16.985 15.707 17.05L15.66 17.93C15.278 17.9 12.577 17.907 11.036 17.907C10.253 17.907 7.736 17.994 6.962 17.972L7.108 17.134C7.532 17.102 9.288 17.212 9.673 16.802C9.864 16.598 9.804 13.892 9.739 13.434C9.577 12.944 5.661 8.037 4.637 7.234H2V6H10.895V6.085C10.903 6.085 10.917 6.086 10.925 6.088L10.895 6.296V7.233H8.213C9.408 8.982 11.123 11.093 11.853 12.106L15.436 8.86H13.306L13.006 7.628H20.807L20.749 7.715L20.777 7.717L20.22 8.525C20.2139 8.52527 20.2079 8.52628 20.202 8.528L19.977 8.86H18.538C18.352 8.9 18.188 8.937 18.077 8.96ZM20.622 16.686L19.934 16.652L19.165 16.558L19.172 17.875L19.778 17.927L20.431 17.975L20.622 16.685V16.686ZM21.959 10.389C21.727 10.381 19.614 10.181 19.339 10.127L19.371 15.691L20.567 15.788L21.959 10.389Z" fill="white"/>
</svg>
