<svg width="147" height="221" viewBox="0 0 147 221" fill="none" xmlns="http://www.w3.org/2000/svg">
<path d="M89.2179 9.06308L17.818 209.494L8.05012 203.797C6.75356 203.02 5.93236 201.423 5.93236 199.178L5.5 51.7474C5.5 47.1726 8.74153 41.6481 12.6747 39.3608L74.3071 3.84074C76.2951 2.67562 78.1102 2.54602 79.4071 3.32285L89.2179 9.06308Z" fill="#484188"/>
<path d="M84.0963 9.55812C88.086 7.25792 91.3018 9.08789 91.3147 13.6657L91.7333 161.095C91.7462 165.633 88.5514 171.198 84.5617 173.499L22.945 209.023C18.9895 211.303 15.7396 209.453 15.7267 204.915L15.3081 57.4858C15.2951 52.908 18.524 47.3625 22.4795 45.082L84.0963 9.55812Z" fill="#AAA0F5"/>
<path d="M67.725 23.7139C68.407 23.3208 68.9203 23.6518 68.9226 24.4736C68.9247 25.2169 68.415 26.1378 67.733 26.5309C67.085 26.9045 66.5378 26.5931 66.5357 25.8497C66.5333 25.0279 67.0771 24.0875 67.725 23.7139Z" fill="#484188"/>
<path d="M89.5342 153.171C89.5342 153.646 89.4912 154.12 89.4047 154.595C88.8861 157.444 86.8978 160.465 84.5208 161.803L22.9317 197.366C20.1222 198.963 17.8749 197.668 17.8749 194.517L17.6156 112.127L17.4858 65.4717C17.4858 62.278 19.7334 58.3936 22.4996 56.7535L84.1317 21.2337C86.8978 19.6369 89.1454 20.9316 89.1454 24.1253L89.5342 153.171Z" fill="white"/>
<path d="M63.155 26.2314C63.9051 25.7989 64.4866 26.169 64.489 26.9908C64.4914 27.8516 63.9138 28.8508 63.1636 29.2833L43.4544 40.6463C42.7042 41.0788 42.1226 40.7479 42.1201 39.8871C42.1178 39.0654 42.6955 38.0269 43.4457 37.5944L63.155 26.2314Z" fill="#484188"/>
<path d="M38.8777 40.345C39.5256 39.9714 40.0729 40.2829 40.0752 41.1047C40.0773 41.848 39.5336 42.7885 38.8857 43.162C38.2037 43.5552 37.6564 43.2438 37.6543 42.5004C37.652 41.6786 38.1957 40.7382 38.8777 40.345Z" fill="#484188"/>
<path d="M59.1145 178.935C60.8195 177.952 62.1879 178.731 62.1933 180.648C62.1987 182.565 60.8393 184.917 59.1343 185.9L48.3248 192.132C46.6201 193.115 45.2857 192.316 45.2803 190.399C45.2748 188.482 46.6003 186.15 48.3051 185.167L59.1145 178.935Z" fill="#484188"/>
<path d="M11.464 85.2822C12.0691 85.6275 12.5445 86.4475 12.5445 87.1382L12.5012 102.33C12.5012 102.632 12.3717 102.891 12.1987 102.978L11.248 103.539C11.0319 103.668 10.7726 103.668 10.47 103.495L8.56831 102.373C7.96316 102.028 7.48779 101.208 7.48779 100.517L7.53106 85.3254C7.53106 84.9803 7.66058 84.7211 7.87663 84.6349L8.82762 84.117C9.00041 83.9874 9.25972 83.9874 9.56229 84.1602L11.464 85.2822Z" fill="#AAA0F5"/>
<path d="M12.5877 65.4294L12.5444 80.6214C12.5444 80.9665 12.4149 81.1825 12.2418 81.3118L11.4206 81.7436C11.3776 81.7436 11.3776 81.7865 11.3344 81.7865C11.1613 81.9593 10.8587 81.9593 10.5132 81.7865L8.61147 80.6646C8.04958 80.3193 7.57422 79.4992 7.57422 78.8085L7.61722 63.66C7.61722 63.3146 7.74701 63.0557 7.9198 62.9693C7.96306 62.9693 7.96306 62.9261 8.00632 62.9261L8.87078 62.4082C9.04357 62.2788 9.34614 62.322 9.64872 62.4946L11.5504 63.5736C12.1123 63.9189 12.5877 64.7389 12.5877 65.4294Z" fill="#AAA0F5"/>
<path d="M12.5406 87.126L12.4968 102.313C12.4968 102.648 12.3776 102.885 12.1868 102.996L11.2301 103.55C11.4223 103.439 11.5402 103.203 11.5415 102.867L11.5839 87.6818C11.5866 87.0043 11.1095 86.18 10.5186 85.84L8.61453 84.7298C8.31777 84.5592 8.04875 84.5433 7.854 84.6558L8.81063 84.1014C9.00411 83.9889 9.27309 84.0048 9.5699 84.1755L11.4752 85.2856C12.0649 85.6256 12.5419 86.4499 12.5406 87.126Z" fill="#565185"/>
<path d="M10.519 85.8387C11.109 86.1788 11.5863 87.0031 11.5843 87.68L11.5412 102.866C11.5393 103.543 11.0589 103.814 10.469 103.474L8.56427 102.365C7.97436 102.024 7.49809 101.202 7.50001 100.525L7.54312 85.3387C7.54504 84.6618 8.02443 84.389 8.61433 84.7291L10.519 85.8387Z" fill="#AAA0F5"/>
<path d="M12.5998 65.4242L12.5574 80.6112C12.5561 80.9459 12.4368 81.1828 12.246 81.2939L11.2894 81.8483C11.4815 81.7372 11.6007 81.5016 11.6007 81.1656L11.6445 65.9786C11.6458 65.3025 11.1688 64.4782 10.5791 64.1381L8.67379 63.028C8.37699 62.8573 8.108 62.8415 7.91455 62.9539L8.86989 62.3995C9.06466 62.2858 9.33365 62.3029 9.63045 62.4736L11.5345 63.5824C12.1254 63.9238 12.6025 64.7481 12.5998 65.4242Z" fill="#565185"/>
<path d="M10.5791 64.1372C11.169 64.4774 11.6463 65.3017 11.6444 65.9786L11.6013 81.1648C11.5994 81.8417 11.1189 82.1139 10.529 81.7738L8.62432 80.6643C8.03442 80.3242 7.55814 79.5004 7.56006 78.8235L7.60318 63.6373C7.6051 62.9604 8.08449 62.6876 8.67439 63.0277L10.5791 64.1372Z" fill="#AAA0F5"/>
<path d="M76.9113 7.77915C75.2646 6.84575 72.5495 6.84575 70.9028 7.77915C69.4343 8.62358 69.2561 9.91233 70.3688 10.8457C70.5024 10.7123 70.6803 10.5791 70.9028 10.4456C72.5495 9.51249 75.2646 9.51249 76.9113 10.4456C77.0892 10.5791 77.2672 10.7123 77.4454 10.8457C78.5135 9.91233 78.3355 8.62358 76.9113 7.77915Z" fill="white"/>
<path d="M70.9027 10.4452C70.6802 10.5787 70.5023 10.7119 70.3687 10.8453C70.5023 10.9785 70.6802 11.112 70.9027 11.2451C72.594 12.223 75.2645 12.223 76.9112 11.2451C77.0891 11.1564 77.2671 11.023 77.4452 10.8898V10.8453C77.2671 10.7119 77.0891 10.5787 76.9112 10.4452C75.2645 9.51208 72.5494 9.51208 70.9027 10.4452Z" fill="#3F3F46"/>
<path d="M57.88 137.923L23.2119 157.93V154.659L57.88 134.695V137.923Z" fill="#E3E7F0"/>
<path d="M54.1368 117.958L54.0942 114.688L83.7004 97.6121V100.883L54.1368 117.958Z" fill="#E3E7F0"/>
<path d="M83.8275 142.468V145.738L54.2643 162.772L54.2217 159.501L83.8275 142.468Z" fill="#E3E7F0"/>
<path d="M57.9224 108.189V104.918L65.3664 100.628V103.898L57.9224 108.189Z" fill="#E3E7F0"/>
<path d="M83.6153 85.803L44.8638 108.188V104.918L83.6153 82.5322V85.803Z" fill="#E3E7F0"/>
<path d="M58.0498 152.959V149.731L65.4938 145.441V148.711L58.0498 152.959Z" fill="#E3E7F0"/>
<path d="M35.2926 158.566L35.25 155.253L42.6089 151.006L42.6515 154.319L35.2926 158.566Z" fill="#E3E7F0"/>
<path d="M66.7702 159.841L66.8125 163.069L23.2969 188.173V184.902L66.7702 159.841Z" fill="#E3E7F0"/>
<path d="M68.5143 86.993L61.1128 91.2407V87.9276L68.4717 83.6799L68.5143 86.993Z" fill="#E3E7F0"/>
<path d="M61.2402 132.74L68.5994 128.493L68.6419 131.763L61.2402 136.011V132.74Z" fill="#E3E7F0"/>
<path d="M70.9814 127.134L83.7427 119.785V123.013L70.9814 130.405V127.134Z" fill="#E3E7F0"/>
<path d="M31.8897 160.521L23.2119 165.49V162.22L31.8897 157.208V160.521Z" fill="#E3E7F0"/>
<path d="M70.1733 157.887L77.5322 153.639V156.91L70.1733 161.115V157.887Z" fill="#E3E7F0"/>
<path d="M67.7061 99.2682L83.7001 90.093V93.3638L67.7061 102.539V99.2682Z" fill="#E3E7F0"/>
<path d="M67.8763 147.353L67.834 144.082L83.7855 134.865V138.135L67.8763 147.353Z" fill="#E3E7F0"/>
<path d="M44.4805 168.379V165.151L51.8822 160.86V164.131L44.4805 168.379Z" fill="#E3E7F0"/>
<path d="M70.0454 113.032L77.4046 108.826V112.139L70.0454 116.345V113.032Z" fill="#E3E7F0"/>
<path d="M83.6152 78.2425L70.854 85.6335V82.3204L83.6152 74.9294V78.2425Z" fill="#E3E7F0"/>
<path d="M83.7853 130.617L44.9912 152.96V149.646L83.7853 127.303V130.617Z" fill="#E3E7F0"/>
<path d="M79.3613 152.578L83.8277 149.987V153.257L79.3613 155.848V152.578Z" fill="#E3E7F0"/>
<path d="M54.7322 154.914L23.2544 173.051V169.781L54.7322 151.643V154.914Z" fill="#E3E7F0"/>
<path d="M44.353 123.565V120.337L51.7545 116.047V119.318L44.353 123.565Z" fill="#E3E7F0"/>
<path d="M31.762 115.707L23.0845 120.719V117.448L31.762 112.436V115.707Z" fill="#E3E7F0"/>
<path d="M83.7003 105.173L83.7429 108.486L79.2339 111.077V107.807L83.7003 105.173Z" fill="#E3E7F0"/>
<path d="M66.6856 118.298L23.1699 143.402V140.089L66.643 115.027L66.6856 118.298Z" fill="#E3E7F0"/>
<path d="M57.7525 93.1522L23.0845 113.159V109.846L57.7525 89.8813V93.1522Z" fill="#E3E7F0"/>
<path d="M42.524 109.506L35.1649 113.754L35.1226 110.483L42.4814 106.235L42.524 109.506Z" fill="#E3E7F0"/>
<path d="M54.6045 110.1L23.127 128.238V124.967L54.6045 106.829V110.1Z" fill="#E3E7F0"/>
<path d="M41.1202 170.333L23.2544 180.612V177.384L41.1202 167.062V170.333Z" fill="#E3E7F0"/>
<path d="M23.1695 135.799L23.127 132.571L40.9927 122.249V125.52L23.1695 135.799Z" fill="#E3E7F0"/>
<path d="M53.9082 72.1947C54.6808 71.224 55.3583 70.0854 55.8964 68.8647L55.9054 72.0444L53.911 73.1942L53.9082 72.1947Z" fill="#51383C"/>
<path d="M48.6082 77.8264C48.6131 77.8728 48.6133 77.9274 48.6182 77.9793C48.685 79.6641 49.817 80.39 51.1926 79.597L51.3497 79.5064C52.7253 78.7133 53.8447 76.6893 53.9112 74.9277L54.8203 74.4036C54.9164 74.6655 54.965 74.9821 54.966 75.3262C54.9718 77.3525 53.32 79.9515 51.2732 81.1315C49.2312 82.3088 47.5653 81.6225 47.5596 79.5962C47.5586 79.2521 47.6052 78.8806 47.7043 78.5062L48.6182 77.9793C48.6085 77.9302 48.6084 77.881 48.6082 77.8264Z" fill="#484188"/>
<path d="M48.606 75.2514C49.407 75.3322 50.3078 75.1182 51.2596 74.5694C52.2114 74.0207 53.1106 73.197 53.9085 72.1943L53.9113 73.1938L53.9158 74.7668C53.9159 74.8159 53.9161 74.8705 53.9115 74.9279C53.845 76.6895 52.7255 78.7135 51.3499 79.5066L51.1929 79.5972C49.8172 80.3902 48.6852 79.6643 48.6185 77.9795C48.6136 77.9276 48.6134 77.873 48.6133 77.8238L48.6088 76.2509L48.606 75.2514Z" fill="#F5C9C6"/>
<path d="M46.9194 74.5259C47.403 74.9393 47.9734 75.1868 48.606 75.2506L48.6089 76.2501L46.9333 77.216L46.9303 76.1401C46.9246 75.8315 46.9238 75.5202 46.9229 75.2089C46.9222 74.9808 46.9209 74.7532 46.9194 74.5259Z" fill="#51383C"/>
<path d="M57.0627 73.1111C57.1722 73.048 57.2674 72.9931 57.3674 72.941C59.4812 71.8645 61.3565 72.4355 62.0436 74.2933C59.2008 78.9028 55.4313 82.8813 51.2997 85.2633C47.1539 87.6536 43.3741 88.0274 40.5098 86.7027C41.1841 84.0601 43.05 81.3376 45.163 79.9772C45.2582 79.9168 45.3581 79.8592 45.4629 79.7988L47.7048 78.5063C47.6057 78.8807 47.5591 79.2522 47.5601 79.5963C47.5658 81.6226 49.2317 82.3088 51.2737 81.1316C53.3204 79.9516 54.9722 77.3526 54.9665 75.3263C54.9655 74.9822 54.9169 74.6656 54.8208 74.4037L57.0627 73.1111Z" fill="#6F68AF"/>
<path d="M49.0642 61.9581C49.15 61.9086 49.2357 61.8657 49.321 61.8298C50.0638 61.5109 50.732 61.7384 50.996 62.3904C51.0921 62.6304 51.1355 62.8078 51.1789 62.9743C51.42 63.9512 52.4086 64.5301 53.3803 64.2106C53.7309 64.0951 54.0865 63.9216 54.444 63.7155C54.9218 63.44 55.4029 63.1064 55.8792 62.7754L55.8965 68.8643C55.3584 70.0849 54.6809 71.2236 53.9083 72.1943C53.1104 73.1969 52.2113 74.0206 51.2595 74.5694C50.3076 75.1181 49.4068 75.3321 48.6058 75.2513C47.9732 75.1875 47.4028 74.94 46.9192 74.5266C46.9167 74.1334 46.9137 73.741 46.9126 73.3499C46.9043 72.1019 46.896 70.8594 46.8877 69.6223C46.8853 68.7703 46.8782 67.9265 46.8758 67.0799C46.8682 66.0941 46.8795 65.0263 47.3722 63.938C47.7536 63.094 48.4075 62.3367 49.0642 61.9581Z" fill="#F4D6D4"/>
<path d="M51.2025 55.3832C51.2224 55.3718 51.2424 55.3603 51.2623 55.3491C54.304 53.6283 57.21 54.4913 58.0716 57.3754C58.447 58.6142 58.4609 60.1543 58.4747 61.6672C58.5006 64.0485 58.4741 66.4654 58.4761 68.8604C58.4787 69.7998 57.8288 70.9349 57.0149 71.4042L56.9149 71.4618L55.9058 72.0436L55.8968 68.864L55.8795 62.775C55.4031 63.106 54.9221 63.4397 54.4442 63.7152C54.0868 63.9213 53.7311 64.0948 53.3805 64.2103C52.4088 64.5298 51.4203 63.9509 51.1791 62.9739C51.1357 62.8074 51.0923 62.6301 50.9963 62.39C50.7322 61.7381 50.0641 61.5105 49.3212 61.8294C49.2359 61.8653 49.1502 61.9082 49.0644 61.9577C48.4077 62.3364 47.7538 63.0936 47.3724 63.9377C46.8797 65.0259 46.8684 66.0937 46.876 67.0796C46.8784 67.9261 46.8856 68.7699 46.888 69.622C46.8963 70.859 46.9045 72.1016 46.9129 73.3496C46.914 73.7407 46.9169 74.133 46.9195 74.5263C46.9209 74.7536 46.9223 74.9812 46.9229 75.2093C46.9238 75.5206 46.9247 75.8319 46.9303 76.1405L46.9334 77.2164L45.6387 77.9629L45.5578 78.0095C44.7438 78.4788 44.0848 78.0983 44.0821 77.1643L44.0815 76.9513C44.0785 76.7362 44.0216 72.6476 43.9917 70.4985C43.9678 68.7836 43.9485 67.0277 44.3912 65.1148C45.2802 61.2652 48.1776 57.1271 51.2025 55.3832Z" fill="#8A4852"/>
<path d="M51.1928 47.9755C60.0748 42.8548 67.3193 47.0537 67.3485 57.349C67.3642 62.8545 65.3124 68.9938 62.0425 74.2927C61.3554 72.4349 59.4801 71.8639 57.3663 72.9403C57.2664 72.9925 57.1712 73.0474 57.0617 73.1105L54.8198 74.4031L53.9106 74.9272C53.9152 74.8698 53.9151 74.8152 53.9149 74.7661L53.9105 73.1931L56.914 71.4615L57.0139 71.4038C57.8279 70.9346 58.4778 69.7994 58.4752 68.86C58.4731 66.465 58.4996 64.0481 58.4738 61.6669C58.46 60.154 58.4461 58.6138 58.0707 57.3751C57.2091 54.491 54.3031 53.6279 51.2614 55.3487C48.1766 57.1268 45.2793 61.2649 44.3903 65.1145C43.9476 67.0274 43.9668 68.7833 43.9908 70.4982C44.0207 72.6473 44.0776 76.7358 44.0806 76.951L44.0812 77.164C44.0839 78.098 44.7429 78.4785 45.5568 78.0092L48.6079 76.2502L48.6124 77.8231C48.6078 77.8805 48.6079 77.9297 48.6176 77.9788L47.7037 78.5057L45.4618 79.7982C45.3571 79.8586 45.2571 79.9162 45.1619 79.9765C43.0489 81.337 41.183 84.0595 40.5087 86.7021C37.2147 85.193 35.1349 81.4356 35.1192 75.9302C35.09 65.6349 42.287 53.11 51.1928 47.9755Z" fill="#C7C1EF"/>
<path d="M146.658 32.888C146.658 34.4849 145.534 36.4271 144.151 37.2468L115.928 53.5179L107.76 67.631L103.956 65.4298L103.913 60.4235L102.746 61.1139C102.054 61.5454 101.406 61.5886 100.931 61.2864L97.1272 59.0856C96.6951 58.8263 96.3926 58.2655 96.3926 57.4455L96.3493 36.2543C96.306 34.6142 97.4731 32.672 98.8562 31.8952L140.261 8.02837C140.953 7.59662 141.601 7.55368 142.033 7.85556L145.793 10.0135C146.269 10.2295 146.615 10.8335 146.615 11.6968L146.658 32.888Z" fill="#8981CB"/>
<path d="M107.773 67.6475L103.957 65.4332L103.931 56.0239L107.746 58.2382L107.773 67.6475Z" fill="#BFBAEF"/>
<path d="M142.05 7.83595C141.589 7.56876 140.952 7.60923 140.245 8.01687L98.8475 31.8819C97.4529 32.6859 96.327 34.6333 96.3316 36.2655L96.3918 57.4525C96.3941 58.2574 96.6763 58.8214 97.1313 59.0856L100.947 61.2998C100.492 61.0356 100.21 60.4717 100.207 59.6667L100.147 38.4797C100.143 36.8475 101.269 34.9001 102.663 34.0961L144.06 10.2311C144.767 9.82357 145.405 9.78297 145.865 10.0502L142.05 7.83595Z" fill="#BFBAEF"/>
<path d="M144.06 10.2317C145.469 9.41966 146.602 10.0646 146.607 11.6968L146.667 32.8837C146.671 34.4999 145.545 36.4474 144.137 37.2594L115.919 53.5263L107.773 67.6472L107.746 58.2379L102.74 61.1244C101.345 61.9284 100.212 61.2835 100.207 59.6673L100.147 38.4803C100.142 36.8482 101.268 34.9007 102.663 34.0967L144.06 10.2317Z" fill="#8981CB"/>
<path d="M142.168 19.3764L105.018 40.8067V38.5434L142.168 17.1553V19.3764Z" fill="white"/>
<path d="M142.168 25.9016L105.018 47.3318V45.0685L142.168 23.6804V25.9016Z" fill="white"/>
<path d="M131.15 36.5464L105.018 51.5949V53.8584L131.15 38.784V36.5464Z" fill="white"/>
<line x1="2.78167" y1="33.5952" x2="104.095" y2="180.635" stroke="url(#paint0_linear_1_2480)" stroke-width="4" stroke-linecap="round"/>
<line x1="18.9016" y1="218.47" x2="90.97" y2="2.26491" stroke="url(#paint1_linear_1_2480)" stroke-width="4" stroke-linecap="round"/>
<defs>
<linearGradient id="paint0_linear_1_2480" x1="71.8306" y1="38.577" x2="58.0439" y2="200.663" gradientUnits="userSpaceOnUse">
<stop stop-color="#484188"/>
<stop offset="1" stop-color="#241E5B"/>
</linearGradient>
<linearGradient id="paint1_linear_1_2480" x1="19.8383" y1="58.7268" x2="126.454" y2="213.195" gradientUnits="userSpaceOnUse">
<stop stop-color="#484188"/>
<stop offset="1" stop-color="#241E5B"/>
</linearGradient>
</defs>
</svg>
