<svg width="145" height="220" viewBox="0 0 145 220" fill="none" xmlns="http://www.w3.org/2000/svg">
<path d="M144.99 154.257V156.996C144.99 157.338 144.755 157.68 144.285 157.949L141.281 159.588L141.386 160.223V162.987L135.562 162.669V162.693L132.114 164.552C131.148 165.09 129.581 165.09 128.615 164.552L116.236 157.851C115.739 157.607 115.478 157.265 115.478 156.898V154.159C115.478 153.817 115.739 153.474 116.209 153.205L128.38 146.603C129.346 146.065 130.913 146.065 131.879 146.579L144.258 153.279C144.755 153.548 144.99 153.915 144.99 154.257Z" fill="#484188"/>
<path d="M145 154.245V157.001C144.987 157.336 144.757 157.683 144.272 157.946L140.835 159.824V157.055L144.285 155.19C144.757 154.926 145 154.579 145 154.245Z" fill="#484188"/>
<path d="M141.398 160.219L141.394 162.979L135.571 162.679L135.576 159.919L141.398 160.219Z" fill="#8C85C8"/>
<path d="M135.572 159.915V162.683L132.11 164.561C131.152 165.088 129.581 165.088 128.61 164.561L116.232 157.863C115.733 157.6 115.491 157.253 115.491 156.906V154.15C115.491 154.497 115.733 154.844 116.232 155.107L128.61 161.805C129.581 162.319 131.152 162.331 132.11 161.805L135.572 159.915Z" fill="#484188"/>
<path d="M144.267 153.281C145.237 153.805 145.242 154.661 144.278 155.185L140.834 157.059L141.398 160.22L135.576 159.92L132.116 161.803C131.151 162.328 129.582 162.323 128.612 161.799L116.231 155.106C115.252 154.577 115.255 153.735 116.219 153.21L128.382 146.592C129.346 146.068 130.907 146.059 131.886 146.588L144.267 153.281Z" fill="#E7E4FF"/>
<path d="M137.71 154.842L132.982 155.64L131.533 158.193L128.658 155.999L123.695 156.039L126.656 153.885L125.058 151.353L129.766 152.21L133.727 150.595L133.663 153.287L137.71 154.842Z" fill="#8C85C8"/>
<path d="M127.992 164.559V167.629C127.992 168.013 127.728 168.397 127.201 168.699L123.834 170.536L123.951 171.248V174.347L117.421 173.99V174.017L113.556 176.101C112.472 176.704 110.715 176.704 109.632 176.101L95.7521 168.589C95.1958 168.315 94.9028 167.931 94.9028 167.52V164.449C94.9028 164.065 95.1958 163.681 95.7228 163.38L109.368 155.977C110.452 155.374 112.209 155.374 113.292 155.95L127.172 163.462C127.728 163.763 127.992 164.175 127.992 164.559Z" fill="#484188"/>
<path d="M128.003 164.546V167.636C127.989 168.012 127.731 168.4 127.187 168.695L123.334 170.801V167.697L127.201 165.605C127.731 165.31 128.003 164.921 128.003 164.546Z" fill="#484188"/>
<path d="M123.964 171.244L123.959 174.338L117.431 174.002L117.436 170.908L123.964 171.244Z" fill="#8C85C8"/>
<path d="M117.432 170.903V174.007L113.551 176.112C112.477 176.702 110.715 176.702 109.627 176.112L95.7477 168.602C95.1891 168.307 94.917 167.919 94.917 167.53V164.439C94.917 164.828 95.1891 165.217 95.7477 165.512L109.627 173.022C110.715 173.599 112.477 173.612 113.551 173.022L117.432 170.903Z" fill="#484188"/>
<path d="M127.181 163.465C128.269 164.053 128.275 165.012 127.194 165.6L123.332 167.701L123.964 171.245L117.436 170.909L113.557 173.02C112.476 173.608 110.716 173.604 109.628 173.015L95.7467 165.511C94.6493 164.918 94.6528 163.974 95.7339 163.386L109.371 155.966C110.452 155.377 112.202 155.367 113.299 155.961L127.181 163.465Z" fill="#E7E4FF"/>
<path d="M119.83 165.215L114.529 166.11L112.905 168.972L109.681 166.512L104.117 166.557L107.436 164.142L105.645 161.302L110.923 162.264L115.364 160.453L115.293 163.471L119.83 165.215Z" fill="#8C85C8"/>
<path d="M90.5434 138.157L12.9309 180.122C9.99878 177.008 8.80212 63.1193 12.5897 60.3986C16.252 55.627 64.1119 28.2493 90.2041 18.4275L90.5434 138.157Z" fill="#968ED2"/>
<path d="M14.349 191.352L1.79745 184.632C0.940579 184.166 0.408595 183.173 0.405716 181.762L0.379883 173.233L12.9286 179.951L19.6181 184.088C19.6238 185.498 13.4893 190.884 14.349 191.352Z" fill="#484188"/>
<path d="M90.5585 137.985L90.5843 146.516C90.5929 149.356 88.4612 152.814 85.8212 154.241L17.7487 191.039C15.1087 192.466 12.9631 191.321 12.9545 188.481L12.9287 179.95L90.5585 137.985Z" fill="#AAA0F5"/>
<path d="M12.929 181.144L0.378612 175.1L0.0263672 52.2791L12.5767 59.1688L12.929 181.144Z" fill="#484188"/>
<path d="M8.48389 177.531L12.9291 179.95L12.5768 60.3852L8.48389 58.1582V177.531Z" fill="#484188"/>
<path d="M88.7852 7.03283C88.3589 7.27239 22.4307 51.5526 12.5799 60.3765L0.0424257 53.6686L0 45.124C0 42.2893 2.13222 38.8555 4.77614 37.4179L72.8363 0.604487C74.1582 -0.114187 75.3524 -0.154154 76.2478 0.284995L88.7852 7.03283Z" fill="#484188"/>
<path d="M85.3864 7.33146C88.0264 5.90434 90.172 7.05007 90.1806 9.8895L90.2044 18.4275L12.5766 60.3853L12.5508 51.8541C12.5422 49.0147 14.6738 45.5568 17.3139 44.1297L85.3864 7.33146Z" fill="#AAA0F5"/>
<path d="M60.256 161.314C60.256 163.191 58.8489 165.467 57.1003 166.425L46.4393 172.175C44.691 173.133 43.2836 172.375 43.2836 170.498C43.2409 168.581 44.691 166.305 46.4393 165.347L57.0576 159.598C58.8062 158.639 60.256 159.398 60.256 161.314Z" fill="#484188"/>
<path d="M65.1683 23.5102C66.317 22.8892 67.2518 23.387 67.2555 24.6239C67.2593 25.8618 66.3306 27.3678 65.1819 27.9888C64.0322 28.6103 63.0965 28.1121 63.0928 26.8741C63.089 25.6372 64.0187 24.1317 65.1683 23.5102Z" fill="#31303E"/>
<path d="M59.5729 27.3533C60.3029 26.9587 60.8968 27.2756 60.8991 28.0609C60.9015 28.8463 60.3115 29.8032 59.5815 30.1978L36.8282 42.4976C36.0982 42.8922 35.5043 42.5754 35.502 41.79C35.4996 41.0047 36.0896 40.0478 36.8196 39.6532L59.5729 27.3533Z" fill="#31303E"/>
<path d="M22.975 34.3579C20.9826 33.299 17.6975 33.299 15.705 34.3579C13.9282 35.3159 13.7126 36.778 15.0588 37.8369C15.2205 37.6855 18.404 38.2857 18.6731 38.1342C20.6656 37.0756 18.4868 37.05 20.4793 38.1086C20.6945 38.26 23.4056 37.6855 23.6212 37.8369C24.9136 36.778 24.6983 35.3159 22.975 34.3579Z" fill="white"/>
<path d="M15.7048 37.3828C15.4356 37.5342 15.2203 37.6854 15.0586 37.8368C15.2203 37.9879 15.4356 38.1393 15.7048 38.2904C17.7511 39.3998 20.9823 39.3998 22.9748 38.2904C23.1901 38.1897 23.4054 38.0383 23.621 37.8872V37.8368C23.4054 37.6854 23.1901 37.5342 22.9748 37.3828C20.9823 36.3242 17.6972 36.3242 15.7048 37.3828Z" fill="#31303E"/>
<path d="M125.886 108.17C125.886 111.564 123.327 115.677 120.214 117.394L63.3692 148.098C61.7914 148.977 60.3413 149.057 59.3179 148.458C59.1899 148.418 59.1047 148.338 58.9767 148.258L55.7357 146.541C54.7549 145.982 54.1152 144.824 54.1152 143.107L54.0728 134.722L57.6547 136.639L125.843 99.7854L125.886 108.17Z" fill="#484188"/>
<path d="M59.3298 148.47L55.7531 146.543C54.7408 145.974 54.0997 144.805 54.0997 143.099L54.0659 134.727L57.6427 136.654V145.058C57.6765 146.733 58.2838 147.902 59.3298 148.47Z" fill="#484188"/>
<path d="M125.84 99.7681L125.865 108.182C125.875 111.566 123.342 115.675 120.196 117.376L63.3634 148.098C60.218 149.798 57.6675 148.437 57.6572 145.053L57.6318 136.663L125.84 99.7681Z" fill="#AAA0F5"/>
<path d="M120.353 9.44093C119.319 8.87871 117.889 8.9545 116.309 9.80867L59.4762 40.531C56.331 42.2313 53.7755 46.3755 53.7857 49.7364L54.0644 134.698L57.6318 136.639L123.92 11.382L120.353 9.44093Z" fill="#C8C3EF"/>
<path d="M125.804 99.7456L57.6154 136.639L57.3169 51.6722C57.3169 48.3184 59.8757 44.1657 63.0313 42.4488L119.876 11.7443C122.989 10.0274 125.548 11.4248 125.548 14.7788L125.804 99.7456Z" fill="#EDEEF2"/>
<path d="M71.7311 136.573C71.7311 139.009 69.8637 142.037 67.5627 143.286C65.2951 144.535 63.3945 143.505 63.3945 141.069C63.3611 138.572 65.2619 135.543 67.5295 134.294C69.8637 133.045 71.7311 134.044 71.7311 136.573Z" fill="white"/>
<path d="M69.7647 140.192L64.9238 140.793L69.7218 135.659L68.5224 138.828L69.7647 140.192Z" fill="#AAA0F5"/>
<path d="M112.344 111.046C112.847 110.774 113.251 111.007 113.253 111.549C113.254 112.09 112.853 112.741 112.35 113.013L76.8415 132.208C76.3383 132.48 75.9177 132.273 75.916 131.732C75.9144 131.191 76.3324 130.513 76.8355 130.241L112.344 111.046Z" fill="#E3E7F0"/>
<path d="M95.6589 125.055C96.162 124.783 96.5659 125.016 96.5676 125.558C96.5692 126.099 96.168 126.75 95.6648 127.022L76.8415 137.197C76.3383 137.469 75.9177 137.263 75.916 136.721C75.9144 136.18 76.3324 135.502 76.8355 135.23L95.6589 125.055Z" fill="#E3E7F0"/>
<path d="M78.6001 59.843C79.0877 59.2685 79.5153 58.5947 79.855 57.8723L79.8607 59.754L78.6019 60.4345L78.6001 59.843Z" fill="#51383C"/>
<path d="M75.2546 63.1763C75.2577 63.2038 75.2578 63.2361 75.2609 63.2668C75.3031 64.2638 76.0176 64.6935 76.8858 64.2241L76.985 64.1705C77.8532 63.7012 78.5598 62.5034 78.6017 61.4608L79.1756 61.1506C79.2362 61.3056 79.2669 61.493 79.2675 61.6967C79.2711 62.8958 78.2286 64.4339 76.9367 65.1323C75.6479 65.829 74.5964 65.4229 74.5928 64.2237C74.5922 64.0201 74.6216 63.8002 74.6841 63.5786L75.2609 63.2668C75.2548 63.2377 75.2547 63.2086 75.2546 63.1763Z" fill="#484188"/>
<path d="M75.2534 61.6524C75.759 61.7003 76.3276 61.5736 76.9283 61.2488C77.5291 60.9241 78.0966 60.4366 78.6002 59.8433L78.602 60.4347L78.6048 61.3656C78.6049 61.3947 78.605 61.4271 78.6021 61.461C78.5601 62.5035 77.8536 63.7014 76.9853 64.1707L76.8862 64.2243C76.0179 64.6937 75.3035 64.264 75.2613 63.267C75.2582 63.2363 75.2581 63.2039 75.258 63.1748L75.2552 62.2439L75.2534 61.6524Z" fill="#F5C9C6"/>
<path d="M74.189 61.2234C74.4942 61.4681 74.8542 61.6145 75.2535 61.6523L75.2553 62.2438L74.1977 62.8155L74.1958 62.1787C74.1923 61.9961 74.1917 61.8118 74.1911 61.6276C74.1907 61.4926 74.1899 61.3579 74.189 61.2234Z" fill="#51383C"/>
<path d="M83.7408 61.0762C81.9492 63.8194 79.5674 66.1679 76.9538 67.5692C74.34 68.9901 71.9582 69.2071 70.1455 68.4375C70.5671 66.8587 71.7475 65.2601 73.0754 64.451C73.1385 64.4115 73.2018 64.3721 73.2651 64.3523L74.6773 63.5826C74.614 63.7997 74.5929 64.0168 74.5929 64.2141C74.5929 65.418 75.6468 65.8325 76.9327 65.1417C78.2395 64.4312 79.2723 62.8919 79.2723 61.688C79.2723 61.4907 79.2301 61.313 79.1669 61.1552L80.6002 60.3855C80.6634 60.346 80.7267 60.3066 80.7899 60.2868C82.1178 59.6553 83.2981 59.9908 83.7408 61.0762Z" fill="#968ED2"/>
<path d="M75.5427 53.7854C75.5969 53.7561 75.651 53.7307 75.7048 53.7095C76.1737 53.5208 76.5954 53.6554 76.762 54.0413C76.8227 54.1833 76.8501 54.2883 76.8774 54.3868C77.0296 54.965 77.6536 55.3076 78.2669 55.1185C78.4882 55.0502 78.7127 54.9474 78.9383 54.8255C79.2399 54.6624 79.5435 54.465 79.8442 54.2691L79.8551 57.8726C79.5155 58.595 79.0878 59.2688 78.6002 59.8433C78.0966 60.4367 77.5291 60.9241 76.9283 61.2489C76.3275 61.5737 75.759 61.7003 75.2534 61.6525C74.8541 61.6147 74.4941 61.4683 74.1889 61.2236C74.1873 60.9909 74.1854 60.7587 74.1847 60.5272C74.1795 59.7887 74.1742 59.0533 74.169 58.3212C74.1675 57.817 74.1629 57.3176 74.1614 56.8166C74.1567 56.2332 74.1638 55.6012 74.4748 54.9572C74.7155 54.4577 75.1282 54.0095 75.5427 53.7854Z" fill="#F4D6D4"/>
<path d="M76.8922 49.8942C76.9047 49.8874 76.9174 49.8807 76.93 49.874C78.8498 48.8556 80.6839 49.3663 81.2278 51.0732C81.4647 51.8063 81.4735 52.7178 81.4822 53.6131C81.4985 55.0224 81.4818 56.4527 81.4831 57.8701C81.4848 58.426 81.0745 59.0978 80.5608 59.3756L80.4977 59.4097L79.8608 59.754L79.8551 57.8722L79.8442 54.2688C79.5435 54.4646 79.2399 54.6621 78.9383 54.8251C78.7127 54.9471 78.4882 55.0498 78.2669 55.1182C77.6536 55.3072 77.0296 54.9646 76.8774 54.3864C76.85 54.2879 76.8226 54.183 76.762 54.0409C76.5953 53.6551 76.1737 53.5204 75.7048 53.7091C75.651 53.7304 75.5968 53.7558 75.5427 53.7851C75.1282 54.0091 74.7155 54.4573 74.4748 54.9568C74.1638 55.6009 74.1566 56.2328 74.1614 56.8162C74.1629 57.3172 74.1675 57.8166 74.169 58.3208C74.1742 59.0529 74.1794 59.7883 74.1847 60.5269C74.1854 60.7583 74.1873 60.9905 74.1889 61.2232C74.1898 61.3578 74.1906 61.4925 74.191 61.6275C74.1916 61.8117 74.1922 61.9959 74.1957 62.1786L74.1976 62.8153L73.3805 63.2571L73.3294 63.2847C72.8157 63.5624 72.3997 63.3372 72.398 62.7845L72.3977 62.6584C72.3958 62.5311 72.3598 60.1115 72.3409 58.8396C72.3258 57.8247 72.3137 56.7855 72.5931 55.6535C73.1542 53.3752 74.9829 50.9263 76.8922 49.8942Z" fill="#8A4852"/>
<path d="M76.886 45.5105C82.492 42.48 87.0646 44.965 87.083 51.0578C87.0929 54.316 85.7979 57.9493 83.734 61.0852C83.3004 59.9858 82.1167 59.6479 80.7825 60.2849C80.7194 60.3158 80.6594 60.3483 80.5903 60.3856L79.1752 61.1505L78.6014 61.4607C78.6043 61.4268 78.6042 61.3945 78.6041 61.3654L78.6013 60.4345L80.497 59.4097L80.5601 59.3756C81.0739 59.0979 81.4841 58.4261 81.4824 57.8701C81.4811 56.4528 81.4979 55.0224 81.4816 53.6132C81.4728 52.7178 81.4641 51.8063 81.2271 51.0732C80.6833 49.3664 78.8491 48.8557 76.9293 49.874C74.9823 50.9263 73.1535 53.3753 72.5924 55.6535C72.313 56.7855 72.3251 57.8247 72.3403 58.8396C72.3592 60.1115 72.3951 62.5311 72.397 62.6585L72.3973 62.7845C72.399 63.3372 72.815 63.5624 73.3287 63.2847L75.2545 62.2437L75.2573 63.1746C75.2544 63.2085 75.2545 63.2376 75.2606 63.2667L74.6838 63.5785L73.2687 64.3434C73.2026 64.3792 73.1395 64.4133 73.0795 64.449C71.7458 65.2541 70.5681 66.8653 70.1425 68.4292C68.0634 67.5361 66.7506 65.3125 66.7408 62.0543C66.7223 55.9615 71.2649 48.5491 76.886 45.5105Z" fill="white"/>
<path d="M85.104 102.534C84.9555 102.874 84.7741 103.229 84.5927 103.584C82.5804 106.302 80.5186 108.31 78.5559 109.638C78.3745 109.777 78.1931 109.9 78.0116 110.008C77.7147 110.194 77.4178 110.364 77.1374 110.518C76.8241 110.688 76.5107 110.842 76.1973 110.981C75.9994 111.059 75.818 111.136 75.6365 111.213C73.113 112.186 70.8862 112.001 69.3029 110.842C67.7855 109.746 66.8783 107.769 66.8619 105.051C66.8453 98.9821 71.414 91.5693 77.0714 88.5116C84.8895 84.2802 90.6953 90.6119 85.104 102.534Z" fill="white"/>
<path d="M85.0942 102.538C84.1041 104.852 80.7796 108.119 78.5666 109.633V109.668C76.0759 111.531 72.0018 112.822 69.3379 110.862C69.5254 110.546 69.7129 110.23 69.9756 109.949C71.5887 107.912 73.8022 106.085 73.8397 105.98C73.9521 105.84 74.6649 105.102 74.7025 105.067L74.74 105.102C74.74 106.26 75.3625 106.897 76.5782 106.612C76.728 106.542 77.2248 106.385 77.291 106.261C77.9388 106.059 79.4669 104.247 79.4669 102.573V102.503C79.5045 102.467 79.8796 102.467 80.1422 102.467H80.3297C80.4048 102.503 82.5805 101.94 84.2312 102.222C84.5314 102.292 84.8691 102.397 85.0942 102.538Z" fill="#484188"/>
<path d="M79.5671 100.884L79.5717 102.399L79.5718 102.438L79.5719 102.475C79.5758 103.748 78.754 105.259 77.6488 106.13C77.4692 106.272 77.2821 106.396 77.0899 106.5C76.8922 106.607 76.7045 106.684 76.5242 106.737C76.0633 106.87 75.651 106.84 75.3265 106.668C74.8748 106.426 74.5939 105.907 74.5916 105.167L74.5914 105.091L74.5874 103.775C75.3221 104.299 76.2313 104.133 76.7229 103.98C76.8481 103.942 76.9755 103.888 77.1029 103.819C77.1953 103.769 77.2877 103.711 77.3791 103.645C78.3608 102.932 79.0746 101.862 79.5671 100.884Z" fill="#F5C9C6"/>
<path d="M77.1524 91.2519C81.399 88.9565 81.0981 92.8753 81.0822 93.0815C81.1168 93.7977 81.0671 94.4391 80.9777 94.9914C80.7479 96.4108 80.2804 97.2007 80.2557 97.2423C80.2872 97.1213 80.2985 96.8139 80.2886 96.4369C80.2629 95.4509 80.1711 93.6209 79.4453 94.3327C79.3334 94.4425 79.2576 94.5584 79.2536 94.5645C79.072 94.9171 78.8875 95.2262 78.7076 95.4959C77.9314 96.6595 77.2759 97.0664 77.2414 97.0878C77.1967 97.114 77.1528 97.1388 77.1091 97.1624C76.5734 97.452 76.1083 97.5467 75.7242 97.5425C74.9236 97.5337 74.4975 97.117 74.475 97.095C74.3761 97.0875 74.2885 97.1069 74.2109 97.1488C73.9512 97.2892 73.8047 97.6825 73.7269 98.1636C73.7248 98.1768 73.7228 98.1889 73.721 98.2012C73.5502 99.3169 73.7263 100.797 73.7356 100.875C73.7307 100.87 73.7258 100.864 73.7209 100.859C73.4541 100.472 73.4508 100.466 73.4475 100.459C73.4288 100.422 73.4254 100.415 73.4222 100.409C73.401 100.364 73.394 100.348 73.3872 100.333C73.3814 100.32 73.378 100.312 73.3748 100.305C73.3711 100.296 73.3676 100.288 73.364 100.28C73.2418 99.9891 73.1543 99.6546 73.0915 99.3062C72.8603 98.0245 72.9583 96.6306 72.9635 96.5572C73.1983 93.5633 76.5886 91.5753 76.767 91.4706C76.8996 91.392 77.0278 91.3192 77.1524 91.2519Z" fill="#8A4852"/>
<path d="M79.6134 94.2034C79.7648 94.1215 79.9302 94.1368 80.037 94.4546C80.1903 94.9111 80.2717 95.7799 80.2889 96.4369C80.2986 96.8157 80.2868 97.1242 80.2552 97.2427C80.256 97.2423 80.7482 96.4109 80.9779 94.9915C81.1625 94.8982 82.0052 94.5361 81.886 95.7798C81.7516 97.1763 80.4143 98.8023 80.344 98.8879C80.3311 98.9412 80.0866 99.9541 79.4762 101.166C78.9535 102.204 77.8833 103.793 76.7367 104.149C76.2632 104.296 75.3875 104.456 74.6798 103.951C74.3172 103.692 73.9987 103.258 73.8009 102.558C73.7254 102.535 72.2904 102.106 72.154 100.891C72.1121 100.523 72.2582 100.054 72.5521 99.6643C72.6428 99.5444 72.7628 99.4359 72.8838 99.3705C72.9546 99.3322 73.0257 99.3087 73.0917 99.3062C73.1545 99.6546 73.242 99.9892 73.3631 100.277C73.3678 100.288 73.3713 100.297 73.3749 100.305C73.3942 100.348 73.4012 100.364 73.4083 100.379C73.7358 100.875 73.5504 99.317 73.7212 98.2012C73.723 98.189 73.725 98.1768 73.7269 98.1647C73.8049 97.6829 73.9513 97.29 74.2109 97.1497C74.2885 97.1077 74.3762 97.0883 74.4752 97.0959C74.4977 97.1178 74.9237 97.5343 75.7244 97.5426C76.1085 97.5468 76.5736 97.4521 77.1093 97.1625C77.153 97.1389 77.197 97.1141 77.2416 97.0878C77.2761 97.0664 77.9316 96.6595 78.7078 95.4959C78.8879 95.2262 79.0727 94.9169 79.2546 94.5642C79.2585 94.5581 79.334 94.4424 79.4455 94.3328C79.4963 94.2829 79.5538 94.2356 79.6134 94.2034Z" fill="#F4D6D4"/>
<path d="M120.238 24.7304C120.78 24.4374 121.215 24.6891 121.217 25.2723C121.219 25.8557 120.786 26.5568 120.244 26.8499L91.5406 42.3664C90.9985 42.6595 90.5452 42.437 90.5435 41.8537C90.5417 41.2704 90.9921 40.54 91.5342 40.2469L120.238 24.7304Z" fill="#AEA6ED"/>
<path d="M120.238 31.5876C120.78 31.2945 121.215 31.5462 121.217 32.1295C121.219 32.7129 120.786 33.414 120.244 33.7071L91.5406 49.2236C90.9985 49.5166 90.5452 49.2942 90.5435 48.7108C90.5417 48.1276 90.9921 47.3972 91.5342 47.1041L120.238 31.5876Z" fill="#AEA6ED"/>
<path d="M120.238 38.445C120.78 38.152 121.215 38.4037 121.217 38.9869C121.219 39.5703 120.786 40.2714 120.244 40.5645L91.5406 56.081C90.9985 56.3741 90.5452 56.1517 90.5435 55.5683C90.5417 54.985 90.9921 54.2546 91.5342 53.9615L120.238 38.445Z" fill="#AEA6ED"/>
<path d="M120.238 45.302C120.78 45.0089 121.215 45.2606 121.217 45.8438C121.219 46.4272 120.786 47.1284 120.244 47.4214L91.5406 62.9379C90.9985 63.231 90.5452 63.0086 90.5435 62.4252C90.5417 61.842 90.9921 61.1115 91.5342 60.8184L120.238 45.302Z" fill="#AEA6ED"/>
<path d="M120.238 52.1591C120.78 51.8661 121.215 52.1178 121.217 52.701C121.219 53.2844 120.786 53.9855 120.244 54.2786L66.9532 83.0864C66.4111 83.3795 65.9578 83.1571 65.9561 82.5737C65.9543 81.9905 66.4047 81.26 66.9468 80.967L120.238 52.1591Z" fill="#AEA6ED"/>
<path d="M120.238 59.0163C120.78 58.7232 121.215 58.9749 121.217 59.5582C121.219 60.1416 120.786 60.8427 120.244 61.1358L66.9532 89.9436C66.4111 90.2367 65.9578 90.0142 65.9561 89.4309C65.9543 88.8476 66.4047 88.1172 66.9468 87.8241L120.238 59.0163Z" fill="#AEA6ED"/>
<path d="M120.238 67.5009C120.78 67.2079 121.215 67.4596 121.217 68.0428C121.219 68.6262 120.786 69.3273 120.244 69.6204L91.5406 85.1369C90.9985 85.43 90.5452 85.2076 90.5435 84.6242C90.5417 84.0409 90.9921 83.3105 91.5342 83.0174L120.238 67.5009Z" fill="#AEA6ED"/>
<path d="M120.238 74.3581C120.78 74.065 121.215 74.3168 121.217 74.9C121.219 75.4834 120.786 76.1845 120.244 76.4776L91.5406 91.9941C90.9985 92.2871 90.5452 92.0647 90.5435 91.4814C90.5417 90.8981 90.9921 90.1677 91.5342 89.8746L120.238 74.3581Z" fill="#AEA6ED"/>
<path d="M120.238 81.2153C120.78 80.9222 121.215 81.1739 121.217 81.7572C121.219 82.3405 120.786 83.0417 120.244 83.3348L91.5406 98.8513C90.9985 99.1443 90.5452 98.9219 90.5435 98.3385C90.5417 97.7553 90.9921 97.0249 91.5342 96.7318L120.238 81.2153Z" fill="#AEA6ED"/>
<path d="M120.238 88.0725C120.78 87.7794 121.215 88.0311 121.217 88.6143C121.219 89.1977 120.786 89.8989 120.244 90.1919L91.5406 105.708C90.9985 106.002 90.5452 105.779 90.5435 105.196C90.5417 104.612 90.9921 103.882 91.5342 103.589L120.238 88.0725Z" fill="#AEA6ED"/>
<path d="M120.238 94.9297C120.78 94.6366 121.215 94.8883 121.217 95.4715C121.219 96.0549 120.786 96.756 120.244 97.0491L66.9532 125.857C66.4111 126.15 65.9578 125.928 65.9561 125.344C65.9543 124.761 66.4047 124.031 66.9468 123.737L120.238 94.9297Z" fill="#AEA6ED"/>
<path d="M43.3631 90.7149C45.2312 89.7051 46.755 90.5182 46.7611 92.5279L46.8104 108.832C46.8165 110.842 45.3026 113.297 43.4346 114.307L28.2458 122.517C26.3777 123.527 24.8714 122.705 24.8653 120.695L24.8159 104.391C24.8099 102.381 26.3063 99.9354 28.1744 98.9256L43.3631 90.7149Z" fill="#DBA660"/>
<path d="M45.7572 90.4825L25.8424 122.744L22.9424 121.147C22.3455 120.828 21.9616 120.109 21.9616 119.111L21.9189 102.82C21.9189 100.824 23.4117 98.3481 25.288 97.3499L40.4694 89.1248C41.4074 88.6457 42.2604 88.6057 42.9001 88.9252L45.7572 90.4825Z" fill="#B2ADD8"/>
<path d="M43.3631 90.7149C45.2312 89.7051 46.755 90.5182 46.7611 92.5279L46.8104 108.832C46.8165 110.842 45.3026 113.297 43.4346 114.307L28.2458 122.517C26.3777 123.527 24.8714 122.705 24.8653 120.695L24.8159 104.391C24.8099 102.381 26.3063 99.9354 28.1744 98.9256L43.3631 90.7149Z" fill="white"/>
<path d="M45.7572 123.782L25.8424 156.004L22.9424 154.447C22.3455 154.087 21.9616 153.409 21.9616 152.41L21.9189 136.08C21.9189 134.083 23.4117 131.648 25.288 130.61L40.4694 122.424C41.4074 121.905 42.2604 121.865 42.9001 122.185L45.7572 123.782Z" fill="#B2ADD8"/>
<path d="M43.3631 123.989C45.2312 122.979 46.755 123.792 46.7611 125.802L46.8104 142.106C46.8165 144.115 45.3026 146.571 43.4346 147.581L28.2458 155.791C26.3777 156.801 24.8714 155.978 24.8653 153.969L24.8159 137.665C24.8099 135.655 26.3063 133.209 28.1744 132.2L43.3631 123.989Z" fill="white"/>
<path d="M45.672 57.1021L25.7572 89.364L22.8574 87.767C22.2603 87.4475 21.8764 86.7288 21.8764 85.7306L21.834 69.44C21.834 67.4036 23.3264 64.9681 25.2028 63.9699L40.3841 55.7447C41.3222 55.2256 42.1751 55.1857 42.7722 55.5451L45.672 57.1021Z" fill="#B2ADD8"/>
<path d="M43.2621 57.3184C45.1301 56.3086 46.6539 57.1217 46.66 59.1315L46.7094 75.4541C46.7155 77.4639 45.2016 79.9003 43.3335 80.9101L28.1447 89.1208C26.2767 90.1306 24.7704 89.3269 24.7643 87.317L24.7149 70.9945C24.7088 68.9847 26.2052 66.5389 28.0733 65.5291L43.2621 57.3184Z" fill="white"/>
<path d="M35.6915 65.71L37.8688 69.1113L42.7031 67.3232L39.2206 72.6677L40.061 77.2241L35.7274 77.1143L31.4242 81.7159L32.2255 76.3057L28.7207 74.595L33.5504 71.3572L35.6915 65.71Z" fill="#484188"/>
<path d="M36.7456 100.116C38.6392 99.0927 40.1727 99.9214 40.1788 101.953C40.1792 102.069 40.1746 102.181 40.1604 102.304C41.6649 101.622 42.8422 102.344 42.8472 103.994C42.8525 105.749 41.5473 107.865 39.9263 108.741L31.7242 113.175C30.1032 114.052 28.7846 113.353 28.7793 111.599C28.7753 110.279 29.5313 108.743 30.5959 107.69C30.7081 106.118 31.8825 104.298 33.3234 103.519C33.5279 103.408 33.7275 103.322 33.9175 103.266C34.5279 101.96 35.5628 100.756 36.7456 100.116Z" fill="#484188"/>
<path d="M35.7952 135.525C37.1875 134.772 38.2942 135.401 38.2987 136.86C38.3031 138.339 37.2038 140.141 35.8115 140.894C34.4373 141.637 33.3307 141.027 33.3262 139.548C33.3218 138.089 34.421 136.268 35.7952 135.525Z" fill="#484188"/>
<path d="M35.7821 132.087C32.4984 133.884 29.8545 138.196 29.8545 141.75C29.8545 145.264 35.5263 148.298 35.8248 148.458C36.1233 147.979 41.7948 138.835 41.7524 135.282C41.7524 131.768 39.0658 130.331 35.7821 132.087ZM35.8248 142.948C33.394 144.265 31.4323 143.227 31.3896 140.592C31.3896 137.997 33.3514 134.803 35.7821 133.485C38.2556 132.167 40.217 133.205 40.217 135.841C40.217 138.436 38.2556 141.63 35.8248 142.948Z" fill="#484188"/>
<path d="M108.309 175.754V179.073C108.309 179.488 108.024 179.903 107.455 180.229L103.814 182.215L103.941 182.986V186.335L96.8813 185.95V185.979L92.7028 188.232C91.5314 188.884 89.6321 188.884 88.4608 188.232L73.4558 180.111C72.8543 179.814 72.5376 179.399 72.5376 178.955V175.635C72.5376 175.22 72.8543 174.805 73.4241 174.479L88.1758 166.477C89.3473 165.824 91.2466 165.824 92.4178 166.447L107.423 174.568C108.024 174.894 108.309 175.339 108.309 175.754Z" fill="#484188"/>
<path d="M108.321 175.74V179.08C108.306 179.486 108.027 179.907 107.439 180.226L103.273 182.502V179.146L107.454 176.885C108.027 176.566 108.321 176.145 108.321 175.74Z" fill="#484188"/>
<path d="M103.956 182.982L103.951 186.327L96.8931 185.963L96.8984 182.618L103.956 182.982Z" fill="#8C85C8"/>
<path d="M96.8943 182.612V185.967L92.6981 188.243C91.5368 188.881 89.6322 188.881 88.4554 188.243L73.4513 180.125C72.8474 179.806 72.5532 179.385 72.5532 178.965V175.624C72.5532 176.044 72.8474 176.465 73.4513 176.784L88.4554 184.902C89.6322 185.526 91.5368 185.54 92.6981 184.902L96.8943 182.612Z" fill="#484188"/>
<path d="M107.433 174.57C108.609 175.206 108.616 176.243 107.447 176.879L103.273 179.15L103.956 182.982L96.8982 182.619L92.7043 184.901C91.5355 185.537 89.6336 185.531 88.4572 184.895L73.4501 176.783C72.2638 176.142 72.2675 175.121 73.4363 174.485L88.1789 166.463C89.3477 165.827 91.2396 165.816 92.4259 166.458L107.433 174.57Z" fill="#E7E4FF"/>
<path d="M99.4856 176.464L93.7542 177.431L91.9987 180.525L88.5133 177.866L82.498 177.915L86.0865 175.304L84.1502 172.234L89.8558 173.274L94.6578 171.316L94.5804 174.579L99.4856 176.464Z" fill="#8C85C8"/>
<path d="M63.4715 202.531V207.002C63.4715 207.562 63.0875 208.12 62.32 208.56L57.4158 211.235L57.5865 212.273V216.785L48.0767 216.266V216.306L42.4479 219.34C40.8698 220.219 38.3112 220.219 36.7334 219.34L16.5201 208.4C15.7098 208.001 15.2832 207.442 15.2832 206.843V202.371C15.2832 201.812 15.7098 201.253 16.4774 200.814L36.3495 190.033C37.9276 189.155 40.4861 189.155 42.0639 189.993L62.2773 200.933C63.0875 201.373 63.4715 201.972 63.4715 202.531Z" fill="#484188"/>
<path d="M63.488 202.512V207.013C63.4671 207.559 63.0916 208.126 62.299 208.555L56.688 211.622V207.101L62.3199 204.055C63.0916 203.625 63.488 203.059 63.488 202.512Z" fill="#484188"/>
<path d="M57.6064 212.268L57.5992 216.774L48.0918 216.285L48.099 211.779L57.6064 212.268Z" fill="#8C85C8"/>
<path d="M48.0941 211.769V216.289L42.4414 219.356C40.877 220.215 38.3114 220.215 36.7261 219.356L16.514 208.419C15.7005 207.989 15.3042 207.423 15.3042 206.856V202.356C15.3042 202.922 15.7005 203.488 16.514 203.918L36.7261 214.855C38.3114 215.695 40.877 215.714 42.4414 214.855L48.0941 211.769Z" fill="#484188"/>
<path d="M62.2909 200.936C63.8757 201.793 63.8841 203.19 62.3096 204.046L56.6864 207.106L57.6068 212.268L48.0995 211.778L42.4498 214.853C40.8754 215.709 38.3134 215.702 36.7286 214.845L16.5125 203.917C14.9144 203.053 14.9194 201.678 16.4939 200.821L36.3537 190.015C37.9281 189.159 40.4767 189.144 42.0748 190.008L62.2909 200.936Z" fill="#E7E4FF"/>
<path d="M51.5851 203.488L43.8644 204.791L41.4995 208.959L36.8043 205.377L28.7012 205.442L33.5352 201.925L30.9268 197.79L38.6129 199.19L45.0816 196.552L44.9774 200.948L51.5851 203.488Z" fill="#8C85C8"/>
<path d="M87.7318 188.913V192.731C87.7318 193.208 87.404 193.685 86.7488 194.06L82.5621 196.344L82.7079 197.23V201.082L74.5895 200.639V200.673L69.7843 203.263C68.4371 204.013 66.2529 204.013 64.9059 203.263L47.6501 193.924C46.9584 193.583 46.5942 193.106 46.5942 192.594V188.777C46.5942 188.3 46.9584 187.822 47.6137 187.448L64.5782 178.244C65.9254 177.494 68.1096 177.494 69.4565 178.21L86.7123 187.55C87.404 187.925 87.7318 188.436 87.7318 188.913Z" fill="#484188"/>
<path d="M87.7455 188.896V192.739C87.7276 193.205 87.4071 193.689 86.7305 194.056L81.9404 196.673V192.814L86.7483 190.214C87.4071 189.847 87.7455 189.363 87.7455 188.896Z" fill="#484188"/>
<path d="M82.7245 197.225L82.7183 201.071L74.6021 200.654L74.6082 196.807L82.7245 197.225Z" fill="#8C85C8"/>
<path d="M74.604 196.799V200.658L69.7784 203.276C68.4429 204.009 66.2527 204.009 64.8994 203.276L47.6446 193.939C46.9501 193.572 46.6118 193.089 46.6118 192.605V188.763C46.6118 189.247 46.9501 189.73 47.6446 190.097L64.8994 199.434C66.2527 200.151 68.4429 200.167 69.7784 199.434L74.604 196.799Z" fill="#484188"/>
<path d="M86.724 187.551C88.0769 188.283 88.0841 189.475 86.74 190.206L81.9395 192.818L82.7253 197.225L74.609 196.807L69.786 199.431C68.4419 200.163 66.2547 200.157 64.9018 199.425L47.6437 190.096C46.2794 189.358 46.2837 188.185 47.6278 187.453L64.5818 178.228C65.9259 177.497 68.1016 177.485 69.4658 178.222L86.724 187.551Z" fill="#E7E4FF"/>
<path d="M77.584 189.73L70.993 190.842L68.9741 194.4L64.9659 191.342L58.0483 191.398L62.1751 188.395L59.9483 184.865L66.5098 186.06L72.032 183.809L71.9431 187.561L77.584 189.73Z" fill="#8C85C8"/>
</svg>
