<svg width="175" height="220" viewBox="0 0 175 220" fill="none" xmlns="http://www.w3.org/2000/svg">
<path d="M92.2155 6.59606L13.5754 219.483L2.7629 213.387C1.33401 212.608 0.428995 210.912 0.428995 208.529L0.000471771 51.9692C-0.0472067 47.1111 3.52517 41.1987 7.90721 38.7698L75.7824 1.05064C78.0213 -0.186896 80.0217 -0.278649 81.4506 0.500406L92.2155 6.59606Z" fill="#484188"/>
<path d="M86.5835 7.14767C90.9804 4.70505 94.5244 6.64833 94.5388 11.5096L95 168.067C95.0142 172.887 91.4934 178.797 87.0964 181.239L19.1907 218.963C14.8315 221.384 11.2499 219.42 11.2357 214.601L10.7745 58.043C10.7601 53.1817 14.3186 47.2928 18.6778 44.8712L86.5835 7.14767Z" fill="#AAA0F5"/>
<path d="M68.5412 22.1802C69.2928 21.7627 69.8585 22.1142 69.861 22.9869C69.8634 23.7763 69.3016 24.7541 68.55 25.1716C67.8359 25.5683 67.2328 25.2376 67.2305 24.4482C67.2279 23.5756 67.8271 22.5769 68.5412 22.1802Z" fill="#484188"/>
<path d="M92.5764 159.653C92.5764 160.157 92.529 160.661 92.4336 161.165C91.8621 164.19 89.6709 167.399 87.0512 168.819L19.176 206.584C16.0798 208.28 13.6031 206.905 13.6031 203.559L13.3174 116.067L13.1743 66.5237C13.1743 63.1323 15.6513 59.0073 18.6998 57.2657L86.6224 19.5466C89.6709 17.8509 92.1478 19.2257 92.1478 22.6172L92.5764 159.653Z" fill="white"/>
<path d="M63.505 24.8533C64.3318 24.394 64.9726 24.7871 64.9752 25.6597C64.9779 26.5738 64.3413 27.6349 63.5146 28.0941L41.7937 40.1607C40.9669 40.62 40.3259 40.2686 40.3232 39.3546C40.3207 38.4819 40.9574 37.3791 41.7841 36.9199L63.505 24.8533Z" fill="#484188"/>
<path d="M36.7491 39.841C37.4632 39.4443 38.0663 39.7751 38.0689 40.6477C38.0712 41.4371 37.472 42.4358 36.7579 42.8325C36.0064 43.25 35.4032 42.9193 35.4009 42.1299C35.3983 41.2572 35.9975 40.2585 36.7491 39.841Z" fill="#484188"/>
<path d="M59.0519 187.012C60.9309 185.968 62.4389 186.795 62.4449 188.831C62.4509 190.867 60.9527 193.364 59.0737 194.408L47.161 201.026C45.2822 202.069 43.8117 201.222 43.8057 199.186C43.7997 197.15 45.2604 194.673 47.1392 193.63L59.0519 187.012Z" fill="#484188"/>
<path d="M7.71658 89.5048L7.6689 105.637C7.6689 106.004 7.52586 106.233 7.33544 106.371L6.28768 106.967L2.57227 86.8924L3.62032 86.2966C3.81074 86.2048 4.1442 86.2048 4.42997 86.3883L6.57346 87.5797C7.1927 87.9006 7.71658 88.8173 7.71658 89.5048Z" fill="#1D2943"/>
<path d="M5.49611 88.151C6.14625 88.5122 6.67227 89.3876 6.67015 90.1064L6.62263 106.233C6.62052 106.952 6.09107 107.24 5.44093 106.878L3.34184 105.7C2.69173 105.339 2.16683 104.465 2.16895 103.747L2.21647 87.6201C2.21858 86.9013 2.7469 86.6116 3.39702 86.9728L5.49611 88.151Z" fill="#AAA0F5"/>
<path d="M7.81133 66.4514L7.76394 82.5842C7.76394 82.9509 7.62091 83.2259 7.3828 83.3173L6.33475 83.9132L2.61963 63.839L3.66739 63.2432C3.90578 63.1517 4.19156 63.1517 4.52472 63.3349L6.62053 64.5266C7.28745 64.8933 7.81133 65.7641 7.81133 66.4514Z" fill="#1D2943"/>
<path d="M5.56251 65.1066C6.21265 65.4678 6.73867 66.3432 6.73655 67.062L6.68904 83.1885C6.68691 83.9073 6.15747 84.1964 5.50733 83.8352L3.40824 82.6569C2.75812 82.2958 2.23324 81.421 2.23536 80.7022L2.28287 64.5757C2.28499 63.8569 2.81331 63.5672 3.46342 63.9284L5.56251 65.1066Z" fill="#AAA0F5"/>
<path d="M78.6652 5.25756C76.8504 4.26636 73.8582 4.26636 72.0434 5.25756C70.425 6.15427 70.2286 7.52282 71.4549 8.51401C71.6022 8.37229 73.5086 8.95599 73.7538 8.81427C75.5686 7.82336 75.4694 7.54078 77.2842 8.53169C74.6983 9.24181 79.0574 8.37229 79.2537 8.51401C80.4309 7.52282 80.2348 6.15427 78.6652 5.25756Z" fill="white"/>
<path d="M72.0436 8.08888C71.7985 8.23061 71.6024 8.37204 71.4551 8.51376C71.6024 8.6552 71.7985 8.79692 72.0436 8.93835C73.9075 9.97679 76.8506 9.97679 78.6654 8.93835C78.8615 8.84416 79.0576 8.70244 79.254 8.561V8.51376C79.0576 8.37204 78.8615 8.23061 78.6654 8.08888C76.8506 7.09798 73.8584 7.09798 72.0436 8.08888Z" fill="#111D33"/>
<path d="M31.2666 61.8522C32.5085 61.1623 33.5249 61.7196 33.5289 63.0927L33.5619 74.2757C33.5659 75.6487 32.5561 77.3135 31.3142 78.0034L21.2161 83.6131C19.9742 84.303 18.9579 83.7639 18.9539 82.3908L18.9209 71.2078C18.9169 69.8348 19.9266 68.1519 21.1685 67.462L31.2666 61.8522Z" fill="#857BD6"/>
<path d="M68.8674 53.8853L68.875 56.4688L36.9139 74.2241L36.9062 71.6405L68.8674 53.8853Z" fill="#E3E7F0"/>
<path d="M86.8053 31.6689L86.8129 34.2704L36.8778 62.0107L36.8701 59.4093L86.8053 31.6689Z" fill="#E3E7F0"/>
<path d="M86.8233 37.7754L86.831 40.3769L36.8959 68.1172L36.8882 65.5157L86.8233 37.7754Z" fill="#E3E7F0"/>
<path d="M31.2666 84.0685C32.5085 83.3787 33.5249 83.9359 33.5289 85.309L33.5619 96.492C33.5659 97.865 32.5561 99.5298 31.3142 100.22L21.2161 105.829C19.9742 106.519 18.9579 105.98 18.9539 104.607L18.9209 93.4241C18.9169 92.0511 19.9266 90.3682 21.1685 89.6783L31.2666 84.0685Z" fill="#857BD6"/>
<path d="M68.8678 76.0996L68.8755 78.6832L36.9144 96.4385L36.9067 93.8549L68.8678 76.0996Z" fill="#E3E7F0"/>
<path d="M86.8057 53.8848L86.8134 56.4862L36.8783 84.2266L36.8706 81.6251L86.8057 53.8848Z" fill="#E3E7F0"/>
<path d="M86.8238 59.9912L86.8315 62.5927L36.8963 90.333L36.8887 87.7315L86.8238 59.9912Z" fill="#E3E7F0"/>
<path d="M31.2666 106.283C32.5085 105.593 33.5249 106.151 33.5289 107.524L33.5619 118.707C33.5659 120.08 32.5561 121.745 31.3142 122.435L21.2161 128.044C19.9742 128.734 18.9579 128.195 18.9539 126.822L18.9209 115.639C18.9169 114.266 19.9266 112.583 21.1685 111.893L31.2666 106.283Z" fill="#857BD6"/>
<path d="M68.8674 98.3154L68.875 100.899L36.9139 118.654L36.9062 116.071L68.8674 98.3154Z" fill="#E3E7F0"/>
<path d="M86.8053 76.0986L86.8129 78.7001L36.8778 106.44L36.8701 103.839L86.8053 76.0986Z" fill="#E3E7F0"/>
<path d="M86.8233 82.2061L86.831 84.8075L36.8959 112.548L36.8882 109.946L86.8233 82.2061Z" fill="#E3E7F0"/>
<path d="M31.2662 128.5C32.508 127.81 33.5244 128.368 33.5284 129.741L33.5614 140.924C33.5654 142.297 32.5556 143.961 31.3137 144.651L21.2156 150.261C19.9737 150.951 18.9574 150.412 18.9534 149.039L18.9204 137.856C18.9164 136.483 19.9262 134.8 21.168 134.11L31.2662 128.5Z" fill="#857BD6"/>
<path d="M68.8674 120.533L68.875 123.116L36.9139 140.872L36.9062 138.288L68.8674 120.533Z" fill="#E3E7F0"/>
<path d="M86.8053 98.3169L86.8129 100.918L36.8778 128.659L36.8701 126.057L86.8053 98.3169Z" fill="#E3E7F0"/>
<path d="M86.8228 104.423L86.8305 107.025L36.8954 134.765L36.8877 132.164L86.8228 104.423Z" fill="#E3E7F0"/>
<path d="M31.2666 150.716C32.5085 150.027 33.5249 150.584 33.5289 151.957L33.5619 163.14C33.5659 164.513 32.5561 166.178 31.3142 166.868L21.2161 172.477C19.9742 173.167 18.9579 172.628 18.9539 171.255L18.9209 160.072C18.9169 158.699 19.9266 157.016 21.1685 156.326L31.2666 150.716Z" fill="#857BD6"/>
<path d="M68.8674 142.748L68.875 145.331L36.9139 163.086L36.9062 160.503L68.8674 142.748Z" fill="#E3E7F0"/>
<path d="M86.8053 120.533L86.8129 123.134L36.8778 150.875L36.8701 148.273L86.8053 120.533Z" fill="#E3E7F0"/>
<path d="M86.8233 126.638L86.831 129.24L36.8959 156.98L36.8882 154.379L86.8233 126.638Z" fill="#E3E7F0"/>
<path d="M31.2666 172.932C32.5085 172.242 33.5249 172.799 33.5289 174.172L33.5619 185.355C33.5659 186.728 32.5561 188.393 31.3142 189.083L21.2161 194.693C19.9742 195.383 18.9579 194.843 18.9539 193.47L18.9209 182.287C18.9169 180.914 19.9266 179.231 21.1685 178.542L31.2666 172.932Z" fill="#857BD6"/>
<path d="M68.8674 164.964L68.875 167.548L36.9139 185.303L36.9062 182.72L68.8674 164.964Z" fill="#E3E7F0"/>
<path d="M86.8053 142.748L86.8129 145.349L36.8778 173.089L36.8701 170.488L86.8053 142.748Z" fill="#E3E7F0"/>
<path d="M86.8233 148.854L86.831 151.456L36.8959 179.196L36.8882 176.595L86.8233 148.854Z" fill="#E3E7F0"/>
<path d="M174.734 64.3501C177.543 116.928 157.88 161.995 125.108 197.673C113.872 198.612 103.572 197.673 96.0816 192.978L84.8455 186.406C67.9913 177.017 61.4369 152.606 63.3096 115.05C75.482 107.539 83.9091 89.7002 80.1638 77.4946C89.5272 66.2279 101.7 56.839 112.936 50.2667C124.172 43.6945 136.344 39.9389 146.644 39L158.816 45.5723C157.88 50.2667 157.88 54.9612 158.816 58.7167C160.689 58.7167 161.626 57.7778 163.498 56.839L174.734 64.3501Z" fill="#484188"/>
<path d="M162.5 66.0673L150 59.7927C152.885 61.5855 157.692 61.5855 162.5 58L175 64.2746C169.231 66.9637 165.385 67.86 162.5 66.0673Z" fill="#AAA0F5"/>
<path d="M124.204 58L112 51.3684C123.265 44.7368 135.469 40.9474 145.796 40L158 46.6316C147.673 46.6316 135.469 50.4211 124.204 58Z" fill="#AAA0F5"/>
<path d="M96.0372 192.647L83.8578 186.089C66.9941 175.784 60.436 152.362 62.3098 114.887L74.4891 121.445C72.6154 158.92 79.1735 183.279 96.0372 192.647Z" fill="#484188"/>
<path d="M74.4889 122.382L62.3096 115.824C74.4889 108.329 82.9207 90.528 79.1733 78.3486L91.3526 84.9067C96.037 97.0861 86.6682 114.887 74.4889 122.382Z" fill="#AAA0F5"/>
<path d="M91.3532 84.9071L79.1738 78.349C88.5426 67.1065 99.785 57.7378 111.964 51.1797L124.144 57.7378C111.964 64.2959 100.722 73.6646 91.3532 84.9071Z" fill="#484188"/>
<path d="M157.87 46.4951C154.123 60.5482 160.681 72.7276 174.734 64.2957C177.545 116.761 157.87 160.794 125.08 197.332C87.6051 202.016 71.6782 174.847 74.4888 122.382C86.6682 114.887 95.1001 97.0862 91.3526 84.9069C107.279 66.1694 133.512 47.432 157.87 46.4951Z" fill="#C8C4EC"/>
<path d="M149.439 54.9277C148.502 68.0439 155.06 78.3495 167.239 74.602C167.239 96.1501 163.492 116.761 156.934 135.499C149.439 154.236 139.133 171.1 124.143 187.964C94.1633 189.837 79.1733 169.226 81.0471 125.193C92.2896 114.888 100.721 98.0238 98.8477 83.9708C111.964 70.8545 131.638 57.7384 149.439 54.9277Z" fill="white"/>
<path d="M125.08 150.488C128.828 148.615 130.701 149.551 130.701 154.236C130.701 157.983 127.891 162.668 125.08 164.541C121.333 166.415 119.459 164.541 119.459 160.794C118.522 157.046 121.333 152.362 125.08 150.488Z" fill="#4F4A82"/>
<path d="M124.143 79.2856C130.701 75.5381 135.386 79.2856 134.449 86.7806L130.701 134.561C130.701 138.309 127.891 142.993 124.143 144.867C121.333 146.74 118.522 145.804 117.585 142.056L112.901 98.9599C112.901 92.4018 118.522 83.0331 124.143 79.2856Z" fill="#4F4A82"/>
<path d="M26.6712 76.9708C27.1853 76.7137 27.4424 76.8423 27.4424 77.485C27.4424 77.9992 27.0568 78.6419 26.6712 78.899C26.157 79.1561 25.8999 78.899 25.8999 78.3848C25.7714 77.8706 26.157 77.2279 26.6712 76.9708Z" fill="white"/>
<path d="M26.5425 67.2017C27.4423 66.6875 28.0851 67.2017 27.9565 68.2301L27.4423 74.7858C27.4423 75.3 27.0567 75.9427 26.5425 76.1998C26.1569 76.4569 25.7713 76.3283 25.6427 75.8141L25 69.9011C25 69.0013 25.7713 67.7159 26.5425 67.2017Z" fill="white"/>
<path d="M26.6712 98.9708C27.1853 98.7137 27.4424 98.8423 27.4424 99.485C27.4424 99.9992 27.0568 100.642 26.6712 100.899C26.157 101.156 25.8999 100.899 25.8999 100.385C25.7714 99.8706 26.157 99.2279 26.6712 98.9708Z" fill="white"/>
<path d="M26.5425 89.2017C27.4423 88.6875 28.0851 89.2017 27.9565 90.2301L27.4423 96.7858C27.4423 97.3 27.0567 97.9427 26.5425 98.1998C26.1569 98.4569 25.7713 98.3283 25.6427 97.8141L25 91.9011C25 91.0013 25.7713 89.7159 26.5425 89.2017Z" fill="white"/>
<path d="M26.6712 120.971C27.1853 120.714 27.4424 120.842 27.4424 121.485C27.4424 121.999 27.0568 122.642 26.6712 122.899C26.157 123.156 25.8999 122.899 25.8999 122.385C25.7714 121.871 26.157 121.228 26.6712 120.971Z" fill="white"/>
<path d="M26.5425 111.202C27.4423 110.688 28.0851 111.202 27.9565 112.23L27.4423 118.786C27.4423 119.3 27.0567 119.943 26.5425 120.2C26.1569 120.457 25.7713 120.328 25.6427 119.814L25 113.901C25 113.001 25.7713 111.716 26.5425 111.202Z" fill="white"/>
<path d="M26.6712 143.971C27.1853 143.714 27.4424 143.842 27.4424 144.485C27.4424 144.999 27.0568 145.642 26.6712 145.899C26.157 146.156 25.8999 145.899 25.8999 145.385C25.7714 144.871 26.157 144.228 26.6712 143.971Z" fill="white"/>
<path d="M26.5425 134.202C27.4423 133.688 28.0851 134.202 27.9565 135.23L27.4423 141.786C27.4423 142.3 27.0567 142.943 26.5425 143.2C26.1569 143.457 25.7713 143.328 25.6427 142.814L25 136.901C25 136.001 25.7713 134.716 26.5425 134.202Z" fill="white"/>
<path d="M26.6712 165.971C27.1853 165.714 27.4424 165.842 27.4424 166.485C27.4424 166.999 27.0568 167.642 26.6712 167.899C26.157 168.156 25.8999 167.899 25.8999 167.385C25.7714 166.871 26.157 166.228 26.6712 165.971Z" fill="white"/>
<path d="M26.5425 156.202C27.4423 155.688 28.0851 156.202 27.9565 157.23L27.4423 163.786C27.4423 164.3 27.0567 164.943 26.5425 165.2C26.1569 165.457 25.7713 165.328 25.6427 164.814L25 158.901C25 158.001 25.7713 156.716 26.5425 156.202Z" fill="white"/>
<path d="M26.6712 187.971C27.1853 187.714 27.4424 187.842 27.4424 188.485C27.4424 188.999 27.0568 189.642 26.6712 189.899C26.157 190.156 25.8999 189.899 25.8999 189.385C25.7714 188.871 26.157 188.228 26.6712 187.971Z" fill="white"/>
<path d="M26.5425 178.202C27.4423 177.688 28.0851 178.202 27.9565 179.23L27.4423 185.786C27.4423 186.3 27.0567 186.943 26.5425 187.2C26.1569 187.457 25.7713 187.328 25.6427 186.814L25 180.901C25 180.001 25.7713 178.716 26.5425 178.202Z" fill="white"/>
</svg>
