<svg width="171" height="220" viewBox="0 0 171 220" fill="none" xmlns="http://www.w3.org/2000/svg">
<path d="M83.6802 165.223L84.3409 164.031L153.689 203.105L153.028 204.296L83.6802 165.223Z" fill="#CEC5F7"/>
<path d="M51.677 179.092L30.4638 167.264C27.3044 165.444 27.3044 162.715 30.4638 160.895L83.2711 130.869C85.9792 129.504 90.0413 129.504 92.7494 130.869L113.963 142.697C117.122 144.517 117.122 147.247 113.963 149.067L61.1553 179.092C58.4472 180.457 54.3851 180.457 51.677 179.092ZM88.2359 130.869C86.8819 130.869 85.5279 131.324 84.1738 131.779L31.3665 161.805C29.5611 162.715 29.5611 164.534 31.3665 165.444L52.5797 177.273C54.8364 178.637 58.4472 178.637 60.7039 177.273L113.511 147.247C115.317 146.337 115.317 144.517 113.511 143.607L92.298 131.779C90.944 131.324 89.59 130.869 88.2359 130.869Z" fill="#CEC5F7"/>
<path d="M115.317 134.964V140.423C115.317 141.333 114.865 142.243 113.511 142.697L60.704 172.723C58.4473 174.088 54.3852 174.088 52.1285 172.723L30.9152 160.895C29.5612 159.985 29.1099 159.075 29.1099 158.165V153.161C29.1099 153.616 29.1099 154.071 29.5612 154.526C29.1099 154.071 29.1099 153.616 29.1099 153.161C29.1099 152.251 29.5612 151.341 30.9152 150.886L83.7226 120.861C85.9793 119.496 90.0414 119.496 92.2982 120.861L113.511 132.689C114.865 133.144 115.317 134.054 115.317 134.964Z" fill="#111D33"/>
<path d="M115.317 134.963V140.423C115.317 141.332 114.865 142.242 113.511 142.697L60.704 172.723C58.4473 174.088 54.3852 174.088 52.1285 172.723L30.9152 160.895C29.5612 159.985 29.1099 159.075 29.1099 158.165V153.161C29.1099 154.071 29.5612 154.981 30.9152 155.436L52.1285 167.264C54.3852 168.629 58.4473 168.629 60.704 167.264L113.511 137.693C114.865 136.783 115.317 135.873 115.317 134.963Z" fill="#484188"/>
<path d="M113.512 132.689C115.769 134.054 115.769 136.328 113.512 137.693L60.7045 167.719C58.4477 169.084 54.3856 169.084 52.1289 167.719L30.9157 155.891C28.659 154.526 28.659 152.251 30.9157 150.886L83.7231 120.861C85.9798 119.496 90.0419 119.496 92.2986 120.861L113.512 132.689Z" fill="#CEC5F7"/>
<path d="M53.4829 128.139L76.9528 114.491L85.077 119.041L62.0585 132.689L53.4829 128.139Z" fill="#E3E7F0"/>
<path d="M85.077 112.216V142.697L62.0585 156.345L53.4829 151.341V120.86L62.0585 125.864L85.077 112.216Z" fill="#DEDFFB"/>
<path d="M62.0586 125.864L85.0772 112.216V142.697L62.0586 156.345V125.864Z" fill="#F3F1FC"/>
<path d="M62.058 125.865V156.345L53.4824 151.341V120.86L62.058 125.865Z" fill="#484188"/>
<path d="M57.9961 143.152L50.3232 138.603L66.1203 129.504L73.7932 134.054L57.9961 143.152Z" fill="#FEFEFE"/>
<path d="M13.7643 169.538C13.313 169.083 13.313 169.083 13.313 169.083C13.313 169.083 13.313 169.083 13.7643 169.538Z" fill="#1D2943"/>
<path d="M123.892 99.4783C123.892 104.028 120.733 109.487 116.671 111.762L18.7289 169.084C16.9235 170.448 15.1182 170.448 13.7641 169.539C12.4101 168.629 13.3128 169.084 13.3128 169.084C13.3128 169.084 13.3128 169.084 13.7641 169.539L3.38319 163.624C2.02915 162.715 1.12646 161.35 1.12646 159.075V72.1821C1.12646 67.6327 4.28588 62.1735 8.34798 59.8988L105.838 2.12178C107.644 0.756967 109.449 0.756967 110.803 1.66684L121.184 7.58102C122.538 8.4909 123.441 9.85571 123.441 12.5853L123.892 99.4783Z" fill="#1D2943"/>
<path d="M12.8613 169.083L13.3127 169.538C13.3127 169.538 13.3127 169.538 12.8613 169.083Z" fill="#1D2943"/>
<path d="M0.675293 71.7271C0.675293 67.1778 3.8347 61.7185 7.89681 59.4438L105.839 2.12178C107.644 0.756967 109.449 0.756967 110.803 1.66684L121.636 8.03596C120.282 7.12609 118.476 7.58102 116.671 8.4909L18.7291 65.813C14.667 68.0877 11.5076 73.5469 11.5076 78.0963V164.989C11.5076 167.264 12.4103 168.629 13.7643 169.539L2.93202 163.169C1.57798 162.26 0.675293 160.895 0.675293 158.62V71.7271Z" fill="#484188"/>
<path d="M13.764 169.538C13.3127 169.083 13.3127 169.083 12.8613 169.083C13.3127 169.083 13.3127 169.083 13.764 169.538Z" fill="#9EA9C9"/>
<path d="M116.671 8.49051C120.733 6.21583 123.892 8.03557 123.892 12.5849V99.4779C123.892 104.027 120.733 109.487 116.671 111.761L18.7288 169.083C14.6667 171.358 11.5073 169.538 11.5073 164.989V78.0959C11.5073 73.5465 14.6667 68.0873 18.7288 65.8126L116.671 8.49051Z" fill="#1D2943"/>
<path d="M123.893 90.3799V99.4786C123.893 104.028 120.733 109.487 116.671 111.762L18.7294 169.084C16.924 170.449 15.1186 170.449 13.7646 169.539C12.4106 168.629 13.3133 169.084 13.3133 169.084C13.3133 169.084 13.3133 169.084 13.7646 169.539L3.38368 163.625C2.02964 162.715 1.12695 161.35 1.12695 159.075V149.977L11.5079 155.891L123.893 90.3799Z" fill="#9EA9C9"/>
<path d="M13.7648 169.539C13.3135 169.539 13.3135 169.539 13.7648 169.539C13.3135 169.084 13.3135 169.084 13.3135 169.084C13.3135 169.084 13.3135 169.084 13.7648 169.539Z" fill="#9EA9C9"/>
<path d="M11.5076 164.989V155.89L0.675293 149.521V158.62C0.675293 160.895 1.57798 162.26 2.93202 163.169L13.7643 169.539C12.4103 168.629 11.5076 167.264 11.5076 164.989Z" fill="#6C5DAC"/>
<path d="M123.892 90.3799V99.4786C123.892 104.028 120.733 109.487 116.671 111.762L18.7288 169.084C14.6667 171.359 11.5073 169.539 11.5073 164.99V155.891L123.892 90.3799Z" fill="#8772E4"/>
<path d="M71.0849 125.41C72.8903 124.045 74.6956 124.955 74.6956 127.684C74.6956 130.414 72.8903 132.689 71.0849 134.054C69.2795 135.418 67.4741 134.508 67.4741 131.779C67.4741 129.049 68.8282 126.32 71.0849 125.41Z" fill="#1D2943"/>
<path d="M120.282 88.5595L15.1182 149.976V78.096C15.1182 74.9114 17.8262 70.362 20.5343 68.5423L118.476 11.6752C119.379 11.2202 119.83 11.2202 119.83 11.2202C119.83 11.2202 120.282 11.6752 120.282 13.04V88.5595Z" fill="white"/>
<path d="M115.317 21.229L20.083 77.1863V80.8258L115.317 25.3234V21.229Z" fill="#7664C2"/>
<path d="M65.2175 60.3535L20.083 86.7399V90.8343L65.2175 64.4479V60.3535Z" fill="#E4E0F8"/>
<path d="M55.7393 65.8128V69.9072L115.317 34.877V31.2375L55.7393 65.8128Z" fill="#E4E0F8"/>
<path d="M31.818 99.478L20.083 106.302V110.397L31.818 103.572V99.478Z" fill="#B7A8F8"/>
<path d="M37.2344 96.2935V100.388L115.317 54.8942V50.7998L37.2344 96.2935Z" fill="#E4E0F8"/>
<path d="M65.6685 99.478V103.118L115.316 74.4565V70.3621L65.6685 99.478Z" fill="#E4E0F8"/>
<path d="M59.8014 102.662L20.083 125.864V129.959L59.8014 106.757V102.662Z" fill="#E4E0F8"/>
<path d="M115.317 80.3708L20.083 135.873V139.513L115.317 84.0104V80.3708Z" fill="#E4E0F8"/>
<path d="M115.317 60.3535L20.083 116.311V119.95L115.317 64.4479V60.3535Z" fill="#E4E0F8"/>
<path d="M115.317 40.7913L20.083 96.7485V100.388L115.317 44.8857V40.7913Z" fill="#E4E0F8"/>
<path d="M79.6609 50.8C80.5636 55.3494 82.8203 56.2593 86.4311 54.4395V81.2808C83.723 88.1049 76.9528 98.5684 67.4746 109.942C57.9963 109.487 51.2261 106.757 48.5181 103.118V76.2765C52.1288 74.0018 54.3856 70.3623 55.2882 64.9031L67.4746 57.6241L79.6609 50.8Z" fill="#8772E4"/>
<path d="M66.1204 106.303C59.3503 105.848 54.8368 104.028 52.5801 102.208V78.5516C55.7395 75.822 57.9962 72.1825 58.8989 67.6331L77.8554 56.7146C79.2094 58.5343 81.0148 59.4442 82.3688 59.4442V80.8263C80.1121 87.1954 73.7933 96.7491 66.1204 106.303Z" fill="white"/>
<path d="M70.6343 80.3705L71.9883 86.2847L63.8641 90.834C63.8641 90.3791 64.3155 88.1044 64.3155 88.5593C64.3155 88.1044 65.2182 83.555 64.7668 84.01V83.1001C63.8641 82.6452 62.9614 81.7353 62.9614 79.9155C62.9614 77.6408 64.3155 75.3662 65.6695 73.5464L67.4749 71.7267C67.9262 71.2717 68.8289 71.2717 69.2803 71.2717H69.7316C71.0856 71.2717 72.4397 72.6365 72.4397 74.4563C72.4397 76.731 71.537 78.5507 70.6343 80.3705Z" fill="#111D33"/>
<path d="M70.6337 80.371C71.5364 79.0062 72.4391 76.7315 72.4391 75.3667C72.4391 73.092 71.5364 72.1821 69.731 72.1821C69.731 72.1821 69.731 72.1821 69.2796 72.1821C71.085 74.0019 69.731 77.6414 68.377 79.9161L69.731 85.8302L71.9877 86.7401L70.6337 80.371Z" fill="#4C5C75"/>
<path d="M69.7308 85.3752L64.3146 88.5598C64.3146 89.0147 63.8633 91.2894 63.8633 90.8345L71.9875 86.2851L69.7308 85.3752Z" fill="#1D2943"/>
<path d="M68.3769 79.4606C68.3769 79.9155 69.7309 85.8297 69.7309 85.3748C69.2796 85.8297 63.8634 89.0143 64.3148 88.5593L65.2175 84.01V83.1001C64.3148 82.6451 63.4121 81.7353 63.4121 79.9155C63.4121 78.0958 64.3148 75.8211 66.1202 73.5464C66.5715 73.0915 67.4742 72.1816 67.9256 71.7267C68.3769 71.2717 69.2796 71.2717 69.7309 71.2717C71.085 73.5464 69.7309 77.1859 68.3769 79.4606Z" fill="#111D33"/>
<path d="M169.478 194.105C169.478 195.925 168.124 198.2 166.319 199.11L132.468 218.672C131.565 219.127 130.662 219.127 130.211 218.672L124.344 215.487C123.892 215.032 123.441 214.577 123.441 213.668V146.792C123.441 144.972 124.795 142.697 126.6 141.788L160.451 122.225C161.354 121.77 162.257 121.77 162.708 122.225L168.124 125.41H167.673H168.124C168.575 125.865 169.027 126.32 169.027 127.23L169.478 194.105Z" fill="#1D2943"/>
<path d="M168.124 125.41C167.673 124.955 166.77 124.955 165.868 125.41L132.017 144.972C130.211 145.882 128.857 148.157 128.857 149.976V216.852C128.857 217.762 129.309 218.672 129.76 218.672L123.892 215.487C123.441 215.032 122.99 214.577 122.99 213.667V146.792C122.99 144.972 124.344 142.697 126.149 141.332L160 121.77C160.903 121.315 161.805 121.315 162.257 121.77L168.124 125.41Z" fill="#8772E4"/>
<path d="M166.319 125.865C168.124 124.955 169.478 125.865 169.478 127.685V194.56C169.478 196.38 168.124 198.655 166.319 199.565L132.468 219.127C130.663 220.037 129.309 219.127 129.309 217.307V150.431C129.309 148.612 130.663 146.337 132.468 145.427L166.319 125.865Z" fill="#484188"/>
<path d="M166.319 130.869C167.222 130.414 167.673 130.869 167.673 131.779V193.65C167.673 194.56 167.222 195.925 166.319 196.38L132.468 215.942C131.566 216.397 131.114 215.942 131.114 215.032V153.161C131.114 152.251 131.566 150.886 132.468 150.431L166.319 130.869Z" fill="white"/>
<path d="M160 130.414C160.451 129.959 161.354 130.414 161.354 131.324C161.354 132.234 160.903 133.144 160 133.599C159.549 134.054 158.646 133.599 158.646 132.689C159.097 131.779 159.549 130.869 160 130.414Z" fill="#1D2943"/>
<path d="M162.708 129.504C163.16 129.504 163.16 129.504 163.16 129.959C163.16 130.414 162.708 130.869 162.708 130.869C162.257 130.869 162.257 130.869 162.257 130.414C162.257 130.414 162.708 129.959 162.708 129.504Z" fill="#1D2943"/>
<path d="M138.787 143.153C139.238 142.698 140.141 143.153 140.141 144.062C140.141 144.972 139.689 145.882 138.787 146.337C138.335 146.792 137.433 146.337 137.433 145.427C137.433 144.517 137.884 143.608 138.787 143.153Z" fill="#1D2943"/>
<path d="M136.079 145.427C136.53 145.427 136.53 145.427 136.53 145.882C136.53 146.337 136.079 146.792 136.079 146.792C135.627 146.792 135.627 146.792 135.627 146.337C135.176 145.882 135.627 145.427 136.079 145.427Z" fill="#1D2943"/>
<path d="M141.044 142.243C141.495 142.243 141.495 142.243 141.495 142.698C141.495 143.153 141.044 143.607 141.044 143.607C140.592 143.607 140.592 143.607 140.592 143.153C140.592 143.153 141.044 142.698 141.044 142.243Z" fill="#1D2943"/>
<path d="M157.292 133.144V134.054L142.849 142.243V141.333L157.292 133.144Z" fill="#1D2943"/>
<path d="M163.159 125.41C163.159 125.865 163.159 125.865 163.159 125.41C161.805 126.32 160.451 126.32 159.549 125.865C159.549 125.865 159.097 125.865 159.097 125.41C158.646 124.955 158.646 124.5 159.549 124.045C160.451 123.59 161.805 123.59 162.708 124.045C163.611 124.5 163.611 124.955 163.159 125.41Z" fill="#EDEEF2"/>
<path d="M163.159 125.409C163.159 125.864 163.159 125.864 163.159 125.409C161.805 126.319 160.451 126.319 159.549 125.864C159.549 125.864 159.097 125.864 159.097 125.409C159.097 125.409 159.097 125.409 159.549 124.954C160.451 124.499 162.257 124.499 163.159 125.409Z" fill="#111D33"/>
<path d="M124.344 154.071C124.344 153.616 124.795 153.161 124.795 153.161L125.698 152.706H126.6C127.503 153.161 127.955 154.526 127.955 155.435C127.955 155.89 127.955 156.345 127.503 156.345L126.6 156.8C126.149 157.255 125.698 157.255 125.246 156.8C124.795 155.89 124.344 154.98 124.344 154.071Z" fill="#1D2943"/>
<path d="M128.406 161.35C128.406 161.805 128.406 162.26 127.954 162.26L127.052 162.714C126.6 163.169 126.149 163.169 125.698 162.714C124.795 162.26 124.344 160.895 124.344 159.985C124.344 159.53 124.795 159.075 124.795 159.075L125.698 158.62H126.6C127.503 159.075 128.406 160.44 128.406 161.35Z" fill="#1D2943"/>
<path d="M128.406 154.981C128.406 155.436 128.406 155.89 127.955 155.89L127.052 156.345C127.503 156.345 127.503 155.89 127.503 155.436C127.503 154.526 127.052 153.161 126.149 152.706C125.698 152.706 125.247 152.251 125.247 152.706L126.149 152.251H127.052C127.503 153.161 128.406 154.071 128.406 154.981Z" fill="#3B3574"/>
<path d="M125.698 153.161C126.6 153.616 127.052 154.981 127.052 155.89C127.052 156.8 126.149 157.255 125.698 156.8C124.795 156.345 124.344 154.981 124.344 154.071C124.344 153.161 124.795 152.706 125.698 153.161Z" fill="#CEC5F7"/>
<path d="M128.406 161.35C128.406 161.805 128.406 162.26 127.955 162.26L127.052 162.715C127.503 162.715 127.503 162.26 127.503 161.805C127.503 160.895 127.052 159.53 126.149 159.075C125.698 159.075 125.247 158.62 125.247 159.075L126.149 158.62H127.052C127.503 159.075 128.406 160.44 128.406 161.35Z" fill="#3B3574"/>
<path d="M125.698 159.53C126.6 159.985 127.052 161.35 127.052 162.26C127.052 163.17 126.149 163.624 125.698 163.17C124.795 162.715 124.344 161.35 124.344 160.44C124.344 159.53 124.795 159.075 125.698 159.53Z" fill="#CEC5F7"/>
<path d="M149.168 146.337C153.23 144.062 156.39 145.882 156.39 150.431V156.345L153.682 157.71V151.796C153.682 148.611 151.425 147.702 148.717 149.066C146.009 150.431 143.752 154.526 143.752 157.255V161.805L141.044 163.169V158.62C141.947 154.526 145.106 149.066 149.168 146.337Z" fill="#484188"/>
<path d="M157.292 154.98C158.195 154.526 158.646 154.98 158.646 155.89V169.084C158.646 169.993 158.195 171.358 157.292 171.813L141.495 180.912C140.592 181.367 140.141 180.912 140.141 180.002V166.809C140.141 165.899 140.592 164.534 141.495 164.079L141.946 163.624L144.655 162.259L157.292 154.98Z" fill="#B7A8F8"/>
<path d="M149.619 166.809C150.522 165.899 150.973 164.079 150.071 163.169C149.619 163.169 149.619 163.169 149.168 163.624C147.814 164.534 146.911 165.899 146.911 167.264C146.911 168.173 147.362 168.628 147.814 168.628L147.362 170.903L150.071 169.538L149.619 166.809Z" fill="#111D33"/>
<path d="M150.522 167.264L150.973 169.993L147.362 172.268V171.813V171.358C147.362 170.903 147.814 168.628 147.814 169.083C147.362 169.083 146.911 168.173 146.911 167.719C146.911 166.809 147.362 165.899 148.265 164.534C148.717 164.079 148.717 164.079 149.168 163.624C149.619 163.624 149.619 163.169 150.071 163.169C151.425 163.169 152.327 164.989 150.522 167.264Z" fill="#111D33"/>
<path d="M150.522 167.264C151.876 165.444 151.876 163.169 150.071 163.169C150.974 164.079 150.522 165.899 149.62 166.809L150.071 169.538L150.974 169.993L150.522 167.264Z" fill="#484188"/>
<path d="M150.071 169.993L147.814 171.358V171.813L147.363 172.268L151.425 169.993H150.071Z" fill="#1D2943"/>
<path d="M149.619 166.808C149.619 167.263 150.071 169.993 150.071 169.538C149.619 169.993 146.911 171.358 147.362 170.903C147.362 170.448 147.814 168.173 147.814 168.628C147.362 168.628 146.911 168.173 146.911 167.263C146.911 166.353 147.362 165.443 148.265 164.079C148.717 163.624 148.717 163.624 149.168 163.169C149.619 163.169 149.619 162.714 150.071 162.714C150.973 164.079 150.522 165.898 149.619 166.808Z" fill="#111D33"/>
<path d="M149.168 183.187C153.23 180.912 156.841 182.732 156.841 187.281C156.841 191.83 153.681 197.745 149.168 200.019C145.106 202.294 141.495 200.474 141.495 195.925C141.946 191.375 145.106 185.461 149.168 183.187Z" fill="#484188"/>
<path d="M153.23 188.191L148.717 195.925C148.265 196.38 147.814 196.835 147.814 196.38L145.557 195.015C145.106 195.015 145.106 194.105 145.557 193.65C146.009 193.195 146.46 192.74 146.46 193.195L148.265 194.105L152.327 187.281C152.779 186.826 153.23 186.371 153.23 186.826C153.681 187.281 153.681 187.736 153.23 188.191Z" fill="white"/>
</svg>
