<svg width="174" height="215" viewBox="0 0 174 215" fill="none" xmlns="http://www.w3.org/2000/svg">
<path d="M100.522 7.12004L15.1472 214.605L2.36049 207.886C1.18024 207.259 0.491668 205.96 0.491668 204.078L0 51.2866C0 47.5687 2.85246 43.0445 6.44241 41.1632C19.8192 33.1452 33.0483 25.7093 46.0805 18.856C58.6211 12.2712 71.0142 6.2241 83.1616 0.803954C84.9811 -0.136541 86.6038 -0.226216 87.7841 0.400963L100.522 7.12004Z" fill="#484188"/>
<path d="M58.8321 25.6023C71.3935 18.9966 83.7691 12.9553 95.9476 7.53431C99.5111 5.66037 102.408 7.16403 102.42 10.8937L102.895 163.693C102.907 167.421 100.029 171.963 96.4652 173.837C83.5216 181.604 70.635 188.865 57.8116 195.608C45.0538 202.317 32.3585 208.515 19.7216 214.195C16.1581 216.068 13.2612 214.563 13.2496 210.835L12.774 58.0357C12.7624 54.3061 15.6405 49.7655 19.204 47.8916C32.5921 39.903 45.8117 32.4495 58.8321 25.6023Z" fill="#AAA1F5"/>
<path d="M99.7452 164.783C99.7452 166.978 98.0238 169.756 95.9584 170.831L19.2395 211.19C18.6984 211.459 18.1575 211.638 17.7639 211.638C16.5345 211.638 16.3871 210.339 16.3871 209.756L16.1905 147.583L15.9443 56.9199C15.8954 54.7699 17.6658 52.0376 19.7312 50.8729L32.6653 44.109L33.0588 45.0049C33.6981 46.3935 34.9765 47.1997 36.5503 47.1997C37.4847 47.1997 38.4191 46.931 39.3535 46.4383L76.877 26.6841C79.2867 25.43 81.4013 22.8319 82.1391 20.0996L82.8277 17.7254L96.45 10.5136C96.9912 10.2449 97.4337 10.1104 97.8764 10.1104C99.1059 10.1104 99.3025 11.4541 99.3025 11.9919L99.5483 103.729L99.7452 164.783Z" fill="white"/>
<path d="M42.6889 41.111C43.3842 40.0197 43.386 38.8381 42.6931 38.4718C42.0001 38.1055 40.8746 38.6932 40.1793 39.7844C39.4841 40.8756 39.4822 42.0572 40.1752 42.4235C40.8682 42.7898 41.9936 42.2022 42.6889 41.111Z" fill="#4C5C75"/>
<path d="M49.2687 34.5395C50.2498 34.0235 51.0501 34.4369 51.0533 35.4658C51.0565 36.4928 50.2614 37.7471 49.2803 38.2631C48.2971 38.78 47.4969 38.3647 47.4937 37.3377C47.4905 36.3088 48.2856 35.0565 49.2687 34.5395Z" fill="#4C5C75"/>
<path d="M74.4695 21.7959L74.4737 24.687L54.5857 35.1456L54.5815 32.2544L74.4695 21.7959Z" fill="#4C5C75"/>
<path d="M87.2787 8.51478C87.1078 8.76404 86.7999 8.98194 86.4237 9.16884C84.5427 10.1657 81.4987 10.1657 79.6519 9.16884C79.2756 8.98194 79.0021 8.76404 78.7627 8.51478C77.8049 7.58027 78.1128 6.39649 79.6177 5.58652C81.4645 4.58965 84.5427 4.58965 86.4237 5.58652C87.9285 6.36531 88.2362 7.54909 87.2787 8.51478Z" fill="white"/>
<path d="M87.2792 8.51573C87.1083 8.76499 86.8004 8.98289 86.4242 9.16979C84.5432 10.1667 81.4992 10.1667 79.6524 9.16979C79.2761 8.98289 79.0026 8.76499 78.7632 8.51573C78.9684 8.26646 79.2418 8.04838 79.6182 7.86148C81.465 6.89578 84.5432 6.89578 86.4242 7.86148C86.8004 8.04838 87.1083 8.26646 87.2792 8.51573Z" fill="#1D2943"/>
<path d="M9.68818 72.7889L9.63896 85.5104C9.63896 86.3167 9.34389 86.899 8.85193 87.1678L7.27817 87.974L3.44238 69.1157L4.96691 68.2647C5.45858 68.0407 6.14715 68.0407 6.93418 68.444C8.45871 69.2503 9.68818 71.2212 9.68818 72.7889Z" fill="#DEDFFB"/>
<path d="M5.38168 69.2772C4.61536 68.8742 3.92747 68.8406 3.42122 69.0936C2.91959 69.3589 2.60895 69.9205 2.60647 70.7177L2.56691 83.428C2.56191 85.0321 3.79614 86.9792 5.32408 87.7827C6.09036 88.1857 6.78294 88.2266 7.2892 87.9687C7.79081 87.7083 8.10145 87.1467 8.10396 86.3398L8.14353 73.6294C8.1485 72.0303 6.91429 70.0831 5.38168 69.2772Z" fill="white"/>
<path d="M9.63878 96.0378L9.58955 108.759C9.58955 109.566 9.24527 110.103 8.7536 110.372L7.22907 111.223L3.34375 92.3199L4.91751 91.5136C5.40918 91.2449 6.09775 91.2897 6.83555 91.693C8.40931 92.4992 9.63878 94.4701 9.63878 96.0378Z" fill="#DEDFFB"/>
<path d="M5.30991 92.5117C4.54359 92.1087 3.85571 92.0702 3.34944 92.3281C2.84782 92.5934 2.53717 93.155 2.53469 93.9521L2.49513 106.662C2.49014 108.267 3.72436 110.214 5.25231 111.017C6.01859 111.42 6.71117 111.461 7.21743 111.203C7.71905 110.938 8.02968 110.381 8.03219 109.574L8.07175 96.8639C8.07673 95.2647 6.84251 93.3176 5.30991 92.5117Z" fill="white"/>
<path d="M144.668 124.054C144.668 127.266 142.224 131.119 139.43 132.404L46.8953 181.541C45.1494 182.504 43.7526 182.504 43.0542 181.862L34.3246 177.366C33.277 176.723 32.5786 175.76 32.5786 174.154V100.61L41.3083 105.106L51.4347 99.6463C52.1331 99.3252 52.4823 98.3617 52.4823 97.7194V95.4713C52.4823 94.829 53.1807 93.8655 53.8791 93.5444L72.7352 83.2675C73.4336 82.9463 74.1319 83.2675 74.1319 83.9098V86.479C74.1319 87.1213 74.4811 87.4425 75.1795 87.1213L77.2746 86.1578L144.319 50.5098L144.668 124.054Z" fill="#DEDFFB"/>
<path d="M43.0542 181.862L34.3246 177.366C33.277 176.723 32.5786 175.76 32.5786 174.154V100.61L41.3083 105.106L41.6575 178.329C41.3083 180.256 42.0067 181.219 43.0542 181.862Z" fill="#DEDFFB"/>
<path d="M72.7355 83.2675C73.4339 82.9463 73.7831 83.2675 73.7831 83.9098V86.479C73.7831 87.1213 74.4815 87.4425 75.1799 87.1213L77.275 86.1578L144.319 50.5098L144.668 124.054C144.668 127.266 142.224 131.119 139.43 132.404L46.5465 181.541C43.753 183.146 41.3087 181.862 41.3087 178.65L40.9595 105.427L51.0859 99.9675C51.7843 99.6463 52.1335 98.6828 52.1335 98.0405V95.4713C52.1335 94.829 52.8319 93.8655 53.181 93.5444L72.7355 83.2675Z" fill="#F3F1FC"/>
<path d="M144.319 50.5097L77.2746 85.8367L75.1795 86.8001C74.4811 87.1213 74.1319 86.8001 74.1319 86.1578V83.5886C74.1319 82.9463 73.4336 82.6251 72.7352 82.9463L53.8791 93.5443C53.1807 93.8655 52.4823 94.829 52.4823 95.4713V98.0405C52.4823 98.6828 52.1331 99.6463 51.4347 99.9674L41.3083 105.427L32.5786 100.931V86.479C32.5786 83.2674 35.0229 79.4136 37.8164 77.8078L130.351 28.6713C131.748 28.029 133.145 27.7078 134.192 28.3501L142.573 32.8463C143.62 33.1674 144.319 34.452 144.319 36.0578V50.5097Z" fill="#AAA0F5"/>
<path d="M142.922 32.8463C141.874 32.204 140.478 32.5251 139.081 33.1674L46.5461 82.304C43.7526 83.9097 41.3083 87.7636 41.3083 90.654V105.106L32.5786 100.61V86.1578C32.5786 82.9463 35.0229 79.0924 37.8164 77.8078L130.351 28.6713C131.748 28.029 133.145 27.7078 134.192 28.3501L142.922 32.8463Z" fill="#484188"/>
<path d="M139.081 33.1674C141.875 31.5616 144.319 32.8462 144.319 36.0578V50.5097L77.2749 85.8366L75.1797 86.8001C74.4814 87.1212 73.783 86.8001 73.783 86.1578V83.5885C73.783 82.9462 73.0846 82.6251 72.7354 82.9462L53.8793 93.5443C53.1809 93.8655 52.8317 94.8289 52.8317 95.4712V98.0405C52.8317 98.6828 52.1333 99.6462 51.7842 99.9674L41.6577 105.427V90.9751C41.6577 87.7635 44.102 83.9097 46.8955 82.6251L139.081 33.1674Z" fill="#AAA0F5"/>
<path d="M140.128 57.2539L140.478 125.981C140.478 126.623 140.128 127.265 139.43 127.587L46.5461 176.723C45.8477 177.044 45.4985 176.723 45.4985 176.081V107.354L140.128 57.2539Z" fill="white"/>
<path d="M113.59 53.4004C115.336 52.4369 117.082 53.0792 117.082 55.3273C117.082 57.2542 115.685 59.8234 113.59 60.7869C111.844 61.7504 110.098 61.1081 110.098 58.86C110.098 56.933 111.495 54.3638 113.59 53.4004Z" fill="white"/>
<path d="M124.415 47.6191C126.161 46.6556 127.907 47.2979 127.907 49.546C127.907 51.473 126.51 54.0422 124.415 55.0056C122.669 55.9691 120.923 55.3268 120.923 53.0787C121.273 51.1518 122.669 48.5826 124.415 47.6191Z" fill="white"/>
<path d="M135.589 41.8383C137.335 40.8749 139.081 41.5172 139.081 43.7653C139.081 45.6922 137.684 48.2614 135.589 49.2249C133.843 50.1883 132.097 49.546 132.097 47.298C132.097 45.0499 133.843 42.8018 135.589 41.8383Z" fill="white"/>
<path d="M62.6087 109.923C62.6087 110.887 62.2595 111.529 61.5611 112.492C60.8627 113.456 60.1644 114.098 59.1168 114.419C58.0692 115.062 57.0217 115.383 56.3233 115.383H55.9741V115.062C55.9741 114.74 55.9741 114.74 55.9741 114.419C55.9741 114.098 56.3233 114.098 56.3233 114.098H56.6725C57.3709 114.098 58.0692 113.777 58.7676 113.456C59.466 113.135 60.1644 112.813 60.5136 112.171C60.8627 111.85 61.2119 111.208 61.2119 110.565C61.2119 109.281 60.1644 109.281 58.4184 110.244H58.0692H57.7201L57.3709 109.923C57.3709 109.923 57.3709 109.602 57.7201 109.281C57.7201 108.96 58.0692 108.96 58.0692 108.96C59.1168 108.638 59.466 107.996 60.1644 107.354C60.5136 106.712 60.8627 106.39 60.8627 105.748C60.8627 105.427 60.5136 105.106 60.1644 105.106C59.8152 105.106 59.466 105.106 58.7676 105.427C58.0692 105.748 57.3709 106.39 56.6725 107.033C56.6725 107.033 56.3233 107.033 56.3233 107.354H55.9741C55.9741 107.354 55.9741 107.354 55.9741 107.033C55.9741 106.712 55.9741 106.712 56.3233 106.39C57.0217 105.427 58.0692 104.785 59.1168 104.142C60.1644 103.5 60.8627 103.5 61.5611 103.5C62.2595 103.5 62.2595 104.142 62.2595 104.785C62.2595 105.427 62.2595 106.069 61.9103 106.712C61.5611 107.033 61.2119 107.675 60.8627 107.996H62.2595C62.2595 108.638 62.6087 108.96 62.6087 109.923Z" fill="#C9CEE2"/>
<path d="M70.6402 107.675V108.317C70.6402 108.638 70.291 108.638 70.291 108.638L66.1007 110.886C65.7515 110.886 65.7515 110.886 65.7515 110.886V110.565C65.7515 110.244 65.7515 110.244 65.7515 109.923C65.7515 109.602 66.1007 109.602 66.1007 109.602L67.4975 108.638V101.573L66.1007 102.858L65.7515 103.179C65.4023 103.179 65.4023 103.179 65.4023 103.179V102.858C65.4023 102.536 65.4023 102.215 65.7515 101.894L67.4975 99.9672L67.8467 99.646H68.1958H68.545L68.8942 99.9672V107.996L70.291 107.354H70.6402V107.675Z" fill="#C9CEE2"/>
<path d="M75.8782 105.427C76.9257 104.784 77.9733 103.821 78.6717 102.536C79.37 101.252 79.7192 99.967 79.7192 98.3612C79.7192 96.7555 79.37 95.792 78.6717 95.1497C77.9733 94.5074 77.2749 94.5074 75.8782 95.1497C74.8306 95.792 73.783 96.7555 73.0847 98.0401C72.3863 99.3247 72.0371 100.609 72.0371 102.215C72.0371 103.821 72.3863 104.784 73.0847 105.427C73.783 106.069 74.8306 106.069 75.8782 105.427ZM77.6241 96.7555C77.9733 97.0766 78.3225 98.0401 78.3225 99.3247C78.3225 100.609 77.9733 101.573 77.6241 102.536C77.2749 103.5 76.5765 104.142 75.8782 104.463C75.1798 104.784 74.4814 104.784 74.1322 104.463C73.783 104.142 73.4339 103.179 73.4339 101.894C73.4339 100.609 73.783 99.6459 74.1322 98.6824C74.4814 97.7189 75.1798 97.0766 75.8782 96.7555C76.9257 96.1132 77.2749 96.1132 77.6241 96.7555Z" fill="#C9CEE2"/>
<path d="M87.401 98.6828C87.401 99.0039 87.401 99.0039 87.0518 99.3251C87.0518 99.6463 86.7026 99.6463 86.7026 99.6463L82.5123 101.894C82.1632 101.894 82.1632 101.894 82.1632 101.894L81.814 101.573C81.814 101.252 81.814 101.252 82.1632 100.931C82.1632 100.61 82.5123 100.61 82.5123 100.61L83.9091 99.6463V92.5809L82.5123 93.8655L82.1632 94.1866C81.814 94.1866 81.814 94.1866 81.814 94.1866V93.8655C81.814 93.5443 81.814 93.2232 82.1632 93.2232L83.9091 91.2963L84.2583 90.9751H84.6075H84.9567L85.3058 91.2963V99.3251L86.7026 98.6828H87.0518C87.401 98.3616 87.401 98.6828 87.401 98.6828Z" fill="#C9CEE2"/>
<path d="M92.6389 96.7557C93.6865 96.1134 94.734 95.15 95.4324 93.8653C96.1308 92.5807 96.48 91.2961 96.48 89.6903C96.48 88.0846 96.1308 87.1211 95.4324 86.4788C94.734 85.8365 94.0357 85.8365 92.6389 86.4788C91.5914 87.1211 90.5438 88.0846 89.8454 89.3692C89.147 90.6538 88.7979 91.9384 88.7979 93.5442C88.7979 95.15 89.147 96.1134 89.8454 96.7557C90.5438 97.398 91.5914 97.0769 92.6389 96.7557ZM94.3849 87.7634C94.734 88.0846 95.0832 89.048 95.0832 90.3326C95.0832 91.6173 94.734 92.5807 94.3849 93.5442C94.0357 94.5076 93.3373 95.15 92.6389 95.4711C91.9405 95.7923 91.2422 95.7923 90.893 95.4711C90.5438 95.15 90.1946 94.1865 90.1946 92.9019C90.1946 91.6173 90.5438 90.6538 90.893 89.6903C91.2422 88.7269 91.9405 88.0846 92.6389 87.7634C93.3373 87.4423 94.0357 87.4423 94.3849 87.7634Z" fill="#C9CEE2"/>
<path d="M104.162 90.0113C104.162 90.3324 104.162 90.3324 103.813 90.6536C103.813 90.9747 103.463 90.9747 103.463 90.9747L99.2731 92.9017H98.924V92.5805C98.924 92.5805 98.924 92.2593 98.924 91.9382C98.924 91.617 99.2731 91.617 99.2731 91.617L100.67 90.6536V83.5882L99.2731 84.8728L98.924 85.194H98.5748L98.2256 84.8728C98.2256 84.5517 98.2256 84.2305 98.5748 84.2305L100.321 82.3036L100.67 81.9824H101.019H101.368L101.717 82.3036V90.3324L103.114 89.6901H103.463C103.813 89.6901 104.162 89.6901 104.162 90.0113Z" fill="#C9CEE2"/>
<path d="M109.4 87.7635C110.447 87.1212 111.495 86.1578 112.193 84.8732C112.892 83.5885 113.241 82.3039 113.241 80.6982C113.241 79.0924 112.892 78.1289 112.193 77.4866C111.495 76.8443 110.796 76.8443 109.4 77.4866C108.352 78.1289 107.305 79.0924 106.606 80.377C105.908 81.6616 105.559 82.9462 105.559 84.552C105.559 86.1578 105.908 87.1212 106.606 87.7635C107.305 88.4059 108.352 88.4059 109.4 87.7635ZM111.146 78.7712C111.495 79.0924 111.844 80.0558 111.844 81.3405C111.844 82.6251 111.495 83.5885 111.146 84.552C110.796 85.5155 110.098 86.1578 109.4 86.4789C108.701 86.8001 108.003 86.8001 107.654 86.4789C107.305 86.1578 106.955 85.1943 106.955 83.9097C106.955 82.6251 107.305 81.6616 107.654 80.6982C108.003 79.7347 108.701 79.0924 109.4 78.7712C110.098 78.4501 110.796 78.4501 111.146 78.7712Z" fill="#C9CEE2"/>
<path d="M117.781 83.2674C118.828 82.6251 119.876 81.6617 120.574 80.3771C121.272 79.0924 121.622 77.8078 121.622 76.2021C121.622 74.5963 121.272 73.6328 120.574 72.9905C119.876 72.3482 119.177 72.3482 117.781 72.9905C116.733 73.6328 115.685 74.5963 114.987 75.8809C114.289 77.1655 113.939 78.4501 113.939 80.0559C113.939 81.6617 114.289 82.6251 114.987 83.2674C115.685 83.9098 116.733 83.9098 117.781 83.2674ZM119.526 74.5963C119.876 74.9174 120.225 75.8809 120.225 77.1655C120.225 78.4501 119.876 79.4136 119.526 80.3771C119.177 81.3405 118.479 81.9828 117.781 82.304C117.082 82.6251 116.384 82.6251 116.035 82.304C115.685 81.9828 115.336 81.0194 115.336 79.7348C115.336 78.4501 115.685 77.4867 116.035 76.5232C116.384 75.5598 117.082 74.9174 117.781 74.5963C118.479 73.954 119.177 73.954 119.526 74.5963Z" fill="#C9CEE2"/>
<path d="M128.955 76.523V77.1653C128.955 77.4864 128.605 77.4864 128.605 77.4864L124.415 79.7345C124.066 79.7345 124.066 79.7345 124.066 79.7345L123.717 79.4134C123.717 79.4134 123.717 79.0922 124.066 78.7711C124.066 78.4499 124.415 78.4499 124.415 78.4499L125.812 77.4864V70.4211L124.415 71.7057L124.066 72.0268C123.717 72.0268 123.717 72.0268 123.717 72.0268V71.7057C123.717 71.3845 123.717 71.0634 124.066 71.0634L125.812 69.1364L126.161 68.8153L126.51 68.4941H126.859L127.209 68.8153V76.8441L128.605 76.2018H128.955V76.523Z" fill="#C9CEE2"/>
<path d="M134.542 64.3191C133.494 64.9614 132.447 65.9249 131.748 67.2095C131.05 68.4941 130.701 69.7787 130.701 71.3845C130.701 72.9903 131.05 73.9538 131.748 74.5961C132.447 75.2384 133.145 75.2384 134.542 74.5961C135.589 73.9538 136.637 72.9903 137.335 71.7057C138.034 70.4211 138.383 69.1364 138.383 67.5307C138.383 65.9249 138.034 64.9614 137.335 64.3191C136.637 63.6768 135.589 63.6768 134.542 64.3191ZM132.796 72.9903C132.447 72.6691 132.097 71.7057 132.097 70.4211C132.097 69.1364 132.447 68.173 132.796 67.2095C133.145 66.2461 133.843 65.6037 134.542 65.2826C135.24 64.9614 135.938 64.9614 136.288 65.2826C136.637 65.6037 136.986 66.5672 136.986 67.8518C136.986 69.1364 136.637 70.0999 136.288 71.0634C135.938 72.0268 135.24 72.6691 134.542 72.9903C133.843 73.6326 133.145 73.6326 132.796 72.9903Z" fill="#C9CEE2"/>
<path d="M49.6889 134.331C49.3398 134.652 49.3398 134.973 48.9906 135.294L53.53 132.725H53.8792L54.2284 133.046C54.2284 133.367 54.2284 133.367 53.8792 133.688C53.8792 134.01 53.53 134.01 53.53 134.01L48.2922 136.9C47.943 136.9 47.943 136.9 47.5938 136.9L47.2446 136.579C47.2446 136.258 47.2446 135.615 47.5938 134.973C47.943 134.331 48.2922 134.01 48.6414 133.367C48.9906 132.725 49.6889 132.083 50.0381 131.44C50.7365 130.798 51.0857 130.156 51.4349 129.835C51.7841 129.513 52.1333 128.871 52.1333 128.55C52.4824 128.229 52.4824 127.908 52.4824 127.586C52.4824 126.944 52.4824 126.623 52.1333 126.623C51.7841 126.623 51.4349 126.623 50.7365 126.944C50.0381 127.265 49.3398 127.908 48.2922 128.55C48.2922 128.55 48.2922 128.871 47.943 128.871H47.5938V128.55C47.5938 128.229 47.5938 127.908 47.943 127.908C48.9906 126.944 49.6889 126.302 50.7365 125.66C51.4349 125.338 51.7841 125.338 52.4824 125.338C52.8316 125.338 53.1808 125.338 53.53 125.66C53.8792 125.981 53.8792 126.302 53.8792 126.944C53.8792 127.586 53.8792 128.229 53.53 128.871C53.1808 129.513 52.8316 130.156 52.4824 130.798C52.1333 131.44 51.4349 132.083 50.7365 133.046C50.3873 133.367 50.0381 133.688 49.6889 134.331Z" fill="#C9CEE2"/>
<path d="M47.9429 119.879C47.5938 119.879 47.5938 119.558 47.5938 119.558C47.5938 119.236 47.5938 119.236 47.5938 118.915C47.5938 118.594 47.9429 118.594 47.9429 118.594H48.2921C48.9905 118.594 49.6889 118.273 50.3873 117.952C51.0856 117.631 51.784 117.31 52.1332 116.667C52.4824 116.346 52.8316 115.704 52.8316 115.061C52.8316 113.777 51.784 113.777 50.0381 114.74H49.6889H49.3397L48.9905 114.419C48.9905 114.419 48.9905 114.098 49.3397 113.777C49.3397 113.456 49.6889 113.456 49.6889 113.456C50.7364 113.135 51.0856 112.492 51.784 111.85C52.1332 111.208 52.4824 110.886 52.4824 110.244C52.4824 109.923 52.1332 109.602 51.784 109.602C51.4348 109.602 51.0856 109.602 50.3873 109.923C49.6889 110.244 48.9905 110.886 48.2921 111.529C48.2921 111.529 48.2921 111.85 47.9429 111.85H47.5938V111.529C47.5938 111.208 47.5938 111.208 47.9429 110.886C48.6413 109.923 49.6889 109.281 50.7364 108.638C51.784 107.996 52.4824 107.996 53.1808 107.996C53.8791 107.996 53.8791 108.638 53.8791 109.602C53.8791 110.244 53.8791 110.886 53.5299 111.529C53.1808 112.171 52.8316 112.492 52.4824 112.813H53.8791C54.2283 113.135 54.5775 113.456 54.5775 114.098C54.5775 115.061 54.2283 115.704 53.5299 116.667C52.8316 117.631 52.1332 118.273 51.0856 118.594C49.6889 119.558 48.6413 119.879 47.9429 119.879Z" fill="#C9CEE2"/>
<path d="M62.2599 128.55L62.609 128.871C62.609 129.192 62.609 129.192 62.2599 129.514C62.2599 129.835 61.9107 129.835 61.9107 129.835L57.7204 132.083H57.3712V131.762C57.3712 131.441 57.3712 131.441 57.3712 131.119C57.3712 130.798 57.7204 130.798 57.7204 130.798L59.1172 129.835V122.769L57.7204 124.375L57.3712 124.696H57.022C57.022 124.696 57.022 124.375 56.6729 124.375C56.6729 124.054 56.6728 123.733 57.022 123.412L58.768 121.485L59.1172 121.164H59.4664H59.8155L60.1647 121.485V129.514L61.5615 128.871C61.9107 128.55 61.9107 128.55 62.2599 128.55Z" fill="#C9CEE2"/>
<path d="M70.9895 122.448C70.9895 123.411 70.6404 124.054 69.942 125.017C69.2436 125.981 68.5452 126.623 67.4977 126.944C66.4501 127.586 65.7517 127.908 64.7042 127.908H64.355V127.586C64.355 127.265 64.355 127.265 64.355 126.944C64.355 126.623 64.7042 126.623 64.7042 126.623H65.0534C65.7517 126.623 66.4501 126.302 67.1485 125.981C67.8469 125.66 68.5452 125.338 68.8944 124.696C69.2436 124.375 69.5928 123.733 69.5928 123.09C69.5928 121.806 68.5452 121.806 66.7993 122.769H66.4501H66.1009L65.7517 122.448C65.7517 122.448 65.7517 122.127 66.1009 121.806C66.1009 121.485 66.4501 121.485 66.4501 121.485C67.1485 121.163 67.8469 120.521 68.5452 119.879C68.8944 119.236 69.2436 118.915 69.2436 118.273C69.2436 117.952 68.8944 117.631 68.5452 117.631C68.196 117.631 67.8469 117.631 67.1485 117.952C66.4501 118.273 65.7517 118.915 65.0534 119.558L64.7042 119.879H64.355C64.355 119.879 64.355 119.879 64.355 119.558C64.355 119.236 64.355 119.236 64.7042 118.915C65.4025 117.952 66.4501 117.31 67.4977 116.667C68.5452 116.025 69.2436 116.025 69.942 116.025C70.6404 116.025 70.6404 116.667 70.6404 117.631C70.6404 118.273 70.6404 118.915 70.2912 119.558C69.942 120.2 69.5928 120.521 69.2436 120.842H70.6404C70.6404 121.163 70.9895 121.485 70.9895 122.448Z" fill="#C9CEE2"/>
<path d="M79.37 115.704C79.0208 115.383 78.6716 115.061 78.3224 115.061C77.9732 115.061 77.2749 115.061 76.5765 115.383C75.8781 115.704 75.1797 116.025 74.8305 116.667C74.4814 116.988 74.1322 117.631 73.783 117.952C73.783 116.988 74.1322 116.025 74.4814 115.383C74.8305 114.419 75.5289 113.777 76.5765 113.134C77.2749 112.813 77.624 112.492 78.3224 112.492H78.6716L79.0208 112.171C79.0208 111.85 79.0208 111.85 79.0208 111.529V111.208C79.0208 111.208 79.0208 111.208 78.6716 111.208C78.3224 111.208 77.9732 111.208 77.624 111.208C77.2749 111.208 76.9257 111.529 76.2273 111.85C75.1797 112.492 74.4814 113.134 74.1322 113.777C73.4338 114.74 73.0846 115.383 72.7354 116.346C72.3862 117.309 72.3862 118.273 72.3862 118.915C72.3862 122.127 73.783 123.411 76.2273 122.127C76.9257 121.806 77.624 121.163 77.9732 120.842C78.3224 120.2 79.0208 119.558 79.0208 118.915C79.37 118.273 79.37 117.631 79.37 116.988C79.7192 116.667 79.37 116.025 79.37 115.704ZM77.9732 118.915C77.9732 119.236 77.6241 119.558 77.2749 119.879C76.9257 120.2 76.5765 120.521 76.2273 120.842C74.8305 121.484 74.1322 121.163 73.783 119.558C74.1322 118.273 75.1797 117.309 76.2273 116.667C76.9257 116.346 77.2749 116.346 77.624 116.346C78.3224 116.988 78.3224 117.309 78.3224 117.952C78.3224 118.273 78.3224 118.594 77.9732 118.915Z" fill="#C9CEE2"/>
<path d="M84.6077 117.952C85.6552 117.31 86.7028 116.346 87.4012 115.062C88.0995 113.777 88.4487 112.492 88.4487 110.887C88.4487 109.281 88.0995 108.317 87.4012 107.675C86.7028 107.033 86.0044 107.033 84.6077 107.675C83.5601 108.317 82.5125 109.281 81.8142 110.565C81.1158 111.85 80.7666 113.135 80.7666 114.74C80.7666 116.346 81.1158 117.31 81.8142 117.952C82.5125 118.594 83.2109 118.594 84.6077 117.952ZM86.0044 108.96C86.3536 109.281 86.7028 110.244 86.7028 111.529C86.7028 112.814 86.3536 113.777 86.0044 114.74C85.6552 115.704 84.9569 116.346 84.2585 116.667C83.5601 116.989 82.8617 116.989 82.5125 116.667C82.1634 116.346 81.8142 115.383 81.8142 114.098C81.8142 112.814 82.1634 111.85 82.5125 110.887C82.8617 109.923 83.5601 109.281 84.2585 108.96C85.306 108.639 85.6552 108.639 86.0044 108.96Z" fill="#C9CEE2"/>
<path d="M92.9885 113.455C94.0361 112.813 95.0837 111.85 95.782 110.565C96.4804 109.28 96.8296 107.996 96.8296 106.39C96.8296 104.784 96.4804 103.821 95.782 103.179C95.0837 102.536 94.3853 102.536 92.9885 103.179C91.941 103.821 90.8934 104.784 90.195 106.069C89.4966 107.354 89.1475 108.638 89.1475 110.244C89.1475 111.85 89.4966 112.813 90.195 113.455C90.8934 114.098 91.5918 114.098 92.9885 113.455ZM94.3853 104.784C94.7345 105.105 95.0836 106.069 95.0836 107.354C95.0836 108.638 94.7345 109.602 94.3853 110.565C94.0361 111.529 93.3377 112.171 92.6393 112.492C91.941 112.813 91.2426 112.813 90.8934 112.492C90.5442 112.171 90.195 111.207 90.195 109.923C90.195 108.638 90.5442 107.675 90.8934 106.711C91.2426 105.748 91.941 105.105 92.6393 104.784C93.6869 104.142 94.0361 104.142 94.3853 104.784Z" fill="#C9CEE2"/>
<path d="M101.02 99.0037C99.9722 99.646 98.9247 100.609 98.2263 101.894C97.5279 103.179 97.1787 104.463 97.1787 106.069C97.1787 107.675 97.5279 108.638 98.2263 109.281C98.9247 109.923 99.623 109.923 101.02 109.281C102.067 108.638 103.115 107.675 103.813 106.39C104.512 105.106 104.861 103.821 104.861 102.215C104.861 100.609 104.512 99.646 103.813 99.0037C103.115 98.3614 102.417 98.3614 101.02 99.0037ZM99.2738 107.675C98.9246 107.354 98.5755 106.39 98.5755 105.106C98.5755 103.821 98.9246 102.858 99.2738 101.894C99.623 100.931 100.321 100.288 101.02 99.9672C101.718 99.646 102.417 99.646 102.766 99.9672C103.115 100.288 103.464 101.252 103.464 102.536C103.464 103.821 103.115 104.784 102.766 105.748C102.417 106.711 101.718 107.354 101.02 107.675C100.321 108.317 99.9722 107.996 99.2738 107.675Z" fill="#C9CEE2"/>
<path d="M109.4 104.463C110.447 103.821 111.495 102.857 112.193 101.573C112.892 100.288 113.241 99.0036 113.241 97.3979C113.241 95.7921 112.892 94.8286 112.193 94.1863C111.495 93.544 110.796 93.544 109.4 94.1863C108.352 94.8286 107.305 95.7921 106.606 97.0767C105.908 98.3613 105.559 99.6459 105.559 101.252C105.559 102.857 105.908 103.821 106.606 104.463C107.305 105.106 108.352 105.106 109.4 104.463ZM111.146 95.7921C111.495 96.1132 111.844 97.0767 111.844 98.3613C111.844 99.6459 111.495 100.609 111.146 101.573C110.796 102.536 110.098 103.179 109.4 103.5C108.701 103.821 108.003 103.821 107.654 103.5C107.305 103.179 106.955 102.215 106.955 100.931C106.955 99.6459 107.305 98.6825 107.654 97.719C108.003 96.7556 108.701 96.1132 109.4 95.7921C110.098 95.1498 110.796 95.4709 111.146 95.7921Z" fill="#C9CEE2"/>
<path d="M120.924 97.7193V98.3616C120.574 98.6827 120.225 98.6827 120.225 98.6827L116.035 100.931H115.686L115.336 100.61C115.336 100.288 115.336 100.288 115.336 99.9673C115.336 99.6462 115.686 99.6462 115.686 99.6462L117.082 98.6827V91.6173L115.686 92.902L115.336 93.2231C114.987 93.2231 114.987 93.2231 114.987 93.2231V92.902C114.987 92.5808 114.987 92.2597 115.336 91.9385L117.082 90.0116L117.432 89.6904H117.781H118.13L118.479 90.0116V98.0404L119.876 97.3981H120.225C120.574 97.3981 120.924 97.7193 120.924 97.7193Z" fill="#C9CEE2"/>
<path d="M129.304 93.544V94.1863C129.304 94.5075 128.955 94.5075 128.955 94.5075L124.764 96.7555H124.415L124.066 96.4344C124.066 96.1132 124.066 96.1132 124.415 95.7921C124.415 95.4709 124.764 95.4709 124.764 95.4709L126.161 94.5075V87.4421L124.764 88.7267L124.415 89.0478C124.066 89.0478 124.066 89.0478 124.066 89.0478V88.7267C124.066 88.4055 124.066 88.0844 124.415 87.7632L126.161 85.8363L126.51 85.5151H126.859H127.209L127.558 85.8363V93.8651L128.955 93.2228H129.304C128.955 93.2228 129.304 93.2228 129.304 93.544Z" fill="#C9CEE2"/>
<path d="M137.684 89.0479C137.684 89.369 137.684 89.369 137.335 89.6902C137.335 90.0113 136.986 90.0113 136.986 90.0113L132.796 92.2594C132.446 92.2594 132.446 92.2594 132.446 92.2594L132.097 91.9383C132.097 91.6171 132.097 91.6171 132.446 91.296C132.446 90.9748 132.796 90.9748 132.796 90.9748L134.192 90.0113V82.946L132.796 84.2306L132.446 84.5517C132.097 84.5517 132.097 84.5517 132.097 84.5517V84.2306C132.097 83.9094 132.097 83.5883 132.446 83.2671L134.192 81.3402L134.541 81.019H134.891H135.24L135.589 81.3402V89.369L136.986 88.7267H137.335C137.335 88.7267 137.684 88.7267 137.684 89.0479Z" fill="#C9CEE2"/>
<path d="M53.879 149.746L54.2282 150.067C54.2282 150.388 54.2282 150.388 53.879 150.709C53.879 151.031 53.5298 151.031 53.5298 151.031L49.3396 153.279H48.9904V152.957C48.9904 152.636 48.9904 152.636 48.9904 152.315C48.9904 151.994 49.3396 151.994 49.3396 151.994L50.7363 151.031V143.965L49.3396 145.25L48.9904 145.571C48.6412 145.571 48.6412 145.571 48.6412 145.571L48.292 145.25C48.292 144.929 48.292 144.607 48.6412 144.607L50.3871 142.681L50.7363 142.359H51.0855H51.4347L51.7839 142.681V150.709L53.1806 150.067C53.5298 149.746 53.5298 149.746 53.879 149.746Z" fill="#C9CEE2"/>
<path d="M62.2599 145.892C62.2599 146.213 62.2599 146.213 61.9107 146.534C61.9107 146.856 61.5615 146.856 61.5615 146.856L57.3713 149.104H57.0221V148.782C57.0221 148.461 57.0221 148.461 57.0221 148.14C57.0221 147.819 57.3713 147.819 57.3713 147.819L58.768 146.856V139.79L57.3713 141.075L57.0221 141.396H56.6729L56.3237 141.075C56.3237 140.754 56.3237 140.433 56.6729 140.111L58.4189 138.184L58.768 137.863H59.1172H59.4664L59.8156 138.184V146.213L61.2124 145.571H61.5615C62.2599 145.571 62.2599 145.571 62.2599 145.892Z" fill="#C9CEE2"/>
<path d="M67.8464 143.644C68.894 143.002 69.9416 142.038 70.6399 140.754C71.3383 139.469 71.6875 138.184 71.6875 136.579C71.6875 134.973 71.3383 134.009 70.6399 133.367C69.9416 132.725 69.2432 132.725 67.8464 133.367C66.7989 134.009 65.7513 134.973 65.0529 136.257C64.3546 137.542 64.0054 138.827 64.0054 140.432C64.0054 142.038 64.3546 143.002 65.0529 143.644C65.7513 144.286 66.4497 144.286 67.8464 143.644ZM69.5924 134.973C69.9416 135.294 70.2908 136.257 70.2908 137.542C70.2908 138.827 69.9416 139.79 69.5924 140.754C69.2432 141.717 68.5448 142.359 67.8464 142.68C67.1481 143.002 66.4497 143.002 66.1005 142.68C65.7513 142.359 65.4021 141.396 65.4021 140.111C65.4021 138.827 65.7513 137.863 66.1005 136.9C66.4497 135.936 67.1481 135.294 67.8464 134.973C68.5448 134.33 69.2432 134.33 69.5924 134.973Z" fill="#C9CEE2"/>
<path d="M76.2273 139.148C77.2749 138.505 78.3224 137.542 79.0208 136.257C79.7192 134.973 80.0684 133.688 80.0684 132.082C80.0684 130.477 79.7192 129.513 79.0208 128.871C78.3224 128.229 77.624 128.229 76.2273 128.871C75.1797 129.513 74.1322 130.477 73.4338 131.761C72.7354 133.046 72.3862 134.33 72.3862 135.936C72.3862 137.542 72.7354 138.505 73.4338 139.148C74.1322 139.79 74.8305 139.79 76.2273 139.148ZM77.9732 130.477C78.3224 130.798 78.6716 131.761 78.6716 133.046C78.6716 134.331 78.3224 135.294 77.9732 136.257C77.624 137.221 76.9257 137.863 76.2273 138.184C75.5289 138.505 74.8305 138.505 74.4814 138.184C74.1322 137.863 73.783 136.9 73.783 135.615C73.783 134.331 74.1322 133.367 74.4814 132.404C74.8305 131.44 75.5289 130.798 76.2273 130.477C76.9257 130.156 77.624 129.834 77.9732 130.477Z" fill="#C9CEE2"/>
<path d="M87.4014 132.404V133.046C87.4014 133.367 87.0522 133.367 87.0522 133.367L82.8619 135.615C82.5128 135.615 82.5128 135.615 82.5128 135.615L82.1636 135.294C82.1636 134.973 82.1636 134.973 82.5128 134.652C82.5128 134.331 82.8619 134.331 82.8619 134.331L84.2587 133.367V126.302L82.8619 127.587L82.5128 127.908C82.1636 127.908 82.1636 127.908 82.1636 127.908V127.587C82.1636 127.265 82.1636 126.944 82.5128 126.623L84.2587 124.696L84.6079 124.375H84.9571H85.3063L85.6555 124.696V132.725L87.0522 132.083H87.4014V132.404Z" fill="#C9CEE2"/>
<path d="M92.9885 120.2C91.941 120.842 90.8934 121.806 90.195 123.09C89.4966 124.375 89.1475 125.66 89.1475 127.265C89.1475 128.871 89.4966 129.835 90.195 130.477C90.8934 131.119 91.5918 131.119 92.9885 130.477C94.0361 129.835 95.0837 128.871 95.782 127.587C96.4804 126.302 96.8296 125.017 96.8296 123.412C96.8296 121.806 96.4804 120.842 95.782 120.2C95.0837 119.558 94.0361 119.558 92.9885 120.2ZM91.2426 128.871C90.8934 128.55 90.5442 127.587 90.5442 126.302C90.5442 125.017 90.8934 124.054 91.2426 123.09C91.5918 122.127 92.2902 121.485 92.9885 121.163C93.6869 120.842 94.3853 120.842 94.7345 121.163C95.0837 121.485 95.4328 122.448 95.4328 123.733C95.4328 125.017 95.0837 125.981 94.7345 126.944C94.3853 127.908 93.6869 128.55 92.9885 128.871C91.941 129.513 91.5918 129.513 91.2426 128.871Z" fill="#C9CEE2"/>
<path d="M104.162 123.733C104.162 124.054 104.162 124.054 103.813 124.375C103.813 124.696 103.463 124.696 103.463 124.696L99.2731 126.623H98.924V126.302C98.924 125.981 98.924 125.981 98.924 125.66C98.924 125.339 99.2731 125.339 99.2731 125.339L100.67 124.375V117.31L99.2731 118.594L98.924 118.915C98.5748 118.915 98.5748 118.915 98.5748 118.915L98.2256 118.594C98.2256 118.273 98.2256 117.952 98.5748 117.631L100.321 115.704L100.67 115.383H101.019H101.368L101.717 115.704V123.733L103.114 123.09H103.463C104.162 123.412 104.162 123.412 104.162 123.733Z" fill="#C9CEE2"/>
<path d="M109.4 111.208C108.352 111.85 107.305 112.814 106.606 114.098C105.908 115.383 105.559 116.667 105.559 118.273C105.559 119.879 105.908 120.842 106.606 121.485C107.305 122.127 108.003 122.127 109.4 121.485C110.447 120.842 111.495 119.879 112.193 118.594C112.892 117.31 113.241 116.025 113.241 114.419C113.241 112.814 112.892 111.85 112.193 111.208C111.495 110.565 110.796 110.565 109.4 111.208ZM108.003 120.2C107.654 119.879 107.305 118.915 107.305 117.631C107.305 116.346 107.654 115.383 108.003 114.419C108.352 113.456 109.05 112.814 109.749 112.492C110.447 112.171 111.146 112.171 111.495 112.492C111.844 112.814 112.193 113.777 112.193 115.062C112.193 116.346 111.844 117.31 111.495 118.273C111.146 119.237 110.447 119.879 109.749 120.2C108.701 120.521 108.352 120.521 108.003 120.2Z" fill="#C9CEE2"/>
<path d="M114.638 117.309C114.987 117.631 115.336 117.631 115.685 117.631C116.384 117.631 117.082 117.309 117.78 116.988C118.479 116.667 119.177 116.025 119.876 115.382C120.574 114.74 120.923 114.419 120.923 113.777C121.272 113.134 121.272 112.813 121.272 112.171C121.272 110.886 120.574 110.244 119.526 110.565C119.876 110.244 120.225 109.602 120.574 109.281C120.923 108.638 120.923 108.317 120.923 107.675C120.923 107.354 120.923 107.032 120.574 106.711C120.225 106.39 119.876 106.39 119.526 106.39C119.177 106.39 118.479 106.711 117.78 107.032C117.082 107.354 116.384 107.996 116.035 108.317C115.685 108.959 115.336 109.281 114.987 109.923C114.638 110.565 114.638 110.886 114.638 111.207C114.638 111.85 114.638 112.171 114.987 112.492C115.336 112.813 115.685 112.813 116.035 112.813C114.638 114.098 114.289 115.061 114.289 116.346C114.289 116.667 114.638 116.988 114.638 117.309ZM119.177 107.675C119.526 107.675 119.526 107.996 119.526 108.638C119.526 108.959 119.526 109.281 119.177 109.923C118.828 110.244 118.479 110.886 117.78 111.207C117.431 111.529 116.733 111.529 116.384 111.207C116.035 111.207 116.035 110.886 116.035 110.565C116.035 110.244 116.035 109.602 116.384 109.281C116.733 108.959 117.082 108.317 117.78 107.996C118.479 107.675 118.828 107.675 119.177 107.675ZM116.733 116.346C116.384 116.346 116.035 116.346 116.035 116.025C116.035 115.704 115.685 115.704 115.685 115.382C115.685 114.74 116.035 114.098 116.384 113.777C116.733 113.134 117.431 112.813 118.13 112.492C118.828 112.171 119.177 112.171 119.876 112.171C120.225 112.171 120.574 112.492 120.574 113.134C120.574 113.456 120.574 113.777 120.225 114.098C120.225 114.419 119.876 114.74 119.526 115.061C119.177 115.382 118.828 115.704 118.13 116.025C117.431 116.025 117.082 116.346 116.733 116.346Z" fill="#C9CEE2"/>
<path d="M126.161 112.492C127.208 111.85 128.256 110.886 128.954 109.602C129.653 108.317 130.002 107.032 130.002 105.427C130.002 103.821 129.653 102.857 128.954 102.215C128.256 101.573 127.558 101.573 126.161 102.215C125.113 102.857 124.066 103.821 123.367 105.106C122.669 106.39 122.32 107.675 122.32 109.281C122.32 110.886 122.669 111.85 123.367 112.492C124.066 113.134 125.113 113.134 126.161 112.492ZM127.907 103.821C128.256 104.142 128.605 105.106 128.605 106.39C128.605 107.675 128.256 108.638 127.907 109.602C127.558 110.565 126.859 111.207 126.161 111.529C125.463 111.85 124.764 111.85 124.415 111.529C124.066 111.207 123.717 110.244 123.717 108.959C123.717 107.675 124.066 106.711 124.415 105.748C124.764 104.784 125.463 104.142 126.161 103.821C126.859 103.179 127.558 103.179 127.907 103.821Z" fill="#C9CEE2"/>
<path d="M137.684 105.748C137.684 106.069 137.684 106.069 137.335 106.39C137.335 106.712 136.986 106.712 136.986 106.712L132.796 108.96C132.446 108.96 132.446 108.96 132.446 108.96L132.097 108.638C132.097 108.317 132.097 108.317 132.446 107.996C132.446 107.675 132.796 107.675 132.796 107.675L134.192 106.712V99.6462L132.796 100.931L132.446 101.252C132.097 101.252 132.097 101.252 132.097 101.252V100.931C132.097 100.61 132.097 100.288 132.446 99.9673L134.192 98.0404L134.541 97.7192H134.891H135.24L135.589 98.0404V106.069L136.986 105.427H137.335L137.684 105.748Z" fill="#C9CEE2"/>
<path d="M53.8791 167.088C53.8791 167.41 53.8791 167.41 53.5299 167.731C53.5299 168.052 53.1807 168.052 53.1807 168.052L48.9904 170.3H48.6412V169.979C48.6412 169.658 48.6412 169.658 48.6412 169.336C48.6412 169.015 48.9904 169.015 48.9904 169.015L50.3872 168.052V160.986L48.9904 162.271L48.6412 162.592C48.2921 162.592 48.2921 162.592 48.2921 162.592L47.9429 162.271C47.9429 161.95 47.9429 161.629 48.2921 161.308L50.038 159.381L50.3872 159.06H50.7364H51.0856L51.4347 159.381V167.41L52.8315 166.767H53.1807C53.8791 166.767 53.8791 167.088 53.8791 167.088Z" fill="#C9CEE2"/>
<path d="M59.4661 154.885C58.4185 155.527 57.3709 156.49 56.6726 157.775C55.9742 159.06 55.625 160.344 55.625 161.95C55.625 163.556 55.9742 164.519 56.6726 165.161C57.3709 165.804 58.0693 165.804 59.4661 165.161C60.5136 164.519 61.5612 163.556 62.2596 162.271C62.9579 160.986 63.3071 159.702 63.3071 158.096C63.3071 156.49 62.9579 155.527 62.2596 154.885C61.5612 154.242 60.5136 154.242 59.4661 154.885ZM57.7201 163.556C57.3709 163.235 57.0217 162.271 57.0217 160.986C57.0217 159.702 57.3709 158.738 57.7201 157.775C58.0693 156.811 58.7677 156.169 59.4661 155.848C60.1644 155.527 60.8628 155.527 61.212 155.848C61.5612 156.169 61.9104 157.133 61.9104 158.417C61.9104 159.702 61.5612 160.665 61.212 161.629C60.8628 162.592 60.1644 163.235 59.4661 163.556C58.7677 164.198 58.0693 164.198 57.7201 163.556Z" fill="#C9CEE2"/>
<path d="M67.8469 150.388C66.7993 151.031 65.7517 151.994 65.0534 153.279C64.355 154.563 64.355 155.848 64.355 157.454C64.355 159.06 64.7042 160.023 65.4025 160.665C66.1009 161.308 66.7993 161.308 68.196 160.665C69.2436 160.023 70.2912 159.06 70.9895 157.775C71.3387 156.49 71.3387 155.206 71.3387 153.6C71.3387 151.994 70.9895 151.031 70.2912 150.388C69.942 149.746 68.8944 149.746 67.8469 150.388ZM66.1009 159.06C65.7517 158.738 65.4025 157.775 65.4025 156.49C65.4025 155.206 65.7517 154.242 66.1009 153.279C66.4501 152.315 67.1485 151.673 67.8469 151.352C68.5452 151.031 69.2436 151.031 69.5928 151.352C69.942 151.673 70.2912 152.637 70.2912 153.921C70.2912 155.206 69.942 156.169 69.5928 157.133C69.2436 158.096 68.5452 158.738 67.8469 159.06C67.1485 159.702 66.4501 159.702 66.1009 159.06Z" fill="#C9CEE2"/>
<path d="M76.2273 145.892C75.1797 146.535 74.1322 147.498 73.4338 148.783C72.7354 150.067 72.3862 151.352 72.3862 152.958C72.3862 154.564 72.7354 155.527 73.4338 156.169C74.1322 156.812 74.8305 156.812 76.2273 156.169C77.2749 155.527 78.3224 154.564 79.0208 153.279C79.7192 151.994 80.0684 150.71 80.0684 149.104C80.0684 147.498 79.7192 146.535 79.0208 145.892C78.3224 145.25 77.2749 145.25 76.2273 145.892ZM74.4814 154.885C74.1322 154.564 73.783 153.6 73.783 152.315C73.783 151.031 74.1322 150.067 74.4814 149.104C74.8305 148.14 75.5289 147.498 76.2273 147.177C76.9257 146.856 77.624 146.856 77.9732 147.177C78.3224 147.498 78.6716 148.462 78.6716 149.746C78.6716 151.031 78.3224 151.994 77.9732 152.958C77.624 153.921 76.9257 154.564 76.2273 154.885C75.5289 155.206 74.8305 155.206 74.4814 154.885Z" fill="#C9CEE2"/>
<path d="M84.6077 141.396C83.5601 142.039 82.5125 143.002 81.8142 144.287C81.1158 145.571 80.7666 146.856 80.7666 148.462C80.7666 150.067 81.1158 151.031 81.8142 151.673C82.5125 152.316 83.2109 152.316 84.6077 151.673C85.6552 151.031 86.7028 150.067 87.4012 148.783C88.0995 147.498 88.4487 146.214 88.4487 144.608C88.4487 143.002 88.0995 142.039 87.4012 141.396C86.7028 140.754 85.6552 140.754 84.6077 141.396ZM82.8617 150.389C82.5125 150.067 82.1634 149.104 82.1634 147.819C82.1634 146.535 82.5125 145.571 82.8617 144.608C83.2109 143.644 83.9093 143.002 84.6077 142.681C85.306 142.36 86.0044 142.36 86.3536 142.681C86.7028 143.002 87.052 143.966 87.052 145.25C87.052 146.535 86.7028 147.498 86.3536 148.462C86.0044 149.425 85.306 150.067 84.6077 150.389C83.9093 150.71 83.2109 150.71 82.8617 150.389Z" fill="#C9CEE2"/>
<path d="M95.7818 144.929C95.7818 145.25 95.7818 145.25 95.4326 145.571C95.4326 145.892 95.0835 145.892 95.0835 145.892L90.8932 148.14C90.544 148.14 90.544 148.14 90.544 148.14C90.544 148.14 90.544 147.819 90.1948 147.819C90.1948 147.498 90.1948 147.498 90.544 147.177C90.544 146.856 90.8932 146.856 90.8932 146.856L92.29 145.892V138.827L91.2424 140.433L90.8932 140.754C90.544 140.754 90.544 140.754 90.544 140.754V140.433C90.544 140.112 90.544 139.79 90.8932 139.469L92.6391 137.542L92.9883 137.221H93.3375H93.6867L94.0359 137.542V145.571L95.4326 144.929H95.7818C95.7818 144.608 95.7818 144.608 95.7818 144.929Z" fill="#C9CEE2"/>
<path d="M104.163 140.112L104.512 140.433C104.512 140.754 104.512 140.754 104.163 141.075C104.163 141.396 103.814 141.396 103.814 141.396L99.6233 143.644C99.2741 143.644 99.2741 143.644 99.2741 143.644V143.323C99.2741 143.002 99.2741 143.002 99.2741 142.681C99.2741 142.36 99.6233 142.36 99.6233 142.36L101.02 141.396V134.331L99.6233 135.615L99.2741 135.936C98.9249 135.936 98.9249 135.936 98.9249 135.936L98.5757 135.615C98.5757 135.294 98.5757 134.973 98.9249 134.652L100.671 132.725L101.02 132.404H101.369H101.718L102.068 132.725V140.754L103.464 140.112H104.163Z" fill="#C9CEE2"/>
<path d="M112.543 135.936C112.543 136.257 112.543 136.257 112.194 136.579C112.194 136.9 111.845 136.9 111.845 136.9L107.654 139.148H107.305V138.827C107.305 138.505 107.305 138.505 107.305 138.184C107.305 137.863 107.654 137.863 107.654 137.863L109.051 136.9V129.834L107.654 131.119L107.305 131.44C106.956 131.44 106.956 131.44 106.956 131.44L106.607 131.119C106.607 130.798 106.607 130.477 106.956 130.477L108.702 128.55L109.051 128.229H109.4H109.75L110.099 128.55V136.579L111.496 135.936H111.845C112.543 135.615 112.543 135.936 112.543 135.936Z" fill="#C9CEE2"/>
<path d="M120.225 126.623C119.876 126.623 119.177 126.623 118.479 126.944C117.78 127.265 117.082 127.586 116.733 128.229C116.384 128.55 116.035 129.192 115.685 129.513C115.685 128.55 116.035 127.586 116.384 126.944C116.733 125.981 117.431 125.338 118.479 124.696C119.177 124.375 119.876 124.375 120.225 124.375H120.574L120.923 124.054C120.923 123.733 120.923 123.733 120.923 123.411V123.09C120.923 123.09 120.923 123.09 120.574 123.09C120.225 123.09 119.876 123.09 119.526 123.09C119.177 123.09 118.828 123.411 118.13 123.733C117.082 124.375 116.384 125.017 116.035 125.66C115.336 126.623 114.987 127.265 114.638 128.229C114.289 129.192 114.289 130.156 114.289 130.798C114.289 134.01 115.685 135.294 118.13 134.01C118.828 133.688 119.526 133.046 119.876 132.725C120.225 132.083 120.923 131.44 120.923 130.798C121.272 130.156 121.272 129.513 121.272 128.871C121.272 128.229 121.272 127.586 120.923 127.265C120.923 126.944 120.574 126.623 120.225 126.623ZM115.685 131.119C116.035 129.835 117.082 128.871 118.13 128.229C118.828 127.908 119.177 127.908 119.526 127.908C119.876 127.908 119.876 128.55 119.876 129.192C119.876 129.513 119.876 129.835 119.526 130.156C119.526 130.477 119.177 130.798 118.828 131.119C118.479 131.44 118.13 131.761 117.78 132.083C116.733 133.367 116.035 132.725 115.685 131.119Z" fill="#C9CEE2"/>
<path d="M126.161 119.237C125.113 119.879 124.066 120.842 123.367 122.127C122.669 123.412 122.32 124.696 122.32 126.302C122.32 127.908 122.669 128.871 123.367 129.514C124.066 130.156 124.764 130.156 126.161 129.514C127.208 128.871 128.256 127.908 128.954 126.623C129.653 125.339 130.002 124.054 130.002 122.448C130.002 120.842 129.653 119.879 128.954 119.237C128.256 118.594 127.558 118.594 126.161 119.237ZM124.764 128.229C124.415 127.908 124.066 126.944 124.066 125.66C124.066 124.375 124.415 123.412 124.764 122.448C125.113 121.485 125.812 120.842 126.51 120.521C127.208 120.2 127.907 120.2 128.256 120.521C128.605 120.842 128.954 121.806 128.954 123.09C128.954 124.375 128.605 125.339 128.256 126.302C127.907 127.265 127.208 127.908 126.51 128.229C125.463 128.55 125.113 128.55 124.764 128.229Z" fill="#C9CEE2"/>
<path d="M136.986 122.448L135.589 123.09V115.061C135.589 114.74 135.589 114.74 135.24 114.74H134.891H134.541L134.192 115.061L132.446 116.988C132.097 117.309 132.097 117.631 132.097 117.952V118.273H132.446C132.446 118.273 132.796 118.273 132.796 117.952L134.192 116.667V123.733L132.796 124.696L132.446 125.017V125.659V125.981H132.796L136.986 123.733L137.335 123.411C137.335 123.09 137.684 123.09 137.684 122.769C137.684 122.448 137.684 122.448 137.335 122.448C137.335 122.448 137.335 122.448 136.986 122.448ZM134.541 123.733L132.796 124.696L134.541 123.733ZM136.986 123.733L132.796 125.981C132.796 125.981 132.796 125.981 132.446 125.981H132.796L136.986 123.733C136.986 123.733 136.986 123.411 136.986 123.733ZM137.335 122.448H136.986L135.589 123.09V115.061V114.74C135.589 114.74 135.589 114.74 135.24 114.74H135.589V115.061V123.09L136.986 122.448H137.335Z" fill="#C9CEE2"/>
<path d="M169.111 55.0061H169.46L166.667 53.7215C163.873 52.4369 160.382 52.4369 156.191 54.685C148.16 58.86 141.525 69.458 141.525 78.1292C141.525 81.983 142.922 84.8734 145.366 86.4792L143.621 92.9023L146.763 94.508L152.699 89.3696C154.795 89.3696 156.89 88.7273 159.334 87.4427C167.365 83.2677 174 72.6696 174 63.9984C174 59.5023 171.905 56.2907 169.111 55.0061ZM162.477 54.685C163.524 54.3638 164.572 54.3638 165.619 54.3638C164.572 54.3638 163.524 54.685 162.477 54.685Z" fill="#484188"/>
<path d="M146.414 94.1867L143.621 92.5809L145.017 86.479L148.16 88.0848L146.414 94.1867Z" fill="#484188"/>
<path d="M169.46 55.3273C166.667 54.0426 163.175 54.0426 158.985 56.2907C150.953 60.4657 144.319 71.0638 144.319 79.735C144.319 83.5888 145.716 86.4792 148.16 88.085L145.366 86.4792C142.922 84.8734 141.525 81.983 141.525 78.1292C141.525 69.458 148.16 58.86 156.191 54.685C160.382 52.4369 163.873 52.4369 166.667 53.7215L169.46 55.3273Z" fill="#484188"/>
<path d="M158.985 56.2905C167.016 52.1155 173.651 55.3271 173.651 63.9982C173.651 72.6694 167.016 82.9463 158.985 87.4425C156.54 88.7271 154.096 89.3694 152.35 89.3694L146.414 94.5079L147.811 88.0848C145.366 86.479 143.97 83.5886 143.97 79.7348C144.319 71.0636 150.953 60.4655 158.985 56.2905Z" fill="#AAA0F5"/>
<path d="M158.985 60.1443C165.27 56.9328 170.159 59.502 170.159 65.9251C170.159 72.3482 165.27 80.377 158.985 83.5886C152.699 86.8001 147.811 84.2309 147.811 77.8078C147.811 71.0636 153.048 63.3559 158.985 60.1443Z" fill="white"/>
<path d="M158.985 77.8081C159.683 77.487 160.381 77.8081 160.381 78.4504C160.381 79.0927 159.683 80.0562 158.985 80.6985C158.286 81.0197 157.588 80.6985 157.588 80.0562C157.937 79.0927 158.286 78.1293 158.985 77.8081Z" fill="#AAA0F5"/>
<path d="M158.985 63.0352C160.382 62.3929 161.429 63.0352 161.429 64.641L160.382 74.5967C160.382 75.239 159.683 76.2025 158.985 76.5237C158.286 76.8448 157.588 76.5237 157.588 75.8814L156.541 66.889C156.541 65.6044 157.588 63.6775 158.985 63.0352Z" fill="#AAA0F5"/>
<g opacity="0.5">
<g opacity="0.5">
<g opacity="0.5">
<path opacity="0.5" d="M83.9092 134.01L84.9568 133.367C84.2584 135.294 83.2108 136.9 81.8141 138.506C79.0206 142.36 75.5287 145.892 71.6876 147.819C67.8466 149.746 64.3547 150.389 61.5612 149.425C60.5136 149.104 59.4661 148.462 58.4185 147.498C57.3709 146.535 56.6726 145.571 56.3234 144.287C55.9742 143.002 55.625 141.396 55.625 139.469C55.625 137.542 55.9742 135.937 56.3234 134.01C57.0218 131.762 57.7201 129.835 58.7677 127.587C60.1644 124.696 62.2596 121.806 64.7039 119.237C66.799 116.989 69.2433 115.062 71.6876 113.777C74.132 112.492 76.5763 111.85 78.6714 111.85C80.7665 111.85 82.5125 112.492 83.9092 113.456V134.01Z" fill="#5094FF"/>
</g>
</g>
</g>
<g opacity="0.3">
<g opacity="0.3">
<g opacity="0.3">
<g opacity="0.3">
<path opacity="0.3" d="M87.4011 122.448C87.4011 124.696 87.052 127.265 86.0044 129.834V116.667C87.052 118.273 87.4011 120.2 87.4011 122.448Z" fill="#57B3FE"/>
</g>
</g>
</g>
</g>
<path d="M82.8619 112.813L79.37 110.886C76.5765 109.281 72.3863 109.602 67.8468 111.85C59.1171 116.667 51.7842 127.908 51.7842 137.221C51.7842 141.717 53.5301 145.25 56.3236 146.535L59.8155 148.461C62.609 150.067 66.7992 149.746 71.3387 147.498C80.0684 142.681 87.4013 131.44 87.4013 122.127C87.4013 117.631 85.6554 114.419 82.8619 112.813ZM67.8468 143.644C65.0533 145.25 62.2598 145.571 60.1647 145.25C58.7679 143.644 57.7204 141.396 57.7204 138.506C57.7204 130.477 63.6566 120.842 71.3387 116.667C74.1322 115.061 76.9257 114.74 79.0208 115.061C80.4176 116.667 81.4651 118.915 81.4651 121.806C81.4651 129.835 75.5289 139.469 67.8468 143.644Z" fill="#1D2943"/>
<path d="M85.3059 123.733C85.3059 131.761 79.0205 141.396 71.6876 145.571C67.8465 147.498 64.3546 147.819 61.9103 146.535L58.4185 144.608C60.8628 145.892 64.3546 145.892 68.1957 143.644C75.8778 139.79 81.814 129.835 81.814 121.806C81.814 117.952 80.4173 115.061 77.973 113.777L81.4648 115.704C83.56 116.988 85.3059 119.879 85.3059 123.733Z" fill="#484188"/>
<path d="M82.8619 113.135C80.0684 111.529 75.8781 111.85 71.3387 114.098C62.609 118.915 55.2761 130.156 55.2761 139.469C55.2761 144.287 57.022 147.498 59.8155 149.104L56.3236 147.177C53.5301 145.571 51.7842 142.36 51.7842 137.542C51.7842 128.229 58.7679 116.667 67.8468 112.171C72.3862 109.923 76.2273 109.602 79.37 111.208L82.8619 113.135Z" fill="#484188"/>
<path d="M71.3385 114.098C80.0682 109.281 87.4011 113.135 87.4011 122.448C87.4011 131.762 80.4174 143.323 71.3385 147.819C62.2596 152.315 55.2759 148.783 55.2759 139.469C55.2759 130.156 62.6088 118.915 71.3385 114.098ZM71.6877 145.571C79.3698 141.717 85.306 131.762 85.306 123.733C85.306 115.704 79.0206 112.492 71.6877 116.667C64.0056 120.521 58.0694 130.477 58.0694 138.506C57.7202 146.213 64.0056 149.425 71.6877 145.571Z" fill="#AAA0F5"/>
<path d="M57.3711 146.856L50.3874 156.169C50.3874 156.169 50.3874 156.169 50.0382 155.848C49.3398 155.527 48.2923 154.885 47.5939 154.242C47.2447 153.921 46.8955 153.6 46.8955 153.6L53.8793 144.287C53.8793 144.287 53.8793 144.287 54.2284 144.608C54.9268 144.929 55.9744 145.571 56.6728 146.214C57.3711 146.856 57.3711 146.856 57.3711 146.856Z" fill="#484188"/>
<path d="M57.0219 151.031L39.5626 175.76C38.8642 176.723 38.1658 177.044 37.1183 177.365C36.0707 177.686 34.6739 177.365 33.6264 176.723C32.2296 176.081 31.5312 174.796 31.5312 173.511C31.5312 172.869 31.8804 171.906 32.2296 171.263L49.689 146.535C50.0382 146.213 50.3874 146.213 50.7366 146.213C50.7366 146.213 51.0858 146.213 51.0858 146.535C52.4825 147.498 55.6252 149.425 56.6728 150.067C57.3711 150.067 57.3711 150.71 57.0219 151.031Z" fill="#484188"/>
<path d="M57.0222 151.031L39.5628 175.76C38.8644 176.723 38.166 177.044 37.1185 177.365C36.4201 177.365 35.7217 177.044 35.0233 176.723C33.6266 175.76 32.9282 174.475 32.9282 173.19C32.9282 172.548 33.2774 171.585 33.6266 170.942L51.086 146.535C52.4827 147.498 55.6254 149.425 56.673 150.067C57.3714 150.067 57.3714 150.71 57.0222 151.031Z" fill="#AAA0F5"/>
</svg>
