<svg width="196" height="190" viewBox="0 0 196 190" fill="none" xmlns="http://www.w3.org/2000/svg">
<path d="M195.992 93.0422V104.475C195.992 106.062 195.053 107.648 193.215 108.862L73.8643 188.144C70.1896 190.618 64.1464 190.618 60.4308 188.144L2.77652 150.113C0.939049 148.9 0 147.267 0 145.633L0.0408715 134.2L195.992 93.0422Z" fill="#484188"/>
<path d="M193.201 88.5724C196.9 91.0129 196.951 94.9897 193.245 97.4513L73.8741 176.732C70.1994 179.172 64.1602 179.172 60.4615 176.732L2.80901 138.691C-0.889947 136.251 -0.90942 132.253 2.76528 129.812L122.136 50.532C125.843 48.0703 131.85 48.0913 135.549 50.532L193.201 88.5724Z" fill="#AAA0F5"/>
<path d="M191.201 96.0813L71.8093 175.364C69.2369 177.091 65.072 177.091 62.459 175.364L4.84528 137.379C2.27287 135.653 2.23225 132.853 4.80441 131.173L124.156 51.8899C126.769 50.1633 130.974 50.1633 133.547 51.8899L147.96 61.3629L144.571 63.6027C143.714 64.1627 143.714 65.1427 144.612 65.7494L170.214 82.6419C171.112 83.2018 172.541 83.1551 173.398 82.5952L176.788 80.4021L191.201 89.8748C193.814 91.6014 193.773 94.3547 191.201 96.0813Z" fill="white"/>
<path d="M167.207 74.6518C167.718 74.9886 167.72 75.4936 167.245 75.8092C166.738 76.1458 165.975 76.1458 165.465 75.8091L151.148 66.3622C150.669 66.0466 150.667 65.5416 151.173 65.205C151.649 64.8894 152.412 64.8894 152.89 65.205L167.207 74.6518Z" fill="#111D33"/>
<path d="M171.224 77.1355C171.734 77.4721 171.738 78.1033 171.23 78.4401C170.66 78.8188 169.739 78.7976 169.228 78.461C168.654 78.0824 168.651 77.4932 169.222 77.1145C169.729 76.7777 170.65 76.7568 171.224 77.1355Z" fill="#111D33"/>
<path d="M169.41 120.011C169.41 121.037 168.798 122.204 168.022 122.718L154.711 131.49C154.343 131.724 154.017 131.77 153.772 131.584L153.567 131.444L152.792 130.977C152.588 130.837 152.424 130.51 152.424 129.997C152.424 129.017 153.078 127.757 153.812 127.291L167.124 118.471C167.491 118.191 167.818 118.191 168.063 118.378L168.879 118.938C168.92 118.938 168.92 118.984 168.961 118.984C169.247 119.124 169.41 119.498 169.41 120.011Z" fill="#1D2943"/>
<path d="M187.172 108.302C187.172 109.282 186.56 110.495 185.784 111.008L172.513 119.781C172.064 120.061 171.697 120.061 171.452 119.828L170.594 119.315C170.349 119.081 170.186 118.755 170.186 118.241C170.186 117.261 170.799 116.048 171.574 115.535L184.845 106.762C185.212 106.529 185.58 106.529 185.825 106.669L186.682 107.229C186.682 107.229 186.723 107.229 186.764 107.275C187.009 107.415 187.172 107.789 187.172 108.302Z" fill="#1D2943"/>
<path d="M168.033 119.084C168.781 118.591 169.391 119.025 169.394 120.006C169.396 121.024 168.79 122.225 168.042 122.718L154.732 131.501C153.985 131.994 153.346 131.614 153.344 130.597C153.341 129.616 153.976 128.36 154.723 127.867L168.033 119.084Z" fill="#312A6A"/>
<path d="M186.749 107.263C186.489 107.114 186.142 107.114 185.752 107.361L172.489 116.129C171.709 116.674 171.102 117.912 171.102 118.853C171.102 119.398 171.275 119.745 171.492 119.894L170.582 119.299C170.365 119.101 170.192 118.755 170.192 118.259C170.192 117.268 170.799 116.03 171.579 115.535L184.842 106.767C185.232 106.519 185.578 106.519 185.839 106.668L186.749 107.263Z" fill="#AAA0F5"/>
<path d="M168.068 118.36L168.979 119.004C168.719 118.805 168.415 118.855 168.025 119.102L154.719 127.87C153.982 128.365 153.332 129.604 153.332 130.594C153.332 131.09 153.505 131.437 153.765 131.585L152.812 130.991C152.595 130.842 152.422 130.495 152.422 130C152.422 129.009 153.072 127.771 153.809 127.276L167.115 118.458C167.505 118.211 167.808 118.211 168.068 118.36Z" fill="#AAA0F5"/>
<path d="M185.771 107.372C186.546 106.861 187.157 107.295 187.159 108.276C187.162 109.294 186.555 110.495 185.78 111.006L172.497 119.771C171.723 120.282 171.112 119.884 171.109 118.867C171.107 117.885 171.714 116.648 172.488 116.137L185.771 107.372Z" fill="#312A6A"/>
<path d="M42.5651 169.594C42.2125 169.795 41.9922 170.299 41.9922 170.954V171.005C41.9922 172.213 42.6972 173.674 43.6669 174.278C43.9752 174.48 44.2396 174.58 44.5043 174.58C44.6805 174.58 44.8567 174.53 45.0331 174.429C45.3855 174.177 45.562 173.674 45.562 173.069C45.562 171.81 44.8126 170.35 43.8872 169.745C43.4025 169.393 42.9616 169.342 42.5651 169.594Z" fill="#AAA0F5"/>
<path d="M35.8225 165.112C35.4257 165.364 35.2495 165.867 35.2495 166.522C35.2495 167.731 35.9987 169.242 36.9243 169.846C37.1887 170.048 37.4531 170.148 37.7175 170.148C37.9378 170.148 38.1143 170.098 38.2464 169.998C38.599 169.746 38.8193 169.242 38.8193 168.587C38.8193 167.378 38.0702 165.867 37.1446 165.263C36.6598 164.961 36.1751 164.91 35.8225 165.112Z" fill="#AAA0F5"/>
<path d="M7.83691 148.443C7.83691 149.651 8.58606 151.112 9.51166 151.767C9.77608 151.968 10.0843 152.069 10.3049 152.069C10.5252 152.069 10.7014 152.019 10.8779 151.918C11.2303 151.666 11.4067 151.163 11.4067 150.558C11.4508 149.299 10.7014 147.788 9.73197 147.183C9.24724 146.881 8.76225 146.831 8.40987 147.032C8.05722 147.284 7.83691 147.788 7.83691 148.443Z" fill="#AAA0F5"/>
<path d="M15.153 151.515C14.8004 151.767 14.5801 152.271 14.5801 152.875C14.5801 154.134 15.3292 155.595 16.2548 156.25C16.5634 156.401 16.8278 156.502 17.0922 156.502C17.2684 156.502 17.4449 156.451 17.621 156.35C17.9737 156.099 18.194 155.645 18.194 154.99C18.194 153.731 17.4449 152.271 16.5192 151.666C15.9904 151.314 15.5057 151.263 15.153 151.515Z" fill="#AAA0F5"/>
<path d="M21.1963 153.976L27.1436 157.897C27.0317 160.725 25.3428 161.684 22.0442 160.738L21.1963 153.976Z" fill="#312A6A"/>
<path d="M27.1434 157.893L31.9835 161.084L31.0815 166.692L22.0439 160.734L27.1434 157.893Z" fill="#857BCF"/>
<path d="M143.56 50.9365L143.275 104.554C143.275 106.654 142.05 108.8 139.641 110.387C134.7 113.653 126.697 113.653 121.716 110.387C119.266 108.754 118 106.607 118 104.461L118.286 50.9365C118.245 48.7901 119.47 46.5967 121.961 44.9636C126.86 41.697 134.863 41.697 139.804 44.9636C142.58 46.83 143.805 49.3034 143.479 51.73C143.52 51.45 143.56 51.2165 143.56 50.9365Z" fill="#524B87"/>
<path d="M143.545 50.9457L143.282 104.55C143.277 106.67 142.06 108.782 139.634 110.393C134.692 113.676 126.7 113.676 121.725 110.393C119.246 108.757 118.002 106.601 118.007 104.444L118.269 50.8396C118.264 52.9966 119.508 55.153 121.987 56.7888C126.962 60.0714 134.954 60.0713 139.897 56.7886C142.322 55.1777 143.539 53.0658 143.545 50.9457Z" fill="#524B87"/>
<path d="M139.791 44.9653C144.765 48.2479 144.792 53.5382 139.897 56.789C134.954 60.0716 126.963 60.0717 121.988 56.7891C117.061 53.5384 117.011 48.232 121.953 44.9494C126.848 41.6986 134.864 41.7146 139.791 44.9653Z" fill="#A9A1E7"/>
<path d="M120.538 53.1643L120.275 118.375C120.27 120.5 119.047 122.619 116.606 124.24C111.688 127.506 103.696 127.507 98.7212 124.224C96.239 122.586 94.9947 120.426 95 118.269L95.2622 53.0581C95.2569 55.2158 96.5012 57.3754 98.9834 59.0133C103.958 62.2958 111.95 62.2957 116.869 59.0291C119.309 57.4082 120.532 55.2891 120.538 53.1643Z" fill="#857BCF"/>
<path d="M116.786 47.1931C121.761 50.4756 121.787 55.7659 116.869 59.0327C111.95 62.2993 103.958 62.2994 98.9834 59.0168C94.0568 55.7661 94.0066 50.4597 98.9251 47.1931C103.844 43.9263 111.86 43.9423 116.786 47.1931Z" fill="#A9A1E7"/>
<path d="M98.5287 54.2961L98.2664 131.113C98.2612 133.233 97.044 135.345 94.6184 136.956C89.6999 140.223 81.684 140.239 76.7091 136.956C74.2329 135.323 72.9947 133.165 73 131.009L73.2623 54.1919C73.2569 56.3483 74.4951 58.5055 76.9713 60.1394C81.9462 63.422 89.9621 63.4059 94.8806 60.1392C97.3063 58.5282 98.5234 56.4163 98.5287 54.2961Z" fill="#524B87"/>
<path d="M94.7748 48.3129C99.7497 51.5955 99.7757 56.8859 94.8811 60.1367C89.9626 63.4033 81.9467 63.4194 76.9718 60.1368C72.0452 56.8861 72.019 51.5637 76.9375 48.2971C81.8321 45.0463 89.8482 45.0622 94.7748 48.3129Z" fill="#A9A1E7"/>
<path d="M73.531 54.2903L73.2861 142.719C73.2861 144.866 72.0612 146.966 69.6111 148.552C64.6704 151.865 56.7084 151.865 51.7268 148.552C49.2361 146.919 48.0112 144.772 48.0112 142.626L48.2562 54.1969C48.2562 52.0502 49.4811 49.9503 51.9309 48.3171C56.8308 45.0505 64.8747 45.0505 69.7743 48.3171C72.3061 49.9503 73.531 52.1436 73.531 54.2903Z" fill="#A9A1E7"/>
<path d="M73.5378 54.3032L73.2755 142.727C73.2703 144.847 72.0531 146.959 69.6275 148.57C64.6849 151.852 56.6931 151.852 51.7181 148.57C49.239 146.934 47.9947 144.778 48 142.621L48.2622 54.1973C48.2569 56.3543 49.5012 58.5107 51.9804 60.1465C56.9553 63.4291 64.9471 63.429 69.8897 60.1463C72.3153 58.5353 73.5325 56.4234 73.5378 54.3032Z" fill="#857BCF"/>
<path d="M69.7829 48.3288C74.7578 51.6114 74.7838 56.9018 69.8892 60.1525C64.9466 63.4352 56.9548 63.4353 51.9799 60.1527C47.0532 56.902 47.003 51.5956 51.9456 48.3129C56.8402 45.0622 64.8563 45.0781 69.7829 48.3288Z" fill="#A9A1E7"/>
<path d="M126.695 13.8811C126.695 14.6743 126.491 15.5142 126.083 16.3075C125.634 17.1007 125.022 17.754 124.164 18.314C123.429 18.8275 122.776 19.0141 122.204 18.9207L122.041 18.8275C122.041 18.7808 122 18.6874 122 18.5475C122 18.4074 122.041 18.2209 122.122 18.0807C122.204 17.8942 122.286 17.8007 122.408 17.7073L122.653 17.6142C123.102 17.6609 123.592 17.4741 124.042 17.1941C124.613 16.8207 125.062 16.4009 125.348 15.9808C125.634 15.5142 125.756 15.001 125.756 14.441C125.756 13.9742 125.634 13.6475 125.43 13.5544C125.185 13.4143 124.858 13.5077 124.409 13.7877C123.919 14.1144 123.47 14.5809 123.062 15.1876L122.939 15.3277C122.857 15.4208 122.817 15.5142 122.694 15.5609C122.531 15.7008 122.367 15.7475 122.245 15.6541C122.122 15.6077 122.041 15.4675 122.041 15.2343L122.081 14.9543L122.49 11.5012C122.49 11.3143 122.531 11.0811 122.653 10.8945C122.735 10.7077 122.857 10.5678 122.98 10.4744L125.92 8.56128C126.042 8.46786 126.124 8.46786 126.246 8.51457C126.328 8.56128 126.369 8.70112 126.369 8.84125C126.369 9.02781 126.328 9.16794 126.246 9.35449C126.165 9.49462 126.042 9.63447 125.92 9.72789L123.347 11.4077L123.062 13.9275C123.511 13.3676 124.001 12.901 124.532 12.5276C124.981 12.2477 125.389 12.1078 125.716 12.1078C126.042 12.1542 126.287 12.2944 126.451 12.6211C126.614 12.901 126.695 13.3209 126.695 13.8811Z" fill="#DAE2EF"/>
<path d="M130.02 5.74365C129.201 6.28356 128.57 7.0916 128.144 8.16765C127.718 9.21942 127.507 10.4352 127.51 11.7542C127.514 13.073 127.73 14.0067 128.16 14.4937C128.59 15.0054 129.223 14.9789 130.041 14.439C130.841 13.9113 131.472 13.1031 131.908 12.0209C132.333 10.957 132.545 9.75334 132.541 8.43446C132.538 7.11558 132.322 6.19416 131.892 5.69478C131.453 5.18942 130.819 5.21594 130.02 5.74365ZM128.865 13.2337C128.584 12.8559 128.443 12.1542 128.44 11.1405C128.438 10.1391 128.575 9.25325 128.853 8.50741C129.121 7.75545 129.502 7.23526 130.023 6.89165C130.534 6.55412 130.916 6.57119 131.187 6.96724C131.468 7.34489 131.609 8.04674 131.611 9.04812C131.614 10.0617 131.476 10.9477 131.199 11.6935C130.931 12.4332 130.541 12.9718 130.038 13.3032C129.527 13.6406 129.136 13.6174 128.865 13.2337Z" fill="#DAE2EF"/>
<path d="M136.082 5.45427C136.341 4.8795 136.47 4.25608 136.468 3.62107C136.467 2.98597 136.335 2.54674 136.074 2.30341C135.803 2.06607 135.431 2.10397 134.947 2.4231C134.463 2.74213 134.092 3.19516 133.823 3.78832C133.564 4.37536 133.435 4.98639 133.437 5.6215C133.438 6.25651 133.57 6.70802 133.831 6.93916C134.102 7.17641 134.474 7.1508 134.958 6.83177C135.441 6.51264 135.813 6.04741 136.082 5.45427ZM134.387 5.93595C134.247 5.78376 134.181 5.50913 134.181 5.13056C134.18 4.752 134.244 4.39151 134.383 4.05522C134.522 3.73111 134.707 3.48625 134.949 3.32674C135.191 3.16712 135.377 3.16661 135.517 3.30662C135.657 3.45882 135.723 3.73344 135.724 4.11201C135.725 4.49058 135.661 4.85106 135.522 5.18736C135.383 5.52365 135.197 5.75623 134.956 5.91584C134.714 6.07536 134.528 6.08815 134.387 5.93595Z" fill="#DAE2EF"/>
<path d="M139.012 0.24572C139.012 0.123596 138.974 0.038249 138.9 0.0140661C138.835 -0.0162047 138.751 0.0023797 138.648 0.0698458C138.518 0.1557 138.416 0.296515 138.351 0.486106L134.669 10.6954L134.614 10.9764C134.615 11.0985 134.652 11.1839 134.727 11.2325L134.969 11.1952L135.155 11.0113L135.284 10.7422L138.939 0.600104L139.012 0.24572Z" fill="#DAE2EF"/>
<path d="M138.65 4.44899C138.166 4.76812 137.795 5.22116 137.526 5.8265C137.267 6.40135 137.138 7.02457 137.14 7.65958C137.141 8.29469 137.273 8.7339 137.534 8.97734C137.805 9.21459 138.177 9.17679 138.661 8.85766C139.145 8.53864 139.516 8.08549 139.775 7.49855C140.044 6.9053 140.173 6.29437 140.171 5.65926C140.17 5.02415 140.038 4.57275 139.768 4.3477C139.506 4.09206 139.134 4.12996 138.65 4.44899ZM138.091 7.97414C137.95 7.82194 137.875 7.55351 137.874 7.17484C137.873 6.79628 137.947 6.4297 138.086 6.0934C138.215 5.7633 138.401 5.53064 138.652 5.36492C138.894 5.20541 139.08 5.19261 139.22 5.3448C139.361 5.497 139.426 5.77153 139.427 6.1501C139.428 6.52876 139.364 6.88924 139.225 7.22554C139.086 7.54964 138.901 7.79441 138.659 7.95391C138.408 8.11963 138.221 8.12024 138.091 7.97414Z" fill="#DAE2EF"/>
<path d="M102.811 11.9657C102.494 11.9422 102.121 12.0656 101.703 12.3417C101.238 12.6486 100.848 13.004 100.541 13.414C100.291 13.7384 100.068 14.0933 99.9011 14.448C99.9459 13.7336 100.093 13.0003 100.343 12.2729C100.611 11.4842 101.066 10.8905 101.736 10.4486C102.163 10.1664 102.563 10.0124 102.927 10.0052L103.104 9.92526C103.224 9.84551 103.327 9.71689 103.41 9.55178C103.484 9.39277 103.53 9.22777 103.53 9.08117L103.464 8.84332L103.306 8.73999C103.082 8.7407 102.831 8.77209 102.579 8.85215C102.319 8.92633 102.012 9.08005 101.677 9.30093C101.035 9.7243 100.515 10.2877 100.116 10.9913C99.7173 11.6948 99.4304 12.4467 99.2553 13.2228C99.0803 13.9988 98.9983 14.738 99 15.4341C99.0072 18.3162 99.8664 19.205 101.55 18.0944C102.005 17.7937 102.414 17.4016 102.767 16.9241C103.11 16.4528 103.379 15.9451 103.564 15.3949C103.749 14.8571 103.841 14.3194 103.84 13.8064C103.838 13.2325 103.744 12.7809 103.566 12.4701C103.388 12.1593 103.127 11.9891 102.811 11.9657ZM101.556 16.9403C100.635 17.5478 100.104 17.2135 99.9419 15.889C100.284 14.8316 100.841 14.0359 101.603 13.5328C102.031 13.2506 102.357 13.1945 102.572 13.3587C102.796 13.5289 102.908 13.8706 102.91 14.3957C102.91 14.6887 102.855 15.0065 102.744 15.3365C102.633 15.6544 102.476 15.9664 102.272 16.2479C102.067 16.5295 101.826 16.7623 101.556 16.9403Z" fill="#DAE2EF"/>
<path d="M107.061 5.74748C106.252 6.28138 105.62 7.08932 105.194 8.16547C104.769 9.21714 104.557 10.4329 104.561 11.7519C104.564 13.0708 104.78 14.0045 105.21 14.4916C105.64 15.0031 106.273 14.9767 107.082 14.4428C107.891 13.909 108.523 13.1009 108.949 12.0248C109.374 10.9609 109.595 9.75116 109.592 8.43218C109.589 7.1133 109.363 6.19807 108.933 5.6987C108.503 5.18714 107.87 5.21367 107.061 5.74748ZM105.906 13.2375C105.635 12.8536 105.493 12.1519 105.491 11.1383C105.488 10.1368 105.626 9.25097 105.894 8.51122C106.171 7.75317 106.552 7.23298 107.064 6.89547C107.575 6.55794 107.966 6.56891 108.237 6.96495C108.518 7.34261 108.659 8.04446 108.662 9.04584C108.664 10.0595 108.527 10.9454 108.249 11.6912C107.981 12.431 107.591 12.9695 107.08 13.307C106.577 13.6383 106.177 13.6213 105.906 13.2375Z" fill="#DAE2EF"/>
<path d="M116.053 0.250623C116.053 0.128499 116.015 0.0431562 115.95 0.0127739C115.885 -0.0175011 115.792 0.00718857 115.689 0.0746504C115.569 0.154408 115.467 0.295228 115.392 0.490911L111.72 10.6941L111.665 10.9751C111.665 11.0972 111.702 11.1826 111.768 11.2373L112.019 11.1939L112.196 11.0162L112.335 10.7409L115.989 0.59891L116.053 0.250623Z" fill="#DAE2EF"/>
<path d="M113.123 5.4509C113.382 4.87614 113.511 4.25282 113.51 3.61781C113.508 2.98271 113.377 2.54348 113.115 2.30015C112.854 2.05661 112.472 2.10071 111.998 2.41364C111.514 2.73267 111.133 3.1918 110.874 3.77895C110.615 4.3659 110.486 4.97693 110.487 5.61203C110.489 6.24704 110.62 6.69856 110.882 6.92969C111.143 7.17313 111.525 7.14133 112.009 6.8223C112.483 6.50938 112.864 6.03794 113.123 5.4509ZM111.438 5.92649C111.298 5.77429 111.223 5.50586 111.222 5.12729C111.221 4.74873 111.295 4.38206 111.434 4.04575C111.563 3.72785 111.749 3.48299 112 3.31728C112.242 3.15777 112.428 3.15716 112.568 3.29716C112.699 3.45556 112.774 3.72399 112.775 4.10255C112.776 4.48111 112.702 4.84779 112.573 5.17789C112.434 5.51419 112.248 5.74676 112.006 5.90637C111.755 6.07199 111.569 6.08479 111.438 5.92649Z" fill="#DAE2EF"/>
<path d="M115.691 4.45759C115.217 4.77052 114.836 5.22965 114.577 5.82889C114.318 6.40375 114.189 7.02697 114.19 7.66208C114.192 8.29719 114.324 8.73631 114.585 8.97974C114.846 9.22318 115.228 9.17919 115.702 8.86625C116.186 8.54712 116.567 8.08799 116.826 7.50095C117.086 6.91389 117.214 6.30286 117.213 5.66785C117.211 5.03275 117.08 4.58134 116.818 4.35009C116.557 4.09447 116.175 4.13846 115.691 4.45759ZM115.132 7.98263C115.001 7.82434 114.926 7.55591 114.925 7.17734C114.924 6.79868 114.998 6.4321 115.127 6.1019C115.266 5.7657 115.452 5.53304 115.694 5.37352C115.945 5.20781 116.131 5.195 116.262 5.3533C116.402 5.5055 116.477 5.77403 116.478 6.15259C116.479 6.53116 116.406 6.89774 116.267 7.23404C116.137 7.55204 115.951 7.79681 115.7 7.96252C115.458 8.12203 115.272 8.12274 115.132 7.98263Z" fill="#DAE2EF"/>
<path d="M78.6957 8.79795C78.6957 8.9378 78.6549 9.17135 78.614 9.40462L76.0416 18.0374L75.8783 18.4108L75.6334 18.6441C75.4701 18.7375 75.3884 18.7375 75.3066 18.6908C75.1843 18.6441 75.1434 18.5507 75.1434 18.3641L75.2251 17.9907L77.6749 9.91786L74.4493 12.0645C74.3267 12.1577 74.2044 12.1577 74.1226 12.1109C74.0409 12.0178 74 11.9244 74 11.7845C74 11.5977 74.0409 11.4579 74.1226 11.271C74.2044 11.0845 74.3267 10.991 74.4493 10.8979L78.124 8.42456C78.2875 8.33114 78.4507 8.33114 78.5325 8.37785C78.6549 8.42456 78.6957 8.56469 78.6957 8.79795Z" fill="#DAE2EF"/>
<path d="M82.0661 5.73881C81.2477 6.27872 80.6163 7.08675 80.1905 8.16281C79.774 9.20838 79.5534 10.4303 79.5567 11.7492C79.56 13.0682 79.7858 13.9957 80.2062 14.4889C80.6359 15.0004 81.2693 14.974 82.0876 14.4341C82.8967 13.9002 83.5188 13.0983 83.9539 12.016C84.3798 10.9522 84.5911 9.74849 84.5878 8.42961C84.5845 7.11063 84.3679 6.18931 83.9383 5.68994C83.4992 5.18458 82.8751 5.2049 82.0661 5.73881ZM80.911 13.2288C80.6306 12.8511 80.4891 12.1493 80.4866 11.1356C80.4841 10.1343 80.6216 9.24841 80.8993 8.50256C81.1675 7.75061 81.5574 7.22422 82.0689 6.8867C82.5804 6.54928 82.9623 6.56635 83.2428 6.9562C83.5139 7.34004 83.6553 8.0419 83.6578 9.04328C83.6603 10.0569 83.5228 10.9427 83.2545 11.6825C82.9769 12.4283 82.587 12.9669 82.0849 13.2982C81.5733 13.6357 81.1821 13.6126 80.911 13.2288Z" fill="#DAE2EF"/>
<path d="M88.1279 5.44255C88.3872 4.86769 88.5161 4.24437 88.5145 3.60936C88.513 2.97425 88.3815 2.53503 88.1201 2.2917C87.8494 2.05436 87.4768 2.09226 86.9933 2.41128C86.519 2.72421 86.1382 3.18335 85.8789 3.7705C85.6102 4.36354 85.4813 4.97467 85.4829 5.60978C85.4844 6.24479 85.616 6.6963 85.8867 6.92135C86.1481 7.16468 86.5299 7.13298 87.0042 6.81995C87.4877 6.50092 87.8593 6.03569 88.1279 5.44255ZM86.4338 5.92424C86.2937 5.77204 86.2278 5.49741 86.2269 5.11884C86.226 4.74028 86.2902 4.3798 86.4291 4.0435C86.5681 3.7194 86.7538 3.47454 86.9955 3.31502C87.2466 3.14931 87.4329 3.1487 87.5637 3.29491C87.7038 3.44711 87.779 3.71553 87.7799 4.0941C87.7808 4.47277 87.7072 4.83934 87.5684 5.17564C87.4388 5.50574 87.253 5.73841 87.002 5.90402C86.7602 6.06363 86.5739 6.07643 86.4338 5.92424Z" fill="#DAE2EF"/>
<path d="M91.0586 0.245774C91.0583 0.12365 91.0208 0.0383022 90.9463 0.0140218C90.881 -0.0161556 90.7972 0.00233577 90.6949 0.0698993C90.5647 0.155754 90.4719 0.290374 90.3979 0.486159L86.7159 10.6954L86.6606 10.9765C86.661 11.0986 86.6984 11.1839 86.7731 11.2325L87.0152 11.1952L87.2011 11.0113L87.3308 10.7422L90.985 0.600157L91.0586 0.245774Z" fill="#DAE2EF"/>
<path d="M90.6964 4.44861C90.2129 4.76774 89.8414 5.22077 89.5728 5.82611C89.3134 6.40097 89.1845 7.02419 89.186 7.6592C89.1877 8.29431 89.3191 8.73353 89.5806 8.97697C89.8513 9.2142 90.2238 9.17641 90.7073 8.85728C91.191 8.53825 91.5624 8.08511 91.831 7.49207C92.0905 6.90491 92.2194 6.29399 92.2178 5.65888C92.2162 5.02377 92.0847 4.57236 91.8232 4.34121C91.5525 4.09168 91.18 4.12958 90.6964 4.44861ZM90.1369 7.97376C89.9969 7.82156 89.931 7.54693 89.9301 7.16836C89.9291 6.7898 89.9935 6.42932 90.1323 6.09302C90.2712 5.75672 90.4569 5.52406 90.6987 5.36454C90.9405 5.20503 91.1268 5.19223 91.2669 5.34443C91.407 5.49662 91.4729 5.77115 91.4737 6.14972C91.4747 6.52838 91.4105 6.88886 91.2715 7.22516C91.1326 7.54927 90.9469 7.79402 90.7051 7.95354C90.4634 8.11305 90.277 8.11376 90.1369 7.97376Z" fill="#DAE2EF"/>
<path d="M51.6957 12.7444C51.9558 12.4382 52.1691 12.0895 52.3452 11.7042C52.549 11.2517 52.6503 10.7812 52.6491 10.3048C52.6482 9.95067 52.5729 9.64566 52.4233 9.40182C52.2737 9.15808 52.0404 9.01838 51.7144 9.0133C51.3884 9.00822 50.9696 9.17454 50.4581 9.51195C49.9653 9.83718 49.5377 10.2294 49.2128 10.6639C48.8879 11.0985 48.6561 11.545 48.5082 11.9851C48.3602 12.4254 48.2867 12.8285 48.2875 13.1827C48.2888 13.659 48.3921 13.9945 48.5974 14.1771C48.7748 14.3292 48.9892 14.3956 49.2499 14.3581C48.414 15.3379 47.9973 16.3711 48 17.4458C48.0011 17.8488 48.0857 18.1844 48.254 18.4281C48.4223 18.6841 48.6927 18.7992 49.0653 18.7981C49.4286 18.7907 49.9125 18.5817 50.4797 18.2074C51.0563 17.8269 51.5396 17.3978 51.9017 16.9265C52.2731 16.4368 52.542 15.9536 52.7085 15.4889C52.875 15.0243 52.9578 14.5783 52.9568 14.1752C52.9541 13.1006 52.5337 12.6195 51.6957 12.7444ZM49.5837 17.4774C49.3508 17.472 49.1829 17.387 49.0801 17.2347C48.9866 17.0763 48.9302 16.9056 48.9297 16.7223C48.9285 16.2216 49.0764 15.7571 49.364 15.2981C49.6702 14.8147 50.0418 14.4349 50.4696 14.1527C50.9067 13.8643 51.2791 13.7532 51.5773 13.8377C51.8756 13.9101 52.0253 14.1782 52.0265 14.679C52.027 14.8622 51.9809 15.1005 51.8792 15.3878C51.7775 15.6751 51.6106 15.9809 51.3785 16.2931C51.1464 16.6052 50.8489 16.8749 50.477 17.1203C50.1144 17.3596 49.8165 17.4827 49.5837 17.4774ZM51.4009 10.3211C51.6154 10.412 51.7184 10.6376 51.7193 10.9918C51.7201 11.3093 51.6185 11.6455 51.4238 12.0308C51.2198 12.41 50.904 12.753 50.4668 13.0414C50.0391 13.3236 49.7226 13.398 49.5174 13.2888C49.3215 13.1732 49.2185 12.9599 49.2177 12.6424C49.2168 12.2882 49.3184 11.9276 49.5317 11.5544C49.7451 11.1813 50.0517 10.8688 50.4608 10.5989C50.8793 10.3227 51.1865 10.2302 51.4009 10.3211Z" fill="#DAE2EF"/>
<path d="M56.1681 5.7465C55.359 6.28041 54.7276 7.08834 54.3018 8.1645C53.8759 9.21617 53.6647 10.4319 53.668 11.7509C53.6713 13.0698 53.8878 14.0034 54.3175 14.4905C54.7473 15.0021 55.3806 14.9757 56.1897 14.4418C56.9987 13.908 57.6302 13.0999 58.056 12.0238C58.4817 10.9599 58.7024 9.75018 58.6991 8.4312C58.6958 7.11232 58.4699 6.1971 58.0403 5.69773C57.6105 5.18617 56.9772 5.21269 56.1681 5.7465ZM55.013 13.2365C54.7419 12.8527 54.6005 12.1509 54.5979 11.1372C54.5954 10.1359 54.733 9.25 55.0013 8.51024C55.2788 7.7522 55.6595 7.232 56.1709 6.89449C56.6824 6.55697 57.0736 6.56794 57.3448 6.96398C57.6252 7.34163 57.7666 8.04349 57.7691 9.04487C57.7716 10.0584 57.6341 10.9444 57.3565 11.6903C57.0882 12.4299 56.6983 12.9685 56.1868 13.306C55.6846 13.6373 55.2934 13.6143 55.013 13.2365Z" fill="#DAE2EF"/>
<path d="M65.9253 4.34987C65.6638 4.09424 65.282 4.13824 64.8077 4.45117C64.3242 4.7703 63.9434 5.22943 63.6841 5.82867C63.4247 6.40353 63.2959 7.02675 63.2974 7.66186C63.299 8.29686 63.4305 8.73609 63.6919 8.97952C63.9533 9.22296 64.3351 9.17896 64.8187 8.85983C65.2929 8.54691 65.6737 8.08767 65.9331 7.50072C66.1924 6.91367 66.3307 6.29655 66.3291 5.66144C66.3275 5.02633 66.1867 4.58112 65.9253 4.34987ZM65.4617 5.20627C65.6111 5.37675 65.6864 5.66967 65.6874 6.08481V6.08491C65.6864 5.66967 65.6111 5.37685 65.4617 5.20637C65.3029 5.04198 65.0794 5.05488 64.8097 5.23278C65.0794 5.05488 65.3029 5.04198 65.4617 5.20627ZM64.2483 7.97631C64.1082 7.82411 64.033 7.55569 64.032 7.17712C64.0311 6.79845 64.1047 6.43188 64.2436 6.09558C64.3733 5.76548 64.559 5.53281 64.81 5.3672C65.0517 5.20769 65.2381 5.19478 65.3782 5.34698C65.509 5.50528 65.5841 5.77381 65.5851 6.15237C65.586 6.53094 65.5124 6.89762 65.3828 7.22772C65.2439 7.55183 65.0582 7.79668 64.8164 7.9562C64.5654 8.12181 64.379 8.12252 64.2483 7.97631ZM64.1597 6.0654C64.081 6.25184 64.0232 6.44285 63.9853 6.63914C64.0232 6.44295 64.081 6.25184 64.1597 6.0653C64.2338 5.88191 64.3266 5.71986 64.4357 5.58056C64.3266 5.71986 64.2338 5.88191 64.1597 6.0654Z" fill="#DAE2EF"/>
<path d="M65.1607 0.251916C65.1603 0.129792 65.1321 0.0382497 65.0576 0.0140682C64.9923 -0.0162082 64.9085 0.00238367 64.8062 0.0698478C64.6761 0.1557 64.5739 0.296519 64.5092 0.486107L60.8272 10.6954L60.772 10.9764C60.7723 11.0985 60.8098 11.1839 60.8751 11.2386L61.1265 11.1951L61.3031 11.0174L61.4421 10.7422L65.0963 0.600204L65.1607 0.251916Z" fill="#DAE2EF"/>
<path d="M62.2304 5.45093C62.4898 4.87617 62.628 4.24665 62.6264 3.61165C62.6249 2.97664 62.484 2.54352 62.2226 2.30018C61.9612 2.05665 61.5794 2.10064 61.1051 2.41367C60.6215 2.7327 60.25 3.18574 59.9814 3.77898C59.722 4.36593 59.5931 4.97696 59.5947 5.61207C59.5963 6.24707 59.7278 6.69859 59.9892 6.92973C60.2506 7.17317 60.6325 7.14137 61.116 6.82234C61.5903 6.50941 61.9711 6.03798 62.2304 5.45093ZM60.5456 5.92652C60.4055 5.77433 60.3303 5.5059 60.3294 5.12733C60.3285 4.74877 60.402 4.38209 60.5409 4.04579C60.6705 3.72788 60.8562 3.48292 61.1073 3.31731C61.3491 3.1578 61.5355 3.15719 61.6755 3.29719C61.8156 3.44939 61.8815 3.72402 61.8824 4.10258C61.8833 4.48115 61.819 4.84163 61.6802 5.17793C61.5412 5.51423 61.3555 5.74679 61.1138 5.90641C60.8626 6.07202 60.6764 6.08482 60.5456 5.92652Z" fill="#DAE2EF"/>
<path d="M130.633 24.9737C130.182 24.9737 129.776 24.7413 129.449 24.4132C129.161 24.0873 129 23.6202 129 23.1076C129 22.5926 129.161 22.1278 129.449 21.7541C130.061 21.0546 131.163 21.0546 131.775 21.7541C132.062 22.1278 132.266 22.5926 132.266 23.1076C132.266 23.5747 132.062 24.0873 131.775 24.4132C131.612 24.6 131.448 24.7413 131.245 24.8324C131.042 24.9258 130.836 24.9737 130.633 24.9737Z" fill="#DAE2EF"/>
<path d="M129 39.3506C129 38.323 129.734 37.4845 130.633 37.4845C131.53 37.4845 132.266 38.323 132.266 39.3506C132.266 40.4238 131.53 41.2167 130.633 41.2167C129.734 41.2167 129 40.4238 129 39.3506ZM129 31.2299C129 30.2045 129.734 29.3638 130.633 29.3638C131.53 29.3638 132.266 30.2045 132.266 31.2299C132.266 32.2575 131.53 33.096 130.633 33.096C129.734 33.096 129 32.2575 129 31.2299Z" fill="#DAE2EF"/>
<path d="M130.633 49.3816C130.182 49.3816 129.776 49.1948 129.449 48.8211C129.161 48.4953 129 48.0282 129 47.5155C129 47.0005 129.161 46.5357 129.449 46.2076C129.939 45.6494 130.633 45.5081 131.245 45.7884C131.448 45.8818 131.612 46.0208 131.775 46.2076C132.062 46.5357 132.266 47.0005 132.266 47.5155C132.266 48.0282 132.062 48.4953 131.775 48.8211C131.448 49.1948 131.042 49.3816 130.633 49.3816Z" fill="#DAE2EF"/>
<path d="M107.633 24.9737C107.388 24.9737 107.184 24.9281 106.981 24.8347C106.817 24.7413 106.612 24.6 106.49 24.4132C106.163 24.0418 106 23.5747 106 23.1076C106 22.5949 106.163 22.1278 106.49 21.7541C107.063 21.0546 108.165 21.0546 108.777 21.7541C109.104 22.1278 109.268 22.5949 109.268 23.1076C109.268 23.5747 109.104 24.0418 108.777 24.4132C108.49 24.7413 108.083 24.9737 107.633 24.9737Z" fill="#DAE2EF"/>
<path d="M106 39.345C106 38.3174 106.736 37.4789 107.633 37.4789C108.532 37.4789 109.268 38.3174 109.268 39.345C109.268 40.3726 108.532 41.2111 107.633 41.2111C106.736 41.2111 106 40.3726 106 39.345ZM106 31.2243C106 30.1989 106.736 29.3582 107.633 29.3582C108.532 29.3582 109.268 30.1989 109.268 31.2243C109.268 32.2519 108.532 33.0927 107.633 33.0927C106.736 33.0927 106 32.2519 106 31.2243Z" fill="#DAE2EF"/>
<path d="M107.633 49.3746C107.43 49.3746 107.184 49.329 106.981 49.2356C106.817 49.1422 106.612 49.0009 106.49 48.8141C106.163 48.4427 106 47.9756 106 47.5085C106 47.276 106.042 46.9958 106.124 46.7611C106.205 46.5743 106.327 46.3418 106.49 46.155C107.063 45.5011 108.165 45.5011 108.777 46.155C109.104 46.5287 109.268 46.9958 109.268 47.5085C109.268 47.7409 109.226 47.9756 109.144 48.208C109.062 48.4427 108.941 48.6295 108.777 48.8141C108.614 49.0009 108.45 49.1422 108.247 49.2356C108.042 49.329 107.838 49.3746 107.633 49.3746Z" fill="#DAE2EF"/>
<path d="M82.6329 24.9737C82.1843 24.9737 81.7756 24.7413 81.4905 24.4155C81.327 24.2286 81.2034 24.0418 81.1216 23.8071C81.0399 23.5747 81 23.3423 81 23.1076C81 22.5949 81.1635 22.1278 81.4905 21.7541C82.1025 21.0546 83.1632 21.0546 83.7753 21.7541C84.1023 22.1278 84.2657 22.5949 84.2657 23.1076C84.2657 23.3423 84.2259 23.5747 84.1441 23.8071C84.0624 24.0418 83.9388 24.2286 83.7753 24.4155C83.4902 24.7413 83.0815 24.9737 82.6329 24.9737Z" fill="#DAE2EF"/>
<path d="M81 39.3476C81 38.3222 81.7337 37.4815 82.6329 37.4815C83.532 37.4815 84.2657 38.3222 84.2657 39.3476C84.2657 40.3752 83.532 41.2137 82.6329 41.2137C81.7337 41.2137 81 40.3752 81 39.3476ZM81 31.2292C81 30.2015 81.7337 29.363 82.6329 29.363C83.532 29.363 84.2657 30.2015 84.2657 31.2292C84.2657 32.2545 83.532 33.0953 82.6329 33.0953C81.7337 33.0953 81 32.2545 81 31.2292Z" fill="#DAE2EF"/>
<path d="M82.6329 49.3841C82.1843 49.3841 81.7756 49.1995 81.4905 48.8258C81.1635 48.4977 81 47.9851 81 47.518C81 47.0053 81.1635 46.5382 81.4905 46.1645C82.1025 45.5129 83.1632 45.5129 83.7753 46.1645C84.1023 46.5382 84.2657 47.0053 84.2657 47.518C84.2657 48.0329 84.1023 48.4977 83.7753 48.8258C83.4902 49.1995 83.0815 49.3841 82.6329 49.3841Z" fill="#DAE2EF"/>
<path d="M57.6349 24.9171C57.1843 24.9171 56.7756 24.7302 56.4905 24.4044C56.1635 24.0307 56 23.5636 56 23.0965C56 22.8185 56.0419 22.5838 56.1236 22.3514C56.2054 22.1167 56.327 21.9299 56.4905 21.7453C56.939 21.2304 57.6747 21.0914 58.2868 21.3717C58.4503 21.4651 58.6557 21.6041 58.8171 21.7453C58.9408 21.9299 59.0624 22.1167 59.1441 22.3514C59.2259 22.5838 59.2677 22.8185 59.2677 23.0965C59.2677 23.5636 59.1042 24.0307 58.8171 24.4044C58.4922 24.7302 58.0835 24.9171 57.6349 24.9171Z" fill="#DAE2EF"/>
<path d="M56 39.3371C56 38.3117 56.7357 37.471 57.6349 37.471C58.532 37.471 59.2677 38.3117 59.2677 39.3371C59.2677 40.3647 58.532 41.2055 57.6349 41.2055C56.7357 41.2055 56 40.3647 56 39.3371ZM56 31.2187C56 30.191 56.7357 29.3525 57.6349 29.3525C58.532 29.3525 59.2677 30.191 59.2677 31.2187C59.2677 32.2463 58.532 33.0848 57.6349 33.0848C56.7357 33.0848 56 32.2463 56 31.2187Z" fill="#DAE2EF"/>
<path d="M57.6349 49.3721C57.4295 49.3721 57.2261 49.3243 57.0208 49.2309C56.8174 49.1374 56.6539 48.9985 56.4905 48.8116C56.327 48.6248 56.2054 48.4379 56.1236 48.2055C56.0419 47.9708 56 47.7384 56 47.5037C56 46.9911 56.2054 46.524 56.4905 46.1526C56.939 45.6376 57.6747 45.4986 58.2868 45.7789C58.4503 45.8723 58.6557 46.0113 58.8171 46.1526C59.1042 46.524 59.2677 46.9911 59.2677 47.5037C59.2677 47.7384 59.2259 47.9708 59.1441 48.2055C59.0624 48.4379 58.9408 48.6248 58.8171 48.8116C58.4922 49.1853 58.0835 49.3721 57.6349 49.3721Z" fill="#DAE2EF"/>
</svg>
