<svg width="147" height="215" viewBox="0 0 147 215" fill="none" xmlns="http://www.w3.org/2000/svg">
<path d="M105.669 7.12004L15.9228 214.605L2.48136 207.886C1.24068 207.259 0.516846 205.96 0.516846 204.078L0 51.2866C0 47.5687 2.99852 43.0445 6.77232 41.1632C20.8341 33.1452 34.7407 25.7093 48.4402 18.856C61.623 12.2712 74.6507 6.2241 87.4201 0.803954C89.3329 -0.136541 91.0387 -0.226216 92.2793 0.400963L105.669 7.12004Z" fill="#484188"/>
<path d="M61.845 25.6023C75.0496 18.9966 88.059 12.9553 100.861 7.53431C104.607 5.66037 107.652 7.16403 107.665 10.8937L108.164 163.693C108.177 167.421 105.151 171.963 101.405 173.837C87.7987 181.604 74.2523 188.865 60.7722 195.608C47.3611 202.317 34.0157 208.515 20.7317 214.195C16.9857 216.068 13.9404 214.563 13.9282 210.835L13.4283 58.0357C13.4161 54.3061 16.4415 49.7655 20.1875 47.8916C34.2612 39.903 48.1578 32.4495 61.845 25.6023Z" fill="#AAA1F5"/>
<path d="M104.853 164.783C104.853 166.978 103.043 169.756 100.872 170.831L20.2247 211.19C19.6558 211.459 19.0872 211.638 18.6736 211.638C17.3811 211.638 17.2262 210.339 17.2262 209.756L17.0195 147.583L16.7608 56.9199C16.7094 54.7699 18.5704 52.0376 20.7416 50.8729L34.338 44.109L34.7516 45.0049C35.4237 46.3935 36.7676 47.1997 38.4219 47.1997C39.4042 47.1997 40.3864 46.931 41.3687 46.4383L80.8137 26.6841C83.3468 25.43 85.5697 22.8319 86.3453 20.0996L87.0691 17.7254L101.389 10.5136C101.958 10.2449 102.423 10.1104 102.888 10.1104C104.181 10.1104 104.388 11.4541 104.388 11.9919L104.646 103.729L104.853 164.783Z" fill="white"/>
<path d="M44.875 41.111C45.6059 40.0197 45.6079 38.8381 44.8794 38.4718C44.1509 38.1055 42.9679 38.6932 42.237 39.7844C41.5061 40.8756 41.5041 42.0572 42.2326 42.4235C42.9611 42.7898 44.1441 42.2022 44.875 41.111Z" fill="#4C5C75"/>
<path d="M51.7917 34.5395C52.8231 34.0235 53.6644 34.4369 53.6677 35.4658C53.6711 36.4928 52.8353 37.7471 51.8039 38.2631C50.7704 38.78 49.9291 38.3647 49.9258 37.3377C49.9224 36.3088 50.7582 35.0565 51.7917 34.5395Z" fill="#4C5C75"/>
<path d="M78.2834 21.7959L78.2878 24.687L57.3814 35.1456L57.377 32.2544L78.2834 21.7959Z" fill="#4C5C75"/>
<path d="M91.7482 8.51478C91.5685 8.76404 91.2448 8.98194 90.8494 9.16884C88.872 10.1657 85.6722 10.1657 83.7309 9.16884C83.3352 8.98194 83.0478 8.76404 82.7961 8.51478C81.7893 7.58027 82.113 6.39649 83.6949 5.58652C85.6362 4.58965 88.872 4.58965 90.8494 5.58652C92.4313 6.36531 92.7548 7.54909 91.7482 8.51478Z" fill="white"/>
<path d="M91.748 8.51573C91.5683 8.76499 91.2447 8.98289 90.8492 9.16979C88.8719 10.1667 85.6721 10.1667 83.7307 9.16979C83.3351 8.98289 83.0476 8.76499 82.7959 8.51573C83.0116 8.26646 83.2991 8.04838 83.6947 7.86148C85.6361 6.89578 88.8719 6.89578 90.8492 7.86148C91.2447 8.04838 91.5683 8.26646 91.748 8.51573Z" fill="#1D2943"/>
<path d="M10.1848 72.7889L10.133 85.5104C10.133 86.3167 9.82286 86.899 9.3057 87.1678L7.65135 87.974L3.61914 69.1157L5.22174 68.2647C5.73858 68.0407 6.46242 68.0407 7.28975 68.444C8.89235 69.2503 10.1848 71.2212 10.1848 72.7889Z" fill="#DEDFFB"/>
<path d="M5.65766 69.2772C4.8521 68.8742 4.12898 68.8406 3.5968 69.0936C3.06949 69.3589 2.74294 69.9205 2.74033 70.7177L2.69875 83.428C2.6935 85.0321 3.99092 86.9792 5.59711 87.7827C6.40263 88.1857 7.13067 88.2266 7.66286 87.9687C8.19015 87.7083 8.5167 87.1467 8.51934 86.3398L8.56093 73.6294C8.56616 72.0303 7.26874 70.0831 5.65766 69.2772Z" fill="white"/>
<path d="M10.1325 96.0378L10.0808 108.759C10.0808 109.566 9.71886 110.103 9.20201 110.372L7.59941 111.223L3.51514 92.3199L5.16948 91.5136C5.68633 91.2449 6.41017 91.2897 7.18575 91.693C8.8401 92.4992 10.1325 94.4701 10.1325 96.0378Z" fill="#DEDFFB"/>
<path d="M5.58198 92.5117C4.77641 92.1087 4.05331 92.0702 3.52112 92.3281C2.99381 92.5934 2.66726 93.155 2.66465 93.9521L2.62306 106.662C2.61782 108.267 3.91524 110.214 5.52143 111.017C6.32696 111.42 7.05499 111.461 7.58718 111.203C8.11449 110.938 8.44103 110.381 8.44367 109.574L8.48525 96.8639C8.49049 95.2647 7.19306 93.3176 5.58198 92.5117Z" fill="white"/>
<path d="M40.6253 191.371C40.2533 191.017 40.2533 191.017 39.8813 191.017C40.2533 191.017 40.6253 191.371 40.6253 191.371Z" fill="#DEDFFB"/>
<path d="M133.989 136.525C133.989 139.356 131.757 142.894 129.153 144.663L44.3451 191.017C42.8572 191.725 41.7413 191.725 40.9974 191.371C40.6254 191.371 40.6254 191.017 40.2535 191.017L40.6254 191.371L33.1861 187.125C32.4422 186.771 31.6982 185.709 31.6982 184.294V91.2325L39.5095 95.4786C39.8815 95.4786 39.8815 95.4786 39.5095 95.4786L48.8087 90.1709C49.5526 89.8171 49.9246 89.1094 49.9246 88.4017V85.5709C49.9246 84.8632 50.2965 84.1555 51.0405 83.8017L68.5229 74.2478C69.2668 73.894 69.6388 74.2478 69.6388 74.9555V77.4325C69.6388 78.1401 70.0107 78.494 70.7547 78.1401L72.6145 77.0786L133.989 43.1094V136.525Z" fill="#DEDFFB"/>
<path d="M40.6253 191.371C40.2533 191.017 40.2533 191.017 39.8813 191.017C40.2533 191.017 40.6253 191.371 40.6253 191.371Z" fill="#DEDFFB"/>
<path d="M40.6253 191.371L32.814 187.125C32.0701 186.771 31.3262 185.709 31.3262 184.294V90.8784L39.1375 95.1246L39.5094 188.186C39.5094 189.955 39.8814 191.017 40.6253 191.371Z" fill="#DEDFFB"/>
<path d="M68.1506 74.2478C68.8945 73.894 69.2665 74.2478 69.2665 74.9555V77.4325C69.2665 78.1401 69.6384 78.494 70.3824 78.1401L72.2422 77.0786L133.989 43.1094L134.361 136.171C134.361 139.002 132.129 142.894 129.525 144.309L44.3447 191.017C41.741 192.432 39.5092 191.371 39.5092 188.54L39.1372 95.4786L48.4364 90.1709C49.1803 89.8171 49.5523 89.1094 49.5523 88.4017V85.9248C49.5523 85.2171 49.9242 84.5094 50.6682 84.1555L68.1506 74.2478Z" fill="#F3F1FC"/>
<path d="M132.501 26.4786C91.9566 51.6017 45.8328 77.7863 39.1375 95.1247L31.3262 90.8786V77.0786C31.3262 74.2478 33.558 70.3555 36.1617 68.9401L120.97 22.5863C122.458 21.8786 123.574 21.8786 124.69 22.2324L132.501 26.4786Z" fill="#484188"/>
<path d="M128.781 26.8324C131.385 25.417 133.617 26.4785 133.617 29.6632V43.4632L72.2422 77.0786L70.3824 78.1401C69.6384 78.4939 69.2665 78.1401 69.2665 77.4324V74.9555C69.2665 74.2478 68.8945 73.8939 68.1506 74.2478L50.6682 83.8016C49.9242 84.1555 49.5523 84.8632 49.5523 85.5709V88.0478C49.5523 88.7555 49.1803 89.4632 48.4364 89.817L39.1372 95.1247V81.3247C39.1372 78.4939 41.369 74.6016 43.9728 73.1862L128.781 26.8324Z" fill="#AAA0F5"/>
<path d="M129.897 49.4785L130.269 138.294C130.269 139.002 129.897 139.709 129.153 140.063L44.3448 186.771C43.9728 187.125 43.2289 186.771 43.2289 186.063L42.8569 97.2477L129.897 49.4785Z" fill="white"/>
<path d="M105.348 45.9403C107.208 44.8788 108.324 45.5865 108.696 47.7096C108.696 49.4788 107.208 51.9557 105.72 53.0173C103.86 54.0788 102.744 53.3711 102.372 51.248C102.372 49.4788 103.86 47.0019 105.348 45.9403Z" fill="white"/>
<path d="M115.762 40.2787C117.622 39.2172 118.738 39.9249 119.11 42.048C119.11 43.8172 117.622 46.2941 116.134 47.3556C114.274 48.4172 112.786 47.7095 112.786 45.5864C112.414 43.8172 113.902 41.3403 115.762 40.2787Z" fill="white"/>
<path d="M125.806 34.9711C127.666 33.9096 129.154 34.6173 129.154 36.7403C129.154 38.5096 127.666 40.9865 126.178 42.048C124.318 43.1096 122.83 42.4019 122.83 40.2788C122.83 38.1557 124.318 35.6788 125.806 34.9711Z" fill="white"/>
<path d="M49.1807 98.6631C48.0648 99.3708 46.9489 100.432 46.5769 101.494C45.833 102.909 45.833 104.325 45.833 105.74C45.833 107.155 46.205 108.571 46.9489 108.925C47.6928 109.632 48.4368 109.632 49.5527 108.925C50.6686 108.217 51.7845 107.155 52.1564 106.094C52.9004 104.678 52.9004 103.263 52.9004 101.848C52.9004 100.432 52.5284 99.0169 51.7845 98.6631C51.4125 97.9554 50.2966 97.9554 49.1807 98.6631ZM47.6928 107.509C47.3209 107.155 46.9489 106.094 46.9489 105.032C46.9489 103.971 47.3209 102.909 47.6928 101.848C48.0648 100.786 48.8087 100.432 49.5527 99.7246C50.2966 99.3708 51.0405 99.3708 51.4125 99.7246C51.7845 100.078 52.1564 101.14 52.1564 102.202C52.1564 103.263 51.7845 104.678 51.4125 105.386C51.0405 106.448 50.2966 106.802 49.5527 107.509C48.4368 108.217 48.0648 108.217 47.6928 107.509Z" fill="#C9CEE2"/>
<path d="M57.7363 104.325C58.8522 103.617 59.9681 102.555 60.34 101.494C61.084 100.078 61.084 98.663 61.084 97.2476C61.084 95.8322 60.712 94.4168 59.9681 94.063C59.2241 93.3553 58.4802 93.3553 57.3643 94.063C56.2484 94.7707 55.1325 95.8322 54.7605 96.8938C54.0166 98.3092 54.0166 99.7245 54.0166 101.14C54.0166 102.555 54.3886 103.971 55.1325 104.325C55.5045 105.032 56.2484 105.032 57.7363 104.325ZM59.2241 95.4784C59.5961 95.8322 59.9681 96.8938 59.9681 97.9553C59.9681 99.0168 59.5961 100.432 59.2241 101.14C58.8522 102.201 58.1082 102.555 57.3643 103.263C56.6204 103.617 55.8764 103.617 55.5045 103.263C55.1325 102.909 54.7605 101.848 54.7605 100.786C54.7605 99.7245 55.1325 98.663 55.5045 97.6015C55.8764 96.5399 56.6204 96.1861 57.3643 95.4784C58.1082 94.7707 58.8522 94.7707 59.2241 95.4784Z" fill="#C9CEE2"/>
<path d="M68.895 97.6013V98.309C68.895 98.6629 68.5231 98.6629 68.5231 98.6629L64.4314 100.786H64.0595V100.432C64.0595 100.078 64.0595 100.078 64.0595 99.7244C64.0595 99.3706 64.4314 99.3706 64.4314 99.3706L65.9193 98.6629V91.586L64.4314 92.6475L64.0595 93.0014H63.6875V92.6475C63.6875 92.2937 63.6875 91.9398 64.0595 91.9398L65.9193 89.8167L66.2913 89.4629H66.6632H67.0352L67.4072 89.8167V97.9552L68.5231 97.2475H68.895C68.895 97.2475 68.895 97.2475 68.895 97.6013Z" fill="#C9CEE2"/>
<path d="M74.103 95.4783C75.2189 94.7707 76.3347 93.7091 76.7067 92.6476C77.4506 91.2322 77.8226 89.8168 77.4506 88.4014C77.4506 86.986 77.0787 85.5707 76.3347 85.2168C75.5908 84.5091 74.8469 84.5091 73.731 85.2168C72.6151 85.9245 71.4992 86.986 71.1272 88.0476C70.3833 89.463 70.3833 90.8783 70.3833 92.2937C70.3833 93.7091 70.7553 95.1245 71.4992 95.4783C72.2431 95.8322 72.9871 95.8322 74.103 95.4783ZM75.9628 86.2783C76.3348 86.6322 76.7067 87.6937 76.7067 88.7553C76.7067 89.8168 76.3348 91.2322 75.9628 91.9399C75.5908 93.0014 74.8469 93.3553 74.103 94.063C73.359 94.4168 72.6151 94.4168 72.2431 94.063C71.8712 93.7091 71.4992 92.6476 71.4992 91.586C71.4992 90.5245 71.8712 89.463 72.2431 88.4014C72.6151 87.3399 73.359 86.986 74.103 86.2783C74.8469 85.9245 75.5908 85.9245 75.9628 86.2783Z" fill="#C9CEE2"/>
<path d="M85.2612 88.4013V89.109C85.2612 89.4628 84.8893 89.4628 84.8893 89.4628L80.7976 91.5859H80.4257V91.2321C80.4257 90.8782 80.4257 90.8782 80.4257 90.5244C80.4257 90.1705 80.7976 90.1705 80.7976 90.1705L82.2855 89.4628V82.3859L80.7976 83.8013L80.4257 84.1552H80.0537V83.8013C80.0537 83.4475 80.0537 83.0936 80.4257 83.0936L82.2855 80.9705L82.6575 80.6167H83.0294H83.4014L83.7734 80.9705V89.109L84.8893 88.4013H85.2612C85.2612 88.0475 85.2612 88.0475 85.2612 88.4013Z" fill="#C9CEE2"/>
<path d="M90.8407 86.2781C91.9566 85.5705 93.0725 84.5089 93.4445 83.4474C94.1884 82.032 94.1884 80.6166 94.1884 79.2012C94.1884 77.7858 93.8165 76.3705 93.0725 76.0166C92.3286 75.3089 91.5847 75.3089 90.4688 76.0166C89.3529 76.7243 88.237 77.7858 87.865 78.8474C87.1211 80.2628 87.1211 81.6781 87.1211 83.0935C87.1211 84.5089 87.4931 85.9243 88.237 86.2781C88.609 86.9858 89.7249 86.9858 90.8407 86.2781ZM92.3286 77.0782C92.7006 77.432 93.0725 78.4935 93.0725 79.5551C93.0725 80.6166 92.7006 82.032 92.3286 82.7397C91.9566 83.8012 91.2127 84.1551 90.4688 84.8628C89.7249 85.2166 88.9809 85.2166 88.609 84.8628C88.237 84.5089 88.237 83.4474 88.237 82.3858C88.237 81.3243 88.609 80.2628 88.9809 79.2012C89.3529 78.1397 90.0968 77.7858 90.8407 77.0782C91.5847 76.7243 91.9566 76.7243 92.3286 77.0782Z" fill="#C9CEE2"/>
<path d="M102 79.2016V79.9093C102 80.2631 101.628 80.2631 101.628 80.2631L97.5365 82.3862H97.1646V82.0324C97.1646 82.0324 97.1646 81.6785 97.1646 81.3247C97.1646 80.9708 97.5365 80.9708 97.5365 80.9708L99.0244 80.2631V73.1862L97.9085 74.6016L97.5365 74.9555H97.1646V74.6016C97.1646 74.2478 97.1646 73.8939 97.5365 73.8939L99.3964 71.7708L99.7683 71.417H100.14H100.512L100.884 71.7708V79.9093L102 79.2016H102.372C102 78.8478 102 79.2016 102 79.2016Z" fill="#C9CEE2"/>
<path d="M107.207 77.0784C108.323 76.3708 109.439 75.3092 109.811 74.2477C110.555 72.8323 110.555 71.4169 110.555 70.0015C110.555 68.5861 110.183 67.1707 109.439 66.8169C108.695 66.1092 107.951 66.1092 106.835 66.8169C105.72 67.5246 104.604 68.5861 104.232 69.6477C103.488 71.0631 103.488 72.4784 103.488 73.8938C103.488 75.3092 103.86 76.7246 104.604 77.0784C105.348 77.7861 106.092 77.7861 107.207 77.0784ZM109.067 68.2323C109.439 68.5861 109.811 69.6477 109.811 70.7092C109.811 71.7708 109.439 73.1861 109.067 73.8938C108.695 74.9554 107.951 75.3092 107.207 76.0169C106.464 76.3707 105.72 76.3707 105.348 76.0169C104.976 75.6631 104.604 74.6015 104.604 73.54C104.604 72.4784 104.976 71.4169 105.348 70.3554C105.72 69.2938 106.464 68.94 107.207 68.2323C107.951 67.5246 108.695 67.5246 109.067 68.2323Z" fill="#C9CEE2"/>
<path d="M115.763 72.4783C116.879 71.7706 117.994 70.7091 118.366 69.6476C119.11 68.2322 119.482 66.8168 119.11 65.4014C119.11 63.986 118.738 62.5707 117.994 62.2168C117.25 61.5091 116.507 61.5091 115.391 62.2168C114.275 62.9245 113.159 63.986 112.787 65.0476C112.043 66.463 112.043 67.8783 112.043 69.2937C112.043 70.7091 112.415 72.1245 113.159 72.4783C113.531 73.186 114.275 73.186 115.763 72.4783ZM117.25 63.6322C117.622 63.986 117.994 65.0476 117.994 66.1091C117.994 67.1707 117.622 68.586 117.25 69.2937C116.879 70.3553 116.135 70.7091 115.391 71.4168C114.647 71.7707 113.903 71.7707 113.531 71.4168C113.159 71.063 112.787 70.0014 112.787 68.9399C112.787 67.8783 113.159 66.8168 113.531 65.7553C113.903 64.6937 114.647 64.3399 115.391 63.6322C116.135 62.9245 116.879 62.9245 117.25 63.6322Z" fill="#C9CEE2"/>
<path d="M68.5231 114.586V114.94V115.648C68.5231 116.001 68.1511 116.001 68.1511 116.001L64.0595 118.125H63.6875V117.771C63.6875 117.417 63.6875 117.417 63.6875 117.063C63.6875 116.709 64.0595 116.709 64.0595 116.709L65.5473 116.001V108.925L64.4314 110.34L64.0595 110.694H63.6875V110.34C63.6875 109.986 63.6875 109.632 64.0595 109.632L65.9193 107.509L66.2913 107.155H66.6632H67.0352L67.4072 107.509V115.648L68.5231 114.94C68.1511 114.232 68.5231 114.232 68.5231 114.586Z" fill="#C9CEE2"/>
<path d="M60.34 118.832V119.186V119.894C60.34 120.248 59.968 120.248 59.968 120.248L55.8764 122.371H55.5044V122.017C55.5044 121.663 55.5044 121.663 55.5044 121.309C55.5044 120.955 55.8764 120.955 55.8764 120.955L57.3642 120.248V113.171L56.2483 114.586L55.8764 114.94H55.5044V114.586C55.5044 114.232 55.5044 113.878 55.8764 113.878L57.7362 111.755L58.1082 111.401H58.4801H58.8521L59.2241 111.755V119.894L60.34 119.186C59.968 118.832 60.34 118.832 60.34 118.832Z" fill="#C9CEE2"/>
<path d="M77.0782 110.34V111.047C77.0782 111.401 76.7063 111.401 76.7063 111.401L72.6146 113.524H72.2427V113.171C72.2427 113.171 72.2427 112.817 72.2427 112.463C72.2427 112.109 72.6146 112.109 72.6146 112.109L74.1025 111.401V104.324L72.9866 105.74L72.6146 106.094H72.2427V105.74C72.2427 105.386 72.2427 105.032 72.6146 105.032L74.4745 102.909L74.8464 102.555H75.2184H75.5904L75.9623 102.909V111.047L77.0782 110.34H77.4502C77.0782 109.986 77.0782 109.986 77.0782 110.34Z" fill="#C9CEE2"/>
<path d="M82.6576 108.217C83.7735 107.509 84.8894 106.447 85.2614 105.386C86.0053 103.97 86.0053 102.555 86.0053 101.14C86.0053 99.7243 85.6334 98.3089 84.8894 97.9551C84.1455 97.2474 83.4016 97.2474 82.2857 97.9551C81.1698 98.6628 80.0539 99.7243 79.6819 100.786C78.938 102.201 78.938 103.617 78.938 105.032C78.938 106.447 79.31 107.863 80.0539 108.217C80.4258 108.924 81.1698 108.57 82.6576 108.217ZM84.1455 99.0166C84.5175 99.3705 84.8894 100.432 84.8894 101.494C84.8894 102.555 84.5175 103.97 84.1455 104.678C83.7735 105.74 83.0296 106.094 82.2857 106.801C81.5417 107.155 80.7978 107.155 80.4259 106.801C80.0539 106.447 79.6819 105.386 79.6819 104.324C79.6819 103.263 80.0539 102.201 80.4259 101.14C80.7978 100.078 81.5417 99.7243 82.2857 99.0166C83.0296 98.6628 83.7735 98.6628 84.1455 99.0166Z" fill="#C9CEE2"/>
<path d="M90.8407 103.617C91.9566 102.909 93.0725 101.848 93.4445 100.786C94.1884 99.3709 94.1884 97.9555 94.1884 96.5401C94.1884 95.1247 93.8165 93.7093 93.0725 93.3555C92.3286 92.6478 91.5847 92.6478 90.4688 93.3555C89.3529 94.0632 88.237 95.1247 87.865 96.1862C87.1211 97.6016 87.1211 99.017 87.1211 100.432C87.1211 101.848 87.4931 103.263 88.237 103.617C88.609 104.325 89.7249 104.325 90.8407 103.617ZM92.3286 94.417C92.7006 94.7709 93.0725 95.8324 93.0725 96.8939C93.0725 97.9555 92.7006 99.3709 92.3286 100.079C91.9566 101.14 91.2127 101.494 90.4688 102.202C89.7249 102.555 88.9809 102.555 88.609 102.202C88.609 101.848 88.237 100.786 88.237 99.7247C88.237 98.6632 88.609 97.6016 88.9809 96.5401C89.3529 95.4786 90.0968 95.1247 90.8407 94.417C91.5847 94.0632 91.9566 94.0632 92.3286 94.417Z" fill="#C9CEE2"/>
<path d="M99.0244 88.4016C97.9085 89.1093 96.7927 90.1708 96.4207 91.2324C95.6768 92.6478 95.6768 94.0632 95.6768 95.4785C95.6768 96.8939 96.0487 98.3093 96.7927 98.6632C97.5366 99.3708 98.2805 99.3708 99.3964 98.6632C100.512 97.9555 101.628 96.8939 102 95.8324C102.744 94.417 102.744 93.0016 102.744 91.5862C102.744 90.1709 102.372 88.7555 101.628 88.4016C101.256 88.0478 100.14 88.0478 99.0244 88.4016ZM97.1646 97.6016C96.7927 97.2478 96.4207 96.1862 96.4207 95.1247C96.4207 94.0632 96.7927 93.0016 97.1646 91.9401C97.5366 90.8785 98.2805 90.5247 99.0244 89.817C99.7684 89.4632 100.512 89.4632 100.884 89.817C101.256 90.1709 101.628 91.2324 101.628 92.2939C101.628 93.3555 101.256 94.7708 100.884 95.4785C100.512 96.5401 99.7684 96.8939 99.0244 97.6016C98.2805 97.9555 97.5366 97.9555 97.1646 97.6016Z" fill="#C9CEE2"/>
<path d="M107.207 94.4168C108.323 93.7091 109.439 92.6476 109.811 91.5861C110.555 90.1707 110.555 88.7553 110.555 87.3399C110.555 85.9245 110.183 84.5091 109.439 84.1553C108.695 83.4476 107.951 83.4476 106.835 84.1553C105.72 84.863 104.604 85.9245 104.232 86.986C103.488 88.4014 103.488 89.8168 103.488 91.2322C103.488 92.6476 103.86 94.063 104.604 94.4168C105.348 95.1245 106.092 95.1245 107.207 94.4168ZM109.067 85.2168C109.439 85.5707 109.811 86.6322 109.811 87.6937C109.811 88.7553 109.439 90.1707 109.067 90.8784C108.695 91.9399 107.951 92.2937 107.207 93.0014C106.464 93.3553 105.72 93.3553 105.348 93.0014C104.976 92.6476 104.604 91.586 104.604 90.5245C104.604 89.463 104.976 88.4014 105.348 87.3399C105.72 86.2784 106.464 85.9245 107.207 85.2168C107.951 84.863 108.695 84.863 109.067 85.2168Z" fill="#C9CEE2"/>
<path d="M60.712 136.524V137.232C60.712 137.586 60.3401 137.586 60.3401 137.586L56.2484 139.709H55.8765V139.355C55.8765 139.001 55.8765 139.001 55.8765 138.647C55.8765 138.294 56.2484 138.294 56.2484 138.294L57.7363 137.586V130.509L56.6204 131.924L56.2484 132.278H55.8765V131.924C55.8765 131.571 55.8765 131.217 56.2484 131.217L58.1083 129.094L58.4802 128.74H58.8522H59.2242L59.5961 129.094V137.232L60.712 136.524H61.084C60.3401 136.524 60.712 136.524 60.712 136.524Z" fill="#C9CEE2"/>
<path d="M46.9487 119.54V119.186C46.9487 118.832 46.9487 118.478 47.3207 118.478L49.1805 116.355L49.5525 116.001H49.9245H50.2964L50.6684 116.355V124.494L51.7843 123.786H52.1563V124.14C52.1563 124.14 52.1563 124.494 52.1563 124.848C52.1563 125.201 51.7843 125.201 51.7843 125.201L47.6927 127.325H47.3207C47.3207 127.325 47.3207 127.325 47.3207 126.971C47.3207 126.617 47.3207 126.617 47.3207 126.263C47.3207 125.909 47.6927 125.909 47.6927 125.909L49.1805 125.201V118.125L48.0646 119.54L47.6927 119.894C47.3207 119.54 46.9487 119.54 46.9487 119.54Z" fill="#C9CEE2"/>
<path d="M52.1564 140.771V141.124V141.832C52.1564 142.186 51.7844 142.186 51.7844 142.186L47.6928 144.309H47.3208V143.955C47.3208 143.601 47.3208 143.601 47.3208 143.248C47.3208 142.894 47.6928 142.894 47.6928 142.894L49.1806 142.186V135.109L48.0647 136.524L47.6928 136.878H47.3208V136.524C47.3208 136.171 47.3208 135.817 47.6928 135.817L49.5526 133.694L49.9246 133.34H50.2965H50.6685L51.0405 133.694V141.832L52.1564 141.124C51.7844 140.771 51.7844 140.771 52.1564 140.771Z" fill="#C9CEE2"/>
<path d="M65.9194 134.401C67.0353 133.694 68.1512 132.632 68.5231 131.57C69.2671 130.155 69.2671 128.74 69.2671 127.324C69.2671 125.909 68.8951 124.494 68.1512 124.14C67.4072 123.432 66.6633 123.432 65.5474 124.14C64.4315 124.847 63.3156 125.909 62.9436 126.97C62.1997 128.386 62.1997 129.801 62.1997 131.217C62.1997 132.632 62.5717 134.047 63.3156 134.401C64.0595 135.109 64.8035 135.109 65.9194 134.401ZM67.7792 125.555C68.1512 125.909 68.5231 126.97 68.5231 128.032C68.5231 129.094 68.1512 130.509 67.7792 131.217C67.4072 132.278 66.6633 132.632 65.9194 133.34C65.1754 133.694 64.4315 133.694 64.0595 133.34C63.6876 132.986 63.3156 131.924 63.3156 130.863C63.3156 129.801 63.6876 128.74 64.0595 127.678C64.4315 126.617 65.1754 126.263 65.9194 125.555C66.6633 124.847 67.4072 124.847 67.7792 125.555Z" fill="#C9CEE2"/>
<path d="M74.103 129.802C75.2189 129.094 76.3347 128.032 76.7067 126.971C77.4506 125.555 77.8226 124.14 77.4506 122.725C77.4506 121.309 77.0787 119.894 76.3347 119.54C75.5908 118.832 74.8469 118.832 73.731 119.54C72.6151 120.248 71.4992 121.309 71.1272 122.371C70.3833 123.786 70.3833 125.202 70.3833 126.617C70.3833 128.032 70.7553 129.448 71.4992 129.802C72.2431 130.509 72.9871 130.509 74.103 129.802ZM75.9628 120.955C76.3348 121.309 76.7067 122.371 76.7067 123.432C76.7067 124.494 76.3348 125.909 75.9628 126.617C75.5908 127.679 74.8469 128.032 74.103 128.74C73.359 129.094 72.6151 129.094 72.2431 128.74C71.8712 128.386 71.4992 127.325 71.4992 126.263C71.4992 125.202 71.8712 124.14 72.2431 123.079C72.6151 122.017 73.359 121.663 74.103 120.955C74.8469 120.248 75.5908 120.602 75.9628 120.955Z" fill="#C9CEE2"/>
<path d="M85.2612 123.078V123.786C85.2612 124.14 84.8893 124.14 84.8893 124.14L80.7976 126.263H80.4257V125.909C80.4257 125.555 80.4257 125.555 80.4257 125.201C80.4257 124.848 80.7976 124.848 80.7976 124.848L82.2855 124.14V117.063L80.7976 118.125L80.4257 118.478H80.0537V118.125C80.0537 117.771 80.0537 117.417 80.4257 117.417L82.2855 115.294L82.6575 114.94H83.0294H83.4014L83.7734 115.294V123.432L84.8893 122.725H85.2612V123.078Z" fill="#C9CEE2"/>
<path d="M90.8409 110.34C89.725 111.048 88.6091 112.109 88.2371 113.171C87.4932 114.586 87.4932 116.001 87.4932 117.417C87.4932 118.832 87.8651 120.248 88.6091 120.601C89.353 121.309 90.0969 121.309 91.2128 120.601C92.3287 119.894 93.4446 118.832 93.8166 117.771C94.5605 116.355 94.5605 114.94 94.5605 113.524C94.5605 112.109 94.1886 110.694 93.4446 110.34C92.7007 109.632 91.9568 109.632 90.8409 110.34ZM88.981 119.54C88.6091 119.186 88.2371 118.124 88.2371 117.063C88.2371 116.001 88.6091 114.94 88.981 113.878C89.353 112.817 90.0969 112.463 90.8409 111.755C91.5848 111.401 92.3287 111.401 92.7007 111.755C93.0727 112.109 93.4446 113.171 93.4446 114.232C93.4446 115.294 93.0727 116.709 92.7007 117.417C92.3287 118.478 91.5848 118.832 90.8409 119.54C90.0969 119.894 89.353 119.894 88.981 119.54Z" fill="#C9CEE2"/>
<path d="M102 113.878V114.586C102 114.94 101.628 114.94 101.628 114.94L97.5365 117.063H97.1646V116.709C97.1646 116.355 97.1646 116.355 97.1646 116.001C97.1646 115.648 97.5365 115.648 97.5365 115.648L99.0244 114.94V107.863L97.9085 109.278L97.5365 109.632H97.1646V109.278C97.1646 108.925 97.1646 108.571 97.5365 108.571L99.3964 106.448L99.7683 106.094H100.14H100.512L100.884 106.448V114.586L102 113.878H102.372C102 113.525 102 113.878 102 113.878Z" fill="#C9CEE2"/>
<path d="M107.208 101.14C106.092 101.848 104.976 102.909 104.604 103.971C103.86 105.386 103.86 106.801 103.86 108.217C103.86 109.632 104.232 111.048 104.976 111.401C105.72 112.109 106.464 112.109 107.58 111.401C108.695 110.694 109.811 109.632 110.183 108.571C110.927 107.155 110.927 105.74 110.927 104.325C110.927 102.909 110.555 101.494 109.811 101.14C109.439 100.786 108.695 100.786 107.208 101.14ZM105.72 110.34C105.348 109.986 104.976 108.925 104.976 107.863C104.976 106.801 105.348 105.74 105.72 104.678C106.092 103.617 106.836 103.263 107.58 102.555C108.323 102.201 109.067 102.201 109.439 102.555C109.811 102.909 110.183 103.971 110.183 105.032C110.183 106.094 109.811 107.509 109.439 108.217C109.067 109.278 108.323 109.632 107.58 110.34C106.464 110.694 106.092 110.694 105.72 110.34Z" fill="#C9CEE2"/>
<path d="M112.415 107.509C112.787 107.863 113.159 107.863 113.531 107.863C113.903 107.863 114.647 107.509 115.763 107.155C116.507 106.801 117.25 106.094 117.622 105.74C117.994 105.032 118.366 104.678 118.738 103.971C119.11 103.263 119.11 102.909 119.11 102.555C119.11 101.14 118.366 100.786 117.25 100.786C117.622 100.432 117.994 100.078 118.366 99.3707C118.738 98.663 118.738 98.3091 118.738 97.6014C118.738 97.2476 118.738 96.8937 118.366 96.5399C118.366 96.186 117.994 96.186 117.622 96.186C117.25 96.186 116.507 96.5399 115.763 96.8937C115.019 97.2476 114.275 97.6014 113.903 98.3091C113.531 98.663 113.159 99.3707 112.787 99.7245C112.415 100.078 112.415 100.786 112.415 101.14C112.415 101.848 112.415 102.201 112.787 102.201C113.159 102.555 113.531 102.555 113.903 102.555C112.787 103.617 112.043 105.032 112.043 106.448C112.043 106.801 112.415 107.155 112.415 107.509ZM116.879 97.6014C117.25 97.6014 117.25 97.9553 117.25 98.3091C117.25 98.663 117.25 99.0168 116.879 99.7245C116.507 100.078 116.135 100.786 115.391 100.786C114.647 101.14 114.275 101.14 113.903 101.14C113.531 101.14 113.531 100.786 113.531 100.432C113.531 100.078 113.531 99.3706 113.903 99.0168C114.275 98.663 114.647 98.3091 115.391 97.9553C116.135 97.6014 116.879 97.6014 116.879 97.6014ZM114.275 106.448C113.903 106.448 113.531 106.448 113.531 106.094C113.531 105.74 113.159 105.74 113.159 105.386C113.159 104.678 113.531 104.325 113.903 103.617C114.275 102.909 115.019 102.555 115.391 102.201C116.135 101.848 116.507 101.848 116.879 101.848C117.25 101.848 117.622 102.201 117.622 102.909C117.622 103.263 117.622 103.617 117.25 103.971C117.25 104.325 116.879 104.678 116.507 105.032C116.135 105.386 115.763 105.74 115.019 106.094C114.275 106.448 114.647 106.448 114.275 106.448Z" fill="#C9CEE2"/>
<path d="M123.946 102.555C125.062 101.848 126.178 100.786 126.55 99.7247C127.294 98.3093 127.294 96.894 127.294 95.4786C127.294 94.0632 126.922 92.6478 126.178 92.294C125.434 91.5863 124.69 91.5863 123.574 92.294C122.458 93.0016 121.342 94.0632 120.97 95.1247C120.227 96.5401 120.227 97.9555 120.227 99.3709C120.227 100.786 120.599 102.202 121.342 102.555C121.714 103.263 122.83 103.263 123.946 102.555ZM125.806 93.7093C126.178 94.0632 126.55 95.1247 126.55 96.1863C126.55 97.2478 126.178 98.6632 125.806 99.3709C125.434 100.432 124.69 100.786 123.946 101.494C123.202 101.848 122.458 101.848 122.086 101.494C121.714 100.786 121.714 100.079 121.714 98.6632C121.714 97.6017 122.086 96.5401 122.458 95.4786C122.83 94.417 123.574 94.0632 124.318 93.3555C125.062 92.6478 125.434 93.0016 125.806 93.7093Z" fill="#C9CEE2"/>
<path d="M118.366 86.9859V87.3398V88.0475C118.366 88.4013 117.994 88.4013 117.994 88.4013L113.903 90.5244H113.531V90.1706C113.531 89.8167 113.531 89.8167 113.531 89.4629C113.531 89.109 113.903 89.109 113.903 89.109L115.391 88.4013V81.3244L114.275 82.7398L113.903 83.0936H113.531V82.7398C113.531 82.3859 113.531 82.0321 113.903 82.0321L115.763 79.909L116.135 79.5552H116.506H116.878L117.25 79.909V88.0475L118.366 87.3398C117.994 86.9859 118.366 86.9859 118.366 86.9859Z" fill="#C9CEE2"/>
<path d="M126.922 83.0937V83.8014C126.922 84.1552 126.55 84.1552 126.55 84.1552L122.458 86.2783H122.086V85.9245C122.086 85.5706 122.086 85.5706 122.086 85.2168C122.086 84.8629 122.458 84.8629 122.458 84.8629L123.946 84.1552V77.0783L122.83 78.4937L122.458 78.8475H122.086V78.4937C122.086 78.1399 122.086 77.786 122.458 77.786L124.318 75.6629L124.69 75.3091H125.062H125.434L125.806 75.6629V83.8014L126.922 83.0937H127.294C126.55 82.7398 126.922 82.7398 126.922 83.0937Z" fill="#C9CEE2"/>
<path d="M126.922 64.6938V65.4015C126.922 65.7553 126.55 65.7553 126.55 65.7553L122.086 67.8784H121.714V67.5246C121.714 67.1707 121.714 67.1707 121.714 66.8169C121.714 66.463 122.086 66.463 122.086 66.463L123.574 65.7553V58.6784L122.458 60.0938L122.086 60.4476H121.714V60.0938C121.714 59.74 121.714 59.3861 122.086 59.3861L123.946 57.263L124.318 56.9092H124.69H125.062L125.434 57.263V65.4015L126.55 64.6938H126.922C126.922 64.6938 126.55 64.34 126.922 64.6938Z" fill="#C9CEE2"/>
<path d="M68.5226 149.617V149.971V150.678C68.5226 151.032 68.1506 151.032 68.1506 151.032L64.059 153.155H63.687V152.801C63.687 152.448 63.687 152.448 63.687 152.094C63.687 151.74 64.059 151.74 64.059 151.74L65.5468 151.032V143.955L64.4309 145.371L64.059 145.724H63.687V145.371C63.687 145.017 63.687 144.663 64.059 144.663L65.9188 142.54L66.2908 142.186H66.6627H67.0347L67.4067 142.54V150.678L68.5226 149.971C68.1506 149.617 68.5226 149.617 68.5226 149.617Z" fill="#C9CEE2"/>
<path d="M60.3395 154.217V154.571V155.278C60.3395 155.632 59.9675 155.632 59.9675 155.632L55.8759 157.755H55.5039V157.402C55.5039 157.048 55.5039 157.048 55.5039 156.694C55.5039 156.34 55.8759 156.34 55.8759 156.34L57.3637 155.632V148.555L56.2478 149.971L55.8759 150.325H55.5039V149.971C55.5039 149.617 55.5039 149.263 55.8759 149.263L57.7357 147.14L58.1077 146.786H58.4796H58.8516L59.2236 147.14V155.278L60.3395 154.571C59.9675 154.217 60.3395 154.217 60.3395 154.217Z" fill="#C9CEE2"/>
<path d="M77.0777 145.371V146.078C77.0777 146.432 76.7058 146.432 76.7058 146.432L72.6141 148.555H72.2422V148.201C72.2422 147.847 72.2422 147.847 72.2422 147.494C72.2422 147.14 72.6141 147.14 72.6141 147.14L74.102 146.432V139.355L72.9861 140.771L72.6141 141.124H72.2422V140.771C72.2422 140.417 72.2422 140.063 72.6141 140.063L74.474 137.94L74.8459 137.586H75.2179H75.5899L75.9619 137.94V146.078L77.0777 145.371H77.4497C77.0777 145.017 77.0777 145.371 77.0777 145.371Z" fill="#C9CEE2"/>
<path d="M82.6572 143.247C83.7731 142.54 84.889 141.478 85.2609 140.417C86.0049 139.001 86.0049 137.586 86.0049 136.17C86.0049 134.755 85.6329 133.34 84.889 132.986C84.145 132.278 83.4011 132.278 82.2852 132.986C81.1693 133.694 80.0534 134.755 79.6814 135.817C78.9375 137.232 78.9375 138.647 78.9375 140.063C78.9375 141.478 79.3095 142.894 80.0534 143.247C80.4254 143.955 81.1693 143.955 82.6572 143.247ZM84.145 134.047C84.517 134.401 84.889 135.463 84.889 136.524C84.889 137.586 84.517 139.001 84.145 139.709C83.7731 140.77 83.0291 141.124 82.2852 141.832C81.5413 142.186 80.7973 142.186 80.4254 141.832C80.0534 141.478 79.6814 140.417 79.6814 139.355C79.6814 138.294 80.0534 137.232 80.4254 136.17C80.7973 135.109 81.5413 134.755 82.2852 134.047C83.0291 133.694 83.7731 133.694 84.145 134.047Z" fill="#C9CEE2"/>
<path d="M90.8407 138.647C91.9566 137.94 93.0725 136.878 93.4445 135.817C94.1884 134.401 94.1884 132.986 94.1884 131.57C94.1884 130.155 93.8165 128.74 93.0725 128.386C92.3286 127.678 91.5847 127.678 90.4688 128.386C89.3529 129.093 88.237 130.155 87.865 131.217C87.1211 132.632 87.1211 134.047 87.1211 135.463C87.1211 136.878 87.4931 138.293 88.237 138.647C88.609 139.355 89.7249 139.355 90.8407 138.647ZM92.3286 129.801C92.7006 130.155 93.0725 131.217 93.0725 132.278C93.0725 133.34 92.7006 134.755 92.3286 135.463C91.9566 136.524 91.2127 136.878 90.4688 137.586C89.7249 137.94 88.9809 137.94 88.609 137.586C88.237 137.232 87.865 136.17 87.865 135.109C87.865 134.047 88.237 132.986 88.609 131.924C88.9809 130.863 89.7249 130.509 90.4688 129.801C91.5847 129.093 91.9566 129.093 92.3286 129.801Z" fill="#C9CEE2"/>
<path d="M99.0244 123.786C97.9085 124.494 96.7927 125.555 96.4207 126.617C95.6768 128.032 95.6768 129.448 95.6768 130.863C95.6768 132.278 96.0487 133.694 96.7927 134.048C97.5366 134.755 98.2805 134.755 99.3964 134.048C100.512 133.34 101.628 132.278 102 131.217C102.744 129.802 102.744 128.386 102.744 126.971C102.744 125.555 102.372 124.14 101.628 123.786C101.256 123.078 100.14 123.078 99.0244 123.786ZM97.1646 132.632C96.7927 132.278 96.4207 131.217 96.4207 130.155C96.4207 129.094 96.7927 128.032 97.1646 126.971C97.5366 125.909 98.2805 125.555 99.0244 124.848C99.7684 124.494 100.512 124.494 100.884 124.848C101.256 125.202 101.628 126.263 101.628 127.325C101.628 128.386 101.256 129.802 100.884 130.509C100.512 131.571 99.7684 131.925 99.0244 132.632C98.2805 133.34 97.5366 133.34 97.1646 132.632Z" fill="#C9CEE2"/>
<path d="M107.207 129.448C108.323 128.74 109.439 127.678 109.811 126.617C110.555 125.201 110.555 123.786 110.555 122.371C110.555 120.955 110.183 119.54 109.439 119.186C108.695 118.478 107.951 118.478 106.835 119.186C105.72 119.894 104.604 120.955 104.232 122.017C103.488 123.432 103.488 124.848 103.488 126.263C103.488 127.678 103.86 129.094 104.604 129.448C105.348 130.155 106.092 130.155 107.207 129.448ZM109.067 120.601C109.439 120.955 109.811 122.017 109.811 123.078C109.811 124.14 109.439 125.555 109.067 126.263C108.695 127.324 107.951 127.678 107.207 128.386C106.464 128.74 105.72 128.74 105.348 128.386C104.976 128.032 104.604 126.971 104.604 125.909C104.604 124.848 104.976 123.786 105.348 122.724C105.72 121.663 106.464 121.309 107.207 120.601C107.951 119.894 108.695 119.894 109.067 120.601Z" fill="#C9CEE2"/>
<path d="M60.7114 171.909V172.617C60.7114 172.971 60.3395 172.971 60.3395 172.971L56.2478 175.094H55.8759V174.74C55.8759 174.386 55.8759 174.386 55.8759 174.032C55.8759 173.678 56.2478 173.678 56.2478 173.678L57.7357 172.971V165.894L56.2478 166.955L55.8759 167.309H55.5039V166.955C55.5039 166.601 55.5039 166.247 55.8759 166.247L57.7357 164.124L58.1077 163.771H58.4796H58.8516L59.2236 164.124V172.263L60.3395 171.555H60.7114C60.3395 171.555 60.7114 171.555 60.7114 171.909Z" fill="#C9CEE2"/>
<path d="M46.9487 154.571V154.217C46.9487 153.863 46.9487 153.509 47.3207 153.509L49.1805 151.386L49.5525 151.032H49.9245H50.2964L50.6684 151.386V159.525L51.7843 158.817H52.1563V159.171C52.1563 159.171 52.1563 159.525 52.1563 159.878C52.1563 160.232 51.7843 160.232 51.7843 160.232L47.6927 162.355H47.3207C47.3207 162.355 47.3207 162.355 47.3207 162.001C47.3207 161.648 47.3207 161.648 47.3207 161.294C47.3207 160.94 47.6927 160.94 47.6927 160.94L49.1805 160.232V153.155L48.0646 154.571L47.6927 154.925C47.3207 154.571 46.9487 154.571 46.9487 154.571Z" fill="#C9CEE2"/>
<path d="M52.1564 176.155V176.509V177.217C52.1564 177.571 51.7844 177.571 51.7844 177.571L47.6928 179.694H47.3208V179.34C47.3208 178.986 47.3208 178.986 47.3208 178.632C47.3208 178.278 47.6928 178.278 47.6928 178.278L49.1806 177.571V170.494L48.0647 171.909L47.6928 172.263H47.3208V171.909C47.3208 171.555 47.3208 171.202 47.6928 171.202L49.5526 169.078L49.9246 168.725H50.2965H50.6685L51.0405 169.078V177.217L52.1564 176.509C51.7844 175.802 51.7844 175.802 52.1564 176.155Z" fill="#C9CEE2"/>
<path d="M65.9194 169.786C67.0353 169.078 68.1512 168.017 68.5231 166.955C69.2671 165.54 69.2671 164.124 69.2671 162.709C69.2671 161.294 68.8951 159.878 68.1512 159.524C67.4072 158.817 66.6633 158.817 65.5474 159.524C64.4315 160.232 63.3156 161.294 62.9436 162.355C62.5717 163.417 62.1997 164.832 62.1997 166.247C62.1997 167.663 62.5717 169.078 63.3156 169.432C64.0595 170.14 64.8035 170.14 65.9194 169.786ZM67.7792 160.586C68.1512 160.94 68.5231 162.001 68.5231 163.063C68.5231 164.124 68.1512 165.54 67.7792 166.247C67.4072 167.309 66.6633 167.663 65.9194 168.371C65.1754 168.724 64.4315 168.724 64.0595 168.371C63.6876 168.017 63.3156 166.955 63.3156 165.894C63.3156 164.832 63.6876 163.771 64.0595 162.709C64.4315 161.647 65.1754 161.294 65.9194 160.586C66.6633 160.232 67.4072 160.232 67.7792 160.586Z" fill="#C9CEE2"/>
<path d="M74.1025 165.186C75.2184 164.478 76.3343 163.417 76.7062 162.355C77.4502 160.94 77.8221 159.524 77.4502 158.109C77.4502 156.694 77.0782 155.278 76.3343 154.924C75.5903 154.217 74.8464 154.217 73.7305 154.924C72.6146 155.632 71.4987 156.694 71.1267 157.755C70.3828 159.17 70.3828 160.586 70.3828 162.001C70.3828 163.417 70.7548 164.832 71.4987 165.186C72.2426 165.894 72.9866 165.894 74.1025 165.186ZM75.9623 155.986C76.3343 156.34 76.7062 157.401 76.7062 158.463C76.7062 159.524 76.3343 160.94 75.9623 161.647C75.5903 162.709 74.8464 163.063 74.1025 163.77C73.3585 164.124 72.6146 164.124 72.2426 163.77C71.8707 163.417 71.4987 162.355 71.4987 161.294C71.4987 160.232 71.8707 159.17 72.2426 158.109C72.6146 157.047 73.3585 156.694 74.1025 155.986C74.8464 155.632 75.5903 155.632 75.9623 155.986Z" fill="#C9CEE2"/>
<path d="M85.2608 158.109V158.817C85.2608 159.17 84.8888 159.17 84.8888 159.17L80.7972 161.293H80.4252V160.94C80.4252 160.586 80.4252 160.586 80.4252 160.232C80.4252 159.878 80.7972 159.878 80.7972 159.878L82.285 159.17V152.093L80.7972 153.509L80.4252 153.863H80.0532V153.509C80.0532 153.155 80.0532 152.801 80.4252 152.801L82.285 150.678L82.657 150.324H83.029H83.4009L83.7729 150.678V158.817L84.8888 158.109H85.2608C85.2608 158.109 85.2608 157.755 85.2608 158.109Z" fill="#C9CEE2"/>
<path d="M90.8409 145.371C89.725 146.079 88.6091 147.14 88.2371 148.202C87.4932 149.617 87.4932 151.032 87.4932 152.448C87.4932 153.863 87.8651 155.279 88.6091 155.632C89.353 156.34 90.0969 156.34 91.2128 155.632C92.3287 154.925 93.4446 153.863 93.8166 152.802C94.5605 151.386 94.5605 149.971 94.5605 148.555C94.5605 147.14 94.1886 145.725 93.4446 145.371C92.7007 145.017 91.9568 145.017 90.8409 145.371ZM88.981 154.571C88.6091 154.217 88.2371 153.155 88.2371 152.094C88.2371 151.032 88.6091 149.971 88.981 148.909C89.353 147.848 90.0969 147.494 90.8409 146.786C91.5848 146.432 92.3287 146.432 92.7007 146.786C93.0727 147.14 93.4446 148.202 93.4446 149.263C93.4446 150.325 93.0727 151.74 92.7007 152.448C92.3287 153.509 91.5848 153.863 90.8409 154.571C90.0969 154.925 89.353 154.925 88.981 154.571Z" fill="#C9CEE2"/>
<path d="M102 148.909V149.617C102 149.971 101.628 149.971 101.628 149.971L97.536 152.094H97.1641V151.74C97.1641 151.386 97.1641 151.386 97.1641 151.032C97.1641 150.678 97.536 150.678 97.536 150.678L99.0239 149.971V142.894L97.908 144.309L97.536 144.663H97.1641V144.309C97.1641 143.955 97.1641 143.601 97.536 143.601L99.3959 141.478L99.7678 141.125H100.14H100.512L100.884 141.478V149.617L102 148.909H102.372C102 148.909 102 148.909 102 148.909Z" fill="#C9CEE2"/>
<path d="M107.207 136.524C106.091 137.232 104.975 138.294 104.603 139.355C103.859 140.771 103.859 142.186 103.859 143.601C103.859 145.017 104.231 146.432 104.975 146.786C105.719 147.494 106.463 147.494 107.579 146.786C108.695 146.078 109.811 145.017 110.183 143.955C110.927 142.54 110.927 141.124 110.927 139.709C110.927 138.294 110.555 136.878 109.811 136.524C109.439 135.817 108.695 135.817 107.207 136.524ZM105.719 145.371C105.347 145.017 104.975 143.955 104.975 142.894C104.975 141.832 105.347 140.771 105.719 139.709C106.091 138.647 106.835 138.294 107.579 137.586C108.323 137.232 109.067 137.232 109.439 137.586C109.811 137.94 110.183 139.001 110.183 140.063C110.183 141.124 109.811 142.54 109.439 143.248C109.067 144.309 108.323 144.663 107.579 145.371C106.463 146.078 106.091 146.078 105.719 145.371Z" fill="#C9CEE2"/>
<path d="M112.415 142.54C112.787 142.894 113.159 142.894 113.531 142.894C113.903 142.894 114.647 142.54 115.763 142.186C116.507 141.832 117.251 141.124 117.623 140.771C117.995 140.063 118.367 139.709 118.739 139.001C119.111 138.294 119.111 137.94 119.111 137.586C119.111 136.171 118.367 135.817 117.251 135.817C117.623 135.463 117.995 135.109 118.367 134.401C118.739 133.694 118.739 133.34 118.739 132.632C118.739 132.278 118.739 131.924 118.367 131.571C117.995 131.217 117.995 131.217 117.251 131.217C116.879 131.217 116.135 131.571 115.391 131.924C114.647 132.278 113.903 132.632 113.531 133.34C113.159 133.694 112.787 134.401 112.415 134.755C112.043 135.109 112.043 135.817 112.043 136.171C112.043 136.878 112.043 137.232 112.415 137.232C112.787 137.586 113.159 137.586 113.531 137.586C112.415 138.648 111.671 140.063 111.671 141.478C112.043 141.832 112.415 142.186 112.415 142.54ZM116.879 132.632C117.251 132.632 117.251 132.986 117.251 133.34C117.251 133.694 117.251 134.048 116.879 134.755C116.507 135.109 116.135 135.817 115.391 135.817C114.647 136.171 114.275 136.171 113.903 136.171C113.531 136.171 113.531 135.817 113.531 135.463C113.531 135.109 113.531 134.401 113.903 134.048C114.275 133.694 114.647 133.34 115.391 132.986C116.135 132.632 116.879 132.632 116.879 132.632ZM114.275 141.478C113.903 141.478 113.531 141.478 113.531 141.124C113.531 140.771 113.159 140.771 113.159 140.417C113.159 139.709 113.531 139.355 113.903 138.648C114.275 137.94 115.019 137.586 115.391 137.232C116.135 136.878 116.507 136.878 116.879 136.878C117.251 136.878 117.623 137.232 117.623 137.94C117.623 138.294 117.623 138.648 117.251 139.001C117.251 139.355 116.879 139.709 116.507 140.063C116.135 140.417 115.763 140.771 115.019 141.124C115.019 141.478 114.647 141.478 114.275 141.478Z" fill="#C9CEE2"/>
<path d="M123.946 137.94C125.062 137.232 126.178 136.171 126.55 135.109C127.293 133.694 127.293 132.278 127.293 130.863C127.293 129.447 126.921 128.032 126.178 127.678C125.434 126.971 124.69 126.971 123.574 127.678C122.458 128.386 121.342 129.447 120.97 130.509C120.226 131.924 120.226 133.34 120.226 134.755C120.226 136.171 120.598 137.586 121.342 137.94C121.714 138.294 122.83 138.294 123.946 137.94ZM125.806 128.74C126.178 129.094 126.55 130.155 126.55 131.217C126.55 132.278 126.178 133.694 125.806 134.401C125.434 135.463 124.69 135.817 123.946 136.524C123.202 136.878 122.458 136.878 122.086 136.524C121.714 135.817 121.714 135.109 121.714 133.694C121.714 132.632 122.086 131.571 122.458 130.509C122.83 129.447 123.574 129.094 124.318 128.386C125.062 127.678 125.434 128.386 125.806 128.74Z" fill="#C9CEE2"/>
<path d="M118.366 122.371V122.725V123.432C118.366 123.786 117.994 123.786 117.994 123.786L113.903 125.909H113.531V125.555C113.531 125.201 113.531 125.201 113.531 124.848C113.531 124.494 113.903 124.494 113.903 124.494L115.391 123.786V116.709L114.275 118.125L113.903 118.478H113.531V118.125C113.531 117.771 113.531 117.417 113.903 117.417L115.763 115.294L116.135 114.94H116.506H116.878L117.25 115.294V123.432L118.366 122.725C117.994 122.371 118.366 122.371 118.366 122.371Z" fill="#C9CEE2"/>
<path d="M126.922 118.124V118.832C126.922 119.186 126.55 119.186 126.55 119.186L122.458 121.309H122.086V120.955C122.086 120.601 122.086 120.601 122.086 120.248C122.086 119.894 122.458 119.894 122.458 119.894L123.946 119.186V112.109L122.83 113.524L122.458 113.878H122.086V113.524C122.086 113.171 122.086 112.817 122.458 112.817L124.318 110.694L124.69 110.34H125.062H125.434L125.806 110.694V118.832L126.922 118.124H127.293C126.55 117.771 126.922 117.771 126.922 118.124Z" fill="#C9CEE2"/>
<path d="M147 88.7115C147 90.1269 145.884 91.8962 144.768 92.25L116.871 107.465C116.127 107.819 115.755 107.819 115.011 107.465L112.779 106.404C112.407 106.05 112.035 105.696 112.035 104.988V94.3731C112.035 92.9577 113.151 91.1885 114.267 90.4808L142.164 75.2654C142.908 74.9115 143.28 74.9115 143.652 75.2654L145.884 76.3269C146.256 76.6808 146.628 77.0346 146.628 77.7423L147 88.7115Z" fill="#484188"/>
<path d="M146.256 76.6809C145.884 76.3271 145.14 76.3271 144.768 76.6809L116.87 91.8963C115.754 92.604 114.639 94.3732 114.639 95.7886V106.404C114.639 107.112 115.011 107.466 115.382 107.819L113.151 106.758C112.779 106.404 112.407 106.05 112.407 105.342V94.7271C112.407 93.3117 113.523 91.5425 114.639 90.8348L142.536 75.6194C143.28 75.2655 143.652 75.2655 144.024 75.6194L146.256 76.6809Z" fill="#484188"/>
<path d="M144.768 77.0345C145.884 76.3268 147 77.0345 147 78.4499V89.0652C147 90.4806 145.884 92.2499 144.768 92.6037L116.87 107.819C115.755 108.527 114.639 107.819 114.639 106.758V96.1422C114.639 94.7268 115.755 92.9575 116.87 92.2499L144.768 77.0345Z" fill="#AAA0F5"/>
<path d="M119.846 95.7884C121.334 95.0807 122.078 95.7884 122.078 97.2038C122.078 98.6192 120.962 100.388 119.846 101.096C118.358 101.804 117.614 101.096 117.614 99.6807C117.614 98.2653 118.73 96.4961 119.846 95.7884Z" fill="white"/>
<path d="M127.285 91.5423C128.773 90.8346 129.517 91.5423 129.517 92.9577C129.517 94.373 128.401 96.1423 127.285 96.85C125.797 97.5577 125.054 96.85 125.054 95.4346C124.682 94.0192 125.797 92.25 127.285 91.5423Z" fill="white"/>
<path d="M134.353 87.6497C135.841 86.942 136.585 87.6497 136.585 89.0651C136.585 90.4805 135.469 92.2497 134.353 92.9574C132.865 93.6651 132.121 92.9574 132.121 91.542C132.121 90.1266 132.865 88.3574 134.353 87.6497Z" fill="white"/>
<path d="M141.421 83.7576C142.909 83.0499 143.653 83.7576 143.653 85.173C143.653 86.5884 142.537 88.3576 141.421 89.0653C139.933 89.773 139.189 89.0653 139.189 87.6499C139.189 86.2345 140.305 84.4653 141.421 83.7576Z" fill="white"/>
<path d="M63.7327 133.72L30.8674 200L28.2381 198.749C26.9235 198.124 26.2662 195.623 27.5808 192.497L53.8731 136.846C54.5304 134.97 56.5024 133.094 57.817 132.469C59.1316 131.844 60.4462 131.844 61.1035 132.469L63.7327 133.72Z" fill="#484188"/>
<path d="M60.4472 133.718C61.7618 133.092 63.0764 133.092 64.3911 133.718L90.6834 160.605C92.6553 162.481 90.6834 168.734 86.7395 170.609L34.1549 199.373C30.2111 201.249 28.2392 198.122 30.2111 193.745L56.5034 138.095C57.1607 136.219 59.1326 134.968 60.4472 133.718Z" fill="#AAA0F5"/>
<path d="M63.7328 164.983L65.0474 171.861L55.1878 177.488C55.1878 176.863 56.5024 168.109 56.5024 168.734C52.5586 167.484 53.8732 159.355 59.7889 155.603C60.4462 154.978 61.1035 154.978 61.7609 154.978H62.4182C67.0193 154.978 67.0193 161.231 63.7328 164.983Z" fill="#111D33"/>
<path d="M63.7328 164.983C67.0194 160.606 67.0194 154.978 62.4182 154.978C62.4182 154.978 62.4182 154.978 61.7609 154.978C62.4182 155.604 62.4182 156.854 62.4182 158.105C62.4182 159.981 61.7609 162.482 60.4463 164.358L61.7609 171.236L64.3901 171.861L63.7328 164.983Z" fill="#463F7B"/>
<path d="M63.0756 170.611L56.5025 174.362C56.5025 174.988 55.8452 177.489 55.8452 176.863L65.7048 171.236L63.0756 170.611Z" fill="#1D2943"/>
<path d="M61.1038 163.733C61.1038 164.359 62.4184 171.237 62.4184 170.611C61.7611 171.237 55.188 174.363 55.8453 174.363C55.8453 173.738 57.1599 167.485 57.1599 168.11C52.5588 166.86 55.8453 158.106 60.4465 154.979C61.1038 154.354 61.7611 154.354 62.4184 154.354C63.0757 154.979 63.0757 156.23 63.733 157.48C63.733 159.356 63.0757 161.857 61.1038 163.733Z" fill="#111D33"/>
</svg>
