<svg width="200" height="184" viewBox="0 0 200 184" fill="none" xmlns="http://www.w3.org/2000/svg">
<path d="M199.198 148.798L192.499 144.192L192.555 116.057L171.415 101.523L150.433 116.044L150.377 144.117L149.118 144.988L127.533 130.15L149.904 114.667C150.425 114.301 150.701 113.827 150.701 113.352L150.732 96.2042C150.745 95.7124 150.485 95.2174 149.941 94.8433L137.886 86.5551L155.959 74.1307L170.26 84.0287C170.841 84.4241 171.77 84.4241 172.351 84.0287L199.198 65.5733C199.48 65.3757 199.63 65.1185 199.63 64.8618L199.596 50.3112C199.598 50.0503 199.453 49.7886 199.161 49.5863L192.3 44.8384L192.355 16.8247L171.215 2.28991L150.233 16.8108L150.177 45.047L143.576 49.5863C143.286 49.7858 143.145 50.0488 143.148 50.3109L143.164 64.862C143.164 65.1187 143.313 65.3757 143.595 65.5735L155.181 73.5925L137.105 86.0183L119.778 74.1307V13.0291L118.577 9.63029C112.427 15.1422 115.24 10.9649 120.409 5.19333C112.854 11.5313 120.33 5.12999 120.277 5.0986L114.288 1.84529C113.678 1.43502 112.83 1.49798 111.902 2.12945L82.7617 22.6592C80.9324 23.8901 80.8797 27.4978 80.906 30.0233V71.3757L61.6576 84.8663L44.8514 73.3131L56.0341 65.5735C56.3162 65.3759 56.4655 65.1187 56.4655 64.862L56.482 50.3109C56.4848 50.0488 56.344 49.7858 56.0539 49.5863L48.9379 44.6937L48.9931 16.8253L27.853 2.29046L6.87068 16.8113L6.81438 45.1952L0.468661 49.5867C0.176547 49.789 0.0319718 50.0507 0.0333755 50.3116L0 64.862C0 65.1187 0.14941 65.3757 0.431387 65.5735L27.2786 84.0288C27.8594 84.4243 28.7884 84.4243 29.3692 84.0288L44.0735 73.8518L60.8796 85.4045L47.2398 94.8441C46.6947 95.2213 46.4272 95.7101 46.4352 96.1971L46.3741 113.352C46.3741 113.827 46.6501 114.301 47.171 114.667L71.3006 131.254L50.9145 145.268L49.1374 144.038L49.1927 116.057L28.0526 101.523L7.07047 116.044L7.01448 144.272L0.431075 148.798C0.140676 148.998 0.000311881 149.26 0.00311917 149.523L0.0196509 164.073C0.0196509 164.33 0.168905 164.587 0.451037 164.785L27.1159 183.241C27.6965 183.636 28.6256 183.636 29.2066 183.241L56.0536 164.785C56.3357 164.587 56.4851 164.331 56.4851 164.073L56.4518 149.523C56.4533 149.262 56.3086 149.001 56.0165 148.799L51.6925 145.806L72.0812 131.791L96.7744 148.766C97.8475 149.496 99.5644 149.496 100.637 148.766L126.755 130.689L148.34 145.527L143.613 148.799C143.321 149.001 143.176 149.262 143.177 149.523L143.144 164.074C143.144 164.331 143.293 164.587 143.576 164.785L170.423 183.241C171.003 183.636 171.932 183.636 172.513 183.241L199.178 164.785C199.46 164.588 199.609 164.331 199.609 164.074L199.626 149.523C199.629 149.261 199.488 148.998 199.198 148.798ZM149.987 97.4526C149.979 97.4586 149.974 97.4652 149.965 97.4712L149.963 97.4723C149.972 97.4662 149.978 97.4588 149.987 97.4526ZM172.32 69.479L199.165 51.022C199.309 50.923 199.415 50.8094 199.487 50.6892C199.415 50.8138 199.307 50.9288 199.165 51.0285L172.318 69.484C171.895 69.7806 171.265 69.8545 170.733 69.6976C171.264 69.8467 171.892 69.7732 172.32 69.479ZM143.562 51.0086C143.531 50.9864 143.52 50.9574 143.492 50.934C143.521 50.9583 143.533 50.9882 143.566 51.0112L143.562 51.0086ZM56.1425 50.9284C56.1128 50.9539 56.101 50.9849 56.0672 51.0086L56.0634 51.0114C56.0983 50.9869 56.1118 50.9548 56.1425 50.9284ZM27.3119 69.4838L0.464762 51.0285C0.32237 50.9288 0.214913 50.8138 0.142236 50.6892C0.214446 50.8094 0.320811 50.923 0.464762 51.022L27.3101 69.479C27.7379 69.7732 28.3653 69.8467 28.897 69.6976C28.3641 69.8543 27.7349 69.7804 27.3119 69.4838ZM0.417818 150.22C0.383975 150.197 0.372122 150.166 0.342489 150.14C0.373369 150.167 0.386626 150.199 0.421717 150.223L0.417818 150.22ZM56.0204 150.233C56.1643 150.135 56.2707 150.021 56.3429 149.901C56.2702 150.026 56.1628 150.14 56.0204 150.24L29.1732 168.696C28.7502 168.992 28.1214 169.066 27.5885 168.909C28.1198 169.058 28.7472 168.985 29.175 168.691L56.0204 150.233ZM82.8443 70.2039L82.8385 70.2078L82.7617 38.6558L82.8443 70.2039ZM83.8117 122.653L47.2325 97.5076C46.97 97.3237 46.7704 97.1122 46.6364 96.8819C46.7696 97.1038 46.9673 97.313 47.2326 97.4953L83.818 122.649L83.8117 122.653ZM96.836 131.606L84.5926 123.19L84.5987 123.186L96.8324 131.597C97.6233 132.141 98.7827 132.276 99.7649 132.001C98.78 132.291 97.6181 132.155 96.836 131.606ZM119.279 3.96566C119.146 4.02862 119.91 3.87113 119.778 3.96566L86.0755 26.091L119.279 3.39919C119.411 3.30428 119.146 4.02862 119.279 3.96566C119.544 3.80761 117.044 6.86108 117.282 6.79794C117.044 6.86108 119.544 3.83937 119.279 3.96566ZM170.456 168.696L143.609 150.24C143.467 150.14 143.359 150.025 143.287 149.9C143.359 150.021 143.465 150.134 143.609 150.233L170.454 168.69C170.882 168.984 171.51 169.058 172.041 168.909C171.508 169.066 170.879 168.992 170.456 168.696ZM199.212 150.22L199.208 150.223C199.241 150.2 199.253 150.17 199.282 150.146C199.254 150.169 199.243 150.198 199.212 150.22Z" fill="#E4E8F4"/>
<path d="M169.289 63.9802L169.678 64.7844L21.1889 166.88L20.799 166.076L169.289 63.9802Z" fill="#969DCB"/>
<path d="M25.1689 59.7822L173.658 161.878L173.269 162.682L24.779 60.5864L25.1689 59.7822Z" fill="#969DCB"/>
<path d="M150.732 96.1564L150.701 113.352C150.701 113.826 150.425 114.301 149.904 114.666L100.638 148.765C99.565 149.495 97.8483 149.495 96.7752 148.765L47.1716 114.666C46.6506 114.301 46.3745 113.826 46.3745 113.352L46.436 96.1566C46.436 96.6677 46.712 97.1422 47.2331 97.5074L96.8366 131.606C97.8789 132.337 99.5959 132.337 100.669 131.57L149.966 97.4708C150.487 97.1056 150.732 96.6311 150.732 96.1564Z" fill="#484188"/>
<path d="M149.941 94.8436C150.998 95.5703 151.003 96.7545 149.953 97.4813L100.676 131.584C99.6065 132.324 97.8897 132.324 96.8327 131.597L47.233 97.4954C46.1564 96.7553 46.1704 95.5845 47.24 94.8442L96.5172 60.7417C97.5675 60.015 99.2646 60.0016 100.341 60.7417L149.941 94.8436Z" fill="#CEC5F7"/>
<path d="M56.482 50.297L56.4655 64.8615C56.4655 65.1184 56.3161 65.3752 56.0341 65.573L29.3694 84.0285C28.7887 84.4238 27.8595 84.4238 27.2787 84.0285L0.431387 65.573C0.14941 65.3754 0 65.1186 0 64.8617L0.0332195 50.2972C0.0332195 50.5739 0.18263 50.8306 0.464606 51.0282L27.3118 69.4837C27.8759 69.8789 28.8051 69.8789 29.3859 69.464L56.0672 51.0083C56.3493 50.8109 56.482 50.5539 56.482 50.297Z" fill="#416E84"/>
<path d="M56.0536 49.5862C56.6257 49.9796 56.6288 50.6205 56.0603 51.0139L29.3897 69.4712C28.8108 69.8718 27.8816 69.8718 27.3095 69.4785L0.464498 51.0213C-0.11817 50.6207 -0.110684 49.987 0.468241 49.5864L27.1389 31.129C27.7072 30.7357 28.626 30.7284 29.2086 31.129L56.0536 49.5862Z" fill="#4C7891"/>
<path d="M49.1363 49.7648C49.5659 50.0603 49.5683 50.5417 49.1413 50.8372L29.1083 64.701C28.6735 65.0019 27.9756 65.0019 27.5459 64.7064L7.38192 50.8428C6.9443 50.5419 6.94991 50.0659 7.38473 49.765L27.4177 35.9013C27.8446 35.6058 28.5347 35.6004 28.9723 35.9013L49.1363 49.7648Z" fill="#37617B"/>
<path d="M43.9404 49.8982C44.2632 50.1202 44.2648 50.4818 43.9441 50.7037L28.8969 61.1172C28.5703 61.3433 28.046 61.3433 27.7233 61.1213L12.5777 50.708C12.2489 50.482 12.2533 50.1244 12.5799 49.8984L27.6271 39.4849C27.9477 39.2629 28.466 39.2589 28.7948 39.4849L43.9404 49.8982Z" fill="#4C7891"/>
<path d="M23.3217 70.4405L23.3146 73.4184L7.0415 62.1456L7.04852 59.1676L23.3217 70.4405Z" fill="#9AD898"/>
<path d="M5.66876 63.014L5.66158 65.9919L3.02783 64.1816L3.03501 61.2035L5.66876 63.014Z" fill="#9AD898"/>
<path d="M5.67934 58.225L5.67232 61.2029L3.03857 59.3926L3.04575 56.4147L5.67934 58.225Z" fill="#9AD898"/>
<path d="M23.3115 75.2297L23.3045 78.2078L7.03125 66.9349L7.03827 63.9568L23.3115 75.2297Z" fill="#9AD898"/>
<path d="M33.1694 70.4405L33.1765 73.4184L49.4497 62.1456L49.4425 59.1676L33.1694 70.4405Z" fill="#E4E8F4"/>
<path d="M50.8232 63.014L50.8304 65.9919L53.464 64.1816L53.457 61.2035L50.8232 63.014Z" fill="#E4E8F4"/>
<path d="M50.8125 58.225L50.8197 61.2029L53.4533 59.3926L53.4462 56.4147L50.8125 58.225Z" fill="#E4E8F4"/>
<path d="M33.1802 75.2297L33.1872 78.2078L49.4604 66.9349L49.4532 63.9568L33.1802 75.2297Z" fill="#E4E8F4"/>
<path d="M50.8164 162.227L50.8236 165.205L53.4573 163.394L53.4502 160.416L50.8164 162.227Z" fill="#FED57A"/>
<path d="M50.8066 157.437L50.8137 160.415L53.4474 158.604L53.4402 155.626L50.8066 157.437Z" fill="#FED57A"/>
<path d="M0.00292969 149.509L0.0194616 164.074C0.0194616 164.331 0.168872 164.587 0.450848 164.785L27.1156 183.241C27.6962 183.636 28.6254 183.636 29.2062 183.241L56.0534 164.785C56.3354 164.588 56.4848 164.331 56.4848 164.074L56.4516 149.509C56.4516 149.786 56.3021 150.043 56.0202 150.24L29.173 168.696C28.6089 169.091 27.6797 169.091 27.0989 168.676L0.417628 150.22C0.135652 150.023 0.00292969 149.766 0.00292969 149.509Z" fill="#75CA75"/>
<path d="M0.431063 148.799C-0.141 149.192 -0.144119 149.833 0.424357 150.226L27.095 168.684C27.6739 169.085 28.6031 169.084 29.1752 168.691L56.0202 150.234C56.6029 149.833 56.5954 149.2 56.0164 148.799L29.3458 130.342C28.7775 129.948 27.8587 129.941 27.2761 130.342L0.431063 148.799Z" fill="#9AD898"/>
<path d="M7.34817 148.977C6.9185 149.272 6.91616 149.754 7.34318 150.049L27.3761 163.913C27.811 164.214 28.5089 164.214 28.9386 163.918L49.1025 150.055C49.5401 149.754 49.5345 149.278 49.0997 148.977L29.0668 135.113C28.6399 134.818 27.9498 134.812 27.5121 135.113L7.34817 148.977Z" fill="#6EBA6E"/>
<path d="M12.5449 149.111C12.2221 149.333 12.2205 149.694 12.5412 149.916L27.5884 160.33C27.915 160.556 28.4393 160.556 28.762 160.334L43.9076 149.921C44.2364 149.695 44.232 149.337 43.9055 149.111L28.8582 138.698C28.5376 138.476 28.0193 138.472 27.6906 138.698L12.5449 149.111Z" fill="#9AD898"/>
<path d="M33.1631 169.652L33.1703 172.63L49.4433 161.357L49.4363 158.379L33.1631 169.652Z" fill="#FED57A"/>
<path d="M33.1733 174.441L33.1804 177.419L49.4536 166.146L49.4466 163.168L33.1733 174.441Z" fill="#FED57A"/>
<path d="M23.3154 169.652L23.3084 172.63L7.03516 161.357L7.04233 158.379L23.3154 169.652Z" fill="#4C7891"/>
<path d="M5.66225 162.227L5.65508 165.205L3.02148 163.394L3.0285 160.416L5.66225 162.227Z" fill="#4C7891"/>
<path d="M5.673 157.437L5.66582 160.415L3.03223 158.605L3.03925 155.627L5.673 157.437Z" fill="#4C7891"/>
<path d="M23.3047 174.441L23.2976 177.419L7.02441 166.146L7.03159 163.168L23.3047 174.441Z" fill="#4C7891"/>
<path d="M143.147 50.2971L143.164 64.8616C143.164 65.1185 143.313 65.3754 143.595 65.5732L170.26 84.0286C170.841 84.4239 171.77 84.4239 172.351 84.0286L199.198 65.5732C199.48 65.3755 199.629 65.1187 199.629 64.8616L199.596 50.2971C199.596 50.5739 199.447 50.8305 199.165 51.0281L172.318 69.4836C171.753 69.8789 170.824 69.8789 170.243 69.4639L143.562 51.0083C143.28 50.811 143.147 50.554 143.147 50.2971Z" fill="#3B3574"/>
<path d="M143.576 49.5863C143.004 49.9797 143 50.6206 143.569 51.014L170.24 69.4714C170.818 69.872 171.748 69.872 172.32 69.4786L199.165 51.0214C199.747 50.6208 199.74 49.9871 199.161 49.5865L172.49 31.1292C171.922 30.7358 171.003 30.7286 170.421 31.1292L143.576 49.5863Z" fill="#A294E1"/>
<path d="M150.494 49.765C150.064 50.0604 150.062 50.5419 150.489 50.8373L170.522 64.7011C170.956 65.002 171.654 65.002 172.084 64.7065L192.248 50.8429C192.686 50.542 192.68 50.066 192.245 49.7651L172.212 35.9014C171.785 35.6059 171.095 35.6005 170.658 35.9014L150.494 49.765Z" fill="#3B3574"/>
<path d="M155.689 49.8983C155.367 50.1203 155.365 50.4819 155.686 50.7038L170.733 61.1174C171.06 61.3434 171.584 61.3434 171.907 61.1214L187.052 50.7081C187.381 50.4821 187.377 50.1246 187.05 49.8985L172.003 39.485C171.682 39.2631 171.164 39.259 170.835 39.485L155.689 49.8983Z" fill="#CEC5F7"/>
<path d="M176.308 70.4406L176.315 73.4186L192.588 62.1457L192.581 59.1677L176.308 70.4406Z" fill="#736DAA"/>
<path d="M193.961 63.0141L193.969 65.992L196.602 64.1818L196.595 61.2036L193.961 63.0141Z" fill="#736DAA"/>
<path d="M193.951 58.2251L193.958 61.203L196.592 59.3927L196.585 56.4148L193.951 58.2251Z" fill="#736DAA"/>
<path d="M176.318 75.2298L176.325 78.2079L192.598 66.935L192.591 63.9569L176.318 75.2298Z" fill="#736DAA"/>
<path d="M166.46 70.4406L166.453 73.4186L150.18 62.1457L150.187 59.1677L166.46 70.4406Z" fill="#CEC5F7"/>
<path d="M148.807 63.0141L148.8 65.992L146.167 64.1818L146.174 61.2036L148.807 63.0141Z" fill="#CEC5F7"/>
<path d="M148.818 58.2251L148.811 61.203L146.177 59.3927L146.184 56.4148L148.818 58.2251Z" fill="#CEC5F7"/>
<path d="M166.45 75.2298L166.443 78.2079L150.17 66.935L150.177 63.9569L166.45 75.2298Z" fill="#CEC5F7"/>
<g opacity="0.3">
<path opacity="0.3" d="M192.555 116.057L192.488 149.979L171.505 164.5L171.573 130.578L192.555 116.057Z" fill="#CEC5F7"/>
</g>
<g opacity="0.3">
<path opacity="0.3" d="M171.573 130.578L171.505 164.5L150.365 149.965L150.432 116.043L171.573 130.578Z" fill="#CEC5F7"/>
</g>
<g opacity="0.3">
<path opacity="0.3" d="M192.555 116.057L171.573 130.578L150.433 116.043L171.415 101.523L192.555 116.057Z" fill="#576CFB"/>
</g>
<path opacity="0.3" d="M192.355 16.8254L192.288 50.7475L171.306 65.2682L171.373 31.3461L192.355 16.8254Z" fill="#484188"/>
<g opacity="0.68">
<path opacity="0.3" d="M171.373 31.3452L171.306 65.2673L150.166 50.7327L150.233 16.8104L171.373 31.3452Z" fill="#CEC5F7"/>
</g>
<path opacity="0.3" d="M192.356 16.8248L171.374 31.3455L150.233 16.8107L171.216 2.29004L192.356 16.8248Z" fill="#877ED9"/>
<path d="M142.738 149.502L142.755 164.268C142.755 164.528 142.907 164.789 143.192 164.989L170.225 183.7C170.814 184.1 171.756 184.1 172.345 183.7L199.563 164.989C199.849 164.789 200 164.528 200 164.268L199.967 149.502C199.967 149.783 199.815 150.043 199.529 150.243L172.311 168.954C171.739 169.354 170.797 169.354 170.208 168.934L143.159 150.223C142.873 150.023 142.738 149.763 142.738 149.502Z" fill="#3B3574"/>
<path d="M143.172 148.782C142.592 149.18 142.589 149.83 143.166 150.229L170.205 168.941C170.791 169.347 171.734 169.347 172.313 168.948L199.529 150.236C200.12 149.83 200.112 149.188 199.525 148.782L172.486 130.069C171.91 129.671 170.979 129.663 170.388 130.069L143.172 148.782Z" fill="#A294E1"/>
<path d="M150.186 148.962C149.75 149.262 149.748 149.75 150.181 150.049L170.49 164.105C170.931 164.41 171.639 164.41 172.074 164.11L192.517 150.055C192.96 149.75 192.955 149.267 192.514 148.962L172.204 134.907C171.771 134.608 171.072 134.602 170.628 134.907L150.186 148.962Z" fill="#3B3574"/>
<path d="M155.454 149.098C155.126 149.323 155.125 149.689 155.45 149.914L170.705 160.472C171.036 160.701 171.567 160.701 171.895 160.476L187.249 149.919C187.583 149.69 187.578 149.327 187.247 149.098L171.992 138.541C171.667 138.316 171.142 138.312 170.808 138.541L155.454 149.098Z" fill="#CEC5F7"/>
<path d="M176.357 169.923L176.364 172.942L192.862 161.514L192.855 158.495L176.357 169.923Z" fill="#736DAA"/>
<path d="M194.254 162.395L194.261 165.414L196.931 163.578L196.924 160.559L194.254 162.395Z" fill="#736DAA"/>
<path d="M194.244 157.539L194.251 160.558L196.921 158.723L196.914 155.704L194.244 157.539Z" fill="#736DAA"/>
<path d="M176.367 174.779L176.374 177.798L192.872 166.369L192.865 163.35L176.367 174.779Z" fill="#736DAA"/>
<path d="M166.373 169.923L166.366 172.943L149.868 161.514L149.875 158.495L166.373 169.923Z" fill="#CEC5F7"/>
<path d="M148.476 162.395L148.469 165.414L145.799 163.578L145.806 160.559L148.476 162.395Z" fill="#CEC5F7"/>
<path d="M148.486 157.539L148.479 160.558L145.809 158.723L145.816 155.704L148.486 157.539Z" fill="#CEC5F7"/>
<path d="M166.363 174.779L166.356 177.798L149.858 166.369L149.865 163.35L166.363 174.779Z" fill="#CEC5F7"/>
<path opacity="0.3" d="M192.625 115.568L192.557 149.959L171.285 164.68L171.353 130.289L192.625 115.568Z" fill="#484188"/>
<g opacity="0.68">
<path opacity="0.3" d="M171.354 130.289L171.286 164.679L149.854 149.944L149.922 115.553L171.354 130.289Z" fill="#CEC5F7"/>
</g>
<path opacity="0.3" d="M192.626 115.568L171.354 130.289L149.922 115.553L171.194 100.832L192.626 115.568Z" fill="#877ED9"/>
<path d="M0.00292969 149.502L0.0196854 164.268C0.0196854 164.528 0.171165 164.789 0.457036 164.989L27.49 183.7C28.0787 184.1 29.0207 184.1 29.6095 183.7L56.8275 164.989C57.1134 164.789 57.2648 164.528 57.2648 164.268L57.2312 149.502C57.2312 149.783 57.0797 150.043 56.7938 150.243L29.5758 168.954C29.0039 169.354 28.0617 169.354 27.4731 168.934L0.423355 150.223C0.137484 150.023 0.00292969 149.763 0.00292969 149.502Z" fill="#3B3574"/>
<path d="M0.437013 148.782C-0.142951 149.18 -0.146106 149.83 0.430221 150.229L27.4692 168.941C28.0561 169.347 28.9982 169.347 29.5781 168.948L56.7939 150.236C57.3846 149.83 57.377 149.188 56.7901 148.782L29.7511 130.069C29.1749 129.671 28.2435 129.663 27.6528 130.069L0.437013 148.782Z" fill="#A294E1"/>
<path d="M7.45079 148.962C7.01518 149.262 7.01282 149.75 7.44573 150.049L27.7554 164.105C28.1962 164.41 28.9037 164.41 29.3393 164.11L49.7818 150.055C50.2255 149.75 50.2198 149.267 49.7789 148.962L29.4693 134.907C29.0366 134.608 28.3369 134.602 27.8932 134.907L7.45079 148.962Z" fill="#3B3574"/>
<path d="M12.7182 149.098C12.3909 149.323 12.3893 149.689 12.7144 149.914L27.9695 160.472C28.3006 160.701 28.8321 160.701 29.1593 160.476L44.5141 149.919C44.8474 149.69 44.843 149.327 44.5119 149.098L29.2568 138.541C28.9318 138.316 28.4063 138.312 28.073 138.541L12.7182 149.098Z" fill="#CEC5F7"/>
<path d="M33.6216 169.923L33.6287 172.942L50.1266 161.514L50.1195 158.495L33.6216 169.923Z" fill="#736DAA"/>
<path d="M51.5186 162.395L51.5258 165.414L54.1958 163.578L54.1887 160.559L51.5186 162.395Z" fill="#736DAA"/>
<path d="M51.5083 157.539L51.5154 160.558L54.1855 158.723L54.1783 155.704L51.5083 157.539Z" fill="#736DAA"/>
<path d="M33.6318 174.779L33.639 177.798L50.1369 166.369L50.1296 163.35L33.6318 174.779Z" fill="#736DAA"/>
<path d="M23.6379 169.923L23.6308 172.943L7.13281 161.514L7.13992 158.495L23.6379 169.923Z" fill="#CEC5F7"/>
<path d="M5.74073 162.395L5.73346 165.414L3.06348 163.578L3.0706 160.559L5.74073 162.395Z" fill="#CEC5F7"/>
<path d="M5.75115 157.539L5.74387 160.558L3.07373 158.723L3.08101 155.704L5.75115 157.539Z" fill="#CEC5F7"/>
<path d="M23.6276 174.779L23.6205 177.798L7.12256 166.369L7.12983 163.35L23.6276 174.779Z" fill="#CEC5F7"/>
<path opacity="0.3" d="M49.8904 115.568L49.8222 149.959L28.5503 164.68L28.6184 130.289L49.8904 115.568Z" fill="#484188"/>
<g opacity="0.68">
<path opacity="0.3" d="M28.6189 130.289L28.5508 164.679L7.11865 149.944L7.1868 115.553L28.6189 130.289Z" fill="#CEC5F7"/>
</g>
<path opacity="0.3" d="M49.891 115.568L28.6191 130.289L7.18701 115.553L28.4591 100.832L49.891 115.568Z" fill="#877ED9"/>
<path d="M0.00292969 49.7787L0.0196854 64.5443C0.0196854 64.8048 0.171165 65.0652 0.457036 65.2657L27.49 83.9761C28.0787 84.3767 29.0207 84.3767 29.6095 83.9761L56.8275 65.2657C57.1134 65.0653 57.2648 64.8049 57.2648 64.5443L57.2312 49.7787C57.2312 50.0592 57.0797 50.3195 56.7938 50.5198L29.5758 69.2302C29.0039 69.6309 28.0617 69.6309 27.4731 69.2102L0.423355 50.4997C0.137484 50.2997 0.00292969 50.0391 0.00292969 49.7787Z" fill="#3B3574"/>
<path d="M0.437013 49.058C-0.142951 49.4568 -0.146106 50.1066 0.430221 50.5054L27.4692 69.2176C28.0561 69.6238 28.9982 69.6238 29.5781 69.225L56.7939 50.5129C57.3846 50.1068 57.377 49.4643 56.7901 49.0582L29.7511 30.3459C29.1749 29.9471 28.2435 29.9398 27.6528 30.3459L0.437013 49.058Z" fill="#A294E1"/>
<path d="M7.45079 49.2386C7.01518 49.5381 7.01282 50.0262 7.44573 50.3258L27.7554 64.381C28.1962 64.686 28.9037 64.686 29.3393 64.3864L49.7818 50.3314C50.2255 50.0264 50.2198 49.5438 49.7789 49.2387L29.4693 35.1835C29.0366 34.8839 28.3369 34.8785 27.8932 35.1835L7.45079 49.2386Z" fill="#3B3574"/>
<path d="M12.7182 49.3746C12.3909 49.5996 12.3893 49.9662 12.7144 50.1912L27.9695 60.7485C28.3006 60.9777 28.8321 60.9777 29.1593 60.7526L44.5141 50.1955C44.8474 49.9663 44.843 49.6039 44.5119 49.3747L29.2568 38.8174C28.9318 38.5924 28.4063 38.5883 28.073 38.8174L12.7182 49.3746Z" fill="#CEC5F7"/>
<path d="M33.6216 70.1996L33.6287 73.2186L50.1266 61.7901L50.1195 58.771L33.6216 70.1996Z" fill="#736DAA"/>
<path d="M51.5186 62.6709L51.5258 65.69L54.1958 63.8547L54.1887 60.8354L51.5186 62.6709Z" fill="#736DAA"/>
<path d="M51.5083 57.8161L51.5154 60.8352L54.1855 58.9999L54.1783 55.9808L51.5083 57.8161Z" fill="#736DAA"/>
<path d="M33.6318 75.055L33.639 78.0743L50.1369 66.6457L50.1296 63.6265L33.6318 75.055Z" fill="#736DAA"/>
<path d="M23.6379 70.2L23.6308 73.2191L7.13281 61.7906L7.13992 58.7715L23.6379 70.2Z" fill="#CEC5F7"/>
<path d="M5.74073 62.6709L5.73346 65.69L3.06348 63.8547L3.0706 60.8354L5.74073 62.6709Z" fill="#CEC5F7"/>
<path d="M5.75115 57.8161L5.74387 60.8352L3.07373 58.9999L3.08101 55.9808L5.75115 57.8161Z" fill="#CEC5F7"/>
<path d="M23.6276 75.055L23.6205 78.0743L7.12256 66.6457L7.12983 63.6265L23.6276 75.055Z" fill="#CEC5F7"/>
<path opacity="0.3" d="M49.8904 15.869L49.8222 50.2596L28.5503 64.9808L28.6184 30.5902L49.8904 15.869Z" fill="#484188"/>
<g opacity="0.68">
<path opacity="0.3" d="M28.6189 30.5897L28.5508 64.9802L7.11865 50.2449L7.1868 15.8541L28.6189 30.5897Z" fill="#CEC5F7"/>
</g>
<path opacity="0.3" d="M49.891 15.8686L28.6191 30.5898L7.18701 15.8543L28.4591 1.13306L49.891 15.8686Z" fill="#877ED9"/>
<g opacity="0.3">
<path opacity="0.3" d="M49.1926 116.057L49.1252 149.979L28.1431 164.5L28.2103 130.578L49.1926 116.057Z" fill="#CEC5F7"/>
</g>
<g opacity="0.3">
<path opacity="0.3" d="M28.2103 130.578L28.1431 164.5L7.00293 149.965L7.0703 116.043L28.2103 130.578Z" fill="#CEC5F7"/>
</g>
<g opacity="0.3">
<path opacity="0.3" d="M49.1921 116.057L28.2098 130.578L7.06982 116.043L28.052 101.523L49.1921 116.057Z" fill="#576CFB"/>
</g>
<g opacity="0.3">
<path opacity="0.3" d="M48.9927 16.8254L48.9255 50.7475L27.9434 65.2682L28.0106 31.3461L48.9927 16.8254Z" fill="#CEC5F7"/>
</g>
<g opacity="0.3">
<path opacity="0.3" d="M28.011 31.3452L27.9438 65.2673L6.80371 50.7327L6.87093 16.8104L28.011 31.3452Z" fill="#CEC5F7"/>
</g>
<g opacity="0.3">
<path opacity="0.3" d="M48.9934 16.8248L28.0112 31.3455L6.87109 16.8107L27.8532 2.29004L48.9934 16.8248Z" fill="#576CFB"/>
</g>
<path d="M119.828 3.25691L86.9107 112.842L82.6065 109.986C81.546 109.325 80.8597 107.767 80.8597 105.619L80.6519 28.8415C80.6519 24.4988 83.355 19.212 86.6612 17.017L111.219 0.967426C112.903 -0.141804 114.421 -0.283411 115.523 0.471874L119.828 3.25691Z" fill="#413A81"/>
<path d="M115.497 3.7738C118.847 1.5787 121.557 3.30356 121.568 7.67257L121.759 84.4534C121.77 88.7941 119.078 94.0878 115.728 96.2829L91.199 112.357C87.8709 114.538 85.1607 112.785 85.1498 108.444L84.958 31.6636C84.9471 27.2946 87.6398 22.0291 90.968 19.8482L115.497 3.7738Z" fill="#AAA0F5"/>
<path d="M103.238 13.9792C103.584 13.7526 103.866 13.9631 103.867 14.4142C103.868 14.8369 103.588 15.3875 103.242 15.614C102.896 15.8407 102.636 15.6441 102.635 15.2214C102.634 14.7704 102.892 14.2058 103.238 13.9792Z" fill="#F1F6FA"/>
<path d="M86.752 77.6722L86.8323 107.341C86.8323 110.48 88.8077 111.755 91.1991 110.174L115.736 94.1006C118.127 92.5429 120.103 88.6958 120.082 85.5566L120.009 55.8866L86.752 77.6722Z" fill="white"/>
<path d="M86.6309 32.9544L86.7519 77.6717L120.009 55.8861L119.9 11.1608L86.6309 32.9544Z" fill="#877BBE"/>
<path d="M119.894 8.80138C119.894 5.63878 117.919 4.36418 115.507 5.94562L106.066 12.1294C105.796 12.3181 105.546 12.7194 105.422 13.1442C105.027 14.4187 104.257 15.5752 103.363 16.1416L103.114 16.3068C102.24 16.8734 101.471 16.7553 101.076 15.9765C100.951 15.7404 100.701 15.6461 100.41 15.8349L90.9907 22.0187C88.5787 23.5763 86.624 27.4235 86.624 30.5862L86.6305 32.9538L119.9 11.1602L119.894 8.80138Z" fill="white"/>
<path d="M83.9794 34.8837C83.9794 35.3087 83.8546 35.6154 83.6259 35.7571L83.1892 36.0638L81.5049 32.7596L81.9624 32.4528C82.1703 32.3112 82.4615 32.3348 82.7941 32.5471C83.4595 32.9956 83.9794 34.0341 83.9794 34.8837Z" fill="#C9CEE2"/>
<path d="M83.9794 39.7227C83.9794 40.1712 83.8338 40.478 83.6259 40.6196L83.1684 40.9028L81.5049 37.5985L81.9416 37.3153C82.1495 37.1737 82.4615 37.1737 82.7941 37.4096C83.4595 37.8345 83.9794 38.8729 83.9794 39.7227Z" fill="#C9CEE2"/>
<path d="M82.3403 37.6908C83.0052 38.1266 83.5274 39.1664 83.5253 40.0206C83.5231 40.8879 82.9975 41.241 82.3325 40.8053C81.6776 40.3761 81.1453 39.3297 81.1475 38.4624C81.1496 37.6082 81.6853 37.2616 82.3403 37.6908Z" fill="#AAA0F5"/>
<path d="M82.353 32.8432C83.0179 33.279 83.5401 34.332 83.538 35.173C83.5358 36.0403 83.0102 36.3935 82.3452 35.9577C81.6903 35.5285 81.158 34.4821 81.1602 33.6148C81.1623 32.7738 81.698 32.4141 82.353 32.8432Z" fill="#AAA0F5"/>
<path d="M117.364 9.01649L118.038 9.45005L117.767 9.98261L117.093 9.54672C116.9 9.85664 116.668 10.108 116.424 10.2679C116.114 10.4709 115.823 10.5035 115.603 10.3608C115.384 10.2216 115.262 9.92171 115.261 9.51757C115.26 9.1135 115.38 8.65256 115.597 8.22743C115.822 7.78367 116.119 7.44122 116.416 7.24669C116.713 7.05215 117.01 7.00551 117.237 7.15323C117.643 7.41605 117.688 8.21397 117.364 9.01649ZM116.969 9.11479C117.269 8.52234 117.268 7.8812 116.964 7.68459C116.815 7.588 116.615 7.61685 116.418 7.74616C116.219 7.87661 116.022 8.10753 115.87 8.40148C115.725 8.6887 115.644 8.99488 115.645 9.26574C115.646 9.53441 115.728 9.73397 115.874 9.82836C116.019 9.92494 116.217 9.90176 116.423 9.76677C116.631 9.63065 116.824 9.39974 116.969 9.11479Z" fill="#4C5C75"/>
<path d="M94.2222 22.323L94.2241 23.0474L89.7152 26.0022L89.7134 25.2777L94.2222 22.323Z" fill="#4C5C75"/>
<path d="M94.231 25.5958L94.2329 26.3203L89.724 29.2751L89.7222 28.5506L94.231 25.5958Z" fill="#4C5C75"/>
<path d="M94.2271 23.9603L94.2289 24.6816L89.7201 27.6364L89.7183 26.9151L94.2271 23.9603Z" fill="#4C5C75"/>
<path d="M113.124 2.6715C112.383 2.19413 111.161 2.19413 110.42 2.6715C109.76 3.10337 109.679 3.76248 110.18 4.23985C110.24 4.17159 110.32 4.10348 110.42 4.03522C111.161 3.55799 112.383 3.55799 113.124 4.03522C113.204 4.10348 113.284 4.17159 113.364 4.23985C113.845 3.76248 113.765 3.10337 113.124 2.6715Z" fill="white"/>
<path d="M110.421 4.03566C110.321 4.10391 110.241 4.17203 110.181 4.24028C110.241 4.3084 110.321 4.37666 110.421 4.44477C111.182 4.9449 112.384 4.9449 113.124 4.44477C113.204 4.39941 113.285 4.33115 113.365 4.26304V4.24028C113.285 4.17203 113.204 4.10391 113.124 4.03566C112.384 3.55843 111.162 3.55843 110.421 4.03566Z" fill="#AAA0F5"/>
<path d="M138.812 35.5456C138.812 37.2921 137.71 39.4634 136.358 40.3603L106.415 59.9737C105.645 60.4694 104.959 60.4694 104.522 60.0446C104.564 60.1153 104.606 60.1626 104.647 60.1862L102.672 58.8645C102.256 58.5813 101.965 57.9439 101.965 57.0943L101.902 31.722L103.878 32.9965L138.749 10.1497L138.812 35.5456Z" fill="#F3F1FC"/>
<path d="M104.658 60.1771L102.68 58.8641C102.251 58.5888 101.971 57.9535 101.971 57.0853L101.896 31.715L103.874 33.0069L103.949 58.3983C103.949 59.2665 104.21 59.8807 104.658 60.1771Z" fill="#DEDFFB"/>
<path d="M138.744 10.1569L138.807 35.5436C138.812 37.2993 137.708 39.4701 136.35 40.36L106.414 59.9772C105.044 60.875 103.945 60.1483 103.94 58.3926L103.877 33.0059L138.744 10.1569Z" fill="#F3F1FC"/>
<path d="M138.75 10.1497L103.878 32.9966L101.903 31.7221V29.5507C101.903 27.8041 102.984 25.6091 104.357 24.7358L134.279 5.12246C134.986 4.67401 135.589 4.6269 136.046 4.9336L138.022 6.20821C138.001 6.18458 137.98 6.18458 137.939 6.18458C138.417 6.42054 138.729 7.05785 138.729 8.00199L138.75 10.1497Z" fill="#B9B1F5"/>
<path d="M138.017 6.21925C137.57 5.92274 136.954 5.96514 136.264 6.40991L106.337 26.0411C104.956 26.9306 103.874 29.0906 103.874 30.8695V33.0084L101.896 31.7165V29.5565C101.896 27.7988 102.979 25.6176 104.359 24.7281L134.286 5.118C134.976 4.67336 135.592 4.63097 136.04 4.92748L138.017 6.21925Z" fill="#413A80"/>
<path d="M136.265 6.41243C137.623 5.52251 138.735 6.24138 138.739 8.01254L138.744 10.1566L103.877 33.0056L103.872 30.8616C103.868 29.0904 104.96 26.9274 106.33 26.0296L136.265 6.41243Z" fill="#B9B1F5"/>
<path d="M123.393 34.9125L123.413 43.0226L120.887 44.6775L120.867 36.5674L123.393 34.9125Z" fill="#8C84D8"/>
<path d="M127.706 23.5896L127.747 40.1826L125.222 41.8376L125.181 25.2445L127.706 23.5896Z" fill="#CEC5F7"/>
<path d="M132.048 23.5754L132.082 37.3408L129.557 38.9958L129.522 25.2304L132.048 23.5754Z" fill="#8C84D8"/>
<path d="M136.375 17.9078L136.417 34.5009L133.892 36.1558L133.85 19.5628L136.375 17.9078Z" fill="#CEC5F7"/>
<path d="M111.499 34.8511C113.643 33.4463 115.545 33.5715 116.722 34.9029L111.52 43.2668L111.499 34.8511Z" fill="#7A6FDD"/>
<path d="M116.722 34.9032C117.5 35.7822 117.964 37.1929 117.968 39.0415C117.98 43.6859 115.102 49.3437 111.541 51.6772C107.98 54.0108 105.083 52.1371 105.072 47.4928L111.52 43.2672L116.722 34.9032Z" fill="#CEC5F7"/>
<path d="M111.499 34.8513L111.52 43.2671L105.072 47.4927C105.06 42.8483 107.938 37.1906 111.499 34.8513Z" fill="#342F6B"/>
<path d="M118.541 64.0486C118.538 63.0881 117.953 62.7095 117.217 63.1921L89.4423 81.3932C88.7058 81.8758 88.1339 83.0127 88.1362 83.9733L88.1656 95.6989C88.168 96.6719 88.7438 97.0442 89.4802 96.5616L117.255 78.3606C117.991 77.8779 118.573 76.7473 118.57 75.7743L118.541 64.0486ZM92.3155 84.9454L95.6342 82.7705L95.645 87.0866L92.3263 89.2614L92.3155 84.9454ZM96.0647 82.4885L99.3834 80.3137L99.3942 84.6297L96.0755 86.8046L96.0647 82.4885ZM99.8138 80.0316L103.133 77.8568L103.143 82.1728L99.8246 84.3476L99.8138 80.0316ZM103.563 77.5747L106.882 75.3999L106.892 79.7159L103.574 81.8908L103.563 77.5747ZM107.303 75.1241L110.631 72.943L110.642 77.259L107.313 79.4401L107.303 75.1241ZM111.052 72.6673L114.38 70.4861L114.391 74.8021L111.062 76.9833L111.052 72.6673ZM114.801 70.2103L118.12 68.0356L118.13 72.3515V72.3516L114.812 74.5263L114.801 70.2103ZM117.218 63.7534C117.725 63.4212 118.109 63.6695 118.11 64.3306L118.118 67.4866V67.4867L114.799 69.6615L114.789 65.3455L117.218 63.7534L114.368 65.6212L114.379 69.9372L111.05 72.1183L111.04 67.8023L114.368 65.6212L117.218 63.7534ZM110.63 72.3941L107.301 74.5752L107.29 70.2592L110.619 68.0781L110.63 72.3941ZM106.88 74.8511L103.562 77.0258L103.551 72.7098L106.87 70.535L106.88 74.8511ZM103.131 77.3079L99.8124 79.4828L99.8016 75.1668L103.12 72.9919L103.131 77.3079ZM99.3821 79.7648L96.0633 81.9396L96.0525 77.6236L99.3713 75.4487L99.3821 79.7648ZM95.6329 82.2216L92.3141 84.3965L92.3033 80.0805L95.6221 77.9057L95.6329 82.2216ZM88.5571 83.6975C88.5554 83.0363 88.9463 82.2804 89.4437 81.9545L91.8826 80.3563L91.8934 84.6722L88.565 86.8534L88.5571 83.6975ZM89.4788 96.0128C88.9814 96.3387 88.588 96.0842 88.5863 95.4232L88.5785 92.2797L88.5771 91.7183L88.5663 87.4023L91.8947 85.2212L91.9054 89.5372L88.5771 91.7183L88.5786 92.2797L91.9068 90.0986L91.9177 94.4146L89.4788 96.0128ZM92.3385 94.1388L92.3277 89.8227L95.6464 87.648L95.6573 91.9639L95.6572 91.964L92.3385 94.1388ZM96.0876 91.6819L96.0769 87.3659L99.3956 85.191L99.4064 89.507L96.0876 91.6819ZM99.8367 89.2251L99.8259 84.909L103.145 82.7341L103.156 87.0502L99.8367 89.2251ZM103.586 86.7681L103.575 82.4521L106.894 80.2773L106.905 84.5933L103.586 86.7681ZM107.326 84.3175L107.315 80.0014L110.643 77.8203L110.654 82.1364L107.326 84.3175ZM111.075 81.8606L111.064 77.5446L114.392 75.3634L114.403 79.6795L111.075 81.8606ZM117.253 77.8117L114.824 79.4037L114.813 75.0877L118.132 72.9128L118.14 76.0563C118.141 76.7174 117.76 77.4795 117.253 77.8117Z" fill="#AAA0F5"/>
<path d="M91.235 83.6271C92.4933 82.8157 93.6936 83.0417 94.4919 83.7809C95.7729 84.9902 96.5953 87.681 97.6475 87.7881C97.9803 87.8199 98.4133 87.615 98.8564 87.3904C99.4272 87.1095 99.9958 86.7418 100.255 86.0928C100.732 84.8648 99.8712 85.178 101.891 79.4316C102.583 77.4929 103.711 74.8588 105.571 75.3369C107.661 75.8622 108.203 80.5556 110.923 78.7726C113.536 77.0608 111.917 73.6037 116.189 67.8003C116.222 67.7554 116.257 67.7215 116.292 67.6986C116.375 67.6442 116.456 67.6515 116.491 67.7206C116.552 67.8254 116.512 68.0356 116.402 68.1738C113.309 72.3871 113.474 75.5103 112.533 77.4678C111.913 78.7258 110.553 80.0079 109.313 79.7886C107.367 79.4351 107.068 76.4321 105.321 75.9745C104.977 75.8925 104.567 75.9289 104.183 76.1803C104.011 76.4214 103.41 76.2404 102.275 79.4829C100.367 84.869 101.149 84.8337 100.618 86.1835C100.317 86.9459 99.8041 87.4005 99.3613 87.6907C99.007 87.9229 97.9672 88.4943 97.4273 88.4321C96.2413 88.3417 95.4104 85.5628 94.1405 84.3794C93.418 83.7038 92.3191 83.5084 91.259 84.2031C90.9848 84.3829 90.7333 84.6002 90.4819 84.8702C90.4589 84.8963 90.4349 84.9172 90.411 84.9328C90.3206 84.9921 90.2318 84.9749 90.1997 84.8711C90.159 84.7531 90.219 84.5429 90.3397 84.4111C90.6312 84.0886 90.933 83.825 91.235 83.6271Z" fill="#4C5C75"/>
<path d="M111.064 78.7091C111.064 79.2649 110.712 79.9575 110.289 80.2354C109.857 80.5165 109.504 80.2891 109.504 79.7333C109.498 79.1712 109.849 78.4818 110.282 78.1975C110.71 77.9197 111.06 78.147 111.064 78.7091Z" fill="#413A80"/>
<path d="M117.256 67.3543C117.256 67.9101 116.905 68.6027 116.481 68.8806C116.05 69.1616 115.696 68.9343 115.696 68.3785C115.691 67.8164 116.041 67.1269 116.474 66.8427C116.902 66.5648 117.253 66.7922 117.256 67.3543Z" fill="#7A6FDD"/>
<path d="M102.94 79.5969C102.94 80.3402 102.47 81.2664 101.903 81.6381C101.326 82.0139 100.854 81.7099 100.854 80.9666C100.846 80.2149 101.315 79.2929 101.894 78.9128C102.466 78.5412 102.935 78.8452 102.94 79.5969Z" fill="#AAA0F5"/>
<path d="M91.0218 84.1525C91.0218 84.7083 90.6704 85.4009 90.2465 85.6788C89.8153 85.9599 89.462 85.7325 89.462 85.1767C89.4564 84.6146 89.807 83.9251 90.24 83.6409C90.6676 83.363 91.0181 83.5904 91.0218 84.1525Z" fill="#342E6B"/>
<path d="M99.4061 87.398C99.4061 87.9538 99.0546 88.6464 98.6308 88.9243C98.1996 89.2053 97.8463 88.978 97.8463 88.4222C97.8407 87.8601 98.1912 87.1706 98.6243 86.8864C99.0519 86.6085 99.4024 86.8359 99.4061 87.398Z" fill="#7A6FDD"/>
<path d="M117.356 81.3043C117.792 81.0189 118.148 81.2431 118.15 81.8176C118.151 82.3858 117.797 83.0756 117.362 83.3611L88.9439 101.984C88.5083 102.269 88.1567 102.042 88.1553 101.474C88.1538 100.899 88.5031 100.212 88.9387 99.927L117.356 81.3043Z" fill="#AAA0F5"/>
<path d="M109.92 90.6866C110.356 90.4012 110.712 90.6255 110.714 91.1999C110.715 91.7681 110.361 92.4579 109.926 92.7434L88.9439 106.493C88.5083 106.779 88.1567 106.551 88.1553 105.983C88.1538 105.408 88.5031 104.722 88.9387 104.436L109.92 90.6866Z" fill="#AAA0F5"/>
<path d="M97.917 32.6454C98.8297 32.0473 99.5657 32.5345 99.5687 33.7248L99.5928 43.3922C99.5958 44.5826 98.8646 46.02 97.9519 46.6181L90.5312 51.4811C89.6185 52.0792 88.8826 51.6032 88.8796 50.4128L88.8555 40.7454C88.8525 39.555 89.5836 38.1064 90.4963 37.5083L97.917 32.6454Z" fill="#DCD5FE"/>
<path d="M97.9175 50.7869C98.8302 50.1888 99.5662 50.6759 99.5691 51.8663L99.5933 61.5337C99.5963 62.7241 98.8651 64.1615 97.9524 64.7596L90.5317 69.6226C89.619 70.2207 88.8831 69.7446 88.8801 68.5543L88.856 58.8869C88.853 57.6965 89.5841 56.2479 90.4968 55.6498L97.9175 50.7869Z" fill="white"/>
<path d="M96.3582 41.0862C96.1663 40.8939 95.884 40.9196 95.5227 41.1632C95.1613 41.3938 94.8791 41.7398 94.6871 42.1755C94.4952 42.6112 94.3936 43.0599 94.3936 43.5213C94.4049 43.9826 94.4952 44.3159 94.6871 44.4953C94.8904 44.6748 95.1726 44.6491 95.534 44.4057C95.8953 44.1749 96.1776 43.8289 96.3695 43.3932C96.5614 42.9701 96.6631 42.5088 96.6631 42.0474C96.6631 41.5861 96.5614 41.2528 96.3582 41.0862ZM95.534 43.5981C95.3759 43.7007 95.263 43.7136 95.1726 43.6238C95.0936 43.5213 95.0485 43.3418 95.0485 43.0984C95.0485 42.842 95.0936 42.6241 95.1726 42.4063C95.263 42.214 95.3759 42.0602 95.5227 41.9576C95.6808 41.8551 95.7937 41.8551 95.8727 41.9448C95.963 42.0474 96.0082 42.214 96.0082 42.4704C96.0082 42.7139 95.9743 42.9445 95.8727 43.1624C95.7937 43.3675 95.6808 43.5085 95.534 43.5981Z" fill="#1D2943"/>
<path d="M95.8391 38.2548L95.7826 38.5496L93.2083 45.6625L93.0953 45.8803L92.926 46.0469C92.8469 46.0982 92.7679 46.1237 92.7114 46.0854C92.655 46.0341 92.6211 45.9701 92.6211 45.8546L92.6663 45.6112L95.2633 38.447C95.3197 38.2933 95.41 38.165 95.5229 38.0882C95.6133 38.0369 95.681 38.0113 95.7375 38.0369C95.8052 38.0754 95.8391 38.1394 95.8391 38.2548Z" fill="#1D2943"/>
<path d="M93.7498 39.6518C93.5579 39.4595 93.2756 39.498 92.9143 39.7286C92.5529 39.9722 92.2707 40.3054 92.0787 40.7539C91.8868 41.177 91.7852 41.6382 91.7852 42.0997C91.7852 42.561 91.8868 42.8815 92.09 43.0609C92.282 43.253 92.5643 43.2274 92.9256 42.9839C93.2869 42.7533 93.5692 42.4073 93.7611 41.9714C93.953 41.5357 94.0547 41.0743 94.0547 40.613C94.0547 40.1516 93.953 39.8312 93.7498 39.6518ZM92.9256 42.1765C92.7675 42.279 92.6546 42.2918 92.5756 42.1893C92.4852 42.0997 92.4401 41.9203 92.4401 41.6767C92.4401 41.4204 92.4739 41.1898 92.5756 40.9719C92.6546 40.7796 92.7675 40.6386 92.9143 40.5362C93.0724 40.4335 93.1853 40.4335 93.2643 40.5233C93.3546 40.613 93.3998 40.7924 93.3998 41.0487C93.3998 41.2923 93.3659 41.523 93.2643 41.7408C93.1853 41.9331 93.0724 42.074 92.9256 42.1765Z" fill="#1D2943"/>
</svg>
