<svg width="196" height="200" viewBox="0 0 196 200" fill="none" xmlns="http://www.w3.org/2000/svg">
<path d="M195.992 113.223V123.455C195.992 124.875 195.053 126.295 193.215 127.381L73.8643 198.338C70.1896 200.552 64.1464 200.552 60.4308 198.338L2.77652 164.301C0.939049 163.215 0 161.753 0 160.291L0.0408715 150.059L195.992 113.223Z" fill="#484188"/>
<path d="M193.201 109.222C196.9 111.407 196.951 114.966 193.245 117.169L73.8741 188.124C70.1994 190.309 64.1602 190.309 60.4615 188.124L2.80901 154.078C-0.889947 151.894 -0.90942 148.316 2.76528 146.132L122.136 75.1766C125.843 72.9734 131.85 72.9922 135.549 75.1766L193.201 109.222Z" fill="#AAA0F5"/>
<path d="M191.201 115.942L71.8093 186.899C69.2369 188.445 65.072 188.445 62.459 186.899L4.84528 152.903C2.27287 151.358 2.23225 148.852 4.80441 147.348L124.156 76.3909C126.769 74.8456 130.974 74.8456 133.547 76.3909L147.96 84.8692L144.571 86.8738C143.714 87.3749 143.714 88.252 144.612 88.795L170.214 103.914C171.112 104.415 172.541 104.373 173.398 103.872L176.788 101.909L191.201 110.387C193.814 111.932 193.773 114.397 191.201 115.942Z" fill="white"/>
<path d="M167.207 96.7634C167.718 97.0648 167.72 97.5167 167.245 97.7992C166.738 98.1005 165.975 98.1005 165.465 97.7991L151.148 89.3442C150.669 89.0618 150.667 88.6098 151.173 88.3085C151.649 88.0261 152.412 88.0261 152.89 88.3085L167.207 96.7634Z" fill="#111D33"/>
<path d="M171.224 98.9858C171.734 99.2871 171.738 99.852 171.23 100.153C170.66 100.492 169.739 100.473 169.228 100.172C168.654 99.8333 168.651 99.306 169.222 98.9671C169.729 98.6657 170.65 98.6469 171.224 98.9858Z" fill="#111D33"/>
<path d="M169.41 137.359C169.41 138.278 168.798 139.322 168.022 139.781L154.711 147.633C154.343 147.842 154.017 147.884 153.772 147.716L153.567 147.591L152.792 147.173C152.588 147.048 152.424 146.756 152.424 146.297C152.424 145.419 153.078 144.292 153.812 143.874L167.124 135.981C167.491 135.73 167.818 135.73 168.063 135.897L168.879 136.398C168.92 136.398 168.92 136.44 168.961 136.44C169.247 136.565 169.41 136.9 169.41 137.359Z" fill="#1D2943"/>
<path d="M187.172 126.879C187.172 127.756 186.56 128.842 185.784 129.302L172.513 137.153C172.064 137.404 171.697 137.404 171.452 137.195L170.594 136.736C170.349 136.527 170.186 136.234 170.186 135.775C170.186 134.898 170.799 133.812 171.574 133.353L184.845 125.501C185.212 125.292 185.58 125.292 185.825 125.418L186.682 125.919C186.682 125.919 186.723 125.919 186.764 125.961C187.009 126.086 187.172 126.42 187.172 126.879Z" fill="#1D2943"/>
<path d="M168.032 136.53C168.78 136.089 169.39 136.478 169.393 137.356C169.395 138.266 168.789 139.341 168.041 139.783L154.731 147.643C153.984 148.084 153.345 147.745 153.343 146.834C153.34 145.956 153.975 144.832 154.722 144.39L168.032 136.53Z" fill="#312A6A"/>
<path d="M186.748 125.95C186.488 125.817 186.141 125.817 185.752 126.038L172.489 133.885C171.709 134.373 171.102 135.481 171.102 136.324C171.102 136.811 171.275 137.122 171.492 137.255L170.582 136.723C170.365 136.545 170.191 136.235 170.191 135.792C170.191 134.905 170.798 133.797 171.578 133.353L184.841 125.507C185.231 125.285 185.578 125.285 185.838 125.418L186.748 125.95Z" fill="#AAA0F5"/>
<path d="M168.068 135.881L168.978 136.458C168.718 136.28 168.415 136.325 168.025 136.546L154.718 144.393C153.982 144.836 153.331 145.945 153.331 146.831C153.331 147.275 153.505 147.585 153.765 147.718L152.811 147.186C152.595 147.053 152.421 146.743 152.421 146.299C152.421 145.413 153.071 144.304 153.808 143.861L167.115 135.97C167.505 135.748 167.808 135.748 168.068 135.881Z" fill="#AAA0F5"/>
<path d="M185.771 126.047C186.546 125.59 187.157 125.978 187.159 126.856C187.162 127.767 186.555 128.842 185.78 129.3L172.497 137.144C171.722 137.601 171.111 137.245 171.109 136.335C171.106 135.457 171.713 134.349 172.488 133.891L185.771 126.047Z" fill="#312A6A"/>
<path d="M42.5651 181.736C42.2125 181.916 41.9922 182.367 41.9922 182.953V182.998C41.9922 184.08 42.6972 185.387 43.6669 185.928C43.9752 186.108 44.2396 186.198 44.5043 186.198C44.6805 186.198 44.8567 186.153 45.0331 186.063C45.3855 185.838 45.562 185.387 45.562 184.846C45.562 183.719 44.8126 182.412 43.8872 181.871C43.4025 181.555 42.9616 181.51 42.5651 181.736Z" fill="#AAA0F5"/>
<path d="M35.8225 177.724C35.4257 177.949 35.2495 178.4 35.2495 178.986C35.2495 180.068 35.9987 181.42 36.9243 181.961C37.1887 182.142 37.4531 182.232 37.7175 182.232C37.9378 182.232 38.1143 182.187 38.2464 182.097C38.599 181.871 38.8193 181.42 38.8193 180.834C38.8193 179.752 38.0702 178.4 37.1446 177.859C36.6598 177.589 36.1751 177.544 35.8225 177.724Z" fill="#AAA0F5"/>
<path d="M7.83691 162.805C7.83691 163.887 8.58606 165.194 9.51166 165.78C9.77608 165.96 10.0843 166.051 10.3049 166.051C10.5252 166.051 10.7014 166.006 10.8779 165.915C11.2303 165.69 11.4067 165.239 11.4067 164.698C11.4508 163.571 10.7014 162.219 9.73197 161.678C9.24724 161.408 8.76225 161.362 8.40987 161.543C8.05722 161.768 7.83691 162.219 7.83691 162.805Z" fill="#AAA0F5"/>
<path d="M15.153 165.555C14.8004 165.78 14.5801 166.231 14.5801 166.772C14.5801 167.899 15.3292 169.206 16.2548 169.792C16.5634 169.928 16.8278 170.018 17.0922 170.018C17.2684 170.018 17.4449 169.973 17.621 169.882C17.9737 169.657 18.194 169.251 18.194 168.665C18.194 167.538 17.4449 166.231 16.5192 165.69C15.9904 165.375 15.5057 165.33 15.153 165.555Z" fill="#AAA0F5"/>
<path d="M21.1963 167.757L27.1436 171.267C27.0317 173.798 25.3428 174.656 22.0442 173.809L21.1963 167.757Z" fill="#312A6A"/>
<path d="M27.1434 171.263L31.9835 174.119L31.0815 179.138L22.0439 173.806L27.1434 171.263Z" fill="#857BCF"/>
<path d="M145.483 40.8809L145.238 120.024C145.238 121.945 144.013 123.825 141.563 125.245C136.623 128.21 128.661 128.21 123.679 125.245C121.188 123.783 119.963 121.862 119.963 119.941L120.208 40.7973C120.208 38.876 121.433 36.9966 123.883 35.5349C128.783 32.6114 136.827 32.6114 141.726 35.5349C144.258 36.9966 145.483 38.9597 145.483 40.8809Z" fill="#A9A1E7"/>
<path d="M145.49 40.8932L145.228 120.031C145.222 121.929 144.005 123.819 141.58 125.261C136.637 128.199 128.645 128.199 123.67 125.261C121.191 123.797 119.947 121.867 119.952 119.936L120.214 40.7983C120.209 42.7289 121.453 44.6588 123.933 46.1228C128.907 49.0607 136.899 49.0606 141.842 46.1227C144.267 44.6809 145.485 42.7907 145.49 40.8932Z" fill="#857BCF"/>
<path d="M141.735 35.5461C146.71 38.484 146.736 43.2188 141.841 46.1282C136.899 49.0662 128.907 49.0662 123.932 46.1284C119.005 43.219 118.955 38.4698 123.898 35.5319C128.792 32.6225 136.808 32.6367 141.735 35.5461Z" fill="#A9A1E7"/>
<path d="M120.903 65.8959L120.658 134.64C120.658 136.519 119.433 138.44 117.024 139.86C112.083 142.784 104.08 142.784 99.0986 139.86C96.6077 138.399 95.3828 136.477 95.3828 134.556L95.6687 65.7705C95.6687 63.8495 96.8936 61.9701 99.3436 60.5082C104.243 57.6264 112.246 57.6264 117.187 60.55C120.045 62.2206 121.188 64.4758 120.78 66.6894C120.821 66.3971 120.903 66.1465 120.903 65.8959Z" fill="#B28AFD"/>
<path d="M120.921 65.8862L120.659 134.637C120.653 136.534 119.436 138.425 117.01 139.866C112.092 142.79 104.076 142.804 99.1012 139.867C96.625 138.404 95.3868 136.474 95.3921 134.544L95.6543 65.793C95.649 67.723 96.8872 69.6536 99.3634 71.1159C104.338 74.0538 112.354 74.0394 117.273 71.1158C119.698 69.674 120.916 67.7838 120.921 65.8862Z" fill="#524B87"/>
<path d="M117.166 60.5309C122.141 63.4688 122.167 68.2037 117.273 71.1131C112.354 74.0367 104.338 74.0511 99.3634 71.1132C94.4368 68.2039 94.4106 63.4404 99.3291 60.5167C104.224 57.6074 112.24 57.6216 117.166 60.5309Z" fill="#A9A1E7"/>
<path d="M96.3621 90.865L96.1171 149.21C96.1171 151.131 94.8922 153.01 92.4424 154.472C87.5426 157.395 79.5395 157.395 74.5581 154.43C72.0672 152.968 70.8423 151.047 70.8423 149.126L71.0873 90.7814C71.0873 88.8604 72.3122 86.981 74.7622 85.5193C79.6621 82.5958 87.7058 82.5958 92.6056 85.5193C95.1372 86.981 96.403 88.9438 96.3621 90.865Z" fill="#5EC363"/>
<path d="M96.3726 90.8533L96.1104 149.216C96.1051 151.118 94.882 153.015 92.4414 154.465C87.5229 157.389 79.5311 157.389 74.5562 154.451C72.074 152.985 70.8296 151.052 70.835 149.121L71.0972 90.7583C71.0919 92.6894 72.3362 94.6223 74.8184 96.0881C79.7933 99.026 87.7851 99.0259 92.7036 96.1023C95.1442 94.6516 96.3674 92.755 96.3726 90.8533Z" fill="#5EC363"/>
<path d="M92.6212 85.5092C97.5961 88.447 97.6223 93.1818 92.7036 96.1055C87.7851 99.0291 79.7933 99.0292 74.8184 96.0913C69.8917 93.182 69.8415 88.4328 74.76 85.5092C79.6787 82.5855 87.6946 82.5998 92.6212 85.5092Z" fill="#A9A1E7"/>
<path d="M71.8221 115.84L71.5365 163.827C71.5365 165.706 70.3114 167.627 67.9024 169.048C62.9617 171.971 54.9586 171.971 49.9773 169.048C47.5275 167.586 46.2617 165.665 46.2617 163.743L46.5473 115.84C46.5067 113.919 47.7316 111.956 50.2223 110.494C55.1221 107.57 63.125 107.57 68.0657 110.494C70.8422 112.164 72.0671 114.378 71.7406 116.55C71.7815 116.299 71.8221 116.09 71.8221 115.84Z" fill="#524B87"/>
<path d="M71.8062 115.847L71.544 163.823C71.5387 165.72 70.3216 167.61 67.896 169.052C62.9534 171.99 54.9616 171.99 49.9867 169.052C47.5075 167.588 46.2632 165.658 46.2686 163.728L46.5308 115.752C46.5255 117.683 47.7698 119.613 50.2489 121.077C55.2239 124.015 63.2157 124.015 68.1583 121.077C70.5838 119.635 71.801 117.745 71.8062 115.847Z" fill="#524B87"/>
<path d="M68.0522 110.495C73.0272 113.433 73.0533 118.168 68.1587 121.077C63.2161 124.015 55.2243 124.015 50.2494 121.078C45.3228 118.168 45.2726 113.419 50.2152 110.481C55.1097 107.572 63.1256 107.586 68.0522 110.495Z" fill="#A9A1E7"/>
<path d="M96.3726 90.8533L96.1104 149.216C96.1051 151.118 94.882 153.015 92.4414 154.465C87.5229 157.389 79.5311 157.389 74.5562 154.451C72.074 152.985 70.8296 151.052 70.835 149.121L71.0972 90.7583C71.0919 92.6894 72.3362 94.6223 74.8184 96.0881C79.7933 99.026 87.7851 99.0259 92.7036 96.1023C95.1442 94.6516 96.3674 92.755 96.3726 90.8533Z" fill="#857BCF"/>
<path d="M92.6212 85.5092C97.5961 88.447 97.6223 93.1818 92.7036 96.1055C87.7851 99.0291 79.7933 99.0292 74.8184 96.0913C69.8917 93.182 69.8415 88.4328 74.76 85.5092C79.6787 82.5855 87.6946 82.5998 92.6212 85.5092Z" fill="#A9A1E7"/>
<path d="M52.9587 86.3217C52.9587 87.0316 52.7546 87.7833 52.3464 88.4932C51.897 89.2032 51.2847 89.7879 50.4271 90.2891C49.6922 90.7487 49.039 90.9156 48.4673 90.832L48.3041 90.7487C48.3041 90.7069 48.2632 90.6233 48.2632 90.4981C48.2632 90.3727 48.3041 90.2057 48.3855 90.0803C48.4673 89.9133 48.549 89.8297 48.6714 89.7461L48.9164 89.6628C49.3655 89.7046 49.8554 89.5373 50.3048 89.2868C50.8762 88.9526 51.3256 88.5768 51.6114 88.2009C51.897 87.7833 52.0196 87.324 52.0196 86.8228C52.0196 86.405 51.897 86.1126 51.6929 86.0293C51.4479 85.9039 51.1215 85.9875 50.6721 86.2381C50.1822 86.5304 49.7331 86.948 49.3248 87.4909L49.2022 87.6164C49.1205 87.6997 49.0799 87.7833 48.9573 87.8251C48.794 87.9503 48.6305 87.9921 48.5082 87.9085C48.3855 87.8669 48.3041 87.7415 48.3041 87.5327L48.3447 87.2822L48.7531 84.1916C48.7531 84.0244 48.794 83.8157 48.9164 83.6487C48.9981 83.4815 49.1205 83.3563 49.2431 83.2727L52.1829 81.5605C52.3055 81.4769 52.3872 81.4769 52.5096 81.5187C52.5913 81.5605 52.6322 81.6856 52.6322 81.8111C52.6322 81.978 52.5913 82.1034 52.5096 82.2704C52.4279 82.3958 52.3055 82.521 52.1829 82.6046L49.6105 84.108L49.3248 86.3632C49.7739 85.8621 50.2639 85.4445 50.7947 85.1103C51.2438 84.8598 51.652 84.7346 51.9788 84.7346C52.3055 84.7762 52.5505 84.9016 52.7137 85.194C52.8772 85.4445 52.9587 85.8203 52.9587 86.3217Z" fill="#DAE2EF"/>
<path d="M56.2829 79.0385C55.4646 79.5217 54.8332 80.2449 54.4073 81.2079C53.9814 82.1493 53.7703 83.2374 53.7735 84.4178C53.7768 85.5982 53.9933 86.4338 54.423 86.8697C54.8527 87.3277 55.4862 87.3039 56.3045 86.8207C57.1043 86.3484 57.7356 85.6252 58.1708 84.6565C58.5966 83.7044 58.8079 82.6271 58.8046 81.4467C58.8014 80.2663 58.5848 79.4417 58.1551 78.9947C57.7161 78.5425 57.0827 78.5662 56.2829 79.0385ZM55.1278 85.742C54.8474 85.4039 54.706 84.7758 54.7035 83.8686C54.701 82.9724 54.8385 82.1796 55.1161 81.512C55.3844 80.839 55.765 80.3735 56.2857 80.0659C56.7972 79.7638 57.1792 79.7791 57.4503 80.1336C57.7307 80.4716 57.8721 81.0997 57.8746 81.996C57.8772 82.9031 57.7396 83.696 57.462 84.3636C57.1938 85.0255 56.8039 85.5076 56.3017 85.8042C55.7902 86.1062 55.3989 86.0855 55.1278 85.742Z" fill="#DAE2EF"/>
<path d="M62.3447 78.7797C62.6041 78.2653 62.733 77.7073 62.7314 77.139C62.7298 76.5706 62.5984 76.1775 62.3369 75.9597C62.0662 75.7473 61.6937 75.7812 61.2101 76.0668C60.7265 76.3524 60.355 76.7578 60.0864 77.2887C59.827 77.8141 59.6981 78.361 59.6997 78.9294C59.7013 79.4977 59.8328 79.9018 60.0943 80.1087C60.3649 80.321 60.7375 80.2981 61.221 80.0125C61.7046 79.7269 62.0761 79.3106 62.3447 78.7797ZM60.6506 79.2108C60.5105 79.0746 60.4446 78.8288 60.4437 78.49C60.4428 78.1512 60.5071 77.8285 60.646 77.5276C60.7849 77.2375 60.9706 77.0183 61.2124 76.8756C61.4542 76.7327 61.6404 76.7323 61.7805 76.8576C61.9207 76.9938 61.9865 77.2396 61.9874 77.5784C61.9884 77.9172 61.9241 78.2398 61.7852 78.5408C61.6463 78.8418 61.4606 79.0499 61.2188 79.1928C60.977 79.3356 60.7907 79.347 60.6506 79.2108Z" fill="#DAE2EF"/>
<path d="M65.2754 74.1184C65.2751 74.0091 65.2376 73.9327 65.163 73.911C65.0978 73.8839 65.0139 73.9006 64.9116 73.9609C64.7815 74.0378 64.6794 74.1638 64.6146 74.3335L60.9327 83.4707L60.8774 83.7222C60.8777 83.8315 60.9152 83.9079 60.9899 83.9515L61.2319 83.918L61.4178 83.7534L61.5475 83.5126L65.2018 74.4355L65.2754 74.1184Z" fill="#DAE2EF"/>
<path d="M64.9137 77.8802C64.4301 78.1658 64.0586 78.5713 63.79 79.113C63.5306 79.6275 63.4017 80.1853 63.4033 80.7536C63.4049 81.3221 63.5364 81.7151 63.7978 81.933C64.0686 82.1454 64.4411 82.1115 64.9246 81.8259C65.4082 81.5404 65.7797 81.1348 66.039 80.6095C66.3077 80.0786 66.4366 79.5318 66.4351 78.9634C66.4335 78.395 66.3019 77.9909 66.0313 77.7895C65.7697 77.5607 65.3973 77.5947 64.9137 77.8802ZM64.3542 81.0352C64.2141 80.8989 64.1389 80.6587 64.138 80.3198C64.137 79.981 64.2106 79.6529 64.3496 79.3519C64.4791 79.0565 64.6648 78.8483 64.9159 78.6999C65.1577 78.5572 65.344 78.5457 65.4841 78.6819C65.6242 78.8181 65.6901 79.0638 65.691 79.4027C65.692 79.7416 65.6276 80.0642 65.4888 80.3652C65.3498 80.6552 65.1642 80.8743 64.9224 81.0171C64.6713 81.1654 64.485 81.1659 64.3542 81.0352Z" fill="#DAE2EF"/>
<path d="M72.7983 62.4988C72.4816 62.4778 72.1092 62.5882 71.6908 62.8354C71.2258 63.11 70.8355 63.428 70.5291 63.7951C70.2784 64.0854 70.0557 64.403 69.8889 64.7205C69.9337 64.081 70.0809 63.4248 70.3307 62.7737C70.5988 62.0679 71.0537 61.5365 71.7233 61.141C72.1511 60.8884 72.5513 60.7506 72.9146 60.7442L73.0913 60.6726C73.2122 60.6012 73.3144 60.4861 73.3978 60.3384C73.4719 60.1961 73.5181 60.0484 73.5177 59.9172L73.4519 59.7043L73.2933 59.6118C73.0697 59.6125 72.8183 59.6405 72.5671 59.7122C72.3064 59.7786 71.9994 59.9162 71.6645 60.1139C71.0229 60.4928 70.5027 60.997 70.1039 61.6267C69.7051 62.2563 69.4182 62.9293 69.2431 63.6239C69.0681 64.3185 68.9861 64.98 68.9878 65.603C68.995 68.1824 69.8542 68.9779 71.5374 67.9839C71.993 67.7149 72.402 67.3639 72.7547 66.9366C73.0982 66.5147 73.3671 66.0603 73.552 65.5679C73.737 65.0866 73.8288 64.6053 73.8275 64.1462C73.8261 63.6326 73.7319 63.2284 73.5541 62.9502C73.3763 62.672 73.1151 62.5197 72.7983 62.4988ZM71.5438 66.951C70.6232 67.4947 70.0914 67.1955 69.9297 66.0102C70.2718 65.0637 70.8287 64.3516 71.5913 63.9013C72.0191 63.6487 72.3449 63.5985 72.5596 63.7455C72.7836 63.8979 72.8962 64.2037 72.8975 64.6736C72.8982 64.9359 72.8431 65.2203 72.7322 65.5157C72.6212 65.8002 72.4636 66.0794 72.2594 66.3313C72.0552 66.5834 71.8135 66.7917 71.5438 66.951Z" fill="#DAE2EF"/>
<path d="M77.0486 56.9337C76.2395 57.4115 75.6081 58.1346 75.1822 59.0978C74.7563 60.039 74.5451 61.1271 74.5484 62.3076C74.5517 63.488 74.7682 64.3236 75.1979 64.7596C75.6276 65.2174 76.2611 65.1938 77.0701 64.7159C77.8792 64.2381 78.5105 63.515 78.9364 62.5518C79.3622 61.5997 79.5828 60.5169 79.5795 59.3365C79.5763 58.1561 79.3504 57.337 78.9207 56.89C78.491 56.4322 77.8576 56.4559 77.0486 56.9337ZM75.8935 63.6372C75.6224 63.2936 75.4809 62.6656 75.4784 61.7584C75.4759 60.8621 75.6134 60.0693 75.8817 59.4072C76.1593 58.7288 76.5399 58.2632 77.0514 57.9611C77.5629 57.659 77.9541 57.6689 78.2253 58.0233C78.5057 58.3613 78.6471 58.9895 78.6496 59.8857C78.6521 60.7929 78.5145 61.5858 78.237 62.2533C77.9687 62.9154 77.5788 63.3973 77.0673 63.6994C76.5651 63.9959 76.1645 63.9807 75.8935 63.6372Z" fill="#DAE2EF"/>
<path d="M86.041 52.0143C86.0407 51.905 86.0032 51.8287 85.9379 51.8015C85.8727 51.7744 85.7796 51.7965 85.6773 51.8569C85.5564 51.9282 85.4543 52.0543 85.3803 52.2294L81.7076 61.3612L81.6523 61.6127C81.6526 61.722 81.6901 61.7984 81.7555 61.8474L82.0069 61.8085L82.1834 61.6494L82.3224 61.4031L85.9767 52.3261L86.041 52.0143Z" fill="#DAE2EF"/>
<path d="M83.1109 56.6686C83.3702 56.1542 83.4991 55.5963 83.4975 55.028C83.496 54.4596 83.3644 54.0665 83.103 53.8487C82.8416 53.6307 82.4598 53.6702 81.9856 53.9503C81.5019 54.2358 81.1212 54.6467 80.8618 55.1722C80.6024 55.6975 80.4735 56.2444 80.4751 56.8128C80.4767 57.3811 80.6082 57.7852 80.8697 57.9921C81.131 58.21 81.5129 58.1815 81.9965 57.896C82.4708 57.6159 82.8515 57.194 83.1109 56.6686ZM81.426 57.0942C81.2859 56.958 81.2108 56.7178 81.2098 56.379C81.2089 56.0402 81.2824 55.712 81.4214 55.411C81.551 55.1265 81.7367 54.9073 81.9878 54.759C82.2296 54.6163 82.4158 54.6157 82.5559 54.741C82.6867 54.8828 82.7619 55.123 82.7628 55.4618C82.7638 55.8006 82.6902 56.1288 82.5606 56.4243C82.4217 56.7252 82.236 56.9334 81.9942 57.0762C81.7431 57.2245 81.5569 57.2359 81.426 57.0942Z" fill="#DAE2EF"/>
<path d="M85.6788 55.7795C85.2046 56.0596 84.8237 56.4705 84.5644 57.0068C84.3051 57.5213 84.1761 58.0791 84.1777 58.6475C84.1793 59.2159 84.3108 59.6089 84.5722 59.8268C84.8337 60.0447 85.2155 60.0053 85.6897 59.7252C86.1733 59.4396 86.5541 59.0287 86.8134 58.5033C87.0728 57.9779 87.2017 57.431 87.2001 56.8627C87.1985 56.2943 87.067 55.8903 86.8057 55.6833C86.5442 55.4545 86.1624 55.4939 85.6788 55.7795ZM85.1193 58.9344C84.9885 58.7927 84.9133 58.5525 84.9124 58.2137C84.9115 57.8748 84.9851 57.5467 85.1147 57.2511C85.2535 56.9503 85.4393 56.742 85.6811 56.5993C85.9321 56.4509 86.1185 56.4395 86.2492 56.5812C86.3893 56.7174 86.4646 56.9577 86.4655 57.2965C86.4664 57.6353 86.3928 57.9634 86.2539 58.2644C86.1242 58.549 85.9386 58.7681 85.6875 58.9164C85.4457 59.0591 85.2594 59.0598 85.1193 58.9344Z" fill="#DAE2EF"/>
<path d="M99.997 34.7921C99.997 34.9173 99.9561 35.1263 99.9153 35.3351L97.3428 43.0614L97.1796 43.3956L96.9346 43.6043C96.7714 43.6879 96.6897 43.6879 96.6079 43.6461C96.4855 43.6043 96.4447 43.5207 96.4447 43.3538L96.5264 43.0196L98.9762 35.7944L95.7506 37.7157C95.628 37.799 95.5056 37.799 95.4239 37.7572C95.3421 37.6739 95.3013 37.5903 95.3013 37.4651C95.3013 37.2979 95.3421 37.1727 95.4239 37.0055C95.5056 36.8385 95.628 36.7549 95.7506 36.6716L99.4253 34.4579C99.5888 34.3743 99.752 34.3743 99.8338 34.4161C99.9561 34.4579 99.997 34.5834 99.997 34.7921Z" fill="#DAE2EF"/>
<path d="M103.367 32.0542C102.548 32.5374 101.917 33.2606 101.491 34.2236C101.075 35.1594 100.854 36.253 100.857 37.4334C100.861 38.6139 101.087 39.444 101.507 39.8854C101.937 40.3433 102.57 40.3196 103.388 39.8364C104.197 39.3585 104.82 38.6408 105.255 37.6722C105.681 36.7201 105.892 35.6428 105.889 34.4624C105.885 33.2819 105.669 32.4574 105.239 32.0104C104.8 31.5581 104.176 31.5763 103.367 32.0542ZM102.212 38.7577C101.931 38.4196 101.79 37.7915 101.787 36.8843C101.785 35.9881 101.922 35.1952 102.2 34.5277C102.468 33.8547 102.858 33.3836 103.37 33.0815C103.881 32.7795 104.263 32.7948 104.544 33.1437C104.815 33.4872 104.956 34.1154 104.959 35.0116C104.961 35.9188 104.824 36.7116 104.555 37.3737C104.278 38.0412 103.888 38.5232 103.386 38.8198C102.874 39.1219 102.483 39.1011 102.212 38.7577Z" fill="#DAE2EF"/>
<path d="M109.429 31.789C109.689 31.2745 109.817 30.7166 109.816 30.1483C109.814 29.5799 109.683 29.1868 109.421 28.969C109.151 28.7566 108.778 28.7905 108.295 29.076C107.82 29.3561 107.439 29.767 107.18 30.2925C106.911 30.8233 106.783 31.3702 106.784 31.9386C106.786 32.507 106.917 32.9111 107.188 33.1125C107.449 33.3303 107.831 33.3019 108.305 33.0217C108.789 32.7362 109.161 32.3198 109.429 31.789ZM107.735 32.2201C107.595 32.0839 107.529 31.8381 107.528 31.4993C107.527 31.1605 107.592 30.8378 107.73 30.5368C107.869 30.2468 108.055 30.0276 108.297 29.8849C108.548 29.7365 108.734 29.736 108.865 29.8669C109.005 30.0031 109.08 30.2433 109.081 30.5821C109.082 30.921 109.009 31.2491 108.87 31.5501C108.74 31.8455 108.554 32.0538 108.303 32.202C108.061 32.3448 107.875 32.3563 107.735 32.2201Z" fill="#DAE2EF"/>
<path d="M112.36 27.1379C112.36 27.0286 112.322 26.9522 112.248 26.9305C112.182 26.9035 112.098 26.9201 111.996 26.9805C111.866 27.0574 111.773 27.1779 111.699 27.3531L108.017 36.4903L107.962 36.7418C107.962 36.8511 108 36.9275 108.074 36.971L108.316 36.9376L108.502 36.773L108.632 36.5321L112.286 27.4551L112.36 27.1379Z" fill="#DAE2EF"/>
<path d="M111.998 30.8997C111.514 31.1853 111.143 31.5908 110.874 32.1326C110.615 32.6471 110.486 33.2048 110.487 33.7732C110.489 34.3416 110.62 34.7347 110.882 34.9526C111.153 35.1649 111.525 35.1311 112.009 34.8454C112.492 34.5599 112.864 34.1543 113.132 33.6236C113.392 33.0981 113.521 32.5513 113.519 31.9829C113.517 31.4145 113.386 31.0105 113.124 30.8036C112.854 30.5803 112.481 30.6142 111.998 30.8997ZM111.438 34.0547C111.298 33.9185 111.232 33.6727 111.231 33.3339C111.23 32.9951 111.295 32.6724 111.434 32.3714C111.572 32.0705 111.758 31.8622 112 31.7195C112.242 31.5767 112.428 31.5652 112.568 31.7015C112.708 31.8377 112.774 32.0834 112.775 32.4222C112.776 32.7611 112.712 33.0837 112.573 33.3847C112.434 33.6748 112.248 33.8938 112.006 34.0366C111.765 34.1794 111.578 34.18 111.438 34.0547Z" fill="#DAE2EF"/>
<path d="M125.597 11.4058C125.857 11.1317 126.07 10.8197 126.246 10.4748C126.45 10.0698 126.551 9.64872 126.55 9.22244C126.549 8.90545 126.474 8.63247 126.324 8.41423C126.175 8.19608 125.941 8.07105 125.615 8.06651C125.289 8.06196 124.87 8.21082 124.359 8.5128C123.866 8.80388 123.439 9.15487 123.114 9.54379C122.789 9.93271 122.557 10.3324 122.409 10.7263C122.261 11.1203 122.188 11.4811 122.188 11.7981C122.19 12.2244 122.293 12.5246 122.498 12.688C122.676 12.8242 122.89 12.8836 123.151 12.8501C122.315 13.7269 121.898 14.6517 121.901 15.6135C121.902 15.9742 121.987 16.2746 122.155 16.4927C122.323 16.7218 122.594 16.8248 122.966 16.8238C123.329 16.8172 123.813 16.6301 124.381 16.2951C124.957 15.9546 125.44 15.5706 125.803 15.1487C126.174 14.7105 126.443 14.278 126.609 13.8621C126.776 13.4463 126.859 13.0471 126.858 12.6864C126.855 11.7246 126.435 11.294 125.597 11.4058ZM123.485 15.6418C123.252 15.637 123.084 15.5609 122.981 15.4246C122.887 15.2829 122.831 15.13 122.831 14.966C122.829 14.5179 122.977 14.1021 123.265 13.6914C123.571 13.2587 123.943 12.9188 124.37 12.6662C124.808 12.4081 125.18 12.3087 125.478 12.3843C125.776 12.4491 125.926 12.689 125.927 13.1372C125.928 13.3012 125.882 13.5145 125.78 13.7717C125.678 14.0287 125.511 14.3024 125.279 14.5819C125.047 14.8612 124.75 15.1026 124.378 15.3222C124.015 15.5364 123.717 15.6466 123.485 15.6418ZM125.302 9.23698C125.516 9.31837 125.619 9.52024 125.62 9.83723C125.621 10.1214 125.519 10.4223 125.325 10.7672C125.121 11.1065 124.805 11.4135 124.368 11.6716C123.94 11.9242 123.623 11.9908 123.418 11.893C123.222 11.7896 123.119 11.5987 123.119 11.3145C123.118 10.9975 123.219 10.6748 123.433 10.3408C123.646 10.0068 123.953 9.7272 124.362 9.48559C124.78 9.23844 125.087 9.1556 125.302 9.23698Z" fill="#DAE2EF"/>
<path d="M130.069 5.14315C129.26 5.62099 128.628 6.34409 128.203 7.30724C127.777 8.24847 127.566 9.33657 127.569 10.517C127.572 11.6974 127.789 12.533 128.218 12.9689C128.648 13.4269 129.281 13.4032 130.091 12.9254C130.9 12.4476 131.531 11.7244 131.957 10.7613C132.383 9.80914 132.603 8.72641 132.6 7.54593C132.597 6.36555 132.371 5.54643 131.941 5.0995C131.511 4.64166 130.878 4.66539 130.069 5.14315ZM128.914 11.8467C128.643 11.5031 128.501 10.875 128.499 9.96782C128.496 9.07159 128.634 8.27875 128.902 7.61668C129.18 6.93824 129.56 6.47266 130.072 6.17059C130.583 5.86851 130.975 5.87833 131.246 6.23279C131.526 6.57078 131.667 7.19894 131.67 8.09516C131.672 9.0023 131.535 9.79523 131.257 10.4628C130.989 11.1247 130.599 11.6068 130.088 11.9089C129.586 12.2054 129.194 12.1847 128.914 11.8467Z" fill="#DAE2EF"/>
<path d="M139.826 3.89323C139.565 3.66444 139.183 3.70382 138.709 3.98389C138.225 4.2695 137.844 4.68043 137.585 5.21674C137.326 5.73124 137.197 6.28901 137.198 6.85743C137.2 7.42575 137.331 7.81885 137.593 8.03673C137.854 8.2546 138.236 8.21523 138.72 7.92961C139.194 7.64954 139.575 7.23853 139.834 6.71321C140.093 6.18781 140.232 5.63549 140.23 5.06707C140.228 4.49865 140.088 4.10019 139.826 3.89323ZM139.363 4.65969C139.512 4.81228 139.587 5.07444 139.588 5.44598V5.44607C139.587 5.07444 139.512 4.81237 139.363 4.65978C139.204 4.51266 138.98 4.5242 138.711 4.68343C138.98 4.5242 139.204 4.51266 139.363 4.65969ZM138.149 7.13886C138.009 7.00265 137.934 6.76241 137.933 6.42359C137.932 6.08469 138.006 5.75661 138.145 5.45562C138.274 5.16018 138.46 4.95195 138.711 4.80373C138.953 4.66097 139.139 4.64942 139.279 4.78563C139.41 4.92731 139.485 5.16764 139.486 5.50645C139.487 5.84527 139.413 6.17344 139.284 6.46888C139.145 6.75895 138.959 6.9781 138.717 7.12086C138.466 7.26908 138.28 7.26971 138.149 7.13886ZM138.061 5.42861C137.982 5.59547 137.924 5.76643 137.886 5.94211C137.924 5.76652 137.982 5.59547 138.061 5.42852C138.135 5.26439 138.227 5.11935 138.337 4.99469C138.227 5.11935 138.135 5.26439 138.061 5.42861Z" fill="#DAE2EF"/>
<path d="M139.062 0.225463C139.061 0.116163 139.033 0.0342332 138.959 0.0125909C138.893 -0.0145062 138.809 0.00213336 138.707 0.0625132C138.577 0.13935 138.475 0.265382 138.41 0.435062L134.728 9.57227L134.673 9.82379C134.673 9.93309 134.711 10.0095 134.776 10.0585L135.027 10.0196L135.204 9.86053L135.343 9.61419L138.997 0.537178L139.062 0.225463Z" fill="#DAE2EF"/>
<path d="M136.131 4.87858C136.39 4.36418 136.528 3.80077 136.527 3.23244C136.525 2.66412 136.384 2.27647 136.123 2.05869C135.862 1.84073 135.48 1.8801 135.005 2.16026C134.522 2.44579 134.15 2.85125 133.882 3.3822C133.622 3.90752 133.494 4.45438 133.495 5.0228C133.497 5.59113 133.628 5.99523 133.89 6.2021C134.151 6.41997 134.533 6.39151 135.016 6.10598C135.491 5.82591 135.871 5.40399 136.131 4.87858ZM134.446 5.30423C134.306 5.16802 134.231 4.92778 134.23 4.58896C134.229 4.25015 134.302 3.92198 134.441 3.62099C134.571 3.33647 134.757 3.11723 135.008 2.96901C135.25 2.82625 135.436 2.8257 135.576 2.95101C135.716 3.08722 135.782 3.33301 135.783 3.67182C135.784 4.01064 135.719 4.33326 135.581 4.63425C135.442 4.93523 135.256 5.14338 135.014 5.28623C134.763 5.43445 134.577 5.44591 134.446 5.30423Z" fill="#DAE2EF"/>
<path d="M132.866 18.8681C132.416 18.8681 132.009 18.6601 131.682 18.3665C131.395 18.0748 131.233 17.6568 131.233 17.198C131.233 16.7371 131.395 16.3211 131.682 15.9866C132.294 15.3606 133.397 15.3606 134.009 15.9866C134.296 16.3211 134.499 16.7371 134.499 17.198C134.499 17.616 134.296 18.0748 134.009 18.3665C133.845 18.5337 133.682 18.6601 133.478 18.7417C133.275 18.8253 133.07 18.8681 132.866 18.8681Z" fill="#DAE2EF"/>
<path d="M131.233 31.7355C131.233 30.8158 131.967 30.0653 132.866 30.0653C133.763 30.0653 134.499 30.8158 134.499 31.7355C134.499 32.696 133.763 33.4057 132.866 33.4057C131.967 33.4057 131.233 32.696 131.233 31.7355ZM131.233 24.4675C131.233 23.5499 131.967 22.7974 132.866 22.7974C133.763 22.7974 134.499 23.5499 134.499 24.4675C134.499 25.3872 133.763 26.1377 132.866 26.1377C131.967 26.1377 131.233 25.3872 131.233 24.4675Z" fill="#DAE2EF"/>
<path d="M132.866 40.7132C132.416 40.7132 132.009 40.546 131.682 40.2116C131.395 39.92 131.233 39.5019 131.233 39.0431C131.233 38.5822 131.395 38.1662 131.682 37.8725C132.172 37.3729 132.866 37.2465 133.478 37.4973C133.682 37.5809 133.845 37.7053 134.009 37.8725C134.296 38.1662 134.499 38.5822 134.499 39.0431C134.499 39.5019 134.296 39.9199 134.009 40.2116C133.682 40.546 133.275 40.7132 132.866 40.7132Z" fill="#DAE2EF"/>
<path d="M108.161 44.4726C107.916 44.4726 107.713 44.4318 107.509 44.3482C107.346 44.2646 107.14 44.1382 107.019 43.971C106.692 43.6386 106.528 43.2205 106.528 42.8025C106.528 42.3436 106.692 41.9256 107.019 41.5911C107.591 40.9651 108.694 40.9651 109.306 41.5911C109.633 41.9256 109.796 42.3436 109.796 42.8025C109.796 43.2205 109.633 43.6386 109.306 43.971C109.018 44.2646 108.612 44.4726 108.161 44.4726Z" fill="#DAE2EF"/>
<path d="M106.528 57.3351C106.528 56.4154 107.264 55.6649 108.161 55.6649C109.06 55.6649 109.796 56.4154 109.796 57.3351C109.796 58.2548 109.06 59.0053 108.161 59.0053C107.264 59.0053 106.528 58.2548 106.528 57.3351ZM106.528 50.0671C106.528 49.1495 107.264 48.397 108.161 48.397C109.06 48.397 109.796 49.1495 109.796 50.0671C109.796 50.9868 109.06 51.7393 108.161 51.7393C107.264 51.7393 106.528 50.9868 106.528 50.0671Z" fill="#DAE2EF"/>
<path d="M108.161 66.3117C107.958 66.3117 107.713 66.2709 107.509 66.1873C107.346 66.1037 107.14 65.9772 107.019 65.81C106.692 65.4776 106.528 65.0595 106.528 64.6415C106.528 64.4335 106.57 64.1827 106.652 63.9726C106.734 63.8054 106.855 63.5974 107.019 63.4302C107.591 62.8449 108.694 62.8449 109.306 63.4302C109.633 63.7646 109.796 64.1827 109.796 64.6415C109.796 64.8495 109.754 65.0595 109.672 65.2675C109.591 65.4776 109.469 65.6448 109.306 65.81C109.142 65.9772 108.979 66.1037 108.775 66.1873C108.57 66.2709 108.367 66.3117 108.161 66.3117Z" fill="#DAE2EF"/>
<path d="M83.4595 70.0722C83.0109 70.0722 82.6022 69.8642 82.3171 69.5726C82.1536 69.4054 82.03 69.2382 81.9483 69.0281C81.8665 68.8201 81.8267 68.6121 81.8267 68.4021C81.8267 67.9432 81.9901 67.5252 82.3171 67.1907C82.9292 66.5647 83.9899 66.5647 84.6019 67.1907C84.9289 67.5252 85.0924 67.9432 85.0924 68.4021C85.0924 68.6121 85.0525 68.8201 84.9708 69.0281C84.889 69.2382 84.7654 69.4054 84.6019 69.5726C84.3168 69.8642 83.9081 70.0722 83.4595 70.0722Z" fill="#DAE2EF"/>
<path d="M81.8267 82.9371C81.8267 82.0194 82.5604 81.2669 83.4595 81.2669C84.3587 81.2669 85.0924 82.0194 85.0924 82.9371C85.0924 83.8568 84.3587 84.6072 83.4595 84.6072C82.5604 84.6072 81.8267 83.8568 81.8267 82.9371ZM81.8267 75.6711C81.8267 74.7514 82.5604 74.001 83.4595 74.001C84.3587 74.001 85.0924 74.7514 85.0924 75.6711C85.0924 76.5888 84.3587 77.3413 83.4595 77.3413C82.5604 77.3413 81.8267 76.5888 81.8267 75.6711Z" fill="#DAE2EF"/>
<path d="M83.4595 91.9195C83.0109 91.9195 82.6022 91.7543 82.3171 91.4199C81.9901 91.1262 81.8267 90.6674 81.8267 90.2493C81.8267 89.7905 81.9901 89.3724 82.3171 89.038C82.9292 88.4548 83.9899 88.4548 84.6019 89.038C84.9289 89.3724 85.0924 89.7905 85.0924 90.2493C85.0924 90.7102 84.9289 91.1262 84.6019 91.4199C84.3168 91.7543 83.9081 91.9195 83.4595 91.9195Z" fill="#DAE2EF"/>
<path d="M58.7569 95.6314C58.3063 95.6314 57.8976 95.4642 57.6125 95.1726C57.2856 94.8381 57.1221 94.4201 57.1221 94.002C57.1221 93.7532 57.1639 93.5432 57.2457 93.3352C57.3274 93.1251 57.449 92.9579 57.6125 92.7927C58.0611 92.3319 58.7968 92.2075 59.4089 92.4583C59.5724 92.5419 59.7777 92.6663 59.9392 92.7927C60.0628 92.9579 60.1844 93.1251 60.2662 93.3352C60.3479 93.5432 60.3898 93.7532 60.3898 94.002C60.3898 94.4201 60.2263 94.8381 59.9392 95.1726C59.6142 95.4642 59.2055 95.6314 58.7569 95.6314Z" fill="#DAE2EF"/>
<path d="M57.1221 108.537C57.1221 107.619 57.8578 106.867 58.7569 106.867C59.6541 106.867 60.3898 107.619 60.3898 108.537C60.3898 109.457 59.6541 110.209 58.7569 110.209C57.8578 110.209 57.1221 109.457 57.1221 108.537ZM57.1221 101.271C57.1221 100.352 57.8578 99.6011 58.7569 99.6011C59.6541 99.6011 60.3898 100.352 60.3898 101.271C60.3898 102.191 59.6541 102.941 58.7569 102.941C57.8578 102.941 57.1221 102.191 57.1221 101.271Z" fill="#DAE2EF"/>
<path d="M58.7569 117.519C58.5516 117.519 58.3482 117.476 58.1429 117.393C57.9395 117.309 57.776 117.185 57.6125 117.017C57.449 116.85 57.3274 116.683 57.2457 116.475C57.1639 116.265 57.1221 116.057 57.1221 115.847C57.1221 115.388 57.3274 114.97 57.6125 114.637C58.0611 114.177 58.7968 114.052 59.4089 114.303C59.5724 114.387 59.7777 114.511 59.9392 114.637C60.2263 114.97 60.3898 115.388 60.3898 115.847C60.3898 116.057 60.3479 116.265 60.2662 116.475C60.1844 116.683 60.0628 116.85 59.9392 117.017C59.6142 117.352 59.2055 117.519 58.7569 117.519Z" fill="#DAE2EF"/>
<path d="M133.208 174.071V180.029C133.235 180.776 133.704 181.55 134.695 182.137L141.711 186.325V180.34L134.669 176.178C133.704 175.591 133.208 174.818 133.208 174.071Z" fill="#8F88CF"/>
<path d="M140.562 187.405L140.572 193.371L152.459 192.702L152.45 186.736L140.562 187.405Z" fill="#484188"/>
<path d="M152.457 186.724V192.709L159.525 196.898C161.481 198.071 164.689 198.071 166.671 196.898L191.943 181.959C192.961 181.372 193.456 180.598 193.456 179.824V173.866C193.456 174.639 192.961 175.413 191.943 176L166.671 190.939C164.689 192.086 161.481 192.113 159.525 190.939L152.457 186.724Z" fill="#8F88CF"/>
<path d="M134.706 171.916C132.724 173.086 132.714 174.993 134.683 176.164L141.714 180.343L140.563 187.394L152.45 186.725L159.515 190.924C161.483 192.094 164.687 192.085 166.668 190.914L191.946 175.987C193.944 174.807 193.938 172.929 191.969 171.759L167.137 156.998C165.168 155.828 161.982 155.808 159.984 156.988L134.706 171.916Z" fill="#E8E4FF"/>
<path d="M159.657 171.607C158.547 170.951 157.311 170.599 155.992 170.523C154.672 170.447 153.419 170.737 152.337 171.38C151.235 172.035 150.771 172.766 150.881 173.561C151.013 174.342 151.634 175.06 152.744 175.716C153.854 176.371 155.069 176.737 156.388 176.812C157.707 176.888 158.94 176.585 160.042 175.93C161.124 175.287 161.63 174.556 161.498 173.775C161.366 172.993 160.767 172.262 159.657 171.607ZM153.938 172.325C154.489 171.998 155.127 171.872 155.85 171.922C156.595 171.985 157.299 172.225 157.96 172.615C158.622 173.006 159.029 173.422 159.137 173.863C159.225 174.292 159.014 174.67 158.463 174.997C157.89 175.338 157.253 175.464 156.55 175.401C155.806 175.338 155.081 175.111 154.419 174.72C153.758 174.329 153.372 173.901 153.263 173.46C153.155 173.044 153.365 172.666 153.938 172.325Z" fill="#312A6A"/>
<path d="M175.866 171.228C174.777 170.585 173.541 170.207 172.222 170.131C170.902 170.056 169.67 170.358 168.589 171.001C167.486 171.657 166.979 172.388 167.111 173.169C167.243 173.951 167.886 174.682 168.974 175.324C170.084 175.98 171.32 176.358 172.639 176.434C173.959 176.509 175.191 176.207 176.294 175.551C177.375 174.909 177.882 174.177 177.75 173.396C177.618 172.615 176.975 171.883 175.866 171.228ZM170.189 171.947C170.741 171.619 171.357 171.48 172.102 171.543C172.826 171.619 173.529 171.833 174.191 172.224C174.873 172.627 175.259 173.056 175.367 173.472C175.476 173.913 175.244 174.278 174.693 174.606C174.12 174.946 173.504 175.085 172.78 175.009C172.057 174.959 171.332 174.732 170.649 174.329C169.988 173.938 169.602 173.509 169.515 173.081C169.385 172.652 169.617 172.287 170.189 171.947Z" fill="#312A6A"/>
<path d="M162.518 166.426C162.293 166.294 162.002 166.226 161.712 166.241C161.436 166.253 161.181 166.329 160.947 166.467C160.651 166.644 160.545 166.858 160.653 167.123L165.809 180.143L166.088 180.458C166.323 180.597 166.599 180.66 166.897 180.66L167.704 180.458L167.979 180.143L167.998 179.778L162.885 166.833C162.82 166.665 162.688 166.527 162.518 166.426Z" fill="#312A6A"/>
</svg>
