<svg width="184" height="215" viewBox="0 0 184 215" fill="none" xmlns="http://www.w3.org/2000/svg">
<path d="M25.1955 90.8398C25.1955 97.8276 20.2202 106.338 14.0689 109.832C10.9027 111.669 8.05316 111.848 6.01773 110.549L3.25873 108.936C1.2233 107.772 0.00226248 105.308 0.00226248 101.859C-0.0430124 94.8711 4.88697 86.3604 11.0835 82.8216C14.1592 81.03 16.9637 80.8955 18.9989 82.0601C21.6223 83.5833 21.8937 83.7623 21.8937 83.7623C23.9291 84.8822 25.1955 87.3458 25.1955 90.8398Z" fill="#9287E9"/>
<path d="M21.9156 83.7533C19.877 82.5546 17.0739 82.744 14.0161 84.5108C7.83676 88.0439 2.86747 96.561 2.93124 103.564C2.93124 107.034 4.14168 109.495 6.18033 110.63L3.24969 108.927C1.21104 107.791 0.000606939 105.331 0.000606939 101.861C-0.0631619 94.8574 4.90612 86.3403 11.0855 82.8072C14.1436 81.0405 16.9467 80.9145 18.9854 82.0501L21.9156 83.7533Z" fill="#362A98"/>
<path d="M14.0121 84.5169C20.1551 81.0045 25.1575 83.8277 25.1776 90.826C25.1976 97.8165 20.2276 106.342 14.0847 109.854C7.93508 113.37 2.93267 110.547 2.91266 103.556C2.89262 96.5582 7.86255 88.0331 14.0121 84.5169Z" fill="#9287E9"/>
<path d="M11.0771 92.6656L19.9968 93.7568L11.1125 105.028L11.0771 92.6656Z" fill="white"/>
<path d="M23.5669 154.626L7.82676 181.503L4.88666 179.801C2.85123 178.681 1.63019 176.217 1.63019 172.768C1.58492 165.735 6.51517 157.225 12.7117 153.686C15.7874 151.939 18.5917 151.804 20.6271 152.924L23.5669 154.626Z" fill="#362A98"/>
<path d="M15.643 155.407C21.786 151.895 26.7884 154.718 26.8084 161.716C26.8284 168.706 21.8585 177.232 15.7155 180.744C9.56594 184.26 4.56353 181.437 4.54352 174.447C4.52348 167.448 9.49341 158.923 15.643 155.407Z" fill="#9287E9"/>
<path d="M124.25 7.12004L45.7299 214.605L33.9698 207.886C32.8843 207.259 32.251 205.96 32.251 204.078L31.7988 51.2866C31.7988 47.5687 34.4223 43.0445 37.724 41.1632C50.0269 33.1452 62.1939 25.7093 74.1799 18.856C85.7136 12.2712 97.1118 6.2241 108.284 0.803954C109.957 -0.136541 111.45 -0.226216 112.535 0.400963L124.25 7.12004Z" fill="#484188"/>
<path d="M85.9079 25.6023C97.4608 18.9966 108.843 12.9553 120.044 7.53431C123.321 5.66037 125.985 7.16403 125.996 10.8937L126.433 163.693C126.444 167.421 123.797 171.963 120.52 173.837C108.615 181.604 96.7632 188.865 84.9693 195.608C73.2357 202.317 61.5596 208.515 49.9372 214.195C46.6598 216.068 43.9955 214.563 43.9848 210.835L43.5474 58.0357C43.5367 54.3061 46.1838 49.7655 49.4612 47.8916C61.7744 39.903 73.9328 32.4495 85.9079 25.6023Z" fill="#AAA1F5"/>
<path d="M123.536 164.784C123.536 166.978 121.953 169.756 120.053 170.831L49.4935 211.19C48.9957 211.459 48.4983 211.638 48.1363 211.638C47.0056 211.638 46.87 210.339 46.87 209.756L46.6892 147.583L46.4628 56.92C46.4178 54.77 48.0461 52.0377 49.9457 50.873L61.8413 44.1091L62.2033 45.005C62.7913 46.3936 63.967 47.1999 65.4145 47.1999C66.2738 47.1999 67.1332 46.9311 67.9926 46.4384L102.504 26.6842C104.72 25.4301 106.665 22.832 107.343 20.0997L107.977 17.7255L120.505 10.5137C121.003 10.245 121.41 10.1105 121.817 10.1105C122.948 10.1105 123.129 11.4542 123.129 11.992L123.355 103.73L123.536 164.784Z" fill="white"/>
<path d="M71.0602 41.111C71.6997 40.0197 71.7014 38.8381 71.064 38.4718C70.4266 38.1055 69.3916 38.6932 68.7521 39.7844C68.1126 40.8756 68.1109 42.0572 68.7483 42.4235C69.3856 42.7898 70.4207 42.2022 71.0602 41.111Z" fill="#4C5C75"/>
<path d="M77.112 34.5397C78.0144 34.0237 78.7504 34.4371 78.7534 35.4661C78.7563 36.493 78.0251 37.7473 77.1227 38.2633C76.2185 38.7803 75.4824 38.3649 75.4795 37.338C75.4766 36.309 76.2078 35.0567 77.112 34.5397Z" fill="#4C5C75"/>
<path d="M100.29 21.796L100.294 24.6872L82.0024 35.1457L81.9985 32.2545L100.29 21.796Z" fill="#4C5C75"/>
<path d="M112.07 8.51478C111.913 8.76404 111.63 8.98194 111.284 9.16884C109.554 10.1657 106.754 10.1657 105.056 9.16884C104.709 8.98194 104.458 8.76404 104.238 8.51478C103.357 7.58027 103.64 6.39649 105.024 5.58652C106.723 4.58965 109.554 4.58965 111.284 5.58652C112.668 6.36531 112.951 7.54909 112.07 8.51478Z" fill="white"/>
<path d="M112.071 8.51585C111.913 8.76511 111.63 8.98301 111.284 9.16991C109.554 10.1668 106.755 10.1668 105.056 9.16991C104.71 8.98301 104.458 8.76511 104.238 8.51585C104.427 8.26658 104.679 8.0485 105.025 7.8616C106.723 6.89591 109.554 6.89591 111.284 7.8616C111.63 8.0485 111.913 8.26658 112.071 8.51585Z" fill="#1D2943"/>
<path d="M40.7097 72.7889L40.6644 85.5104C40.6644 86.3167 40.3931 86.899 39.9406 87.1678L38.4932 87.974L34.9653 69.1157L36.3675 68.2647C36.8197 68.0407 37.453 68.0407 38.1768 68.444C39.5789 69.2503 40.7097 71.2212 40.7097 72.7889Z" fill="#DEDFFB"/>
<path d="M36.749 69.2773C36.0442 68.8743 35.4115 68.8407 34.9459 69.0938C34.4845 69.359 34.1988 69.9206 34.1966 70.7178L34.1602 83.4281C34.1556 85.0322 35.2907 86.9793 36.696 87.7828C37.4008 88.1858 38.0377 88.2267 38.5033 87.9688C38.9647 87.7084 39.2504 87.1468 39.2527 86.3399L39.2891 73.6296C39.2937 72.0304 38.1585 70.0832 36.749 69.2773Z" fill="white"/>
<path d="M40.6642 96.0378L40.6189 108.759C40.6189 109.566 40.3022 110.103 39.85 110.372L38.4479 111.223L34.8745 92.3199L36.3219 91.5136C36.7741 91.2449 37.4074 91.2897 38.086 91.693C39.5334 92.4992 40.6642 94.4701 40.6642 96.0378Z" fill="#DEDFFB"/>
<path d="M36.6826 92.5118C35.9778 92.1088 35.3451 92.0704 34.8795 92.3283C34.4181 92.5935 34.1324 93.1551 34.1301 93.9523L34.0938 106.663C34.0892 108.267 35.2243 110.214 36.6296 111.017C37.3344 111.42 37.9713 111.461 38.4369 111.203C38.8983 110.938 39.184 110.381 39.1863 109.574L39.2227 96.8641C39.2273 95.2649 38.0921 93.3177 36.6826 92.5118Z" fill="white"/>
<path d="M119.275 102.486L55.9518 154.85L54.0972 153.775C53.6903 153.551 53.4639 153.103 53.4639 152.431L53.4189 138.993C53.4189 137.649 54.3686 135.991 55.5899 135.32L115.882 101.59C116.47 101.232 117.013 101.187 117.42 101.411L119.275 102.486Z" fill="#DEDFFB"/>
<path d="M117.739 102.63C118.932 101.948 119.895 102.504 119.898 103.862L119.93 117.29C119.934 118.648 118.978 120.287 117.785 120.97L57.4629 154.704C56.2696 155.386 55.3074 154.843 55.3036 153.485L55.272 140.057C55.2681 138.699 56.224 137.047 57.4173 136.364L117.739 102.63Z" fill="#F3F1FC"/>
<path d="M66.9143 140.739C66.9143 143.875 64.6978 147.638 61.984 149.205C59.225 150.773 57.0088 149.519 57.0088 146.428C57.0088 143.292 59.225 139.485 61.9388 137.917C64.6978 136.394 66.9143 137.649 66.9143 140.739Z" fill="#4C44C1"/>
<path d="M116.354 108.949C116.836 108.674 117.233 108.888 117.234 109.446C117.236 109.995 116.842 110.671 116.359 110.946L69.1187 137.782C68.6286 138.063 68.232 137.839 68.2305 137.29C68.2289 136.732 68.6229 136.066 69.113 135.785L116.354 108.949Z" fill="#C9CEE2"/>
<path d="M116.354 115.696C116.836 115.42 117.233 115.635 117.234 116.193C117.236 116.741 116.842 117.417 116.359 117.693L69.1187 144.529C68.6286 144.809 68.232 144.586 68.2305 144.037C68.2289 143.479 68.6229 142.812 69.113 142.532L116.354 115.696Z" fill="#C9CEE2"/>
<path d="M114.83 38.3837C114.83 35.4139 112.713 34.2788 110.112 35.7634L59.7551 64.5417C57.1534 66.0263 55.0811 69.6072 55.0811 72.5767L55.1691 107.512C55.2132 110.482 57.2858 111.661 59.8873 110.176L110.244 81.398C112.846 79.8697 114.918 76.2888 114.918 73.3627L114.83 38.3837ZM85.0217 83.4504C79.9509 86.3327 75.8059 83.9747 75.8059 78.2102C75.7618 72.4458 79.9067 65.4151 84.9775 62.4891C90.0486 59.607 94.1494 61.9214 94.1936 67.6858C94.1936 73.4939 90.0927 80.5246 85.0217 83.4504Z" fill="#9287E9"/>
<path d="M82.1367 69.4293L89.5745 70.3459L82.1663 79.7511L82.1367 69.4293Z" fill="#9287E9"/>
<path d="M84.9666 62.4954C90.0365 59.5966 94.1571 61.922 94.1736 67.6916C94.1902 73.4853 90.0964 80.532 85.0265 83.4309C79.9566 86.3297 75.8145 83.9921 75.7979 78.1984C75.7814 72.4288 79.8967 65.3943 84.9666 62.4954ZM82.1662 79.7508L89.5745 70.3456L82.1366 69.429L82.1662 79.7508Z" fill="white"/>
<path d="M62.2226 114.35C63.0597 113.871 63.71 114.269 63.7126 115.19L63.7173 116.85L63.7271 120.26L63.7318 121.889C63.7345 122.842 63.0886 123.98 62.2516 124.459C61.4145 124.938 60.7372 124.556 60.7345 123.603L60.7299 121.974L60.7201 118.564L60.7153 116.904C60.7127 115.982 61.3856 114.828 62.2226 114.35Z" fill="#484188"/>
<path d="M115.346 87.33C116.183 86.8514 116.86 87.2336 116.863 88.1555C116.865 89.1081 116.192 90.2621 115.355 90.7408L63.7271 120.261L63.7173 116.85L115.346 87.33Z" fill="#BEB9ED"/>
<path d="M53.1372 124.592C53.1346 123.67 53.8074 122.516 54.6445 122.037L60.7201 118.563L60.7298 121.974L54.6543 125.448C53.8172 125.927 53.1399 125.544 53.1372 124.592Z" fill="#484188"/>
<path d="M60.542 170.942L60.6096 194.547L53.5139 198.604L53.4463 174.999L60.542 170.942Z" fill="#4C44C1"/>
<path d="M72.2652 189.443L72.2702 191.21L65.1745 195.267L65.1694 193.5L72.2652 189.443Z" fill="#362A98"/>
<path d="M72.1744 157.603L72.261 187.884L65.1653 191.941L65.0786 161.661L72.1744 157.603Z" fill="#C1BCEB"/>
<path d="M83.8965 182.794L83.9016 184.561L76.8058 188.618L76.8008 186.852L83.8965 182.794Z" fill="#362A98"/>
<path d="M83.8515 166.875L83.8926 181.235L76.817 185.281L76.7759 170.921L83.8515 166.875Z" fill="#7A6ED9"/>
<path d="M95.5484 176.132L95.5535 177.898L88.4577 181.955L88.4526 180.189L95.5484 176.132Z" fill="#362A98"/>
<path d="M95.4571 144.291L95.5438 174.572L88.448 178.629L88.3613 148.348L95.4571 144.291Z" fill="#6756DD"/>
<path d="M60.6143 196.107L60.6194 197.873L53.5236 201.93L53.5186 200.164L60.6143 196.107Z" fill="#362A98"/>
<path d="M118.357 158.235C118.357 162.802 115.149 168.307 111.158 170.599C107.167 172.874 103.923 171.069 103.904 166.502L111.122 162.369L111.103 154.156C115.095 151.864 118.339 153.705 118.357 158.235Z" fill="#9287E9"/>
<path d="M103.85 146.366C103.831 141.817 107.057 136.294 111.049 134.002L111.067 142.233L118.303 138.099C118.321 142.648 115.095 148.171 111.103 150.463C107.112 152.737 103.868 150.914 103.85 146.366Z" fill="#4C44C1"/>
<path d="M20.5084 166.522L15.7285 174.807L10.8289 172.085C9.63385 171.374 9.63385 169.126 10.8289 167.055C11.4263 166.049 12.2031 165.221 13.0397 164.806C13.8164 164.333 14.5932 164.214 15.1906 164.569L15.6687 164.924L16.087 164.037C16.6843 163.031 17.5209 162.203 18.2977 161.729C19.0745 161.315 19.9107 161.197 20.5084 161.552C21.7035 162.203 21.7035 164.451 20.5084 166.522Z" fill="white"/>
<path d="M178.346 22.7535C178.391 31.2196 169.073 43.314 157.54 49.8985C152.7 52.6757 148.268 54.0643 144.74 54.0195C141.619 57.4687 138.271 60.1116 134.744 62.1271C134.608 62.2168 134.472 62.3065 134.291 62.3513L130.809 60.3355C132.934 56.8863 134.698 53.5716 135.739 50.436C134.065 49.2265 133.115 47.2556 133.115 44.6129C133.115 36.1468 142.388 24.0076 153.967 17.3782C161.339 13.1675 167.852 12.2716 171.561 14.4219L175.089 16.4377C174.999 16.3928 174.954 16.348 174.863 16.348C177.079 17.5127 178.346 19.6627 178.346 22.7535Z" fill="#E3E7F0"/>
<path d="M134.304 62.3736L130.797 60.3555C132.956 56.8824 134.711 53.5748 135.744 50.45L139.25 52.4681C138.218 55.5929 136.463 58.9006 134.304 62.3736Z" fill="#484188"/>
<path d="M171.571 14.4004C167.859 12.2635 161.357 13.1583 153.959 17.3884C142.408 23.9931 133.1 36.1619 133.124 44.6078C133.132 47.2696 134.063 49.2389 135.744 50.45L139.251 52.4683C137.57 51.2571 136.638 49.2878 136.631 46.6257C136.607 38.1801 145.915 26.0114 157.466 19.4066C164.864 15.1766 171.365 14.2817 175.078 16.4186L171.571 14.4004Z" fill="#362A98"/>
<path d="M157.466 19.4061C168.988 12.8179 178.335 14.32 178.359 22.7657C178.384 31.2114 169.075 43.3145 157.553 49.9027C152.701 52.6767 148.251 54.0693 144.722 54.0133C141.599 57.4715 138.26 60.115 134.759 62.1172C134.607 62.2037 134.456 62.289 134.304 62.3732C136.463 58.9002 138.218 55.5925 139.251 52.4677C137.569 51.2565 136.638 49.2872 136.631 46.6253C136.606 38.1796 145.914 26.0108 157.466 19.4061Z" fill="#E3E7F0"/>
<path d="M171.78 28.3265C171.78 30.3256 170.346 32.7885 168.562 33.8025C166.807 34.8455 165.314 34.0054 165.314 32.0062C165.314 29.978 166.777 27.4863 168.562 26.4723C170.317 25.4581 171.751 26.2694 171.78 28.3265Z" fill="#7161E0"/>
<path d="M150.415 40.5394C150.415 42.5296 148.976 45.004 147.211 46.0261C145.446 47.0481 143.979 46.2144 143.979 44.2241C143.952 42.18 145.418 39.7056 147.184 38.6835C148.976 37.6615 150.415 38.4952 150.415 40.5394Z" fill="#7161E0"/>
<path d="M161.089 34.4338C161.116 36.4243 159.677 38.8987 157.884 39.9207C156.119 40.9428 154.652 40.109 154.652 38.1186C154.652 36.0746 156.092 33.6001 157.857 32.578C159.65 31.556 161.089 32.363 161.089 34.4338Z" fill="#7161E0"/>
<path d="M184.001 99.6175C184.001 100.827 183.141 102.305 182.101 102.888L137.051 128.644C136.734 128.823 136.463 128.913 136.192 128.913C136.011 128.913 135.83 128.868 135.694 128.778L132.799 127.121C132.483 126.897 132.257 126.494 132.257 125.911L132.211 107.725C132.211 106.516 133.026 105.082 134.066 104.5L179.161 78.7437C179.658 78.4301 180.156 78.3852 180.518 78.6092L183.367 80.2668C183.729 80.4459 183.955 80.8488 183.955 81.476L184.001 99.6175Z" fill="#9287E9"/>
<path d="M180.497 78.5969C180.155 78.3999 179.679 78.4294 179.152 78.7312L134.088 104.497C133.04 105.097 132.204 106.531 132.207 107.724L132.259 125.889C132.261 126.489 132.475 126.915 132.82 127.114L135.714 128.779C135.368 128.581 135.154 128.155 135.152 127.555L135.101 109.389C135.097 108.196 135.933 106.762 136.982 106.163L182.045 80.3963C182.573 80.0947 183.048 80.065 183.39 80.262L180.497 78.5969Z" fill="#362A98"/>
<path d="M182.044 80.3975C183.093 79.798 183.934 80.273 183.938 81.4661L183.99 99.6312C183.993 100.824 183.157 102.288 182.109 102.888L137.045 128.654C135.997 129.253 135.155 128.749 135.152 127.556L135.1 109.39C135.096 108.197 135.932 106.763 136.981 106.164L182.044 80.3975Z" fill="#9287E9"/>
<path d="M153.332 116.318C153.332 117.049 152.798 117.944 152.182 118.31L137.896 126.482C137.239 126.848 136.705 126.563 136.705 125.791L136.664 109.568C136.664 108.837 137.198 107.942 137.814 107.576L152.1 99.4041C152.757 99.0384 153.25 99.3637 153.25 100.095L153.332 116.318Z" fill="white"/>
<path d="M179.151 85.8361L158.453 97.6705L158.46 100.057L179.151 88.226V85.8361Z" fill="white"/>
<path d="M179.151 98.6764L158.482 110.494L158.489 112.88L179.151 101.066V98.6764Z" fill="white"/>
<path d="M179.151 92.2412L158.467 104.067L158.474 106.454L179.151 94.6313V92.2412Z" fill="white"/>
<path d="M144.989 113.024C147.608 111.526 149.784 112.559 150.05 115.339C150.084 115.629 149.886 116.006 149.609 116.164L140.396 121.432C140.124 121.587 139.925 121.437 139.944 121.117C140.194 118.042 142.357 114.529 144.989 113.024Z" fill="#7161E0"/>
<path d="M146.591 110.345C147.47 108.845 147.472 107.22 146.595 106.716C145.717 106.212 144.294 107.019 143.415 108.519C142.536 110.019 142.534 111.644 143.412 112.148C144.289 112.652 145.712 111.845 146.591 110.345Z" fill="#7161E0"/>
</svg>
