<svg width="170" height="211" viewBox="0 0 170 211" fill="none" xmlns="http://www.w3.org/2000/svg">
<path d="M116.615 164.079V172.76C116.615 173.587 115.788 174.827 114.547 175.654L74.0333 198.392C71.5528 200.045 67.0053 200.045 64.1114 198.392L40.547 184.749C39.3068 183.922 38.48 183.096 38.48 181.855V173.174C38.48 172.347 38.8934 171.107 40.547 170.28L81.0612 147.542C83.9551 145.889 88.0892 145.889 90.9831 147.542L114.961 161.185C115.788 162.012 116.615 162.838 116.615 164.079Z" fill="#111D33"/>
<path d="M116.615 164.079V172.76C116.615 173.587 115.788 174.827 114.547 175.654L74.0333 198.392C71.1394 200.045 67.0053 200.045 64.1114 198.392L40.547 184.749C39.3068 183.922 38.48 183.095 38.48 181.855V173.174C38.48 174 39.3068 175.241 40.547 176.068L64.5248 189.71C67.4187 191.364 71.5528 191.364 74.4467 189.71L114.961 166.972C115.788 166.146 116.615 164.905 116.615 164.079Z" fill="#111D33"/>
<path d="M114.547 161.185C117.441 162.838 117.441 165.319 114.547 166.973L74.0331 189.71C71.1392 191.364 67.0051 191.364 64.1112 189.71L40.5469 176.068C37.653 174.414 37.653 171.933 40.5469 170.28L81.061 147.542C83.9549 145.889 88.089 145.889 90.9829 147.542L114.547 161.185Z" fill="#4C5C75"/>
<path d="M95.5306 133.073V167.386L69.0724 182.682L59.564 177.308V142.995L69.0724 148.369L95.5306 133.073Z" fill="#DEDFFB"/>
<path d="M69.0723 148.369L95.5305 133.073V167.386L69.0723 182.682V148.369Z" fill="#F3F1FC"/>
<path d="M69.0724 148.369V182.682L59.564 177.308V142.995L69.0724 148.369Z" fill="#DEDFFB"/>
<path d="M59.564 142.995L86.0222 127.698L95.5306 133.073L69.0724 148.369L59.564 142.995Z" fill="#E3E7F0"/>
<path d="M64.938 159.945L56.2563 154.984L74.033 144.648L82.3012 149.609L64.938 159.945Z" fill="#FEFEFE"/>
<path d="M136.871 8.22298C136.458 8.22298 136.458 7.80957 136.044 7.80957C136.044 7.80957 136.458 8.22298 136.871 8.22298C136.458 8.22298 136.871 8.22298 136.871 8.22298Z" fill="#1D2943"/>
<path d="M139.352 110.749C139.352 115.71 135.631 122.324 131.084 124.805L20.7032 188.883C18.2228 190.123 16.1557 190.123 14.9155 189.297L2.51318 182.682C0.859537 181.855 0.0327148 180.202 0.0327148 177.308V80.1564C0.0327148 75.1955 3.75341 68.5809 8.30092 66.1004L119.095 2.02188C121.162 0.781645 123.229 0.368235 124.883 1.60847L136.458 8.22303C136.458 8.22303 136.045 8.22303 135.631 8.22303C136.045 8.22303 136.458 8.22303 136.458 8.63644C138.112 9.46326 138.939 11.1169 138.939 14.0108L139.352 110.749Z" fill="#1D2943"/>
<path d="M136.871 8.22298C136.458 8.22298 136.458 7.80957 136.044 7.80957C136.044 7.80957 136.458 8.22298 136.871 8.22298C136.458 8.22298 136.871 8.22298 136.871 8.22298Z" fill="#1D2943"/>
<path d="M0.0327148 80.1564C0.0327148 75.1955 3.75341 68.5809 7.88751 66.1004L119.095 2.02188C121.162 0.781649 123.229 0.781649 124.883 1.60847L136.871 8.63644C135.218 7.80962 133.564 7.80962 131.084 9.04985L20.2898 73.1284C15.7423 75.6089 12.0216 81.81 12.435 87.1844V184.336C12.435 186.816 13.2618 188.47 14.9155 189.71L2.51318 182.682C0.859537 181.855 0.0327148 180.202 0.0327148 177.721V80.1564Z" fill="#484188"/>
<path d="M131.084 9.04983C135.631 6.56937 139.352 8.63642 139.352 13.5973V110.749C139.352 115.71 135.631 122.324 131.084 124.805L20.2897 188.883C15.7422 191.364 12.0215 189.297 12.0215 184.336V87.1843C12.0215 82.2234 15.7422 75.6089 20.2897 73.1284L131.084 9.04983Z" fill="#1D2943"/>
<path d="M139.352 100.414V110.749C139.352 115.71 135.631 122.324 131.084 124.805L20.7032 188.883C18.2228 190.124 16.1557 190.124 14.9155 189.297L2.51318 182.682C0.859537 181.855 0.0327148 180.202 0.0327148 177.308V166.973L12.0216 174.001L139.352 100.414Z" fill="#9EA9C9"/>
<path d="M12.4352 184.336V174L0.446289 166.972V177.308C0.446289 179.788 1.27311 181.442 2.92675 182.269L14.9156 189.297C13.262 188.883 12.4352 186.816 12.4352 184.336Z" fill="#6C5DAC"/>
<path d="M139.352 100.414V110.749C139.352 115.71 135.631 122.324 131.084 124.805L20.2897 188.883C15.7422 191.364 12.0215 189.297 12.0215 184.336V174.001L139.352 100.414Z" fill="#8772E4"/>
<path d="M79.4075 140.101C81.888 138.861 83.5416 139.687 83.5416 142.581C83.5416 145.062 81.888 148.369 79.4075 149.609C76.9271 150.849 75.2734 150.023 75.2734 147.129C75.2734 144.648 77.3405 141.341 79.4075 140.101Z" fill="#1D2943"/>
<path d="M135.631 98.7597L16.1558 167.386V86.7708C16.1558 83.0501 19.0496 78.0892 22.3569 76.0222L133.151 12.357C133.978 11.9436 134.804 11.9436 134.804 11.9436C135.218 11.9436 135.218 12.357 135.218 13.5972L135.631 98.7597Z" fill="white"/>
<path d="M40.547 139.687C40.547 140.101 40.547 140.101 40.1336 140.514C40.1336 140.928 39.7202 140.928 39.7202 140.928L34.3459 144.235C33.9325 144.235 33.9325 144.235 33.9325 144.235L33.519 143.821C33.519 143.408 33.519 143.408 33.9325 142.995C33.9325 142.581 34.3459 142.581 34.3459 142.581L36.4129 141.341V131.006L34.7593 133.073L34.3459 133.486C33.9325 133.486 33.9325 133.486 33.9325 133.486L33.519 133.073C33.519 132.659 33.519 132.246 33.9325 131.833L36.4129 128.939L36.8263 128.525L37.2397 128.112H38.0666L38.48 128.525V140.101L40.1336 139.274H40.547V139.687Z" fill="#C9CEE2"/>
<path d="M28.9715 145.475L29.3849 145.888C29.3849 146.302 29.3849 146.302 28.9715 146.715C28.9715 147.129 28.5581 147.129 28.5581 147.129L23.1838 150.436C22.7703 150.436 22.7703 150.436 22.7703 150.436L22.3569 150.023C22.3569 149.609 22.3569 149.609 22.7703 149.196C22.7703 148.782 23.1838 148.782 23.1838 148.782L25.2508 147.542V137.207L23.5972 139.274L23.1838 139.687C22.7703 139.687 22.7703 139.687 22.7703 139.687L22.3569 139.274C22.3569 138.861 22.3569 138.447 22.7703 138.034L25.2508 135.14L25.6642 134.726L26.0776 134.313H26.9044L27.3179 134.726V146.302L28.9715 145.475C28.9715 145.475 28.5581 145.475 28.9715 145.475Z" fill="#C9CEE2"/>
<path d="M47.9883 136.38C49.6419 135.553 50.8821 133.9 51.709 132.246C52.5358 130.592 52.9492 128.525 52.9492 126.045C52.9492 123.978 52.5358 122.324 51.709 121.497C50.8821 120.67 49.6419 120.67 47.9883 121.497C46.3346 122.324 45.0944 123.978 44.2676 125.631C43.4408 127.285 43.0273 129.352 43.0273 131.833C43.0273 133.9 43.4408 135.553 44.2676 136.38C45.0944 137.207 46.3346 137.207 47.9883 136.38ZM50.0553 123.564C50.4687 124.391 50.8821 125.631 50.8821 127.285C50.8821 128.939 50.4687 130.592 50.0553 131.833C49.6419 133.073 48.8151 133.9 47.5749 134.726C46.748 135.14 45.9212 135.14 45.0944 134.726C44.681 133.9 44.2676 132.659 44.2676 131.006C44.2676 129.352 44.681 127.698 45.0944 126.458C45.5078 125.218 46.3346 124.391 47.5749 123.564C48.8151 122.738 49.6419 122.738 50.0553 123.564Z" fill="#C9CEE2"/>
<path d="M59.1504 130.179C60.804 129.352 62.0442 127.698 62.8711 126.045C63.6979 124.391 64.1113 122.324 64.1113 119.844C64.1113 117.777 63.6979 116.123 62.8711 115.296C62.0442 114.469 60.804 114.469 59.1504 115.296C57.4967 116.123 56.2565 117.777 55.4297 119.43C54.6029 121.084 54.1895 123.151 54.1895 125.631C54.1895 127.698 54.6029 129.352 55.4297 130.179C56.2565 131.006 57.4967 131.006 59.1504 130.179ZM61.2174 116.95C61.6308 117.777 62.0443 119.017 62.0443 120.67C62.0443 122.324 61.6308 123.978 61.2174 125.218C60.804 126.458 59.9772 127.285 58.737 128.112C57.9101 128.525 57.0833 128.525 56.2565 128.112C55.8431 127.285 55.4297 126.045 55.4297 124.391C55.4297 122.738 55.8431 121.084 56.2565 119.844C56.6699 118.603 57.4967 117.777 58.737 116.95C59.9772 116.536 60.804 116.536 61.2174 116.95Z" fill="#C9CEE2"/>
<path d="M74.0329 120.257C74.0329 120.671 74.0329 120.671 73.6195 121.084C73.6195 121.497 73.206 121.497 73.206 121.497L67.8317 124.805C67.4183 124.805 67.4183 124.805 67.4183 124.805L67.0049 124.391C67.0049 123.978 67.0049 123.978 67.4183 123.564C67.4183 123.151 67.8317 123.151 67.8317 123.151L69.8988 121.911V111.576L68.2451 113.643L67.8317 114.056C67.4183 114.056 67.4183 114.056 67.4183 114.056L67.0049 113.643C67.0049 113.229 67.0049 112.816 67.4183 112.402L69.8988 109.508L70.3122 109.095L70.7256 108.682H71.5524L71.9658 109.095V120.671L73.6195 119.844H74.0329V120.257Z" fill="#C9CEE2"/>
<path d="M81.4746 102.067C79.8209 102.894 78.5807 104.548 77.7539 106.201C76.9271 107.855 76.5137 109.922 76.5137 112.402C76.5137 114.469 76.9271 116.123 77.7539 116.95C78.5807 117.777 79.8209 117.777 81.4746 116.95C83.1282 116.123 84.3685 114.469 85.1953 112.816C86.0221 111.162 86.4355 109.095 86.4355 106.615C86.4355 104.548 86.0221 102.894 85.1953 102.067C84.3685 101.24 83.1282 101.24 81.4746 102.067ZM78.9941 114.883C78.5807 114.056 78.1673 112.816 78.1673 111.162C78.1673 109.509 78.5807 107.855 78.9941 106.615C79.4075 105.374 80.2344 104.548 81.4746 103.721C82.3014 103.307 83.1282 103.307 83.955 103.721C84.3685 104.548 84.7819 105.788 84.7819 107.441C84.7819 109.095 84.3685 110.749 83.955 111.989C83.5416 113.229 82.7148 114.056 81.4746 114.883C80.6478 115.71 79.8209 115.71 78.9941 114.883Z" fill="#C9CEE2"/>
<path d="M96.7705 107.028C96.7705 107.441 96.7705 107.441 96.3571 107.855C96.3571 108.268 95.9437 108.268 95.9437 108.268L90.1559 111.989C89.7425 111.989 89.7425 111.989 89.7425 111.989L89.3291 111.576C89.3291 111.162 89.3291 111.162 89.7425 110.749C89.7425 110.335 90.1559 110.335 90.1559 110.335L92.223 109.095V98.7598L90.5693 100.827L90.1559 101.24C89.7425 101.24 89.7425 101.24 89.7425 101.24L89.3291 100.827C89.3291 100.413 89.3291 100 89.7425 99.5867L92.223 96.6928C92.223 96.2794 92.6364 96.2794 92.6364 96.2794L93.0498 95.866H93.8766L94.29 96.2794V107.855L95.9437 107.028H96.3571C96.3571 106.615 96.7705 107.028 96.7705 107.028Z" fill="#C9CEE2"/>
<path d="M103.798 89.2515C102.145 90.0783 100.904 91.7319 100.078 93.3856C99.2508 95.0392 98.8374 97.1063 98.8374 99.5867C98.8374 101.654 99.2508 103.307 100.078 104.134C100.904 104.961 102.145 104.961 103.798 104.134C105.452 103.307 106.692 101.654 107.519 100C108.346 98.3465 108.759 96.2794 108.759 93.799C108.759 91.7319 108.346 90.0783 107.519 89.2515C106.692 88.4246 105.452 88.4246 103.798 89.2515ZM101.731 102.067C101.318 101.24 100.904 100 100.904 98.3465C100.904 96.6929 101.318 95.0392 101.731 93.799C102.145 92.5587 102.972 91.7319 104.212 90.9051C105.039 90.4917 105.865 90.4917 106.692 90.9051C107.106 91.7319 107.519 92.9722 107.519 94.6258C107.519 96.2794 107.106 97.9331 106.692 99.1733C106.279 100.414 105.452 101.24 104.212 102.067C102.972 102.894 102.145 102.894 101.731 102.067Z" fill="#C9CEE2"/>
<path d="M110.826 97.9329C111.24 98.3463 111.653 98.7597 112.48 98.3463C113.307 98.3463 114.134 97.9329 115.374 97.5195C116.614 96.6927 117.441 96.2792 118.268 95.4524C119.095 94.6256 119.508 93.7988 119.921 92.972C120.335 92.1451 120.335 91.3183 120.335 90.9049C120.335 88.8379 119.508 88.4245 117.854 88.4245C118.268 88.011 118.681 87.1842 119.095 86.3574C119.508 85.5306 119.508 84.7038 119.508 83.8769C119.508 83.4635 119.508 82.6367 119.095 82.2233C118.681 81.8099 118.268 81.3965 117.854 81.3965C117.027 81.3965 116.201 81.8099 115.374 82.2233C114.547 82.6367 113.72 83.4635 112.893 84.2904C112.067 85.1172 111.653 85.944 111.653 86.3574C110.826 87.5976 110.826 88.4245 110.826 88.8379C110.826 89.6647 110.826 90.0781 111.24 90.4915C111.653 90.9049 112.067 90.9049 112.48 90.9049C110.826 92.5586 110 94.2122 110 96.2792C110.413 97.1061 110.413 97.5195 110.826 97.9329ZM117.027 83.8769C117.441 83.8769 117.854 84.2904 117.854 85.1172C117.854 85.5306 117.854 86.3574 117.441 86.7708C117.027 87.5976 116.201 88.011 115.374 88.4245C114.547 88.8379 113.72 89.2513 113.307 88.8379C112.893 88.8379 112.893 88.4245 112.893 87.5976C112.893 86.7708 113.307 86.3574 113.72 85.5306C114.134 84.7038 114.96 84.2904 115.787 83.8769H117.027ZM113.307 96.2792C112.893 96.2792 112.48 96.2792 112.48 95.8658C112.48 95.4524 112.067 95.4524 112.067 95.039C112.067 94.2122 112.48 93.3854 112.893 92.5586C113.307 91.7317 114.134 90.9049 114.96 90.4915C115.787 90.0781 116.614 89.6647 117.027 90.0781C117.441 90.0781 117.854 90.9049 117.854 91.7317C117.854 92.1451 117.854 92.5586 117.441 92.972C117.441 93.3854 117.027 93.7988 116.614 94.6256C116.201 95.039 115.374 95.4524 114.96 95.8658C114.547 96.2792 113.72 96.6927 113.307 96.2792Z" fill="#C9CEE2"/>
<path d="M126.123 91.3183C127.776 90.4915 129.016 88.8378 129.843 87.1842C130.67 85.5306 131.083 83.4635 131.083 80.9831C131.083 78.916 130.67 77.2624 129.843 76.4355C129.016 75.6087 127.776 75.6087 126.123 76.4355C124.469 77.2624 123.229 78.916 122.402 80.5696C121.575 82.2233 121.162 84.2903 121.162 86.7708C121.162 88.8378 121.575 90.4915 122.402 91.3183C123.642 92.1451 124.882 92.1451 126.123 91.3183ZM128.603 78.5026C129.016 79.3294 129.43 80.5697 129.43 82.2233C129.43 83.8769 129.016 85.5306 128.603 86.7708C128.19 88.011 127.363 88.8378 126.123 89.6647C125.296 90.0781 124.469 90.0781 123.642 89.6647C123.229 88.4244 123.229 87.1842 123.229 85.5306C123.229 83.8769 123.642 82.2233 124.056 80.9831C124.469 79.7428 125.296 78.916 126.536 78.0892C127.363 77.6758 128.19 77.6758 128.603 78.5026Z" fill="#C9CEE2"/>
<path d="M51.2957 83.0503L51.7091 83.4637C51.7091 83.8771 51.7091 83.8771 51.2957 84.2905C51.2957 84.7039 50.8823 84.7039 50.8823 84.7039L45.508 88.0112C45.0946 88.0112 45.0946 88.0112 45.0946 88.0112L44.6812 87.5978C44.6812 87.1844 44.6812 87.1844 45.0946 86.7709C45.0946 86.3575 45.508 86.3575 45.508 86.3575L47.575 85.1173V74.782L45.9214 76.8491L45.508 77.2625C45.0946 77.2625 45.0946 77.2625 45.0946 77.2625L44.6812 76.8491C44.6812 76.4357 44.6812 76.0223 45.0946 75.6089L47.575 72.715L47.9884 72.3016L48.4018 71.8882H49.2287L49.6421 72.3016V83.8771L51.2957 83.0503C50.8823 83.0503 51.2957 83.0503 51.2957 83.0503Z" fill="#C9CEE2"/>
<path d="M40.1334 89.6648L40.5468 90.0782C40.5468 90.4916 40.5468 90.4916 40.1334 90.905C40.1334 91.3184 39.72 91.3184 39.72 91.3184L34.3457 94.6257C33.9323 94.6257 33.9323 94.6257 33.9323 94.6257L33.5189 94.2123C33.5189 93.7989 33.5189 93.7989 33.9323 93.3855C33.9323 92.972 34.3457 92.972 34.3457 92.972L36.4127 91.7318V81.3966L34.3457 83.4636L33.9323 83.877C33.5189 83.877 33.5189 83.877 33.5189 83.877L33.1055 83.4636C33.1055 83.0502 33.1055 82.6368 33.5189 82.2234L35.9993 79.3295C35.9993 78.9161 36.4127 78.9161 36.4127 78.9161L36.8262 78.5027H37.653L38.0664 78.9161V90.4916L39.72 89.6648C39.72 89.6648 40.1334 89.2514 40.1334 89.6648Z" fill="#C9CEE2"/>
<path d="M62.8707 77.2625C62.8707 77.6759 62.8707 77.6759 62.4573 78.0893C62.4573 78.5027 62.0439 78.5027 62.0439 78.5027L56.6696 81.81C56.2562 81.81 56.2562 81.81 56.2562 81.81L55.8428 81.3966C55.8428 81.3966 55.8428 80.9832 56.2562 80.5698C56.2562 80.1564 56.6696 80.1564 56.6696 80.1564L58.7366 78.9161V68.5809L57.083 70.6479L56.6696 71.0613C56.2562 71.0613 56.2562 71.0613 56.2562 71.0613L55.8428 70.6479C55.8428 70.2345 55.8428 69.8211 56.2562 69.4077L58.7366 66.5138L59.1501 66.1004L59.5635 65.687H60.3903L60.8037 66.1004V77.6759L62.4573 76.8491H62.8707V77.2625Z" fill="#C9CEE2"/>
<path d="M70.3125 73.9553C71.9661 73.1285 73.2064 71.4748 74.0332 69.8212C74.86 68.1675 75.2734 66.1005 75.2734 63.62C75.2734 61.553 74.86 59.8993 74.0332 59.0725C73.2064 58.2457 71.9661 58.2457 70.3125 59.0725C68.6589 59.8993 67.4186 61.553 66.5918 63.2066C65.765 64.8602 65.3516 66.9273 65.3516 69.4078C65.3516 71.4748 65.765 73.1285 66.5918 73.9553C67.4186 74.7821 68.6589 74.7821 70.3125 73.9553ZM72.3795 61.1396C72.793 61.9664 73.2064 63.2066 73.2064 64.8602C73.2064 66.5139 72.793 68.1675 72.3795 69.4078C71.9661 70.648 71.1393 71.4748 69.8991 72.3016C69.0723 72.715 68.2454 72.715 67.4186 72.3016C67.0052 71.4748 66.5918 70.2346 66.5918 68.5809C66.5918 66.9273 67.0052 65.2737 67.4186 64.0334C67.832 62.7932 68.6588 61.9664 69.8991 61.1396C71.1393 60.3127 71.9661 60.3127 72.3795 61.1396Z" fill="#C9CEE2"/>
<path d="M81.4746 67.7541C83.1282 66.9273 84.3685 65.2736 85.1953 63.62C86.0221 61.9664 86.4355 59.8993 86.4355 57.4188C86.4355 54.9384 86.0221 53.6982 85.1953 52.8713C84.3685 52.0445 83.1282 52.0445 81.4746 52.8713C79.8209 53.6982 78.5807 55.3518 77.7539 57.0054C76.9271 58.6591 76.5137 60.7261 76.5137 63.2066C76.5137 65.2736 76.9271 66.9273 77.7539 67.7541C78.5807 68.5809 79.8209 68.5809 81.4746 67.7541ZM83.5416 54.525C83.955 55.3518 84.3685 56.592 84.3685 58.2457C84.3685 59.8993 83.955 61.5529 83.5416 62.7932C83.1282 64.0334 82.3014 64.8602 81.0612 65.687C80.2344 66.1005 79.4075 66.1005 78.5807 65.687C78.1673 64.8602 77.7539 63.62 77.7539 61.9664C77.7539 60.3127 78.1673 58.6591 78.5807 57.4188C78.9941 56.1786 79.8209 55.3518 81.0612 54.525C82.3014 54.1116 83.1282 54.1116 83.5416 54.525Z" fill="#C9CEE2"/>
<path d="M92.6367 46.2566C90.9831 47.0834 89.7428 48.7371 88.916 50.3907C88.0892 52.0443 87.6758 54.1114 87.6758 56.5918C87.6758 58.6589 88.0892 60.3125 88.916 61.1394C89.7428 61.9662 90.9831 61.9662 92.6367 61.1394C94.2904 60.3125 95.5306 58.6589 96.3574 57.0053C97.1842 55.3516 97.5976 53.2846 97.5976 50.8041C97.5976 48.3236 97.1842 47.0834 96.3574 46.2566C95.5306 45.4298 94.2904 45.4298 92.6367 46.2566ZM90.1562 59.0723C89.7428 58.2455 89.3294 57.0053 89.3294 55.3516C89.3294 53.698 89.7428 52.0443 90.1562 50.8041C90.5697 49.5639 91.3965 48.737 92.6367 47.9102C93.4635 47.4968 94.2904 47.4968 95.1172 47.9102C95.5306 48.737 95.944 49.9773 95.944 51.6309C95.944 53.2846 95.5306 54.9382 95.1172 56.1784C94.7038 57.4187 93.8769 58.2455 92.6367 59.0723C91.8099 59.8991 90.9831 59.8991 90.1562 59.0723Z" fill="#C9CEE2"/>
<path d="M103.798 54.5249C105.452 53.698 106.692 52.0444 107.519 50.3908C108.346 48.7371 108.759 46.6701 108.759 44.1896C108.759 42.1225 108.346 40.4689 107.519 39.6421C106.692 38.8153 105.452 38.8153 103.798 39.6421C102.145 40.4689 100.904 42.1225 100.078 43.7762C99.2508 45.4298 98.8374 47.4969 98.8374 49.9773C98.8374 52.0444 99.2508 53.698 100.078 54.5249C100.904 55.7651 102.145 55.3517 103.798 54.5249ZM106.279 41.7091C106.692 42.536 107.106 43.7762 107.106 45.4298C107.106 47.0835 106.692 48.7371 106.279 49.9773C105.865 51.2176 105.039 52.0444 103.798 52.8712C102.971 53.2846 102.145 53.2846 101.318 52.8712C100.904 52.0444 100.491 50.8042 100.491 49.1505C100.491 47.4969 100.904 45.8432 101.318 44.603C101.731 43.3628 102.558 42.536 103.798 41.7091C104.625 40.8823 105.452 41.2957 106.279 41.7091Z" fill="#C9CEE2"/>
<path d="M22.3568 90.0782L21.9434 89.6648C21.9434 89.2514 21.9434 88.838 22.3568 88.4246L24.8372 85.5307L25.2506 85.1173L25.664 84.7039H26.4909L26.9043 85.1173V96.6928L28.5579 95.8659H28.9713L29.3847 96.2793C29.3847 96.2793 29.3847 96.6928 28.9713 97.1062C28.9713 97.5196 28.5579 97.5196 28.5579 97.5196L23.1836 100.827C22.7702 100.827 22.7702 100.827 22.7702 100.827L22.3568 100.413C22.3568 100.413 22.3568 100 22.7702 99.5866C22.7702 99.1732 23.1836 99.1732 23.1836 99.1732L25.2506 97.933V87.5977L23.597 89.6648L23.1836 90.0782C22.3568 90.4916 22.3568 90.4916 22.3568 90.0782Z" fill="#C9CEE2"/>
<path d="M118.681 44.1897L119.095 44.6031C119.095 45.0165 119.095 45.0165 118.681 45.4299C118.681 45.8433 118.268 45.8433 118.268 45.8433L112.894 49.1506C112.48 49.1506 112.48 49.1506 112.48 49.1506L112.067 48.7372C112.067 48.3238 112.067 48.3238 112.48 47.9103C112.48 47.4969 112.894 47.4969 112.894 47.0835L114.961 45.8433V35.508L112.894 37.9885L112.48 38.4019C112.067 38.4019 112.067 38.4019 112.067 38.4019L111.653 37.9885C111.653 37.5751 111.653 37.1617 112.067 36.7483L114.547 33.8544L114.961 33.441L115.374 33.0276H116.201L116.614 33.441V45.0165L118.268 44.1897H118.681Z" fill="#C9CEE2"/>
<path d="M130.257 38.4019C130.257 38.8153 130.257 38.8153 129.844 39.2287C129.844 39.6421 129.43 39.6421 129.43 39.6421L124.056 42.9494C123.642 42.9494 123.642 42.9494 123.642 42.9494L123.229 42.536C123.229 42.1226 123.229 42.1226 123.642 41.7092C123.642 41.2958 124.056 41.2958 124.056 41.2958L126.123 40.0555V29.7203L124.469 31.7873L124.056 32.2007C123.642 32.2007 123.642 32.2007 123.642 32.2007L123.229 31.7873C123.229 31.3739 123.229 30.9605 123.642 30.5471L126.123 27.6532L126.536 27.2398L126.95 26.8264H127.777L128.19 27.2398V38.8153L129.844 37.9885H130.257V38.4019Z" fill="#C9CEE2"/>
<path d="M74.0329 95.866C74.0329 96.2794 74.0329 96.2794 73.6195 96.6928C73.6195 97.1063 73.206 97.1063 73.206 97.1063L67.8317 100.414C67.4183 100.414 67.4183 100.414 67.4183 100.414L67.0049 100C67.0049 99.5867 67.0049 99.5867 67.4183 99.1733C67.4183 98.7599 67.8317 98.7599 67.8317 98.7599L69.8988 97.5197V87.1844L68.2451 89.2515L67.8317 89.6649C67.4183 89.6649 67.4183 89.6649 67.4183 89.6649L67.0049 89.2515C67.0049 88.838 67.0049 88.4246 67.4183 88.0112L69.8988 85.1173L70.3122 84.7039L70.7256 84.2905H71.5524L71.9658 84.7039V96.2794L73.6195 95.4526H74.0329C74.0329 95.0392 74.0329 95.4526 74.0329 95.866Z" fill="#C9CEE2"/>
<path d="M81.4741 92.5588C83.1277 91.732 84.368 90.0783 85.1948 88.4247C86.0216 86.7711 86.435 84.704 86.435 82.2235C86.435 80.1565 86.0216 78.5028 85.1948 77.676C84.368 76.8492 83.1277 76.8492 81.4741 77.676C79.8205 78.5028 78.5802 80.1565 77.7534 81.8101C76.9266 83.4638 76.5132 85.5308 76.5132 88.0113C76.5132 90.0783 76.9266 91.732 77.7534 92.5588C78.5802 93.3856 79.8205 93.3856 81.4741 92.5588ZM83.5412 79.7431C83.9546 80.5699 84.368 81.8101 84.368 83.4638C84.368 85.1174 83.9546 86.771 83.5412 88.0113C83.1277 89.2515 82.3009 90.0783 81.0607 90.9051C80.2339 91.3186 79.4071 91.3186 78.5802 90.9051C77.7534 90.4917 77.7534 88.8381 77.7534 87.1845C77.7534 85.5308 78.1668 83.8772 78.5802 82.6369C78.9936 81.3967 79.8205 80.5699 81.0607 79.7431C82.3009 78.9163 83.1277 78.9163 83.5412 79.7431Z" fill="#C9CEE2"/>
<path d="M96.3571 82.6368C96.3571 83.0502 96.3571 83.0502 95.9437 83.4636C95.9437 83.877 95.5303 83.877 95.5303 83.877L90.1559 87.1843C89.7425 87.1843 89.7425 87.1843 89.7425 87.1843L89.3291 86.7709C89.3291 86.7709 89.3291 86.3575 89.7425 85.9441C89.7425 85.5306 90.1559 85.5306 90.1559 85.5306L92.223 84.2904V73.9552L90.5693 76.0222L90.1559 76.4356C89.7425 76.4356 89.7425 76.4356 89.7425 76.4356L89.3291 76.0222C89.3291 75.6088 89.3291 75.1954 89.7425 74.782L92.223 71.8881L92.6364 71.4747L93.0498 71.0613H93.8766L94.29 71.4747V83.0502L95.9437 82.2234H96.3571V82.6368Z" fill="#C9CEE2"/>
<path d="M103.798 79.7429C105.452 78.9161 106.692 77.2624 107.519 75.6088C108.346 73.9551 108.759 71.8881 108.759 69.4076C108.759 67.3406 108.346 65.6869 107.519 64.8601C106.692 64.0333 105.452 64.0333 103.798 64.8601C102.145 65.6869 100.904 67.3406 100.078 68.9942C99.2508 70.6478 98.8374 72.7149 98.8374 75.1954C98.8374 77.2624 99.2508 78.9161 100.078 79.7429C100.904 80.5697 102.145 80.5697 103.798 79.7429ZM105.865 66.9272C106.279 67.754 106.692 68.9942 106.692 70.6478C106.692 72.3015 106.279 73.9551 105.865 75.1954C105.452 76.4356 104.625 77.2624 103.385 78.0892C102.558 78.5026 101.731 78.5026 100.904 78.0892C100.491 77.2624 100.078 76.0222 100.078 74.3685C100.078 72.7149 100.491 71.0613 100.904 69.821C101.318 68.5808 102.145 67.754 103.385 66.9272C104.625 66.1003 105.452 66.1003 105.865 66.9272Z" fill="#C9CEE2"/>
<path d="M114.96 73.1284C116.614 72.3016 117.854 70.6479 118.681 68.9943C119.508 67.3406 119.921 65.2736 119.921 62.7931C119.921 60.7261 119.508 59.0724 118.681 58.2456C117.854 57.4188 116.614 57.4188 114.96 58.2456C113.307 59.0724 112.067 60.7261 111.24 62.3797C110.413 64.0333 110 66.1004 110 68.5809C110 70.6479 110.413 72.3016 111.24 73.1284C112.067 73.9552 113.307 73.9552 114.96 73.1284ZM117.441 60.3127C117.854 61.1395 118.268 62.3797 118.268 64.0333C118.268 65.687 117.854 67.3406 117.441 68.5809C117.027 69.8211 116.201 70.6479 114.96 71.4747C114.134 71.8881 113.307 71.8881 112.48 71.4747C112.067 70.6479 111.653 69.4077 111.653 67.754C111.653 66.1004 112.067 64.4468 112.48 63.2065C112.893 61.9663 113.72 61.1395 114.96 60.3127C115.787 59.4858 116.614 59.4858 117.441 60.3127Z" fill="#C9CEE2"/>
<path d="M130.256 61.9663C130.256 62.3798 130.256 62.3798 129.843 62.7932C129.843 63.2066 129.43 63.2066 129.43 63.2066L124.055 66.5139C123.642 66.5139 123.642 66.5139 123.642 66.5139L123.229 66.1004C123.229 65.687 123.229 65.687 123.642 65.2736C123.642 64.8602 124.055 64.8602 124.055 64.8602L126.122 63.62V53.2847L124.469 55.3518L124.055 55.7652C123.642 55.7652 123.642 55.7652 123.642 55.7652L123.229 55.3518C123.229 54.9384 123.229 54.525 123.642 54.1116L126.122 51.2177L126.536 50.8043L126.949 50.3909H127.776L128.189 50.8043V62.3798L129.843 61.5529H130.256V61.9663Z" fill="#C9CEE2"/>
<path d="M33.5189 122.738C35.1725 121.497 36.8262 120.257 37.653 118.19C38.4798 116.123 38.8932 113.643 38.8932 111.162C38.8932 108.682 38.4798 106.615 37.2396 105.788C36.4127 104.961 34.7591 104.961 33.1055 105.788C31.4518 107.028 29.7982 108.268 28.9714 110.335C28.5579 112.402 28.1445 114.883 28.1445 117.363C28.1445 119.844 28.5579 121.911 29.7982 122.738C30.2116 123.564 31.8652 123.564 33.5189 122.738ZM36.4127 107.855C37.2396 108.682 37.2396 109.922 37.2396 111.989C37.2396 114.056 36.8261 115.71 36.4127 117.363C35.9993 119.017 34.7591 119.844 33.5189 120.671C32.2786 121.497 31.4518 121.497 30.625 120.671C29.7982 119.844 29.7982 118.604 29.7982 116.537C29.7982 114.469 30.2116 112.816 30.625 111.162C31.0384 109.509 32.2786 108.682 33.5189 107.855C34.7591 107.028 35.5859 107.028 36.4127 107.855Z" fill="#C9CEE2"/>
<path d="M50.882 111.162C50.882 111.575 50.882 111.989 50.4686 111.989C50.4686 112.402 50.0552 112.402 49.6417 112.816L43.854 116.536C43.4406 116.536 43.4406 116.536 43.0272 116.536C43.0272 116.536 42.6138 116.123 42.6138 115.71C42.6138 115.296 42.6138 115.296 43.0272 114.883C43.0272 114.469 43.4406 114.469 43.854 114.056L46.3345 112.816V100.827L44.2674 103.307C44.2674 103.721 43.854 103.721 43.854 103.721C43.4406 103.721 43.4406 103.721 43.0272 103.721C43.0272 103.721 42.6138 103.307 42.6138 102.894C42.6138 102.48 42.6138 102.067 43.0272 101.654L45.921 98.3464C45.921 97.9329 46.3345 97.9329 46.3345 97.9329L46.7479 97.5195H47.5747C47.9881 97.5195 47.9881 97.9329 47.9881 98.3464V111.575L50.0551 110.335H50.882V111.162Z" fill="#C9CEE2"/>
<g opacity="0.4">
<g opacity="0.4">
<g opacity="0.4">
<path opacity="0.4" d="M60.3907 115.71L61.6309 114.883C60.8041 116.95 59.5639 119.017 58.3236 121.084C55.0164 126.045 51.2957 129.766 46.7482 132.66C42.2006 135.14 38.4799 135.553 35.1727 134.727C33.9324 134.313 32.6922 133.486 31.8654 132.246C31.0386 131.006 30.2117 129.766 29.3849 128.112C28.9715 126.458 28.5581 124.391 28.5581 122.324C28.5581 120.257 28.9715 117.777 29.3849 115.71C29.7983 113.229 31.0386 110.335 32.2788 107.855C33.9324 104.134 36.4129 100.827 38.8934 97.9332C41.3738 95.0393 43.8543 92.9722 46.7482 91.3186C49.642 89.665 52.1225 88.8381 54.6029 88.8381C57.0834 88.8381 58.737 89.665 60.3907 90.9052V115.71Z" fill="#57B3FE"/>
</g>
</g>
</g>
<g opacity="0.3">
<g opacity="0.3">
<g opacity="0.3">
<g opacity="0.3">
<path opacity="0.3" d="M64.5249 101.654C64.5249 104.548 64.1115 107.441 63.2847 110.749V94.6257C64.1115 96.6928 64.5249 98.7598 64.5249 101.654Z" fill="#57B3FE"/>
</g>
</g>
</g>
</g>
<path d="M33.9323 134.313L33.5189 133.9C33.5189 133.9 33.1055 133.9 33.1055 133.486C33.5189 133.9 33.5189 133.9 33.9323 134.313Z" fill="#1D2943"/>
<path d="M33.1055 133.486C33.1055 133.486 33.1055 133.9 33.1055 133.486L33.9323 133.9C33.5189 133.9 33.5189 133.9 33.1055 133.486Z" fill="#1D2943"/>
<path d="M59.1503 90.0782L55.8431 88.0111C52.5358 85.9441 47.9883 86.3575 43.0273 89.2514C33.1055 95.0391 24.8373 109.095 25.2507 120.257C25.2507 126.045 27.3178 129.766 30.625 131.833L33.9323 133.9C33.9323 133.9 33.5189 133.9 33.5189 133.486C33.9323 133.486 33.9323 133.9 34.3457 133.9C37.653 135.967 42.2005 135.553 47.1614 132.659C57.0833 126.872 64.9381 112.816 64.9381 101.654C64.5247 95.8659 62.4576 91.7318 59.1503 90.0782ZM42.6139 127.285C39.3066 128.939 36.4128 129.766 33.9323 129.352C32.2787 127.699 31.4519 124.805 31.4519 121.084C31.4519 111.576 38.0664 99.5866 46.748 94.6257C50.0553 92.5587 52.9492 92.1453 55.4296 92.5587C57.0833 94.6257 57.9101 97.1062 57.9101 100.827C57.9101 110.749 50.8821 122.738 42.6139 127.285Z" fill="#1D2943"/>
<path d="M62.0442 103.307C62.0442 112.816 55.0162 124.805 46.748 129.766C42.6139 132.246 38.4798 132.659 35.9993 131.006L31.8652 128.525C34.7591 130.179 38.4798 129.766 42.6139 127.285C50.8821 122.324 57.9101 110.335 57.9101 100.827C57.9101 95.866 56.2564 92.5587 53.3626 90.905L57.4967 93.3855C60.3905 95.0391 62.0442 98.7598 62.0442 103.307Z" fill="#484188"/>
<path d="M59.5639 90.0783C56.2566 88.0112 51.7091 88.4246 46.7481 91.3185C36.8263 97.1062 28.5581 111.162 28.9715 122.324C28.9715 128.112 31.0386 131.833 34.3458 133.9L30.2117 131.419C26.9045 129.352 24.8374 125.632 24.8374 119.844C24.8374 108.268 32.6922 94.6258 42.614 88.838C47.575 85.9442 52.1225 85.5308 55.4298 87.5978L59.5639 90.0783Z" fill="#484188"/>
<path d="M46.7483 91.3184C56.6702 85.5306 64.9384 90.0782 64.9384 101.654C64.9384 113.229 57.0836 126.872 47.1617 132.659C37.2399 138.447 28.9717 133.9 28.9717 122.324C28.9717 110.749 36.8265 97.1061 46.7483 91.3184ZM46.7483 129.766C55.0165 124.805 62.0445 112.816 62.0445 103.307C62.0445 93.3854 55.0165 89.6648 46.7483 94.6257C38.4801 99.5866 31.4521 111.576 31.4521 121.084C31.4521 131.006 38.0667 134.726 46.7483 129.766Z" fill="#AAA0F5"/>
<path d="M31.0387 131.419L23.1839 142.995C23.1839 142.995 23.1839 142.995 22.7705 142.581C21.9437 142.168 20.7034 141.341 19.8766 140.514C19.4632 140.101 19.0498 139.688 19.0498 139.688L26.9046 128.112C26.9046 128.112 26.9046 128.112 27.318 128.525C28.1448 128.939 29.3851 129.766 30.2119 130.593C30.6253 131.419 31.0387 131.419 31.0387 131.419Z" fill="#484188"/>
<path d="M30.6252 136.38L10.7815 166.559C9.95473 167.799 9.12791 168.213 7.88768 168.626C6.64745 169.04 4.9938 168.626 3.75357 167.799C2.51334 166.973 1.68652 165.319 1.68652 163.665C1.68652 162.839 2.09993 162.012 2.51334 161.185L22.357 131.006C22.7704 130.593 23.1838 130.593 23.5973 130.593C23.5973 130.593 24.0107 130.593 24.0107 131.006C25.6643 132.246 28.9716 134.313 30.6252 135.14C30.6252 135.553 31.0386 135.967 30.6252 136.38Z" fill="#484188"/>
<path d="M30.6254 136.38L10.7817 166.559C9.95489 167.8 9.12808 168.213 7.88784 168.626C7.06102 168.626 6.2342 168.213 5.40738 167.8C4.16715 166.973 3.34033 165.319 3.34033 163.665C3.34033 162.839 3.75374 161.598 4.16715 161.185L23.5974 131.419C25.2511 132.66 28.5583 134.727 30.212 135.554C30.6254 135.554 31.0388 135.967 30.6254 136.38Z" fill="#AAA0F5"/>
<path d="M169.326 51.2271C169.326 52.824 168.203 54.7662 166.82 55.586L138.596 71.857L130.428 85.9701L126.625 83.7689L126.581 78.7626L125.414 79.453C124.723 79.8845 124.074 79.9277 123.599 79.6256L119.796 77.4247C119.364 77.1655 119.061 76.6046 119.061 75.7846L119.018 54.5934C118.975 52.9533 120.142 51.0111 121.525 50.2343L162.93 26.3675C163.621 25.9357 164.269 25.8928 164.702 26.1947L168.462 28.3526C168.937 28.5686 169.283 29.1727 169.283 30.0359L169.326 51.2271Z" fill="#AAA0F5"/>
<path d="M130.441 85.9863L126.626 83.7721L126.599 74.3628L130.415 76.577L130.441 85.9863Z" fill="#484188"/>
<path d="M164.718 26.1748C164.258 25.9076 163.62 25.9481 162.913 26.3557L121.516 50.2208C120.121 51.0248 118.995 52.9722 119 54.6043L119.06 75.7913C119.063 76.5962 119.345 77.1603 119.8 77.4244L123.615 79.6386C123.16 79.3745 122.878 78.8106 122.876 78.0055L122.816 56.8186C122.811 55.1864 123.937 53.239 125.332 52.435L166.729 28.5699C167.436 28.1624 168.074 28.1218 168.534 28.389L164.718 26.1748Z" fill="#484188"/>
<path d="M166.729 28.5706C168.137 27.7585 169.27 28.4035 169.275 30.0356L169.335 51.2226C169.34 52.8388 168.214 54.7862 166.805 55.5983L138.587 71.8652L130.441 85.9861L130.415 76.5768L125.408 79.4633C124.013 80.2673 122.88 79.6224 122.876 78.0062L122.815 56.8192C122.811 55.187 123.937 53.2396 125.331 52.4356L166.729 28.5706Z" fill="#AAA0F5"/>
<path d="M164.836 37.7153L127.686 59.1456V56.8822L164.836 35.4941V37.7153Z" fill="white"/>
<path d="M164.836 44.2405L127.686 65.6707V63.4074L164.836 42.0193V44.2405Z" fill="white"/>
<path d="M153.818 54.8853L127.686 69.9338V72.1972L153.818 57.1229V54.8853Z" fill="white"/>
<path d="M130.868 144.72L98.0031 211L95.3739 209.749C94.0593 209.124 93.402 206.623 94.7166 203.497L121.009 147.846C121.666 145.97 123.638 144.094 124.953 143.469C126.267 142.844 127.582 142.844 128.239 143.469L130.868 144.72Z" fill="#484188"/>
<path d="M127.583 144.718C128.898 144.092 130.212 144.092 131.527 144.718L157.819 171.605C159.791 173.481 157.819 179.734 153.875 181.609L101.291 210.373C97.3468 212.249 95.3749 209.122 97.3468 204.745L123.639 149.095C124.296 147.219 126.268 145.968 127.583 144.718Z" fill="#AAA0F5"/>
<path d="M130.869 175.983L132.183 182.861L122.324 188.488C122.324 187.863 123.638 179.109 123.638 179.734C119.694 178.484 121.009 170.355 126.925 166.603C127.582 165.978 128.239 165.978 128.897 165.978H129.554C134.155 165.978 134.155 172.231 130.869 175.983Z" fill="#111D33"/>
<path d="M130.869 175.983C134.155 171.606 134.155 165.978 129.554 165.978C129.554 165.978 129.554 165.978 128.897 165.978C129.554 166.604 129.554 167.854 129.554 169.105C129.554 170.981 128.897 173.482 127.582 175.358L128.897 182.236L131.526 182.861L130.869 175.983Z" fill="#463F7B"/>
<path d="M130.211 181.611L123.638 185.362C123.638 185.988 122.981 188.489 122.981 187.863L132.841 182.236L130.211 181.611Z" fill="#1D2943"/>
<path d="M128.24 174.733C128.24 175.359 129.554 182.237 129.554 181.611C128.897 182.237 122.324 185.363 122.981 185.363C122.981 184.738 124.296 178.485 124.296 179.11C119.694 177.86 122.981 169.106 127.582 165.979C128.24 165.354 128.897 165.354 129.554 165.354C130.211 165.979 130.211 167.23 130.869 168.48C130.869 170.356 130.211 172.857 128.24 174.733Z" fill="#111D33"/>
</svg>
