<svg width="200" height="200" viewBox="0 0 200 200" fill="none" xmlns="http://www.w3.org/2000/svg">
<path d="M190.553 137.298L190.566 146.541C190.57 147.851 189.71 149.163 187.99 150.156L134.709 180.918C131.291 182.891 125.709 182.891 122.313 180.918L11.9929 116.807C10.295 115.82 9.45042 114.532 9.44676 113.244L9.43408 104.001L190.553 137.298Z" fill="#AAA0F5"/>
<path d="M12.0208 100.384C8.60251 102.358 8.55492 105.574 11.9804 107.564L122.301 171.676C125.697 173.649 131.278 173.649 134.696 171.676L187.978 140.914C191.396 138.94 191.414 135.707 188.018 133.734L77.6978 69.6224C74.2724 67.6317 68.7206 67.6487 65.3021 69.6223L12.0208 100.384Z" fill="#2D2A43"/>
<path d="M13.8695 106.461L124.209 170.574C126.586 171.97 130.436 171.97 132.851 170.574L186.096 139.857C188.473 138.461 188.511 136.196 186.134 134.838L75.8317 70.7246C73.4165 69.3284 69.5299 69.3284 67.1525 70.7246L53.8319 78.3851L56.9638 80.1964C57.7563 80.6492 57.7563 81.4417 56.926 81.9323L33.2658 95.5927C32.4355 96.0455 31.1148 96.0077 30.3223 95.5549L27.1901 93.7814L13.8695 101.442C11.4543 102.838 11.4921 105.064 13.8695 106.461Z" fill="#484188"/>
<path d="M170.333 130.673L117.087 161.39C114.672 162.787 110.823 162.787 108.446 161.39L85.3892 147.994L48.0306 126.296L13.8797 106.447C11.5024 105.051 11.4646 102.824 13.8797 101.428L27.2004 93.7678L30.3325 95.5412C31.1251 95.994 32.4457 96.0318 33.276 95.579L56.9362 81.9186C57.7665 81.4281 57.7665 80.6355 56.974 80.1827L53.8421 78.3715L67.1627 70.711C69.5401 69.3148 73.4268 69.3148 75.8419 70.711L109.993 90.5601L147.314 112.258L170.37 125.654C172.748 127.013 172.71 129.277 170.333 130.673Z" fill="#CDC7FF"/>
<path d="M36.044 89.1345C35.5724 89.4068 35.5703 89.8152 36.0095 90.0704C36.4779 90.3426 37.1827 90.3426 37.6543 90.0703L50.8861 82.4309C51.3281 82.1757 51.3306 81.7673 50.8622 81.4951C50.423 81.2399 49.7179 81.2399 49.2758 81.4951L36.044 89.1345Z" fill="white"/>
<path d="M32.3315 91.1422C31.86 91.4144 31.8571 91.9248 32.3257 92.1972C32.8527 92.5034 33.7046 92.4863 34.1761 92.2141C34.7065 91.9079 34.7093 91.4315 34.1824 91.1252C33.7138 90.8529 32.8619 90.8359 32.3315 91.1422Z" fill="white"/>
<path d="M49.6905 133.897C49.6905 134.274 49.5397 134.576 49.351 134.689L48.5207 135.142C48.2943 135.331 47.9546 135.331 47.5773 135.104L35.2754 128.01C34.5962 127.595 34.0303 126.651 34.0303 125.821C34.0303 125.406 34.1811 125.104 34.4453 124.991L35.2376 124.463C35.5018 124.35 35.766 124.35 36.1435 124.576L48.4452 131.67C49.1246 132.085 49.6905 133.104 49.6905 133.897Z" fill="#1D2943"/>
<path d="M33.2757 124.387C33.2757 124.803 33.1246 125.067 32.936 125.255L32.2568 125.595L32.1437 125.67C32.1059 125.708 32.0681 125.708 32.0681 125.708C31.8417 125.859 31.502 125.821 31.1625 125.633L18.8606 118.538C18.1814 118.123 17.6152 117.142 17.6152 116.35C17.6152 115.934 17.7661 115.633 17.9927 115.519C18.0303 115.519 18.0303 115.482 18.068 115.482L18.8228 115.029C19.0492 114.916 19.3889 114.916 19.7284 115.104L31.9926 122.199C32.7096 122.576 33.2757 123.595 33.2757 124.387Z" fill="#1D2943"/>
<path d="M35.2807 125.064C34.5902 124.666 34.0257 125.017 34.0234 125.81C34.0211 126.633 34.5819 127.605 35.2724 128.003L47.5737 135.105C48.2643 135.504 48.8543 135.197 48.8566 134.374C48.8589 133.581 48.2727 132.565 47.582 132.167L35.2807 125.064Z" fill="#484188"/>
<path d="M17.9839 115.505C18.2242 115.385 18.5447 115.385 18.9051 115.585L31.1623 122.675C31.8833 123.116 32.4442 124.117 32.4442 124.878C32.4442 125.319 32.284 125.599 32.0838 125.719L32.9248 125.239C33.1251 125.078 33.2854 124.798 33.2854 124.398C33.2854 123.596 32.7246 122.595 32.0036 122.194L19.7464 115.104C19.3858 114.904 19.0655 114.904 18.8252 115.024L17.9839 115.505Z" fill="white"/>
<path d="M35.248 124.478L34.4067 124.998C34.6471 124.838 34.9275 124.878 35.2881 125.078L47.5854 132.168C48.2663 132.569 48.8673 133.57 48.8673 134.371C48.8673 134.772 48.7069 135.053 48.4666 135.173L49.3479 134.692C49.5482 134.572 49.7083 134.291 49.7083 133.891C49.7083 133.09 49.1076 132.088 48.4265 131.688L36.1291 124.558C35.7688 124.357 35.4883 124.357 35.248 124.478Z" fill="white"/>
<path d="M18.8874 115.6C18.1713 115.186 17.6067 115.537 17.6045 116.331C17.6022 117.154 18.163 118.125 18.8791 118.539L31.1549 125.626C31.8709 126.039 32.4354 125.718 32.4377 124.895C32.4399 124.101 31.8792 123.101 31.1633 122.687L18.8874 115.6Z" fill="#484188"/>
<path d="M149.812 168.272C149.812 169.131 149.211 170.161 148.455 170.591C147.717 171.02 147.099 170.694 147.099 169.818C147.099 168.959 147.717 167.911 148.455 167.499C149.194 167.052 149.795 167.396 149.812 168.272Z" fill="#FCFCFF"/>
<path d="M173.255 154.721C173.255 155.58 172.654 156.628 171.916 157.057C171.16 157.486 170.559 157.143 170.559 156.284C170.559 155.426 171.16 154.378 171.899 153.949C172.654 153.519 173.255 153.863 173.255 154.721Z" fill="#FCFCFF"/>
<path d="M179.043 151.389C179.043 152.248 178.442 153.279 177.704 153.725C176.965 154.137 176.347 153.811 176.347 152.952C176.33 152.076 176.948 151.029 177.687 150.616C178.442 150.17 179.043 150.513 179.043 151.389Z" fill="#FCFCFF"/>
<path d="M155.583 164.923C155.583 165.781 154.982 166.829 154.243 167.259C153.505 167.688 152.886 167.344 152.886 166.486C152.886 165.627 153.487 164.579 154.226 164.15C154.982 163.721 155.583 164.064 155.583 164.923Z" fill="#FCFCFF"/>
<path d="M167.793 155.529L162.7 158.467L167.067 160.595L167.793 155.529Z" fill="#484188"/>
<path d="M162.7 158.467L158.556 160.858L159.328 165.059L167.066 160.595L162.7 158.467Z" fill="#FCFCFF"/>
<path d="M101.704 129.231C95.9689 132.568 86.6881 132.568 80.9179 129.231C75.1827 125.894 75.1131 120.506 80.8485 117.169C86.5837 113.867 95.8995 113.867 101.67 117.169C107.405 120.506 107.44 125.894 101.704 129.231Z" fill="#484188"/>
<path d="M94.1403 127.792C87.735 129.739 80.67 122.603 78.2303 118.295C75.6077 113.638 75.1309 93.1903 75.1309 93.1903L77.1017 92.8009L92.7417 89.6855C93.0198 100.502 99.6 115.959 101.118 119.575C101.213 119.789 101.285 119.964 101.34 120.091C102.294 122.396 100.538 125.845 94.1403 127.792Z" fill="#E9E7FC"/>
<path d="M101.118 119.575C99.9336 120.552 98.225 121.45 95.9044 122.157C89.4991 124.104 82.4261 116.976 79.9943 112.661C78.2221 109.522 77.4274 99.1903 77.1016 92.8009L92.7415 89.6855C93.0196 100.502 99.5998 115.959 101.118 119.575Z" fill="#F3F1FC"/>
<path d="M87.2436 50.241C85.1834 49.0522 86.9062 58.2877 83.7366 60.1101C77.4366 63.7555 71.4629 63.7854 71.4629 71.0362C71.5026 74.6417 69.0178 76.9062 71.0782 78.0947L64.1445 74.0929C62.0841 72.9044 60.8161 70.3685 60.8161 66.7631C60.7765 59.4726 65.8876 50.6768 72.1875 47.0317C75.3571 45.1693 78.2497 45.0109 80.3098 46.1995L87.2436 50.241Z" fill="#3D3964"/>
<path d="M71.0574 78.1016L64.1355 74.0803C62.0851 72.8883 60.8136 70.3531 60.8057 66.7451L67.7276 70.7664C67.7355 74.3744 69.0071 76.9095 71.0574 78.1016Z" fill="#3D3964"/>
<path d="M79.1211 51.0412C85.4349 47.3959 90.5625 50.318 90.5831 57.573C90.6036 64.8332 85.5093 73.6569 79.1955 77.3022C72.8773 80.95 67.7496 78.0279 67.7291 70.7678C67.7085 63.5127 72.8028 54.689 79.1211 51.0412Z" fill="#21201F"/>
<path d="M88.2356 51.6868L109.039 63.7223C107.062 62.5739 104.325 62.7369 101.302 64.4823L80.499 52.4468C83.5221 50.7014 86.2595 50.5384 88.2356 51.6868Z" fill="#FC7E7E"/>
<path d="M93.6324 90.2316L72.8295 78.1961C70.878 77.062 69.669 74.6489 69.6592 71.217C69.6397 64.3137 74.487 55.9177 80.4989 52.4468L101.302 64.4823C95.29 67.9533 90.4426 76.3492 90.4622 83.2525C90.4719 86.6844 91.681 89.0976 93.6324 90.2316Z" fill="#E86D6D"/>
<path d="M101.302 64.4824C107.309 61.0139 112.188 63.7943 112.208 70.6976C112.227 77.6057 107.38 86.0016 101.372 89.4702C95.3606 92.9412 90.4816 90.1607 90.462 83.2526C90.4424 76.3493 95.2897 67.9534 101.302 64.4824Z" fill="#CC5C5C"/>
<path d="M83.6738 102.275L73.2204 96.2001C72.9431 96.039 72.7709 95.6968 72.7695 95.2109L83.2229 101.286C83.2243 101.772 83.3965 102.114 83.6738 102.275Z" fill="#E3E7F0"/>
<path d="M83.1746 84.1602L72.7212 78.0854L96.4247 64.4001L106.878 70.475L83.1746 84.1602Z" fill="white"/>
<path d="M106.878 70.4751L106.927 87.6007C106.93 88.5786 106.243 89.7723 105.388 90.266L84.7722 102.169C83.9211 102.66 83.2261 102.264 83.2234 101.286L83.1748 84.1603C92.6447 90.6136 100.367 84.7962 106.878 70.4751Z" fill="#C9CEE2"/>
<path d="M109.036 63.7122C107.055 62.5633 104.806 63.5952 101.794 65.3386C95.7719 68.8253 90.7546 76.3485 90.7546 83.2426C90.7546 86.6896 91.6814 89.1097 93.6228 90.2189L72.8215 78.2138C70.8801 77.0646 69.6519 74.6477 69.6519 71.2007C69.6519 64.3066 74.4858 55.9069 80.5081 52.4598C83.5194 50.7165 86.2533 50.5579 88.2343 51.6674L109.036 63.7122Z" fill="#AAA1EF"/>
<path d="M93.6351 90.229L72.8296 78.1971C70.8746 77.0606 69.6666 74.6526 69.6587 71.2195L90.4642 83.2514C90.4722 86.6846 91.6801 89.1005 93.6351 90.229Z" fill="#AAA1EF"/>
<path d="M101.302 64.4824C107.31 61.0139 112.189 63.7943 112.208 70.6976C112.228 77.6057 107.381 86.0016 101.373 89.4702C95.3611 92.9412 90.482 90.1607 90.4625 83.2526C90.4429 76.3493 95.2902 67.9534 101.302 64.4824Z" fill="#554F8F"/>
<path d="M93.3886 88.1943C93.3647 88.1545 93.3329 88.1069 93.3091 88.0671H93.317C93.3409 88.1069 93.3647 88.1466 93.3886 88.1943Z" fill="#E9E8E6"/>
<path d="M140.974 60.8403L134.672 82.6893L133.955 83.3688L129.389 87.6327L123.389 86.5007L120.785 91.029L122.332 91.5951L117.993 98.8781L106.861 117.633C105.2 107.633 99.3888 97.897 93.3889 88.1988C93.3511 88.1611 93.3511 88.1233 93.3134 88.0857C92.6719 86.9913 92.2944 85.595 92.1813 83.9724C92.1813 83.746 92.1436 83.5196 92.1436 83.2932C92.1436 76.765 96.7097 68.8403 102.408 65.5573C102.521 65.4818 102.672 65.4065 102.785 65.3309C104.974 64.1611 106.974 63.8969 108.596 64.3497C118.181 65.5195 131.653 64.6517 140.974 60.8403Z" fill="#E3E7F0"/>
<path d="M167.734 80.1518C167.79 99.4951 154.216 123.003 137.392 132.714C120.56 142.433 106.899 134.653 106.843 115.31C106.788 95.9746 120.361 72.467 137.193 62.7477C154.017 53.0363 167.679 60.8245 167.734 80.1518Z" fill="#554F8F"/>
<path d="M163.896 80.5889C163.951 98.4222 151.363 120.221 135.842 129.185C131.678 131.586 127.601 132.849 124.041 132.849C118.891 132.849 115.013 130.282 112.804 125.665C111.429 122.812 110.698 119.18 110.682 114.881C110.626 97.0474 123.222 75.2484 138.743 66.2762C141.517 64.6788 144.258 63.5821 146.833 63.0337C148.113 62.7556 149.352 62.6125 150.537 62.6125C158.873 62.6125 163.864 69.3358 163.896 80.5889Z" fill="#C9CEE2"/>
<path d="M148.947 73.8179C149.003 91.6512 136.415 113.45 120.894 122.415C118.12 124.012 115.379 125.117 112.804 125.665C111.429 122.812 110.698 119.18 110.682 114.881C110.626 97.0473 123.222 75.2484 138.743 66.2761C141.517 64.6787 144.258 63.582 146.833 63.0337C148.2 65.8867 148.931 69.5185 148.947 73.8179Z" fill="white"/>
<path d="M83.2231 101.286L72.7697 95.211L72.7212 78.0854L83.1746 84.1603L83.2231 101.286Z" fill="#E3E7F0"/>
<path d="M125.241 102.66L113.354 99.4111C114.701 95.2509 116.564 91.0511 118.941 86.9303C121.358 82.8097 124.528 78.8079 127.46 75.5195L136.652 83.0871L125.241 102.66Z" fill="#C9CEE2"/>
<path d="M130.921 83.6567C135.358 81.0946 138.965 83.1498 138.979 88.2492C138.994 93.3454 135.411 99.558 130.973 102.12C126.538 104.681 122.929 102.621 122.914 97.5245C122.9 92.4251 126.486 86.2173 130.921 83.6567Z" fill="#E3E7F0"/>
<path d="M136.631 89.5908C136.667 93.2122 134.121 97.6224 130.966 99.4152C127.811 101.244 125.265 99.7736 125.265 96.1881C125.229 92.5669 127.775 88.1565 130.93 86.3278C134.086 84.535 136.631 85.9693 136.631 89.5908Z" fill="#B0B8CF"/>
<path d="M93.5836 112.288L90.0969 114.309L86.7686 112.367V102.819L90.2553 100.798L91.6025 101.59V106.9L93.5836 112.288Z" fill="#FC7E7E"/>
<path d="M88.127 108.922L91.6107 106.898L93.5742 112.285L90.0905 114.309L88.127 108.922Z" fill="#2C2477"/>
<path d="M88.1365 103.596L91.6202 101.571L91.6107 106.898L88.127 108.922L88.1365 103.596Z" fill="#AAA1EF"/>
<path d="M86.7764 102.81L90.2601 100.786L91.6203 101.571L88.1365 103.596L86.7764 102.81Z" fill="#2C2477"/>
<path d="M88.1366 103.596L88.1271 108.923L90.0906 114.31L86.7549 112.384L86.7764 102.811L88.1366 103.596Z" fill="#554F8F"/>
<path d="M55.1243 152.501V155.444C55.0865 155.972 54.747 156.538 54.03 156.954L49.3883 159.633L49.7658 161.935V164.878L41.162 164.425L36.0299 167.406C34.6337 168.237 32.2941 168.237 30.8601 167.406L12.5584 156.803C11.8036 156.388 11.4639 155.859 11.4639 155.293V152.388C11.4639 151.821 11.8414 151.293 12.5206 150.878L30.5204 140.425C31.9544 139.595 34.2565 139.557 35.728 140.425L54.03 150.991C55.2751 151.708 55.4262 152.84 54.4828 153.67C54.8979 153.331 55.1243 152.916 55.1243 152.501Z" fill="#78E75A"/>
<path d="M55.1131 152.507V155.451C55.0942 155.98 54.754 156.528 54.0359 156.944L48.9521 159.911V156.948L54.0548 154C54.754 153.584 55.1131 153.036 55.1131 152.507Z" fill="#484188"/>
<path d="M49.785 161.947L49.7785 164.896L41.1646 164.423L41.1711 161.474L49.785 161.947Z" fill="#8C85C8"/>
<path d="M41.1662 161.465V164.428L36.0446 167.395C34.6272 168.226 32.3027 168.226 30.8664 167.395L12.5537 156.812C11.8166 156.396 11.4575 155.848 11.4575 155.3V152.356C11.4575 152.904 11.8166 153.452 12.5537 153.868L30.8664 164.451C32.3027 165.264 34.6272 165.282 36.0446 164.451L41.1662 161.465Z" fill="#484188"/>
<path d="M54.0287 150.982C55.4646 151.811 55.4722 153.163 54.0457 153.992L48.9509 156.952L49.7849 161.947L41.1709 161.474L36.0521 164.448C34.6256 165.277 32.3044 165.27 30.8685 164.441L12.5522 153.867C11.1042 153.031 11.1088 151.7 12.5353 150.871L30.5289 140.414C31.9554 139.585 34.2644 139.571 35.7124 140.407L54.0287 150.982Z" fill="#E7E4FF"/>
<path d="M44.3292 153.452L37.3341 154.712L35.1914 158.746L30.9374 155.279L23.5957 155.342L27.9755 151.939L25.6122 147.938L32.576 149.293L38.4368 146.74L38.3424 150.994L44.3292 153.452Z" fill="#8C85C8"/>
<path d="M88.4075 174.199V178.161C88.4075 180.539 86.8605 182.878 83.7661 184.689C77.5396 188.274 67.4642 188.274 61.1999 184.689C58.068 182.878 56.4829 180.463 56.4829 178.086V174.123C56.4829 171.784 58.0302 169.444 61.1246 167.633C67.3509 164.048 77.464 164.048 83.7283 167.633C86.9535 169.481 88.4635 171.921 88.3815 174.351C88.3831 174.3 88.4075 174.251 88.4075 174.199Z" fill="#7E5AF2"/>
<path d="M88.4226 174.212L88.4113 178.177C88.4046 180.532 86.8539 182.884 83.7614 184.681C77.5477 188.292 67.4669 188.292 61.2124 184.681C58.0595 182.861 56.482 180.471 56.4888 178.086L56.5 174.121C56.4933 176.506 58.0708 178.896 61.2236 180.716C67.4781 184.328 77.5589 184.327 83.7727 180.716C86.8651 178.919 88.4159 176.567 88.4226 174.212Z" fill="#484188"/>
<path d="M83.7212 167.642C89.9757 171.253 89.9866 177.105 83.7727 180.716C77.5589 184.327 67.4781 184.328 61.2236 180.716C54.9692 177.105 54.9141 171.253 61.1279 167.642C67.3418 164.031 77.4667 164.031 83.7212 167.642Z" fill="#E7E4FF"/>
<path d="M76.6386 168.631L78.3808 177.385L63.2476 176.395L76.6386 168.631Z" fill="#8C85C8"/>
<path d="M145.54 34.1234C145.54 34.9915 144.936 36.0102 144.219 36.4255L131.578 43.7463L127.276 52.0104L125.049 50.7273L122.634 48.8783L110.294 56.0104C109.804 56.2744 109.389 56.199 109.162 55.8971C109.238 55.9726 109.276 56.048 109.351 56.1235L105.54 53.8972C105.313 53.7461 105.162 53.4442 105.162 53.0291L105.087 34.6896C105.087 33.8217 105.691 32.8028 106.445 32.3877L140.332 12.8028C140.71 12.5764 141.049 12.5764 141.276 12.6895L145.087 14.916C145.351 15.0669 145.502 15.3688 145.502 15.7839L145.54 34.1234Z" fill="#E7E4FF"/>
<path d="M127.274 52.0183L125.063 50.7337L120.708 47.4399L122.919 48.7246L127.274 52.0183Z" fill="#8F87CF"/>
<path d="M141.285 12.7011C141.042 12.5601 140.707 12.5798 140.339 12.7922L106.429 32.3701C105.682 32.8017 105.096 33.8311 105.099 34.6902L105.151 53.0221C105.152 53.4489 105.298 53.7465 105.536 53.8852L109.349 56.1083C109.11 55.9697 108.964 55.6721 108.963 55.2453L108.911 36.9133C108.909 36.0541 109.494 35.0248 110.242 34.5931L144.151 15.0153C144.519 14.803 144.854 14.783 145.097 14.9242L141.285 12.7011Z" fill="#8F87CF"/>
<path d="M144.152 15.0153C144.886 14.5914 145.489 14.9348 145.491 15.7939L145.543 34.1259C145.545 34.9849 144.947 36.0068 144.212 36.4307L131.57 43.73L127.274 52.0184L122.919 48.7246L110.302 56.0085C109.555 56.4402 108.966 56.1043 108.963 55.2453L108.911 36.9134C108.909 36.0542 109.494 35.0248 110.242 34.5932L144.152 15.0153Z" fill="#E7E4FF"/>
</svg>
