<?xml version="1.0" standalone="no"?>
<!DOCTYPE svg PUBLIC "-//W3C//DTD SVG 20010904//EN"
 "http://www.w3.org/TR/2001/REC-SVG-20010904/DTD/svg10.dtd">
<svg version="1.0" xmlns="http://www.w3.org/2000/svg"
 width="140.000000pt" height="140.000000pt" viewBox="0 0 140.000000 140.000000"
 preserveAspectRatio="xMidYMid meet">
<metadata>
Created by potrace 1.14, written by Peter Selinger 2001-2017
</metadata>
<g transform="translate(0.000000,140.000000) scale(0.100000,-0.100000)"
fill="#000000" stroke="none">
<path d="M669 1236 c-2 -2 -22 -6 -44 -10 -132 -19 -288 -129 -361 -254 -72
-123 -92 -290 -51 -425 l20 -67 134 0 c119 0 133 2 119 15 -8 8 -27 41 -43 72
-57 117 -31 261 64 358 21 21 63 50 93 64 l55 26 372 5 373 5 -39 60 c-20 33
-58 81 -84 107 l-46 48 -279 -1 c-154 0 -281 -2 -283 -3z"/>
<path d="M1015 865 c98 -164 39 -366 -133 -451 l-57 -29 -412 -3 -413 -3 0
-110 0 -110 404 1 c441 1 462 4 584 61 77 37 187 142 231 221 67 121 84 280
44 413 l-19 60 -131 3 -132 3 34 -56z"/>
<path d="M695 870 c-50 -20 -65 -77 -37 -132 19 -36 19 -39 2 -125 -10 -48
-18 -89 -17 -90 3 -2 96 -5 146 -4 l44 1 -7 38 c-3 20 -8 48 -11 62 -16 78
-16 91 -6 104 24 29 29 72 13 106 -22 45 -75 62 -127 40z"/>
</g>
</svg>
