<svg width="101" height="100" viewBox="0 0 101 100" fill="none" xmlns="http://www.w3.org/2000/svg">
<path d="M98.5009 73.2004L63.4667 12.5184C57.7443 2.49388 43.2737 2.49388 37.5719 12.5184L2.5171 73.2004C-3.20529 83.2249 3.91682 95.6783 15.4645 95.6783H85.43C96.9777 95.6783 104.223 83.1013 98.5009 73.2004ZM50.4987 82.2162C47.4523 82.2162 44.9204 79.6844 44.9204 76.6379C44.9204 73.5915 47.4523 71.0596 50.4987 71.0596C53.5452 71.0596 56.077 73.5915 55.9535 76.782C56.0976 79.6844 53.4217 82.2162 50.4987 82.2162ZM55.583 46.1528C55.336 50.4755 55.0684 54.7776 54.8214 59.1002C54.6979 60.5 54.6979 61.7762 54.6979 63.1553C54.5744 65.4402 52.7836 67.2104 50.4987 67.2104C48.2139 67.2104 46.4436 65.5637 46.2995 63.2788C45.929 56.5478 45.5379 49.9403 45.1674 43.2093C45.1599 43.101 45.1523 42.9926 45.1447 42.8841C45.0287 41.22 44.9116 39.5399 44.7763 37.878C44.7763 34.9551 46.4231 32.5467 49.099 31.7851C51.7749 31.147 54.4303 32.4232 55.583 34.9551C55.9741 35.8402 56.0976 36.7253 56.0976 37.7545C55.9741 40.5745 55.7065 43.374 55.583 46.1528Z" fill="#7F43FF" fill-opacity="0.8"/>
<path d="M55.583 46.1528C55.336 50.4755 55.0684 54.7776 54.8214 59.1002C54.6979 60.5 54.6979 61.7762 54.6979 63.1553C54.5744 65.4402 52.7836 67.2104 50.4987 67.2104C48.2139 67.2104 46.4436 65.5637 46.2995 63.2788C45.929 56.5478 45.5379 49.9403 45.1674 43.2093L45.1447 42.8841C45.0287 41.22 44.9116 39.5399 44.7763 37.878C44.7763 34.9551 46.4231 32.5467 49.099 31.7851C51.7749 31.147 54.4303 32.4232 55.583 34.9551C55.9741 35.8402 56.0976 36.7253 56.0976 37.7545C55.9741 40.5745 55.7065 43.374 55.583 46.1528Z" fill="#7F43FF" fill-opacity="0.8"/>
<path d="M50.4987 82.2162C47.4523 82.2162 44.9204 79.6844 44.9204 76.6379C44.9204 73.5915 47.4523 71.0596 50.4987 71.0596C53.5452 71.0596 56.077 73.5915 55.9535 76.782C56.0976 79.6844 53.4217 82.2162 50.4987 82.2162Z" fill="#7F43FF" fill-opacity="0.8"/>
<path d="M98.5009 73.2004L63.4667 12.5184C57.7443 2.49388 43.2737 2.49388 37.5719 12.5184L2.5171 73.2004C-3.20529 83.2249 3.91682 95.6783 15.4645 95.6783H85.43C96.9777 95.6783 104.223 83.1013 98.5009 73.2004ZM50.4987 82.2162C47.4523 82.2162 44.9204 79.6844 44.9204 76.6379C44.9204 73.5915 47.4523 71.0596 50.4987 71.0596C53.5452 71.0596 56.077 73.5915 55.9535 76.782C56.0976 79.6844 53.4217 82.2162 50.4987 82.2162ZM55.583 46.1528C55.336 50.4755 55.0684 54.7776 54.8214 59.1002C54.6979 60.5 54.6979 61.7762 54.6979 63.1553C54.5744 65.4402 52.7836 67.2104 50.4987 67.2104C48.2139 67.2104 46.4436 65.5637 46.2995 63.2788C45.929 56.5478 45.5379 49.9403 45.1674 43.2093C45.1599 43.101 45.1523 42.9926 45.1447 42.8841C45.0287 41.22 44.9116 39.5399 44.7763 37.878C44.7763 34.9551 46.4231 32.5467 49.099 31.7851C51.7749 31.147 54.4303 32.4232 55.583 34.9551C55.9741 35.8402 56.0976 36.7253 56.0976 37.7545C55.9741 40.5745 55.7065 43.374 55.583 46.1528Z" fill="white"/>
<path d="M55.583 46.1528C55.336 50.4755 55.0684 54.7776 54.8214 59.1002C54.6979 60.5 54.6979 61.7762 54.6979 63.1553C54.5744 65.4402 52.7836 67.2104 50.4987 67.2104C48.2139 67.2104 46.4436 65.5637 46.2995 63.2788C45.929 56.5478 45.5379 49.9403 45.1674 43.2093L45.1447 42.8841C45.0287 41.22 44.9116 39.5399 44.7763 37.878C44.7763 34.9551 46.4231 32.5467 49.099 31.7851C51.7749 31.147 54.4303 32.4232 55.583 34.9551C55.9741 35.8402 56.0976 36.7253 56.0976 37.7545C55.9741 40.5745 55.7065 43.374 55.583 46.1528Z" fill="white"/>
<path d="M50.4987 82.2162C47.4523 82.2162 44.9204 79.6844 44.9204 76.6379C44.9204 73.5915 47.4523 71.0596 50.4987 71.0596C53.5452 71.0596 56.077 73.5915 55.9535 76.782C56.0976 79.6844 53.4217 82.2162 50.4987 82.2162Z" fill="white"/>
<path d="M98.5009 73.2004L63.4667 12.5184C57.7443 2.49388 43.2737 2.49388 37.5719 12.5184L2.5171 73.2004C-3.20529 83.2249 3.91682 95.6783 15.4645 95.6783H85.43C96.9777 95.6783 104.223 83.1013 98.5009 73.2004ZM50.4987 82.2162C47.4523 82.2162 44.9204 79.6844 44.9204 76.6379C44.9204 73.5915 47.4523 71.0596 50.4987 71.0596C53.5452 71.0596 56.077 73.5915 55.9535 76.782C56.0976 79.6844 53.4217 82.2162 50.4987 82.2162ZM55.583 46.1528C55.336 50.4755 55.0684 54.7776 54.8214 59.1003C54.6979 60.5 54.6979 61.7762 54.6979 63.1553C54.5744 65.4402 52.7836 67.2104 50.4987 67.2104C48.2139 67.2104 46.4436 65.5637 46.2995 63.2788C45.929 56.5478 45.5379 49.9403 45.1674 43.2093C45.0439 41.4391 44.9204 39.6482 44.7763 37.878C44.7763 34.9551 46.4231 32.5467 49.099 31.7851C51.7749 31.147 54.4303 32.4232 55.583 34.9551C55.9741 35.8402 56.0976 36.7253 56.0976 37.7545C55.9741 40.5745 55.7065 43.374 55.583 46.1528Z" fill="#A143FF"/>
</svg>
