<svg width="101" height="100" viewBox="0 0 101 100" fill="none" xmlns="http://www.w3.org/2000/svg">
<circle cx="50.5" cy="50" r="50" fill="url(#paint0_linear_104_41)" fill-opacity="0.6"/>
<circle cx="50.5" cy="50" r="50" fill="white"/>
<path d="M50.5 0C22.9311 0 0.5 22.4311 0.5 50C0.5 77.5689 22.9311 100 50.5 100C78.0689 100 100.5 77.5689 100.5 50C100.5 22.4311 78.0689 0 50.5 0ZM78.4449 36.8421L46.49 68.5464C44.6103 70.4261 41.6028 70.5514 39.5977 68.6717L22.6805 53.2581C20.6754 51.3784 20.5501 48.2456 22.3045 46.2406C24.1842 44.2356 27.317 44.1103 29.3221 45.99L42.7306 58.2707L71.302 29.6992C73.307 27.6942 76.4398 27.6942 78.4449 29.6992C80.4499 31.7043 80.4499 34.8371 78.4449 36.8421Z" fill="url(#paint1_linear_104_41)"/>
<defs>
<linearGradient id="paint0_linear_104_41" x1="48.7993" y1="-96.875" x2="11.2479" y2="168.795" gradientUnits="userSpaceOnUse">
<stop stop-color="#9A35FF"/>
<stop offset="1" stop-color="#3555FF"/>
</linearGradient>
<linearGradient id="paint1_linear_104_41" x1="48.7993" y1="-96.875" x2="11.2479" y2="168.795" gradientUnits="userSpaceOnUse">
<stop stop-color="#9A35FF"/>
<stop offset="1" stop-color="#3555FF"/>
</linearGradient>
</defs>
</svg>
