<svg width="101" height="100" viewBox="0 0 101 100" fill="none" xmlns="http://www.w3.org/2000/svg">
<circle cx="51" cy="50" r="50" fill="#F55491" fill-opacity="0.8"/>
<path d="M50.5001 100C78.1144 100 100.5 77.6144 100.5 50.0001C100.5 22.3858 78.1144 0 50.5001 0C22.8858 0 0.5 22.3858 0.5 50.0001C0.5 77.6144 22.8858 100 50.5001 100Z" fill="#F55491"/>
<path d="M73.3124 72.8126C71.4374 74.6875 68.3123 74.6875 66.4373 72.8126L50.4999 56.8751L34.5625 72.8126C32.6875 74.6875 29.5624 74.6875 27.6874 72.8126C25.8125 70.9376 25.8125 67.8125 27.6874 65.9375L43.6249 50.0001L27.6874 34.0627C25.8125 32.1877 25.8125 29.0626 27.6874 27.1876C29.5624 25.3127 32.6875 25.3127 34.5625 27.1876L50.4999 43.1251L66.4373 27.1876C68.3123 25.3127 71.4374 25.3127 73.3124 27.1876C75.1873 29.0626 75.1873 32.1877 73.3124 34.0627L57.3749 50.0001L73.3124 65.9375C75.1873 67.8125 75.1873 70.9374 73.3124 72.8126Z" fill="white"/>
</svg>
