<svg width="486" height="540" viewBox="0 0 486 540" fill="none" xmlns="http://www.w3.org/2000/svg">
<path d="M485.449 363.12C485.449 366.604 483.204 370.087 478.712 372.673L198.309 535.738C189.213 541.02 174.39 541.02 165.294 535.738L7.51747 444.596C2.91364 441.899 0.555176 438.415 0.555176 434.932V400.543C0.555176 397.172 2.80123 393.688 7.40575 390.991L287.696 228.038C296.792 222.755 311.615 222.643 320.824 228.038L478.487 319.179C483.204 321.876 485.449 325.472 485.337 328.956L485.449 363.12Z" fill="#1D2943"/>
<path d="M0.560067 434.942C0.560067 438.401 2.89591 441.953 7.47301 444.572L165.255 535.722C174.41 541.051 189.17 541.051 198.324 535.722L478.67 372.679C483.154 370.061 485.396 366.602 485.396 363.142L485.386 328.806C485.386 332.265 483.144 335.724 478.66 338.341L198.316 501.385C189.16 506.621 174.401 506.621 165.246 501.385L7.46421 410.234C2.88711 407.523 0.55127 404.064 0.55127 400.511L0.560067 434.942Z" fill="#7C73CE"/>
<path d="M478.525 319.148C487.711 324.455 487.699 333.036 478.633 338.309L198.292 501.349C189.167 506.656 174.424 506.656 165.239 501.349L7.48059 410.199C-1.70452 404.892 -1.75279 396.345 7.37282 391.038L287.714 227.998C296.779 222.725 311.583 222.691 320.768 227.998L478.525 319.148Z" fill="#49447C"/>
<path d="M361.681 255.213C365.185 257.237 365.203 260.443 361.795 262.425C358.386 264.408 352.856 264.408 349.352 262.384C345.921 260.402 345.903 257.196 349.312 255.213C352.721 253.231 358.25 253.231 361.681 255.213Z" fill="#4C5C75"/>
<path d="M373.222 264.857C375.412 266.121 375.423 268.146 373.248 269.412C371.072 270.677 367.58 270.677 365.389 269.412C363.199 268.146 363.188 266.121 365.364 264.857C367.539 263.591 371.032 263.591 373.222 264.857Z" fill="#4C5C75"/>
<path d="M14.0669 406.378L171.756 497.529C177.361 500.707 186.235 500.707 191.56 497.529L472.091 334.486C477.416 331.307 477.51 326.165 471.905 322.986L442.853 306.158C440.984 305.13 438.088 305.13 436.313 306.158L431.642 308.87C429.867 309.898 426.878 309.898 425.103 308.87L338.599 258.947C336.824 257.919 336.824 256.142 338.599 255.113L343.27 252.403C345.138 251.375 345.044 249.692 343.27 248.663L314.123 231.835C308.705 228.657 299.736 228.657 294.413 231.742L13.881 394.878C8.55596 398.058 8.55596 403.2 14.0669 406.378Z" fill="white"/>
<path d="M473.322 363.457C473.322 369.076 469.391 375.931 464.45 378.741C461.306 380.539 458.611 380.314 457.039 378.292C457.375 378.741 457.825 379.078 458.274 379.415L451.873 375.595C450.301 374.695 449.29 372.785 449.29 369.975C449.178 364.356 453.109 357.501 458.049 354.691C460.52 353.23 462.766 353.118 464.338 354.017L470.402 357.613C472.199 358.4 473.322 360.535 473.322 363.457Z" fill="#1D2943"/>
<path d="M440.756 375.032C442.44 375.819 443.451 377.842 443.563 380.764C443.563 386.383 439.521 393.239 434.692 396.048C431.547 397.846 428.74 397.621 427.168 395.598C427.505 396.048 427.954 396.497 428.403 396.722L422.003 393.014C420.43 392.114 419.42 390.092 419.42 387.282C419.42 381.663 423.35 374.92 428.291 371.998C430.65 370.65 433.007 370.537 434.58 371.437L440.531 374.92C440.643 375.032 440.756 375.032 440.756 375.032Z" fill="#1D2943"/>
<path d="M449.255 369.931C449.255 372.744 450.252 374.739 451.838 375.646L458.23 379.366C456.643 378.459 455.646 376.463 455.646 373.651C455.6 368.026 459.544 361.222 464.439 358.409C466.887 357.003 469.152 356.867 470.739 357.775L464.349 354.055C462.762 353.148 460.495 353.283 458.048 354.69C453.153 357.547 449.21 364.306 449.255 369.931Z" fill="#2A255D"/>
<path d="M464.433 358.416C459.543 361.243 455.62 368.042 455.635 373.666C455.652 379.29 459.6 381.576 464.49 378.75C469.381 375.924 473.333 369.074 473.317 363.45C473.301 357.826 469.324 355.591 464.433 358.416Z" fill="#484188"/>
<path d="M419.445 387.268C419.445 390.08 420.443 392.076 422.029 392.983L428.419 396.702C426.833 395.795 425.836 393.8 425.836 390.987C425.791 385.363 429.734 378.558 434.629 375.746C437.076 374.339 439.343 374.204 440.928 375.111L434.538 371.392C432.952 370.484 430.686 370.621 428.238 372.026C423.343 374.884 419.399 381.643 419.445 387.268Z" fill="#2A255D"/>
<path d="M434.624 375.754C429.732 378.579 425.809 385.379 425.826 391.003C425.841 396.627 429.79 398.912 434.681 396.087C439.571 393.261 443.523 386.411 443.507 380.787C443.491 375.163 439.514 372.928 434.624 375.754Z" fill="#484188"/>
<path d="M157.558 506.932C154.133 504.953 151.35 506.473 151.34 510.342C151.327 514.277 154.094 519.07 157.517 521.05C160.942 523.026 163.663 521.406 163.676 517.47C163.686 513.602 160.981 508.909 157.558 506.932Z" fill="#2A255D"/>
<path d="M135.424 494.145C132.001 492.166 129.219 493.686 129.206 497.553C129.196 501.49 131.96 506.283 135.382 508.262C138.808 510.238 141.532 508.617 141.542 504.682C141.552 500.814 138.846 496.121 135.424 494.145Z" fill="#2A255D"/>
<path d="M113.29 481.354C109.867 479.377 107.085 480.897 107.072 484.766C107.063 488.701 109.829 493.494 113.251 495.471C116.674 497.45 119.398 495.83 119.408 491.894C119.421 488.022 116.712 483.333 113.29 481.354Z" fill="#2A255D"/>
<path d="M60.3937 450.719C56.9713 448.743 54.1845 450.264 54.1758 454.131C54.1659 458.067 56.9285 462.86 60.354 464.836C63.7765 466.816 66.5015 465.195 66.5105 461.259C66.5204 457.388 63.8161 452.698 60.3937 450.719Z" fill="#2A255D"/>
<path d="M38.2594 437.93C34.8371 435.955 32.0547 437.475 32.0415 441.343C32.0316 445.279 34.7953 450.072 38.2209 452.049C41.6422 454.027 44.3674 452.407 44.3773 448.467C44.3894 444.6 41.6818 439.91 38.2594 437.93Z" fill="#2A255D"/>
<path d="M16.1248 425.143C12.7023 423.167 9.91998 424.684 9.9102 428.555C9.897 432.49 12.6639 437.285 16.0863 439.26C19.5087 441.24 22.2327 439.619 22.2459 435.683C22.2558 431.811 19.5505 427.122 16.1248 425.143Z" fill="#2A255D"/>
<path d="M99.9377 472.242L95.7828 487.976L77.7026 477.525L73.6602 457.071L93.312 468.421L99.9377 472.242Z" fill="#2A255D"/>
<path d="M93.3084 468.42L99.8981 472.227L95.7609 487.935L77.7373 477.52L93.3084 468.42Z" fill="#1D2943"/>
<path d="M77.7218 477.51L73.688 457.081L93.3084 468.42L77.7372 477.52L77.7218 477.51Z" fill="#4F45AB"/>
<path d="M394.49 318.954L350.245 344.465L305.102 318.279L304.653 152.293L348.785 126.782L394.041 152.967L394.49 318.954Z" fill="#DEDFFB"/>
<path d="M350.283 344.511L305.119 318.245L304.649 152.283L349.812 178.549L350.283 344.511Z" fill="#49447C"/>
<path d="M349.812 178.549L304.649 152.283L348.836 126.752L393.999 153.018L349.812 178.549Z" fill="#AAA0F5"/>
<path d="M393.999 153.018L394.47 318.98L350.283 344.511L349.812 178.549L393.999 153.018Z" fill="#7C73CE"/>
<path d="M324.53 359.411L280.285 384.921L235.142 358.625L234.805 248.715L279.05 223.205L324.192 249.389L324.53 359.411Z" fill="#5094FF"/>
<path d="M280.321 384.934L235.158 358.668L234.846 248.693L280.01 274.959L280.321 384.934Z" fill="#49447C"/>
<path d="M280.01 274.959L234.846 248.693L279.033 223.162L324.197 249.428L280.01 274.959Z" fill="#AAA0F5"/>
<path d="M324.197 249.428L324.508 359.403L280.321 384.934L280.01 274.959L324.197 249.428Z" fill="#7C73CE"/>
<path d="M254.681 399.756L210.436 425.267L165.294 399.082L164.844 233.095L208.976 207.584L254.232 233.769L254.681 399.756Z" fill="#72D561"/>
<path d="M210.462 425.298L165.299 399.031L164.829 233.069L209.992 259.336L210.462 425.298Z" fill="#49447C"/>
<path d="M209.992 259.336L164.829 233.069L209.014 207.54L254.178 233.806L209.992 259.336Z" fill="#AAA0F5"/>
<path d="M254.178 233.806L254.648 399.768L210.462 425.298L209.992 259.336L254.178 233.806Z" fill="#7C73CE"/>
<path d="M184.721 440.214L140.476 465.724L95.3331 439.427L94.9966 329.517L139.241 303.895L184.384 330.192L184.721 440.214Z" fill="#DF3260"/>
<path d="M140.501 465.721L95.3374 439.454L95.0259 329.479L140.189 355.746L140.501 465.721Z" fill="#49447C"/>
<path d="M140.189 355.746L95.0259 329.48L139.211 303.95L184.375 330.216L140.189 355.746Z" fill="#AAA0F5"/>
<path d="M184.375 330.216L184.686 440.191L140.501 465.721L140.189 355.746L184.375 330.216Z" fill="#7C73CE"/>
<path d="M330.722 52.8358C331.558 53.0765 332.182 53.6855 332.911 54.1097C333.378 54.3812 334 54.7431 334.467 55.0146C334.706 55.1536 335.024 55.3389 335.263 55.4778C335.746 55.7588 336.39 56.1335 336.874 56.4145C337.357 56.6955 338.001 57.07 338.484 57.3509C338.723 57.4898 339.041 57.6752 339.28 57.814C340.529 58.5401 341.779 59.2669 343.028 59.993C341.197 59.9314 339.53 59.4638 338.08 58.6208L325.774 51.4639C327.223 52.3067 328.89 52.7743 330.722 52.8358Z" fill="#85D3FC"/>
<path d="M278.647 129.166L290.953 136.323C293.011 137.52 294.628 139.479 295.654 142.111L283.348 134.954C282.322 132.322 280.705 130.363 278.647 129.166Z" fill="#85D3FC"/>
<path d="M343.058 60.0272L295.67 142.066C294.21 138.357 291.515 135.885 287.921 135.21L275.681 128.018L322.059 47.6655L334.3 54.7449C336.208 58.0044 339.241 59.9147 343.058 60.0272Z" fill="#C9CEE2"/>
<path d="M287.97 135.189L275.664 128.032L322.004 47.6265L334.31 54.7836L287.97 135.189Z" fill="#C9CEE2"/>
<path d="M334.31 54.7837C336.226 58.0433 339.283 59.8674 343.028 59.9931L295.654 142.111C294.173 138.313 291.461 135.915 287.97 135.189L334.31 54.7837Z" fill="#E3E7F0"/>
<path d="M372.929 21.9296C372.929 34.8538 363.946 50.5868 352.604 57.2176C349.123 59.2404 345.866 60.1396 343.058 60.0271C340.813 59.9146 338.791 59.2404 337.107 57.8919L325.765 51.3735C324.193 50.475 322.958 49.3507 322.059 47.553C320.712 45.3052 319.813 42.1582 319.813 38.3376C319.813 25.4134 328.909 9.68045 340.027 3.16213C345.866 -0.096681 351.032 -0.546647 354.738 1.58863L366.304 8.44373C370.346 10.3547 372.929 15.0745 372.929 21.9296Z" fill="#DF3260"/>
<path d="M366.953 8.76178C363.285 6.66389 358.222 7.01372 352.459 10.3339C341.111 16.7992 332.031 32.5264 332.206 45.4572C332.206 49.301 332.903 52.4473 334.299 54.718C335.348 56.466 336.571 57.6893 338.14 58.5628L325.743 51.3978C324.172 50.5243 322.951 49.301 322.077 47.554C320.679 45.2823 319.807 42.137 319.807 38.2922C319.807 25.3614 328.887 9.63527 340.062 3.1699C345.824 -0.150244 351.063 -0.500066 354.729 1.59675L366.953 8.76178Z" fill="#49447C"/>
<path d="M352.455 10.2855C363.827 3.71473 372.886 9.01051 372.922 21.9585C372.959 34.9066 363.96 50.6356 352.588 57.2064C349.138 59.2001 345.884 60.0873 343.029 59.9923C339.283 59.8668 336.226 58.0427 334.31 54.783C332.922 52.4199 332.131 49.307 332.121 45.5334C332.084 32.5853 341.196 16.7908 352.455 10.2855Z" fill="#AAA0F5"/>
<path d="M276.692 184.658C270.515 188.254 264.901 188.367 261.195 185.445C261.307 185.67 261.419 185.67 261.531 185.782L249.74 178.927C241.595 174.342 243.065 161.02 246.82 151.955C248.954 146.561 252.211 141.391 256.141 137.121C261.055 131.981 268.695 126.571 275.681 128.018C276.692 128.243 277.702 128.58 278.713 129.142L290.391 135.997C292.75 137.233 294.546 139.256 295.67 142.065C300.592 155.436 290.26 176.783 276.692 184.658Z" fill="#AA6256"/>
<path d="M290.965 136.309C290 135.827 289.035 135.464 287.95 135.223C280.9 133.655 273.36 139.208 268.411 144.396C264.551 148.5 261.295 153.69 259.124 159.122C255.416 168.166 253.898 181.284 262.018 186.159L249.716 178.917C241.642 174.338 243.064 160.933 246.821 152C248.992 146.569 252.249 141.379 256.109 137.154C261.043 131.981 268.587 126.673 275.647 127.981C276.733 128.222 277.698 128.584 278.663 129.188L290.965 136.309Z" fill="#49447C"/>
<path d="M287.97 135.188C291.462 135.914 294.174 138.312 295.655 142.11C300.449 154.407 291.114 176.319 276.683 184.657C260.508 194.003 250.876 179.278 259.071 159.126C261.262 153.735 264.536 148.558 268.428 144.367C273.3 139.123 280.97 133.733 287.97 135.188Z" fill="#AAA0F5"/>
<path d="M206.037 128.744C209.387 123.816 211.902 118.194 213.113 112.685L225.419 119.842C224.208 125.351 221.693 130.974 218.344 135.901C214.651 133.754 209.729 130.891 206.037 128.744Z" fill="#85D3FC"/>
<path d="M191.384 149.417L179.077 142.26C180.238 142.934 181.538 143.368 182.951 143.546L195.257 150.703C193.844 150.526 192.544 150.092 191.384 149.417Z" fill="#85D3FC"/>
<path d="M225.419 119.842L213.113 112.685L256.121 137.211L268.428 144.368L225.419 119.842Z" fill="#C9CEE2"/>
<path d="M218.344 135.901C221.694 130.973 224.209 125.351 225.42 119.841L268.428 144.367C264.535 148.558 261.262 153.736 259.071 159.126L218.344 135.901Z" fill="#E3E7F0"/>
<path d="M131.517 223.296L143.823 230.453C145.181 231.242 146.346 232.364 147.276 233.791L134.97 226.634C134.04 225.206 132.874 224.085 131.517 223.296Z" fill="#85D3FC"/>
<path d="M195.277 150.719L147.327 233.769C145.305 230.734 142.161 229.048 138.343 229.048L126.103 221.968L174.839 137.458L187.08 144.65C188.764 148.134 191.684 150.269 195.277 150.719Z" fill="#C9CEE2"/>
<path d="M138.381 229.087L126.074 221.93L174.8 137.467L187.107 144.624L138.381 229.087Z" fill="#C9CEE2"/>
<path d="M187.107 144.624C188.796 148.138 191.662 150.251 195.257 150.703L147.277 233.791C145.265 230.704 142.153 229.049 138.381 229.086L187.107 144.624Z" fill="#E3E7F0"/>
<path d="M226.271 112.734C226.271 115.094 225.934 117.454 225.372 119.814C224.25 125.321 221.666 130.94 218.298 135.884C214.929 140.942 210.549 145.324 205.945 148.022C202.014 150.269 198.309 151.056 195.277 150.719C193.817 150.494 192.47 150.045 191.234 149.258C191.01 149.145 190.672 149.033 190.448 148.809L179.106 142.29C177.197 141.278 175.738 139.593 174.839 137.458C173.716 135.21 173.154 132.401 173.154 129.142C173.154 116.218 182.25 100.484 193.368 93.8538C199.207 90.5943 204.261 90.37 207.966 92.5053L219.533 99.2479C219.757 99.3604 219.982 99.4729 220.206 99.6972C223.912 101.721 226.158 106.216 226.271 112.734Z" fill="#F9A83D"/>
<path d="M220.34 99.6901C216.527 97.4538 211.4 97.8481 205.748 101.137C194.443 107.583 185.372 123.37 185.372 136.263C185.372 139.552 186.029 142.446 187.081 144.683C188.133 146.788 189.579 148.367 191.419 149.419L179.062 142.315C177.222 141.262 175.776 139.552 174.856 137.447C173.672 135.211 173.146 132.448 173.146 129.159C173.146 116.267 182.217 100.479 193.391 93.9015C199.175 90.6126 204.302 90.3492 207.983 92.4546L220.34 99.6901Z" fill="#49447C"/>
<path d="M205.762 101.079C217.023 94.5728 226.193 99.8039 226.23 112.752C226.236 115.048 225.951 117.434 225.42 119.841C224.208 125.351 221.694 130.973 218.344 135.901C214.905 140.96 210.589 145.288 205.895 148C202.002 150.249 198.358 151.095 195.257 150.703C191.662 150.252 188.796 148.138 187.107 144.624C186.037 142.397 185.437 139.612 185.428 136.327C185.391 123.379 194.503 107.584 205.762 101.079Z" fill="#AAA0F5"/>
<path d="M149.798 243.546C149.798 256.582 140.813 272.203 129.584 278.609C123.969 281.868 118.804 282.205 115.098 280.07L114.985 279.958L113.863 279.283L102.633 272.99C99.0395 270.855 96.7935 266.359 96.7935 259.953C96.7935 241.704 113.51 221.856 126.103 221.856C128.012 221.856 129.921 222.418 131.493 223.317L143.397 230.285C143.509 230.285 143.621 230.397 143.733 230.509H143.846C145.193 231.296 146.428 232.42 147.327 233.769C148.899 236.241 149.798 239.5 149.798 243.546Z" fill="#B28AFD"/>
<path d="M138.381 229.086C142.153 229.049 145.264 230.703 147.277 233.79C148.86 236.219 149.765 239.531 149.776 243.601C149.813 256.549 140.812 272.151 129.552 278.657C118.293 285.162 109.122 280.06 109.085 267.112C109.036 249.94 124.782 229.221 138.381 229.086Z" fill="#AAA0F5"/>
<path d="M143.832 230.459C142.254 229.538 140.414 229.012 138.441 229.143C124.862 229.143 108.952 249.883 109.127 267.163C109.127 273.478 111.361 277.951 115.042 280.056L102.685 272.952C99.0041 270.847 96.7695 266.374 96.7695 259.928C96.7695 242.591 112.773 221.907 126.084 221.907C128.057 221.907 129.897 222.434 131.475 223.354L143.832 230.459Z" fill="#49447C"/>
</svg>
