<svg width="540" height="540" viewBox="0 0 540 540" fill="none" xmlns="http://www.w3.org/2000/svg">
<path d="M436.154 327.115C436.154 325.039 435.115 321.923 432 319.846L321.923 256.5C316.731 253.385 307.385 253.385 301.154 256.5L122.538 360.346C119.423 362.423 118.385 364.5 118.385 366.577V395.654C118.385 397.731 119.423 399.808 122.538 401.885L232.615 465.231C237.808 468.346 248.192 468.346 253.385 465.231L432 361.385C435.115 359.308 436.154 357.231 436.154 355.154V327.115ZM435.115 330.231C436.154 329.192 436.154 329.192 436.154 328.154C436.154 328.154 436.154 329.192 435.115 330.231Z" fill="#7C73CE"/>
<path d="M436.154 327.115V356.192C436.154 358.269 435.115 360.346 432 362.423L253.385 466.269C247.154 469.385 238.846 469.385 232.615 466.269L122.538 402.923C119.423 400.846 118.385 398.769 118.385 396.692V367.615C118.385 369.692 119.423 371.769 122.538 373.846L232.615 436.154C238.846 439.269 247.154 439.269 253.385 436.154L432 332.308C435.115 331.269 436.154 329.192 436.154 327.115Z" fill="#66609C"/>
<path d="M432 320.885C438.231 324 438.231 329.192 432 333.346L253.385 436.154C247.154 439.269 238.846 439.269 232.615 436.154L122.538 372.808C116.308 369.692 116.308 364.5 122.538 360.346L301.154 256.5C307.385 253.385 315.692 253.385 321.923 256.5L432 320.885Z" fill="#7C73CE"/>
<path d="M235.731 430.962L131.885 370.731C127.731 368.654 127.731 363.462 131.885 361.385L303.231 261.692C307.385 259.616 314.654 259.616 317.769 261.692L421.615 321.923C425.769 324 425.769 329.192 421.615 331.269L250.269 430.962C247.154 433.039 239.885 433.039 235.731 430.962Z" fill="#AAA0F5"/>
<path d="M314.654 271.039C312.577 272.077 309.462 272.077 306.346 271.039C304.269 270 304.269 267.923 306.346 266.885C311.538 263.769 318.808 267.923 314.654 271.039Z" fill="#1D2943"/>
<path d="M147.462 363.462C149.538 364.5 149.538 366.577 147.462 367.616C145.385 368.654 142.269 368.654 139.154 367.616C137.077 366.577 137.077 364.5 139.154 363.462C141.231 362.423 145.385 362.423 147.462 363.462Z" fill="#484188"/>
<path d="M415.385 325.039C417.462 326.077 417.462 328.154 415.385 329.192C413.308 330.231 410.192 330.231 407.077 329.192C405 328.154 405 326.077 407.077 325.039C409.154 324 413.308 324 415.385 325.039Z" fill="#484188"/>
<path d="M248.192 422.654C250.269 423.692 250.269 425.769 248.192 426.808C246.115 427.846 243 427.846 239.885 426.808C237.808 425.769 237.808 423.692 239.885 422.654C243 420.577 246.115 420.577 248.192 422.654Z" fill="#484188"/>
<path d="M133.962 387.346C138.115 389.423 141.231 395.654 141.231 399.808C141.231 405 138.115 406.039 133.962 403.962C129.808 401.885 126.692 395.654 126.692 391.5C126.692 387.346 129.808 385.269 133.962 387.346Z" fill="#494195"/>
<path d="M135 402.923C131.885 400.846 128.769 395.654 128.769 392.539C128.769 389.423 129.808 388.385 132.923 390.462C136.038 392.539 139.154 397.731 139.154 400.846C139.154 402.923 137.077 403.962 135 402.923Z" fill="#2A255D"/>
<path d="M164.077 405C168.231 407.077 171.346 413.308 171.346 417.462C171.346 422.654 168.231 423.692 164.077 421.615C159.923 419.539 156.808 413.308 156.808 409.154C156.808 405 159.923 402.923 164.077 405Z" fill="#494195"/>
<path d="M165.115 420.577C162 418.5 158.885 413.308 158.885 410.192C158.885 407.077 159.923 406.039 163.038 408.115C166.154 410.192 169.269 415.385 169.269 418.5C169.269 420.577 168.231 421.615 165.115 420.577Z" fill="#2A255D"/>
<path d="M195.231 422.654C199.385 424.731 202.5 430.962 202.5 435.115C202.5 440.308 199.385 441.346 195.231 439.269C191.077 437.192 187.962 430.962 187.962 426.808C187.962 422.654 191.077 420.577 195.231 422.654Z" fill="#494195"/>
<path d="M196.269 438.231C193.154 436.154 190.038 430.962 190.038 427.846C190.038 424.731 191.077 423.692 194.192 425.769C197.308 427.846 200.423 433.038 200.423 436.154C200.423 438.231 198.346 439.269 196.269 438.231Z" fill="#2A255D"/>
<path d="M225.346 440.308C229.5 442.385 232.615 448.616 232.615 452.769C232.615 457.962 229.5 459 225.346 456.923C221.192 454.846 218.077 448.616 218.077 444.462C218.077 440.308 221.192 438.231 225.346 440.308Z" fill="#494195"/>
<path d="M226.385 455.885C223.269 453.808 220.154 448.616 220.154 445.5C220.154 442.385 221.192 441.346 224.308 443.423C227.423 445.5 230.538 450.693 230.538 453.808C230.538 455.885 229.5 456.923 226.385 455.885Z" fill="#2A255D"/>
<path d="M230.538 452.769C230.538 455.885 228.462 455.885 226.385 454.846C225.346 453.808 224.308 453.808 223.269 452.769C222.231 451.731 221.192 449.654 220.154 448.616C219.115 447.577 219.115 445.5 219.115 444.462C219.115 441.346 220.154 440.308 223.269 442.385C224.308 443.423 225.346 444.462 226.385 445.5C227.423 446.539 228.462 448.616 228.462 449.654C230.538 450.692 230.538 451.731 230.538 452.769Z" fill="#2A255D"/>
<path d="M229.5 449.654C228.462 447.577 228.462 446.539 227.423 445.5L221.192 448.616L208.731 455.885L207.692 456.923C207.692 454.846 207.692 470.423 207.692 471.462L155.769 501.577C150.577 499.5 143.308 499.5 138.115 502.616C131.885 506.769 131.885 513 138.115 517.154C143.308 520.269 151.615 520.269 156.808 517.154C160.962 514.039 163.038 509.885 159.923 505.731L210.808 475.616C211.846 474.577 211.846 474.577 211.846 473.539V460.039L223.269 453.808L229.5 449.654ZM153.692 511.962C150.577 514.039 144.346 514.039 141.231 511.962C139.154 510.923 139.154 509.885 141.231 507.808C144.346 505.731 150.577 505.731 153.692 507.808C155.769 508.846 155.769 509.885 153.692 511.962Z" fill="#DEDFFB"/>
<path d="M119.423 421.615C120.462 420.577 120.462 420.577 120.462 419.539V406.039L130.846 399.808L137.077 396.692C136.038 394.616 136.038 393.577 133.962 392.539L127.731 395.654L115.269 402.923L114.231 405V418.5L62.3077 448.616C57.1154 446.539 49.8462 446.539 44.6539 449.654C38.4231 453.808 38.4231 460.039 44.6539 464.192C49.8462 467.308 58.1539 467.308 63.3462 464.192C67.5 461.077 69.5769 456.923 66.4615 452.769L119.423 421.615ZM62.3077 457.962C59.1923 460.039 52.9615 460.039 49.8462 457.962C47.7692 456.923 47.7692 455.885 49.8462 453.808C52.9615 451.731 59.1923 451.731 62.3077 453.808C65.4231 454.846 65.4231 456.923 62.3077 457.962Z" fill="#DEDFFB"/>
<path d="M150.577 439.269C151.615 438.231 151.615 438.231 151.615 437.192V423.692L162 417.462L168.231 414.346C167.192 412.269 167.192 411.231 165.115 409.154L158.885 412.269L146.423 419.539L145.385 421.616V435.116L105.923 457.962C100.731 455.885 93.4616 455.885 88.2693 459C82.0385 463.154 82.0385 469.385 88.2693 473.539C93.4616 476.654 101.769 476.654 106.962 473.539C111.115 470.423 113.192 466.269 110.077 462.116L150.577 439.269ZM105.923 468.346C102.808 470.423 96.577 470.423 93.4616 468.346C91.3847 467.308 91.3847 466.269 93.4616 464.192C96.577 462.116 102.808 462.116 105.923 464.192C108 466.269 108 467.308 105.923 468.346Z" fill="#DEDFFB"/>
<path d="M147.462 461.077C141.231 465.231 141.231 471.462 147.462 475.616C152.654 478.731 160.962 478.731 166.154 475.616C170.308 472.5 172.385 468.346 169.269 464.193L180.692 456.923C181.731 456.923 181.731 455.885 181.731 454.846V441.346L193.154 435.116L199.385 432C198.346 429.923 197.308 428.885 196.269 427.846L190.038 430.962C189 432 194.192 427.846 177.577 438.231C176.538 438.231 176.538 440.308 176.538 440.308V453.808L164.077 461.077C158.885 457.962 151.615 457.962 147.462 461.077ZM163.038 470.423C159.923 472.5 153.692 472.5 150.577 470.423C148.5 469.385 148.5 468.346 150.577 466.27C153.692 464.193 159.923 464.193 163.038 466.27C165.115 468.346 165.115 469.385 163.038 470.423Z" fill="#DEDFFB"/>
<path d="M267.923 435.116C263.769 437.192 260.654 443.423 260.654 447.577C260.654 452.769 263.769 453.808 267.923 451.731C272.077 449.654 275.192 443.423 275.192 439.269C275.192 435.116 272.077 433.039 267.923 435.116Z" fill="#484188"/>
<path d="M266.885 450.692C270 448.616 273.115 443.423 273.115 440.308C273.115 437.192 272.077 436.154 268.961 438.231C265.846 440.308 262.731 445.5 262.731 448.616C262.731 450.692 263.769 451.731 266.885 450.692Z" fill="#2A255E"/>
<path d="M262.731 448.616C262.731 451.731 264.808 451.731 266.885 450.692C267.923 449.654 268.961 449.654 270 448.616C271.038 447.577 272.077 445.5 273.115 444.462C274.154 443.423 274.154 441.346 274.154 440.308C274.154 437.192 273.115 436.154 270 438.231C268.961 439.269 267.923 440.308 266.885 441.346C265.846 442.385 264.808 444.462 264.808 445.5C262.731 445.5 262.731 447.577 262.731 448.616Z" fill="#2A255E"/>
<path d="M359.308 382.154C355.154 384.231 352.039 390.462 352.039 394.615C352.039 399.808 355.154 400.846 359.308 398.769C363.462 396.692 366.577 390.462 366.577 386.308C366.577 382.154 363.462 380.077 359.308 382.154Z" fill="#484188"/>
<path d="M358.269 397.731C361.385 395.654 364.5 390.462 364.5 387.346C364.5 384.231 363.462 383.192 360.346 385.269C357.231 387.346 354.115 392.538 354.115 395.654C354.115 398.769 356.192 398.769 358.269 397.731Z" fill="#2A255E"/>
<path d="M298.039 417.462C293.885 419.539 290.769 425.769 290.769 430.962C290.769 436.154 293.885 437.192 298.039 435.116C302.192 433.039 305.308 426.808 305.308 422.654C305.308 417.462 302.192 415.385 298.039 417.462Z" fill="#484188"/>
<path d="M297 433.039C300.115 430.962 303.231 425.769 303.231 422.654C303.231 419.539 302.192 418.5 299.077 420.577C295.962 422.654 292.846 427.846 292.846 430.962C292.846 433.039 294.923 434.077 297 433.039Z" fill="#2A255E"/>
<path d="M346.846 455.885C341.654 452.769 334.385 452.769 329.192 454.846L316.731 447.577V434.077C316.731 434.077 315.692 433.038 315.692 432L303.231 425.769L297 422.654C295.962 423.692 294.923 425.769 293.885 426.808L300.115 429.923L311.538 436.154V449.654C311.538 450.692 311.539 450.692 312.577 451.731C313.615 452.769 317.769 454.846 325.038 459C321.923 463.154 324 468.346 328.154 470.423C333.346 473.538 341.654 473.538 346.846 470.423C353.077 467.308 353.077 460.038 346.846 455.885ZM342.692 465.231C339.577 467.308 333.346 467.308 330.231 465.231C328.154 464.192 328.154 463.154 330.231 461.077C333.346 459 339.577 459 342.692 461.077C345.808 463.154 345.808 464.192 342.692 465.231Z" fill="#DEDFFB"/>
<path d="M390.462 364.5C386.308 366.577 383.192 372.808 383.192 376.961C383.192 382.154 386.308 383.192 390.462 381.115C394.615 379.038 397.731 372.808 397.731 368.654C397.731 363.461 394.615 361.384 390.462 364.5Z" fill="#484188"/>
<path d="M389.423 379.038C392.539 376.961 395.654 371.769 395.654 368.654C395.654 365.538 394.615 364.5 391.5 366.577C388.385 368.654 385.269 373.846 385.269 376.961C385.269 380.077 386.308 380.077 389.423 379.038Z" fill="#2A255E"/>
<path d="M438.231 402.923C433.039 399.808 425.769 399.808 420.577 401.885L408.115 394.615V381.115C408.115 381.115 408.115 380.077 407.077 379.038L394.615 371.769L388.385 368.654C387.346 369.692 386.308 371.769 385.269 372.808L391.5 375.923L402.923 382.154V395.654C402.923 396.692 402.923 396.692 403.962 397.731C405 398.769 407.077 399.808 416.423 405C413.308 409.154 415.385 414.346 419.539 416.423C424.731 419.538 433.039 419.538 438.231 416.423C444.462 413.308 444.462 406.038 438.231 402.923ZM435.115 411.231C432 413.308 425.769 413.308 422.654 411.231C420.577 410.192 420.577 409.154 422.654 407.077C425.769 405 432 405 435.115 407.077C437.192 409.154 437.192 410.192 435.115 411.231Z" fill="#DEDFFB"/>
<path d="M446.539 443.423C441.346 440.308 434.077 440.308 428.885 442.385L376.962 412.269V398.769L375.923 396.692L363.462 390.462L357.231 387.346C356.192 388.385 355.154 390.462 354.115 391.5L360.346 394.615L370.731 400.846V414.346C370.731 415.385 371.769 416.423 371.769 416.423C372.808 417.462 370.731 415.385 422.654 446.539C419.539 450.692 421.615 455.885 425.769 457.962C430.962 461.077 439.269 461.077 444.462 457.962C452.769 454.846 452.769 447.577 446.539 443.423ZM443.423 452.769C440.308 454.846 434.077 454.846 430.962 452.769C428.885 451.731 428.885 450.692 430.962 448.615C434.077 446.539 440.308 446.539 443.423 448.615C445.5 450.692 445.5 451.731 443.423 452.769Z" fill="#DEDFFB"/>
<path d="M329.192 399.808C325.038 401.885 321.923 408.115 321.923 412.269C321.923 417.462 325.038 418.5 329.192 416.423C333.346 414.346 336.462 408.115 336.462 403.962C336.462 399.808 333.346 397.731 329.192 399.808Z" fill="#484188"/>
<path d="M328.154 415.385C331.269 413.308 334.385 408.115 334.385 405C334.385 401.885 333.346 400.846 330.231 402.923C327.115 405 324 410.192 324 413.308C324 415.385 325.038 416.423 328.154 415.385Z" fill="#2A255E"/>
<path d="M402.923 453.808C397.731 450.692 390.462 450.692 385.269 452.769L345.808 429.923V416.423L344.769 414.346L332.308 407.077L327.115 405C326.077 406.038 325.038 408.115 324 410.192L330.231 413.308L340.615 419.538C340.615 420.577 340.615 434.077 340.615 433.038C340.615 434.077 340.615 434.077 341.654 435.115C342.692 436.154 341.654 435.115 380.077 457.962C376.962 462.115 379.038 467.308 383.192 469.385C388.385 472.5 396.692 472.5 401.885 469.385C410.192 465.231 410.192 457.962 402.923 453.808ZM399.808 463.154C396.692 465.231 390.462 465.231 387.346 463.154C385.269 462.115 385.269 461.077 387.346 459C390.462 456.923 396.692 456.923 399.808 459C402.923 461.077 401.885 462.115 399.808 463.154Z" fill="#DEDFFB"/>
<path d="M418.5 347.885C414.346 349.962 411.231 356.192 411.231 360.346C411.231 365.539 414.346 366.577 418.5 364.5C422.654 362.423 425.769 356.192 425.769 352.039C425.769 346.846 422.654 344.769 418.5 347.885Z" fill="#484188"/>
<path d="M417.462 362.423C420.577 360.346 423.692 355.154 423.692 352.039C423.692 348.923 422.654 347.885 419.539 349.962C416.423 352.039 413.308 357.231 413.308 360.346C413.308 363.462 415.385 364.5 417.462 362.423Z" fill="#2A255E"/>
<path d="M493.269 401.885C488.077 398.769 480.808 398.769 475.615 400.846L436.154 378V364.5L435.115 362.423L422.654 355.154L416.423 352.039C415.385 353.077 414.346 355.154 413.308 357.231L419.539 360.346L429.923 366.577C429.923 367.615 429.923 381.115 429.923 380.077C429.923 381.115 430.962 382.154 430.962 382.154L469.385 405C466.269 409.154 468.346 414.346 472.5 416.423C477.692 419.539 486 419.539 491.192 416.423C499.5 412.269 499.5 405 493.269 401.885ZM490.154 411.231C487.039 413.308 480.808 413.308 477.692 411.231C475.615 410.192 475.615 409.154 477.692 407.077C480.808 405 487.039 405 490.154 407.077C492.231 408.115 492.231 409.154 490.154 411.231Z" fill="#DEDFFB"/>
<path d="M355.154 497.423C349.962 494.308 342.692 494.308 337.5 496.385L285.577 466.269V452.769C285.577 451.731 284.538 450.692 284.538 450.692L272.077 443.423L265.846 440.308C264.808 441.346 263.769 443.423 263.769 444.462L270 447.577L281.423 453.808V467.308C281.423 468.346 282.462 469.385 282.462 469.385L333.346 499.5C330.231 503.654 332.308 508.846 336.462 510.923C341.654 514.039 349.962 514.039 355.154 510.923C361.385 507.808 361.385 501.577 355.154 497.423ZM352.039 506.769C348.923 508.846 342.692 508.846 339.577 506.769C337.5 505.731 337.5 504.693 339.577 502.616C342.692 500.539 348.923 500.539 352.039 502.616C354.115 503.654 354.115 504.692 352.039 506.769Z" fill="#DEDFFB"/>
<path d="M363.462 33.2309C360.346 31.154 356.192 31.154 351 34.2694L230.538 103.846C221.192 109.039 212.885 122.539 212.885 133.962L213.923 390.462C213.923 395.654 216 399.808 219.115 401.885L199.385 390.462C196.269 388.385 194.192 385.269 194.192 379.039L193.154 122.539C193.154 112.154 200.423 98.654 209.769 92.4232L332.308 22.8463C337.5 19.7309 341.654 19.7309 344.769 21.8078L363.462 33.2309Z" fill="#7C73CE"/>
<path d="M351 34.2695C360.346 29.0772 368.654 33.2311 368.654 43.6157L369.692 301.154C369.692 312.577 362.423 325.039 352.038 331.27L230.539 400.846C221.192 406.039 212.885 401.885 212.885 390.462L211.846 133.962C211.846 123.577 219.115 110.077 229.5 103.846L351 34.2695Z" fill="#2A255D"/>
<path d="M349.962 42.577C357.231 38.4232 363.462 41.5386 363.462 49.8462V291.808C363.462 300.116 357.231 310.5 349.962 314.654L231.577 383.192C224.308 387.346 218.077 384.231 218.077 375.923V133.962C218.077 125.654 224.308 115.269 231.577 111.115L349.962 42.577Z" fill="white"/>
<path d="M240.923 121.5C240.923 124.616 238.846 128.769 235.731 130.846C232.615 131.885 230.538 130.846 230.538 127.731C230.538 124.616 232.615 120.462 235.731 118.385C238.846 116.308 240.923 118.385 240.923 121.5Z" fill="#111D33"/>
<path d="M257.538 111.115C257.538 114.231 255.461 118.385 252.346 120.462C249.231 122.539 247.154 120.462 247.154 117.346C247.154 114.231 249.231 110.077 252.346 109.039C255.461 106.962 257.538 108 257.538 111.115Z" fill="#111D33"/>
<path d="M235.731 120.462C236.769 119.423 238.846 120.462 238.846 122.539C238.846 124.615 237.808 126.692 235.731 127.731C233.654 128.769 232.615 127.731 232.615 125.654C232.615 123.577 233.654 121.5 235.731 120.462Z" fill="#2A255D"/>
<path d="M235.731 118.385C238.846 116.308 240.923 118.385 240.923 121.5C240.923 124.616 238.846 128.769 235.731 130.846C232.615 132.923 230.538 130.846 230.538 127.731C230.538 123.577 232.615 119.423 235.731 118.385ZM235.731 127.731C236.769 126.693 238.846 124.616 238.846 122.539C238.846 120.462 237.808 120.462 235.731 120.462C233.654 121.5 232.615 123.577 232.615 125.654C232.615 127.731 233.654 128.769 235.731 127.731Z" fill="#647693"/>
<path d="M252.346 109.039C255.461 106.962 257.538 109.039 257.538 112.154C257.538 115.269 255.461 119.423 252.346 121.5C249.231 123.577 247.154 121.5 247.154 118.385C247.154 114.231 249.231 110.077 252.346 109.039ZM252.346 118.385C253.385 117.346 255.462 115.269 255.462 113.193C255.462 111.116 254.423 111.116 252.346 111.116C250.269 112.154 249.231 114.231 249.231 116.308C249.231 118.385 250.269 118.385 252.346 118.385Z" fill="#647693"/>
<path d="M252.346 111.115C253.385 110.077 255.462 111.115 255.462 113.192C255.462 115.269 254.423 117.346 252.346 118.385C251.308 119.423 249.231 118.385 249.231 116.308C249.231 114.231 250.269 112.154 252.346 111.115Z" fill="#2A255D"/>
<path d="M342.692 33.231L341.654 34.2694C338.538 36.3463 334.385 36.3463 331.269 34.2694C330.231 34.2694 330.231 33.231 330.231 33.231C329.192 31.154 329.192 30.1156 331.269 28.0387C334.385 25.9617 338.538 25.9617 341.654 28.0387C343.731 30.1156 343.731 32.1925 342.692 33.231Z" fill="#EDEEF2"/>
<path d="M342.692 33.2309L341.654 34.2694C338.538 36.3463 334.385 36.3463 331.269 34.2694C330.231 34.2694 330.231 33.2309 330.231 33.2309L331.269 32.1925C334.385 30.1155 338.538 30.1155 341.654 32.1925C341.654 33.2309 342.692 33.2309 342.692 33.2309Z" fill="#111D33"/>
<path d="M208.731 186.924V198.347C208.731 199.385 208.731 200.424 207.692 200.424L205.615 201.462C205.615 201.462 205.615 201.462 204.577 201.462C203.539 201.462 203.538 201.462 201.462 201.462C199.385 200.424 198.346 197.308 198.346 195.231V183.808C198.346 182.77 198.346 181.731 199.385 181.731L202.5 179.654H205.615C206.654 181.731 208.731 183.808 208.731 186.924Z" fill="#111D33"/>
<path d="M208.731 147.462V167.193C208.731 168.231 208.731 169.27 207.692 169.27L204.577 171.346C203.539 172.385 202.5 172.385 201.462 171.346C199.385 170.308 198.346 167.193 198.346 165.116V145.385C198.346 144.346 198.346 143.308 199.385 143.308L201.462 142.27H204.577C206.654 142.27 208.731 145.385 208.731 147.462Z" fill="#111D33"/>
<path d="M208.731 147.462V167.193C208.731 168.231 208.731 169.269 207.692 169.269L204.577 171.346C205.615 171.346 205.615 170.308 205.615 169.269V149.539C205.615 147.462 203.538 144.346 201.462 143.308C200.423 142.269 199.385 142.269 198.346 143.308L201.462 141.231H204.577C206.654 142.269 208.731 145.385 208.731 147.462Z" fill="#2A255D"/>
<path d="M201.462 143.308C203.538 144.347 205.615 147.462 205.615 149.539V169.27C205.615 171.347 203.538 172.385 201.462 171.347C199.385 170.308 197.308 167.193 197.308 165.116V145.385C198.346 142.27 200.423 142.27 201.462 143.308Z" fill="#484188"/>
<path d="M207.692 186.923V198.346C207.692 199.385 207.692 200.423 206.654 200.423L203.538 202.5C204.577 202.5 204.577 201.462 204.577 200.423V189C204.577 186.923 202.5 183.808 200.423 182.769C199.385 181.731 198.346 181.731 197.308 182.769L200.423 180.692H203.538C206.654 181.731 208.731 183.808 207.692 186.923Z" fill="#2A255D"/>
<path d="M201.462 181.731C203.538 182.77 205.615 185.885 205.615 187.962V199.385C205.615 201.462 203.538 202.5 201.462 201.462C199.385 200.423 197.308 197.308 197.308 195.231V183.808C198.346 181.731 199.385 180.693 201.462 181.731Z" fill="#484188"/>
<path d="M356.192 68.5386L225.346 144.346V149.539L356.192 73.7309V68.5386Z" fill="#E3E7F0"/>
<path d="M265.846 133.961L225.346 157.846V163.038L265.846 139.154V133.961Z" fill="#E3E7F0"/>
<path d="M275.192 128.769V135L356.192 87.2309V82.0386L275.192 128.769Z" fill="#E3E7F0"/>
<path d="M241.962 174.461L226.385 183.808V190.038L241.962 180.692V174.461Z" fill="#E3E7F0"/>
<path d="M249.231 170.308V175.5L356.192 114.231V109.039L249.231 170.308Z" fill="#E3E7F0"/>
<path d="M288.692 174.462V179.654L356.192 141.231V136.039L288.692 174.462Z" fill="#E3E7F0"/>
<path d="M280.385 179.654L226.385 210.808V216L280.385 184.846V179.654Z" fill="#E3E7F0"/>
<path d="M260.654 218.077L226.385 237.808V243L260.654 223.269V218.077Z" fill="#E3E7F0"/>
<path d="M267.923 213.923V219.116L355.154 168.231V163.039L267.923 213.923Z" fill="#E3E7F0"/>
<path d="M355.154 176.539L226.385 251.308V256.5L355.154 181.731V176.539Z" fill="#E3E7F0"/>
<path d="M309.462 216L226.385 264.808V270L309.462 221.192V216Z" fill="#E3E7F0"/>
<path d="M317.769 210.808V217.038L355.154 195.231V189L317.769 210.808Z" fill="#E3E7F0"/>
<path d="M355.154 202.5L226.385 277.269V282.462L355.154 207.692V202.5Z" fill="#E3E7F0"/>
<path d="M282.462 258.577L226.385 290.769V295.962L282.462 263.769V258.577Z" fill="#E3E7F0"/>
<path d="M293.885 252.346V257.538L355.154 221.192V216L293.885 252.346Z" fill="#E3E7F0"/>
<path d="M355.154 229.5L226.385 304.269V309.462L355.154 234.692V229.5Z" fill="#E3E7F0"/>
<path d="M355.154 243L226.385 317.769V322.962L355.154 248.192V243Z" fill="#E3E7F0"/>
<path d="M279.346 300.115L226.385 331.269V336.462L279.346 305.308V300.115Z" fill="#E3E7F0"/>
<path d="M288.692 294.923V300.115L355.154 261.692V256.5L288.692 294.923Z" fill="#E3E7F0"/>
<path d="M355.154 270L226.385 344.769V349.962L355.154 275.192V270Z" fill="#E3E7F0"/>
<path d="M355.154 282.462L226.385 358.269V363.462L355.154 288.692V282.462Z" fill="#E3E7F0"/>
<path d="M355.154 295.962L226.385 370.731V375.923L355.154 301.154V295.962Z" fill="#E3E7F0"/>
<path d="M356.192 122.539L226.385 197.308V202.5L356.192 127.731V122.539Z" fill="#E3E7F0"/>
<path d="M356.192 95.5386L226.385 171.346V176.539L356.192 100.731V95.5386Z" fill="#E3E7F0"/>
<path d="M356.192 148.5L226.385 224.308V229.5L356.192 153.692V148.5Z" fill="#E3E7F0"/>
<path d="M340.615 189V194.192C338.538 219.116 329.192 243 309.462 266.885C306.346 270 304.269 273.116 301.154 276.231C297 280.385 293.885 282.462 289.731 283.5C272.077 287.654 264.808 278.308 256.5 275.192C249.231 271.039 246.115 264.808 244.038 254.423C239.885 237.808 243 216 241.962 196.269C241.962 196.269 241.962 195.231 241.962 194.192C241.962 193.154 243 193.154 243 192.116C250.269 187.962 257.538 181.731 263.769 175.5C271.038 168.231 278.308 159.923 284.538 151.616C285.577 150.577 286.615 149.539 286.615 148.5H288.692C301.154 151.616 315.692 148.5 331.269 141.231H332.308L339.577 145.385L340.615 146.423C340.615 160.962 341.654 174.462 340.615 189Z" fill="#7C73CE"/>
<path d="M333.346 141.231L340.615 145.385H339.577C324 152.654 309.462 155.769 297 152.654C297 152.654 295.962 152.654 294.923 152.654L287.654 148.5H289.731C302.192 151.616 316.731 148.5 332.308 141.231H333.346Z" fill="#2A255D"/>
<path d="M294.923 152.654H297C309.462 155.769 324 152.654 339.577 145.385C340.615 144.346 341.654 145.385 341.654 146.423C341.654 160.962 342.692 174.462 341.654 189V194.192C339.577 220.154 330.231 243 310.5 266.885C307.385 270 305.308 273.115 302.192 276.231C297 281.423 294.923 282.462 290.769 283.5C272.077 287.654 256.5 277.269 251.308 258.577C247.154 241.962 250.269 220.154 249.231 200.423C249.231 199.385 250.269 197.308 251.308 196.269C258.577 192.115 265.846 185.885 272.077 179.654C279.346 172.385 286.615 164.077 292.846 155.769C292.846 154.731 293.885 153.692 294.923 152.654Z" fill="#7C73CE"/>
<path d="M294.923 162C304.269 164.077 314.654 163.039 326.077 158.885C328.154 157.846 331.269 156.808 333.346 155.77C334.385 155.77 334.385 155.77 334.385 156.808V194.193C334.385 222.231 317.769 255.462 295.962 274.154C295.962 274.154 294.923 275.193 293.885 275.193C273.115 281.423 254.423 270 254.423 238.846C254.423 237.808 254.423 206.654 254.423 203.539C254.423 202.5 254.423 202.5 255.462 202.5C268.962 193.154 282.462 180.693 293.885 165.116C293.885 162 294.923 160.962 294.923 162Z" fill="white"/>
<path d="M283.5 272.077C264.808 272.077 258.577 256.5 258.577 237.808C258.577 234.692 258.577 206.654 258.577 202.5C272.077 193.154 285.577 180.692 297 165.116C300.115 166.154 302.192 166.154 305.308 166.154C312.577 166.154 319.846 164.077 328.154 160.962C329.192 160.962 331.269 159.923 332.308 158.885V170.308V192.116C332.308 220.154 315.692 251.308 294.923 268.962H293.885C289.731 271.039 286.615 272.077 283.5 272.077Z" fill="#AAA0F5"/>
<path d="M250.269 196.269C257.538 192.116 264.808 185.885 271.038 179.654C278.308 172.385 285.577 164.077 291.808 155.769C292.846 154.731 292.846 153.692 293.885 153.692L286.615 149.539C285.577 149.539 284.538 151.616 284.538 151.616C278.308 159.923 271.038 168.231 263.769 175.5C257.538 181.731 250.269 187.962 243 192.116C241.962 192.116 241.962 193.154 241.962 194.192L249.231 198.346C249.231 197.308 249.231 197.308 250.269 196.269Z" fill="#AAA0F5"/>
<path d="M250.269 258.577C246.115 241.962 249.231 220.154 248.192 200.423C248.192 199.385 248.192 199.385 248.192 198.346L240.923 194.192V196.269C241.962 216 238.846 237.808 243 254.423C246.115 264.808 248.192 271.039 255.462 275.192L264.808 280.385C258.577 276.231 253.385 267.923 250.269 258.577Z" fill="#2A255D"/>
<path d="M301.154 212.885C303.231 209.769 305.308 204.577 305.308 201.462C305.308 196.269 303.231 194.192 299.077 194.192C299.077 194.192 299.077 194.192 298.038 194.192C299.077 195.231 300.115 197.308 300.115 199.385C300.115 203.539 299.077 207.692 295.962 210.808L299.077 224.308L304.269 226.385L301.154 212.885Z" fill="#4C5C75"/>
<path d="M299.077 224.308L286.615 231.577C286.615 232.615 285.577 237.808 285.577 236.769L303.231 226.385L299.077 224.308Z" fill="#1D2943"/>
<path d="M295.962 210.808L297 213.923L299.077 224.308C298.038 225.346 285.577 231.577 286.615 231.577C286.615 230.539 288.692 219.115 288.692 220.154C280.385 218.077 285.577 201.462 294.923 195.231C295.962 194.192 297 194.192 299.077 194.192C300.115 195.231 301.154 197.308 301.154 199.385C300.115 202.5 299.077 206.654 295.962 210.808Z" fill="#111D33"/>
</svg>
