<svg width="182" height="40" viewBox="0 0 182 40" fill="none" xmlns="http://www.w3.org/2000/svg">
<path d="M46.6446 9.31229H24.5905C18.5925 9.31229 13.711 14.1173 13.711 20.004C13.711 22.8416 14.8437 25.4205 16.6862 27.3331H7.88845C6.8675 25.0912 6.29321 22.6221 6.29321 20.004C6.29321 10.0961 14.5007 2.02246 24.5905 2.02246H41.0135C41.3485 2.31249 41.6675 2.61035 41.9786 2.91605C43.8689 4.77378 45.4562 6.92938 46.6446 9.31229Z" fill="#12171E"/>
<path d="M42.8878 19.996C42.8878 29.9117 34.6804 37.9776 24.5905 37.9776H0V30.6878H24.5905C30.5886 30.6878 35.47 25.8906 35.47 19.996C35.47 17.1663 34.3374 14.5874 32.4869 12.667H41.2926C42.3136 14.9166 42.8878 17.3936 42.8878 19.996Z" fill="#12171E"/>
<path d="M27.805 17.1111C27.805 15.3631 26.3613 13.9521 24.5906 13.9521C22.8119 13.9521 21.3762 15.3709 21.3762 17.1111C21.3762 18.1222 21.8628 19.0158 22.6125 19.5959L21.3762 26.047H27.813L26.5767 19.5959C27.3264 19.0237 27.805 18.1222 27.805 17.1111Z" fill="#12171E"/>
<path d="M64.3036 16.2179H57.835V0H64.3036C66.6167 0 68.4433 0.768174 69.7673 2.29669C71.0913 3.8252 71.7534 5.77699 71.7534 8.14423C71.7534 10.5115 71.0913 12.4554 69.7673 13.9604C68.4353 15.4654 66.6167 16.2179 64.3036 16.2179ZM61.3285 3.13541V13.0903H64.2957C65.5559 13.0903 66.529 12.62 67.2149 11.6794C67.9009 10.7388 68.2439 9.563 68.2439 8.15207C68.2439 6.72545 67.9009 5.534 67.2149 4.5777C66.529 3.6214 65.5559 3.14325 64.2957 3.14325H61.3285V3.13541Z" fill="#12171E"/>
<path d="M74.7683 16.2179V0H85.2091V3.04135H78.2619V6.73329H84.3477V9.71977H78.2619V13.1766H85.4245V16.2101H74.7683V16.2179Z" fill="#12171E"/>
<path d="M88.5671 16.2179V0H99.0079V3.04135H92.0607V6.73329H98.1465V9.71977H92.0607V13.1766H99.2233V16.2101H88.5671V16.2179Z" fill="#12171E"/>
<path d="M102.358 16.2179V0H109.138C110.908 0 112.256 0.525181 113.19 1.56771C114.115 2.61023 114.577 3.86439 114.577 5.32236C114.577 6.78032 114.115 8.02665 113.19 9.06133C112.264 10.096 110.916 10.6134 109.138 10.6134H105.883V16.2179H102.358ZM109.066 3.04135H105.883V7.61121H108.97C109.608 7.61121 110.119 7.37605 110.494 6.90574C110.868 6.43543 111.06 5.91025 111.06 5.3302C111.06 4.76582 110.876 4.24064 110.518 3.76249C110.159 3.2765 109.672 3.04135 109.066 3.04135Z" fill="#12171E"/>
<path d="M59.3665 35.0848C59.3824 35.8216 59.7254 36.4879 60.3954 37.0758C61.0654 37.6637 61.9029 37.9615 62.9079 37.9615C63.8969 37.9615 64.6706 37.7342 65.229 37.2796C65.7873 36.825 66.1223 36.2606 66.2339 35.5865C66.2978 34.7869 66.0585 34.152 65.5241 33.6817C64.9897 33.2114 64.2878 32.8822 63.4263 32.6941L61.2967 32.1767C58.6167 31.5026 57.2687 30.0917 57.2687 27.9361C57.2687 26.6035 57.7952 25.5061 58.848 24.6517C59.9009 23.7973 61.1531 23.3662 62.6048 23.3662C64.1362 23.3662 65.4044 23.8052 66.4094 24.6752C67.4144 25.5453 67.9169 26.6976 67.9169 28.1242H65.6916C65.6916 27.3247 65.3964 26.6819 64.8142 26.1959C64.2319 25.7099 63.4822 25.4669 62.5729 25.4669C61.7434 25.4669 61.0175 25.6943 60.4034 26.1489C59.7892 26.6035 59.4781 27.1914 59.4781 27.9126C59.4781 29.0413 60.2598 29.7938 61.8231 30.1701L63.9767 30.6874C65.54 31.0793 66.7045 31.7064 67.4703 32.5686C68.236 33.4309 68.5391 34.4969 68.3795 35.7668C68.236 36.9896 67.6697 38.0007 66.6886 38.8003C65.7075 39.5998 64.4313 39.9996 62.868 39.9996C61.2249 39.9996 59.853 39.5057 58.7443 38.5259C57.6436 37.5461 57.0933 36.3938 57.0933 35.077H59.3665V35.0848Z" fill="#12171E"/>
<path d="M71.873 23.5469H74.0984V39.7648H71.873V23.5469Z" fill="#12171E"/>
<path d="M91.4386 25.4983L89.8354 26.9563C88.6868 25.953 87.3628 25.4513 85.8553 25.4513C84.1484 25.4513 82.7047 26.0627 81.5162 27.2777C80.3358 28.4926 79.7455 29.9663 79.7455 31.6908C79.7455 33.4152 80.3358 34.881 81.5162 36.096C82.6967 37.3031 84.1404 37.9067 85.8553 37.9067C87.3548 37.9067 88.5911 37.5069 89.5642 36.7152C90.5373 35.9236 91.0557 34.8575 91.1195 33.525H86.4216V31.6202H93.656C93.656 34.395 92.962 36.4879 91.5742 37.891C90.1863 39.2941 88.28 39.9996 85.8473 39.9996C83.5183 39.9996 81.5402 39.1922 79.929 37.5775C78.3178 35.9627 77.5122 34.0031 77.5122 31.6908C77.5122 29.3705 78.3178 27.3952 79.929 25.7805C81.5402 24.1658 83.5103 23.3584 85.8473 23.3584C88.0168 23.3584 89.8753 24.0717 91.4386 25.4983Z" fill="#12171E"/>
<path d="M108.587 39.7648H106.458L98.9363 27.5445V39.7648H96.7109V23.5469H98.9124L106.362 35.6731V23.5469H108.587V39.7648Z" fill="#12171E"/>
<path d="M122.075 35.6495H115.08L113.477 39.7726H111.108L117.385 23.5547H119.778L126.031 39.7726H123.686L122.075 35.6495ZM115.846 33.6742H121.309L118.582 26.4706L115.846 33.6742Z" fill="#12171E"/>
<path d="M125.736 23.5469H138.003V25.6162H132.994V39.7648H130.745V25.6162H125.736V23.5469Z" fill="#12171E"/>
<path d="M144.113 36.8489C144.847 37.5386 145.74 37.8835 146.793 37.8835C147.846 37.8835 148.739 37.5386 149.473 36.8489C150.207 36.1591 150.574 35.2733 150.574 34.1916V23.5469H152.823V34.1838C152.823 35.9082 152.233 37.3113 151.061 38.3852C149.888 39.4591 148.46 39.9999 146.785 39.9999C145.11 39.9999 143.683 39.4591 142.51 38.3852C141.338 37.3113 140.747 35.9082 140.747 34.1838V23.5469H142.997V34.1838C143.013 35.2733 143.379 36.1591 144.113 36.8489Z" fill="#12171E"/>
<path d="M164.085 33.6272L168.496 39.7726H165.792L161.525 33.6978H159.419V39.7726H157.17V23.5469H163.519C165.146 23.5469 166.367 24.0407 167.18 25.0284C167.994 26.016 168.401 27.2153 168.401 28.6262C168.401 29.9431 168.042 31.0719 167.332 32.0125C166.622 32.9609 165.545 33.494 164.085 33.6272ZM163.439 25.5927H159.419V31.6441H163.352C164.293 31.6441 164.987 31.354 165.433 30.774C165.88 30.1939 166.103 29.4806 166.103 28.6341C166.103 27.8032 165.88 27.0899 165.441 26.4942C165.003 25.8984 164.333 25.5927 163.439 25.5927Z" fill="#12171E"/>
<path d="M171.99 23.5469H181.761V25.5927H174.215V30.774H180.803V32.8199H174.215V37.7189H182V39.7648H171.99V23.5469Z" fill="#12171E"/>
</svg>
