<svg width="182" height="40" viewBox="0 0 182 40" fill="none" xmlns="http://www.w3.org/2000/svg">
<path d="M46.6444 9.31229H24.5903C18.5922 9.31229 13.7108 14.1173 13.7108 20.004C13.7108 22.8416 14.8434 25.4205 16.6859 27.3331H7.8882C6.86725 25.0912 6.29297 22.6221 6.29297 20.004C6.29297 10.0961 14.5004 2.02246 24.5903 2.02246H41.0132C41.3482 2.31249 41.6673 2.61035 41.9783 2.91605C43.8687 4.77378 45.4559 6.92938 46.6444 9.31229Z" fill="white"/>
<path d="M42.8878 19.996C42.8878 29.9117 34.6804 37.9776 24.5905 37.9776H0V30.6878H24.5905C30.5886 30.6878 35.47 25.8906 35.47 19.996C35.47 17.1663 34.3374 14.5874 32.4869 12.667H41.2926C42.3136 14.9166 42.8878 17.3936 42.8878 19.996Z" fill="white"/>
<path d="M27.8048 17.1116C27.8048 15.3636 26.3611 13.9526 24.5904 13.9526C22.8117 13.9526 21.376 15.3714 21.376 17.1116C21.376 18.1227 21.8625 19.0163 22.6123 19.5964L21.376 26.0475H27.8127L26.5764 19.5964C27.3262 19.0242 27.8048 18.1227 27.8048 17.1116Z" fill="white"/>
<path d="M64.3036 16.2179H57.835V0H64.3036C66.6167 0 68.4433 0.768174 69.7673 2.29669C71.0913 3.8252 71.7534 5.77699 71.7534 8.14423C71.7534 10.5115 71.0913 12.4554 69.7673 13.9604C68.4353 15.4654 66.6167 16.2179 64.3036 16.2179ZM61.3285 3.13541V13.0903H64.2957C65.5559 13.0903 66.529 12.62 67.2149 11.6794C67.9009 10.7388 68.2439 9.563 68.2439 8.15207C68.2439 6.72545 67.9009 5.534 67.2149 4.5777C66.529 3.6214 65.5559 3.14325 64.2957 3.14325H61.3285V3.13541Z" fill="white"/>
<path d="M74.7686 16.2179V0H85.2094V3.04135H78.2621V6.73329H84.3479V9.71977H78.2621V13.1766H85.4247V16.2101H74.7686V16.2179Z" fill="white"/>
<path d="M88.5674 16.2179V0H99.0082V3.04135H92.0609V6.73329H98.1468V9.71977H92.0609V13.1766H99.2235V16.2101H88.5674V16.2179Z" fill="white"/>
<path d="M102.358 16.2179V0H109.138C110.908 0 112.256 0.525181 113.19 1.56771C114.115 2.61023 114.577 3.86439 114.577 5.32236C114.577 6.78032 114.115 8.02665 113.19 9.06133C112.264 10.096 110.916 10.6134 109.138 10.6134H105.883V16.2179H102.358ZM109.066 3.04135H105.883V7.61121H108.97C109.608 7.61121 110.119 7.37605 110.494 6.90574C110.868 6.43543 111.06 5.91025 111.06 5.3302C111.06 4.76582 110.876 4.24064 110.518 3.76249C110.159 3.2765 109.672 3.04135 109.066 3.04135Z" fill="white"/>
<path d="M59.3665 35.0853C59.3824 35.8221 59.7254 36.4884 60.3954 37.0763C61.0654 37.6642 61.9029 37.962 62.9079 37.962C63.8969 37.962 64.6706 37.7347 65.229 37.2801C65.7873 36.8254 66.1223 36.2611 66.2339 35.587C66.2978 34.7874 66.0585 34.1525 65.5241 33.6822C64.9897 33.2119 64.2878 32.8827 63.4263 32.6945L61.2967 32.1772C58.6167 31.5031 57.2687 30.0922 57.2687 27.9366C57.2687 26.604 57.7952 25.5066 58.848 24.6522C59.9009 23.7978 61.1531 23.3667 62.6048 23.3667C64.1362 23.3667 65.4044 23.8057 66.4094 24.6757C67.4144 25.5458 67.9169 26.6981 67.9169 28.1247H65.6916C65.6916 27.3252 65.3964 26.6824 64.8142 26.1964C64.2319 25.7104 63.4822 25.4674 62.5729 25.4674C61.7434 25.4674 61.0175 25.6947 60.4034 26.1494C59.7892 26.604 59.4781 27.1919 59.4781 27.913C59.4781 29.0418 60.2598 29.7943 61.8231 30.1705L63.9767 30.6879C65.54 31.0798 66.7045 31.7069 67.4703 32.5691C68.236 33.4314 68.5391 34.4974 68.3795 35.7672C68.236 36.9901 67.6697 38.0012 66.6886 38.8008C65.7075 39.6003 64.4313 40.0001 62.868 40.0001C61.2249 40.0001 59.853 39.5062 58.7443 38.5264C57.6436 37.5466 57.0933 36.3943 57.0933 35.0775H59.3665V35.0853Z" fill="white"/>
<path d="M71.873 23.5469H74.0984V39.7648H71.873V23.5469Z" fill="white"/>
<path d="M91.4386 25.4988L89.8354 26.9568C88.6868 25.9534 87.3628 25.4518 85.8553 25.4518C84.1484 25.4518 82.7047 26.0632 81.5162 27.2781C80.3358 28.4931 79.7455 29.9668 79.7455 31.6912C79.7455 33.4157 80.3358 34.8815 81.5162 36.0965C82.6967 37.3036 84.1404 37.9072 85.8553 37.9072C87.3548 37.9072 88.5911 37.5074 89.5642 36.7157C90.5373 35.924 91.0557 34.858 91.1195 33.5255H86.4216V31.6207H93.656C93.656 34.3955 92.962 36.4884 91.5742 37.8915C90.1863 39.2946 88.28 40.0001 85.8473 40.0001C83.5183 40.0001 81.5402 39.1927 79.929 37.578C78.3178 35.9632 77.5122 34.0036 77.5122 31.6912C77.5122 29.371 78.3178 27.3957 79.929 25.781C81.5402 24.1663 83.5103 23.3589 85.8473 23.3589C88.0168 23.3589 89.8753 24.0722 91.4386 25.4988Z" fill="white"/>
<path d="M108.587 39.7648H106.458L98.9363 27.5445V39.7648H96.7109V23.5469H98.9124L106.362 35.6731V23.5469H108.587V39.7648Z" fill="white"/>
<path d="M122.075 35.6495H115.08L113.477 39.7726H111.108L117.385 23.5547H119.778L126.031 39.7726H123.686L122.075 35.6495ZM115.846 33.6742H121.309L118.582 26.4706L115.846 33.6742Z" fill="white"/>
<path d="M125.736 23.5469H138.004V25.6162H132.995V39.7648H130.745V25.6162H125.736V23.5469Z" fill="white"/>
<path d="M144.113 36.8489C144.847 37.5386 145.74 37.8835 146.793 37.8835C147.846 37.8835 148.739 37.5386 149.473 36.8489C150.207 36.1591 150.574 35.2733 150.574 34.1916V23.5469H152.823V34.1838C152.823 35.9082 152.233 37.3113 151.06 38.3852C149.888 39.4591 148.46 39.9999 146.785 39.9999C145.11 39.9999 143.682 39.4591 142.51 38.3852C141.337 37.3113 140.747 35.9082 140.747 34.1838V23.5469H142.996V34.1838C143.012 35.2733 143.379 36.1591 144.113 36.8489Z" fill="white"/>
<path d="M164.085 33.6272L168.496 39.7726H165.792L161.525 33.6978H159.419V39.7726H157.17V23.5469H163.519C165.146 23.5469 166.366 24.0407 167.18 25.0284C167.994 26.016 168.4 27.2153 168.4 28.6262C168.4 29.9431 168.041 31.0719 167.332 32.0125C166.622 32.9609 165.545 33.494 164.085 33.6272ZM163.439 25.5927H159.419V31.6441H163.351C164.293 31.6441 164.987 31.354 165.433 30.774C165.88 30.1939 166.103 29.4806 166.103 28.6341C166.103 27.8032 165.88 27.0899 165.441 26.4942C165.003 25.8984 164.333 25.5927 163.439 25.5927Z" fill="white"/>
<path d="M171.99 23.5469H181.761V25.5927H174.215V30.774H180.803V32.8199H174.215V37.7189H182V39.7648H171.99V23.5469Z" fill="white"/>
</svg>
