<svg width="332" height="500" viewBox="0 0 332 500" fill="none" xmlns="http://www.w3.org/2000/svg">
<path d="M35.1539 498.192L8.15387 482.615C4.00003 480.538 1.9231 475.346 1.9231 468.077L0.884644 136.808C0.884644 122.269 11.2693 105.654 22.6923 98.3845L185.731 3.88451C191.962 0.769128 197.154 -0.269334 201.308 1.80759L228.308 17.3845L28.9231 483.654C28.9231 490.923 32.0385 495.077 35.1539 498.192Z" fill="#7C73CE"/>
<path d="M213.769 19.4613C226.231 12.1921 235.577 18.4229 235.577 31.9229L236.615 363.192C236.615 377.731 226.231 394.346 214.808 401.615L51.7692 496.115C39.3077 503.384 29.9616 497.154 29.9616 483.654L28.9231 152.384C28.9231 137.846 39.3077 121.231 50.7308 113.961L213.769 19.4613Z" fill="#49447C"/>
<path d="M211.692 32.9616C221.038 26.7308 228.308 30.8847 228.308 42.3077L229.346 353.846C229.346 364.231 222.077 377.731 212.731 382.923L52.8077 475.346C43.4615 480.539 36.1923 476.385 36.1923 466L35.1538 154.462C35.1538 144.077 42.423 130.577 51.7692 125.385L211.692 32.9616Z" fill="white"/>
<path d="M132.769 87.9997C134.846 86.9612 135.885 87.9997 135.885 90.0766C135.885 92.1535 133.808 95.2689 132.769 96.3074C130.692 97.3458 129.654 96.3074 129.654 94.2305C128.615 92.1535 130.692 89.0381 132.769 87.9997Z" fill="#1D2943"/>
<path d="M132.769 84.8844C135.885 82.8074 139 84.8844 139 87.9997C139 92.1536 135.885 97.3459 132.769 99.4228C129.654 101.5 126.538 99.4228 126.538 95.269C126.538 92.1536 128.615 86.9613 132.769 84.8844ZM132.769 96.3074C134.846 95.269 135.885 92.1536 135.885 90.0767C135.885 87.9998 133.808 86.9613 132.769 87.9997C130.692 89.0382 129.654 92.1536 129.654 94.2305C129.654 96.3074 130.692 97.3459 132.769 96.3074Z" fill="#7C73CE"/>
<path d="M200.269 19.4616C200.269 20.5 199.231 20.5 198.192 20.5C194.039 22.577 187.808 22.577 183.654 20.5C182.615 20.5 182.615 19.4616 181.577 18.4231C179.5 16.3462 180.539 13.2308 183.654 11.1539C187.808 9.07696 194.039 9.07696 198.192 11.1539C202.346 14.2693 202.346 16.3462 200.269 19.4616Z" fill="#EDEEF2"/>
<path d="M200.269 19.4618C200.269 20.5002 199.231 20.5002 198.192 20.5002C194.038 22.5771 187.808 22.5771 183.654 20.5002C182.615 20.5002 182.615 19.4618 181.577 18.4233C181.577 18.4233 182.615 17.3848 183.654 17.3848C187.808 15.3079 194.038 15.3079 198.192 17.3848C199.231 18.4233 200.269 18.4233 200.269 19.4618Z" fill="#111D33"/>
<path d="M21.6538 165.884V192.884C21.6538 193.923 20.6153 196 19.5769 196L16.4615 198.077C15.423 198.077 14.3846 198.077 13.3461 198.077C10.2307 196 8.15381 192.884 8.15381 189.769V162.769C8.15381 160.692 9.19227 159.654 10.2307 159.654L13.3461 157.577H16.4615C19.5769 158.615 21.6538 162.769 21.6538 165.884Z" fill="#2A255D"/>
<path d="M21.6538 165.884V192.884C21.6538 193.923 20.6153 196 20.6153 196L16.4615 198.077C17.5 198.077 17.5 196 17.5 194.961V167.961C17.5 164.846 15.423 160.692 12.3076 159.654C11.2692 158.615 9.19226 158.615 9.19226 159.654L13.3461 157.577H16.4615C19.5769 158.615 21.6538 162.769 21.6538 165.884Z" fill="#2A255D"/>
<path d="M13.3461 158.615C16.4615 160.692 18.5384 163.807 18.5384 166.923V193.923C18.5384 197.038 16.4615 198.077 13.3461 197.038C10.2307 194.961 8.15381 191.846 8.15381 188.73V161.73C8.15381 158.615 10.2307 157.577 13.3461 158.615Z" fill="#484188"/>
<path d="M21.6538 219.884V236.5C21.6538 238.577 20.6153 239.615 19.5769 239.615L16.4615 241.692C15.423 241.692 14.3846 241.692 13.3461 241.692C10.2307 239.615 8.15381 236.5 8.15381 233.384V217.808C8.15381 215.731 9.19227 214.692 10.2307 214.692L13.3461 212.615H17.5C19.5769 213.654 21.6538 216.769 21.6538 219.884Z" fill="#2A255D"/>
<path d="M21.6538 219.884V236.5C21.6538 238.577 20.6153 239.615 20.6153 239.615L17.4999 241.692C18.5384 241.692 18.5384 239.615 18.5384 238.577V221.961C18.5384 218.846 16.4615 214.692 13.3461 213.654C12.3076 212.615 10.2307 212.615 10.2307 213.654L13.3461 211.577H16.4615C19.5769 213.654 21.6538 216.769 21.6538 219.884Z" fill="#2A255D"/>
<path d="M13.3461 213.654C16.4615 215.731 18.5384 218.846 18.5384 221.961V238.577C18.5384 241.692 16.4615 242.731 13.3461 241.692C10.2307 239.615 8.15381 236.5 8.15381 233.384V216.769C8.15381 213.654 10.2307 212.615 13.3461 213.654Z" fill="#484188"/>
<path d="M134.846 111.884C147.308 104.615 159.769 100.461 171.192 100.461C167.038 116.038 174.308 128.5 188.846 120.192C191.962 176.269 171.192 224.038 134.846 263.5C94.3462 268.692 77.7308 239.615 80.8462 182.5C94.3462 175.231 103.692 155.5 98.5 142C109.923 129.538 122.385 119.154 134.846 111.884Z" fill="#7C73CE"/>
<path d="M134.846 120.192C144.192 115 153.539 110.846 162.885 109.808C162.885 118.115 163.923 124.346 168.077 128.5C171.192 131.615 176.385 132.654 182.615 131.615C182.615 154.461 179.5 176.269 171.192 197.038C163.923 216.769 151.462 235.461 135.885 253.115C103.692 255.192 88.1154 233.385 89.1539 185.615C95.3847 180.423 100.577 173.154 103.692 165.885C107.846 157.577 108.885 149.269 108.885 142C116.154 132.654 125.5 125.385 134.846 120.192Z" fill="white"/>
<path d="M135.885 140.961C146.269 134.731 154.577 139.923 154.577 151.346V156.538L148.346 159.654V154.461C148.346 147.192 143.154 144.077 136.923 148.231C130.692 152.384 125.5 160.692 125.5 169V179.384L119.269 183.538V172.115C117.192 161.731 125.5 147.192 135.885 140.961Z" fill="#AAA0F5"/>
<path d="M155.615 161.731C157.692 160.692 158.731 161.731 158.731 163.808V196C158.731 198.077 156.654 201.192 155.615 202.231L117.192 225.077C115.115 226.115 114.077 225.077 114.077 223V190.808C114.077 188.731 116.154 185.615 117.192 184.577L118.231 183.538L124.462 179.384L155.615 161.731Z" fill="#7C73CE"/>
<path d="M136.923 190.808C139 188.731 140.038 183.538 137.962 181.461C132.769 182.5 127.577 192.885 132.769 194.961L131.731 201.192L137.962 198.077L136.923 190.808Z" fill="#111D33"/>
<path d="M139 191.846L140.038 199.115L130.692 204.308C130.692 202.231 131.731 194.962 131.731 196C126.538 194.962 131.731 182.5 136.923 182.5C142.115 182.5 142.115 187.692 139 191.846Z" fill="#111D33"/>
<path d="M140.077 191.461C143.192 187.307 143.192 181.076 139.038 182.115C141.115 184.192 140.077 188.346 138 191.461L139.038 198.73L141.115 199.769L140.077 191.461Z" fill="#DEDFFB"/>
<path d="M137.962 198.077L131.731 201.192V203.269V204.307L140.039 199.115L137.962 198.077Z" fill="#1D2943"/>
<path d="M136.923 190.808C136.923 191.846 139 199.115 137.962 198.077C136.923 199.115 130.692 202.231 131.731 201.192C131.731 200.154 132.769 193.923 132.769 194.961C127.577 193.923 132.769 182.5 137.962 181.461C140.038 184.577 137.962 188.731 136.923 190.808Z" fill="#111D33"/>
<path d="M331.116 220.923C331.116 227.153 326.962 235.461 320.731 238.577L229.346 291.538C226.231 293.615 224.154 293.615 222.077 292.577C222.077 292.577 222.077 292.577 221.039 292.577L212.731 287.384C210.654 286.346 209.615 284.269 209.615 281.153V202.23L218.962 207.423L330.077 143.038L331.116 220.923Z" fill="#C9CEE2"/>
<path d="M223.116 291.538L213.769 286.346C211.692 285.307 210.654 283.23 210.654 280.115V201.192L220 206.384V285.307C220 288.423 221.039 290.5 223.116 291.538Z" fill="#C9CEE2"/>
<path d="M331.116 140.961V219.884C331.116 226.115 326.962 234.423 320.731 237.538L229.346 290.5C224.154 293.615 218.962 291.538 218.962 284.269V205.346L331.116 140.961Z" fill="#E3E7F0"/>
<path d="M322.808 127.461C323.846 126.423 324.885 127.461 324.885 128.5V224.038C324.885 227.154 322.808 230.269 320.731 231.308L229.346 284.269C227.269 285.308 225.192 284.269 225.192 282.192V189.769C225.192 186.654 227.269 183.538 229.346 182.5L322.808 127.461Z" fill="white"/>
<path d="M218.962 205.346L210.654 200.154L311.385 130.577L331.115 140.961L218.962 205.346Z" fill="#C3C7CF"/>
<path d="M328 122.269L218.962 206.384L209.615 201.192V189.769C209.615 183.538 213.769 175.23 220 172.115L313.462 118.115C315.539 117.077 317.615 117.077 318.654 117.077L328 122.269Z" fill="#49447C"/>
<path d="M322.808 122.269C326.962 120.192 330.077 122.269 330.077 126.423V140.961L218.962 205.346V193.923C218.962 187.692 223.115 179.384 229.346 176.269L322.808 122.269Z" fill="#AAA0F5"/>
<path d="M299.962 144.076C302.039 143.038 303.077 144.076 303.077 146.153C303.077 148.23 302.039 150.307 299.962 151.346C297.885 152.384 296.846 151.346 296.846 149.269C296.846 148.23 297.885 145.115 299.962 144.076Z" fill="white"/>
<path d="M310.346 138.884C312.423 137.846 313.462 138.884 313.462 140.961C313.462 143.038 312.423 145.115 310.346 146.154C308.269 147.192 307.231 146.154 307.231 144.077C307.231 142 308.269 139.923 310.346 138.884Z" fill="white"/>
<path d="M320.731 132.653C322.808 131.615 323.846 132.653 323.846 134.73C323.846 136.807 322.808 138.884 320.731 139.923C318.654 140.961 317.615 139.923 317.615 137.846C317.615 135.769 318.654 133.692 320.731 132.653Z" fill="white"/>
<path d="M320.731 156.538L230.385 208.461V211.577L320.731 159.653V156.538Z" fill="#DEDFFB"/>
<path d="M274 191.846V196L319.692 169V165.884L274 191.846Z" fill="#DEDFFB"/>
<path d="M267.769 196L230.385 216.769V220.923L267.769 199.115V196Z" fill="#AAA0F5"/>
<path d="M319.692 183.538L230.385 235.461V238.577L319.692 186.653V183.538Z" fill="#AAA0F5"/>
<path d="M320.731 174.192L230.385 226.115V229.23L320.731 177.307V174.192Z" fill="#DEDFFB"/>
<path d="M319.692 192.884L230.385 243.769V247.923L319.692 196V192.884Z" fill="#DEDFFB"/>
<path d="M319.692 210.538L230.385 262.461V265.577L319.692 213.653V210.538Z" fill="#2A255D"/>
<path d="M320.731 201.192L230.385 253.115V256.23L320.731 204.307V201.192Z" fill="#DEDFFB"/>
<path d="M320.731 219.884L230.385 270.769V274.923L320.731 223V219.884Z" fill="#DEDFFB"/>
<path d="M320.731 219.884L230.385 270.769V274.923L320.731 223V219.884Z" fill="#DEDFFB"/>
<path d="M187.808 251.038C191.962 248.961 195.077 251.038 195.077 255.192V290.5C195.077 294.654 191.962 300.885 187.808 302.961L70.4616 370.461C66.3078 372.538 63.1924 370.461 63.1924 366.308V331C63.1924 326.846 66.3078 320.615 70.4616 318.538L187.808 251.038Z" fill="#AAA0F5"/>
<path d="M94.3462 338.269C93.3078 340.346 92.2693 341.384 91.2308 341.384C91.2308 341.384 91.2308 341.384 86.0385 339.308C87.077 346.577 87.077 346.577 87.077 346.577C87.077 348.654 86.0385 349.692 85.0001 350.731C83.9616 351.769 82.9231 350.731 82.9231 349.692C82.9231 349.692 82.9231 349.692 83.9616 341.384C78.7693 349.692 78.7693 349.692 78.7693 349.692C77.7308 350.731 76.6924 351.769 75.6539 350.731C74.6154 349.692 75.6539 347.615 76.6924 346.577L82.9231 340.346L76.6924 341.384C75.6539 341.384 75.6539 339.308 75.6539 338.269C76.6924 337.231 77.7308 335.154 78.7693 335.154C78.7693 335.154 78.7693 335.154 83.9616 337.231C82.9231 329.961 82.9231 329.961 82.9231 329.961C82.9231 327.885 83.9616 326.846 85.0001 325.808C86.0385 324.769 87.077 325.808 87.077 326.846C87.077 326.846 87.077 326.846 86.0385 335.154C91.2308 326.846 91.2308 326.846 91.2308 326.846C92.2693 325.808 93.3078 324.769 94.3462 325.808C95.3847 326.846 94.3462 328.923 93.3078 329.961L87.077 336.192L93.3078 335.154C95.3847 335.154 95.3847 336.192 94.3462 338.269Z" fill="white"/>
<path d="M124.462 320.615C123.423 322.692 122.385 323.731 121.346 323.731C121.346 323.731 121.346 323.731 116.154 321.654C117.192 328.923 117.192 328.923 117.192 328.923C117.192 331 116.154 332.038 115.115 333.077C114.077 334.115 113.038 333.077 113.038 332.038C113.038 332.038 113.039 332.038 114.077 323.731C108.885 332.038 108.885 332.038 108.885 332.038C106.808 333.077 104.731 333.077 103.692 332.038C102.654 331 103.692 328.923 104.731 327.884L110.962 321.654L104.731 322.692C103.692 322.692 103.692 320.615 103.692 319.577C104.731 318.538 105.769 316.461 106.808 316.461C106.808 316.461 106.808 316.461 112 318.538C110.962 311.269 110.962 311.269 110.962 311.269C110.962 309.192 112 308.154 113.038 307.115C114.077 306.077 115.115 307.115 115.115 308.154C115.115 308.154 115.115 308.154 114.077 316.461C119.269 308.154 119.269 308.154 119.269 308.154C120.308 307.115 121.346 306.077 122.385 307.115C123.423 308.154 122.385 310.231 121.346 311.269L115.115 317.5L121.346 316.461C125.5 317.5 125.5 319.577 124.462 320.615Z" fill="white"/>
<path d="M154.577 302.962C153.538 305.038 152.5 306.077 151.462 306.077C151.462 306.077 151.462 306.077 146.269 304C147.308 311.269 147.308 311.269 147.308 311.269C147.308 313.346 146.269 314.385 145.231 315.423C144.192 316.461 143.154 315.423 143.154 314.385C143.154 314.385 143.154 314.385 144.192 306.077C139 314.385 139 314.385 139 314.385C137.962 315.423 136.923 316.461 135.885 315.423C134.846 314.385 135.885 312.308 136.923 311.269L143.154 305.038L136.923 306.077C135.885 306.077 135.885 304 135.885 302.962C136.923 301.923 137.962 299.846 139 299.846C139 299.846 139 299.846 144.192 301.923C143.154 294.654 143.154 294.654 143.154 294.654C143.154 292.577 144.192 291.538 145.231 290.5C146.269 289.462 147.308 290.5 147.308 291.538C147.308 291.538 147.308 291.538 146.269 299.846C151.462 291.538 151.462 291.538 151.462 291.538C152.5 290.5 153.538 289.462 154.577 290.5C155.615 291.538 154.577 293.615 153.538 294.654L147.308 300.885L153.538 299.846C155.615 299.846 155.615 301.923 154.577 302.962Z" fill="white"/>
<path d="M184.692 285.308C183.654 287.385 182.615 288.423 181.577 288.423C181.577 288.423 181.577 288.423 176.385 286.346C177.423 293.615 177.423 293.615 177.423 293.615C177.423 295.692 176.385 296.731 175.346 297.769C174.308 298.808 173.269 297.769 173.269 296.731C173.269 296.731 173.269 296.731 174.308 288.423C169.115 296.731 169.115 296.731 169.115 296.731C168.077 297.769 167.038 298.808 166 297.769C164.962 296.731 166 294.654 167.038 293.615L173.269 287.385H166C164.962 287.385 164.962 285.308 164.962 284.269C166 283.231 167.038 281.154 168.077 281.154C168.077 281.154 168.077 281.154 173.269 283.231C172.231 275.961 172.231 275.961 172.231 275.961C172.231 273.885 173.269 272.846 174.308 271.808C175.346 270.769 176.385 271.808 176.385 272.846C176.385 272.846 176.385 272.846 175.346 281.154C180.538 272.846 180.538 272.846 180.538 272.846C181.577 271.808 182.615 270.769 183.654 271.808C184.692 272.846 183.654 274.923 182.615 275.961L176.385 282.192L182.615 281.154C185.731 282.192 185.731 284.269 184.692 285.308Z" fill="white"/>
<path d="M194.039 316.462C198.192 314.385 201.308 316.461 201.308 320.615V355.923C201.308 360.077 198.192 366.308 194.039 368.385L76.6923 435.885C72.5385 437.961 69.4231 435.885 69.4231 431.731V396.423C69.4231 392.269 72.5385 386.038 76.6923 383.961L194.039 316.462Z" fill="#66609C"/>
<path d="M100.577 402.654C99.5385 404.731 98.5 405.769 97.4616 405.769C97.4616 405.769 97.4616 405.769 92.2692 403.692C93.3077 410.962 93.3077 410.962 93.3077 410.962C93.3077 413.039 92.2692 414.077 91.2308 415.115C90.1923 416.154 89.1539 415.115 89.1539 414.077C89.1539 414.077 89.1539 414.077 90.1923 405.769C82.9231 414.077 82.9231 414.077 82.9231 414.077C81.8846 415.115 80.8462 416.154 79.8077 415.115C78.7692 414.077 79.8077 412 80.8462 410.962L87.0769 404.731L80.8462 405.769C79.8077 405.769 79.8077 403.692 79.8077 402.654C80.8462 401.615 81.8846 399.539 82.9231 399.539C82.9231 399.539 82.9231 399.538 88.1154 401.615C87.0769 394.346 87.0769 394.346 87.0769 394.346C87.0769 392.269 88.1154 391.231 89.1539 390.192C90.1923 389.154 91.2308 390.192 91.2308 391.231C91.2308 391.231 91.2308 391.231 90.1923 399.539C95.3846 391.231 95.3846 391.231 95.3846 391.231C96.4231 390.192 97.4616 389.154 98.5 390.192C99.5385 391.231 98.5 393.308 97.4616 394.346L93.3077 400.577L99.5385 399.539C100.577 399.539 100.577 401.615 100.577 402.654Z" fill="white"/>
<path d="M130.692 385C129.654 387.077 128.615 388.115 127.577 388.115C127.577 388.115 127.577 388.115 122.385 386.038C123.423 393.308 123.423 393.308 123.423 393.308C123.423 395.384 122.385 396.423 121.346 397.461C120.308 398.5 119.269 397.461 119.269 396.423C119.269 396.423 119.269 396.423 120.308 388.115C115.115 396.423 115.115 396.423 115.115 396.423C114.077 397.461 113.039 398.5 112 397.461C110.962 396.423 112 394.346 113.039 393.308L119.269 387.077L113.039 388.115C112 388.115 112 386.038 112 385C113.039 383.961 114.077 381.884 115.115 381.884C115.115 381.884 115.115 381.884 120.308 383.961C119.269 376.692 119.269 376.692 119.269 376.692C119.269 374.615 120.308 373.577 121.346 372.538C122.385 371.5 123.423 372.538 123.423 373.577C123.423 373.577 123.423 373.577 122.385 381.884C127.577 373.577 127.577 373.577 127.577 373.577C128.615 372.538 129.654 371.5 130.692 372.538C131.731 373.577 130.692 375.654 129.654 376.692L123.423 382.923L129.654 381.884C130.692 381.884 130.692 383.961 130.692 385Z" fill="white"/>
<path d="M160.808 368.385C159.769 370.462 158.731 371.5 157.692 371.5C157.692 371.5 157.692 371.5 152.5 369.423C153.539 376.692 153.539 376.692 153.539 376.692C153.539 378.769 152.5 379.808 151.462 380.846C150.423 381.885 149.385 380.846 149.385 379.808C149.385 379.808 149.385 379.808 150.423 371.5C145.231 379.808 145.231 379.808 145.231 379.808C144.192 380.846 143.154 381.885 142.115 380.846C141.077 379.808 142.115 377.731 143.154 376.692L149.385 370.462L143.154 371.5C142.115 371.5 142.115 369.423 142.115 368.385C143.154 367.346 144.192 365.269 145.231 365.269C145.231 365.269 145.231 365.269 150.423 367.346C149.385 360.077 149.385 360.077 149.385 360.077C149.385 358 150.423 356.962 151.462 355.923C152.5 354.885 153.539 355.923 153.539 356.962C153.539 356.962 153.539 356.962 152.5 365.269C157.692 356.962 157.692 356.962 157.692 356.962C158.731 355.923 159.769 354.885 160.808 355.923C161.846 356.962 160.808 359.038 159.769 360.077L153.539 366.308L159.769 365.269C160.808 365.269 160.808 366.308 160.808 368.385Z" fill="white"/>
<path d="M190.923 350.731C189.885 352.808 188.846 353.846 187.808 353.846C187.808 353.846 187.808 353.846 182.615 351.769C183.654 359.038 183.654 359.038 183.654 359.038C183.654 361.115 182.615 362.154 181.577 363.192C180.538 364.231 179.5 363.192 179.5 362.154C179.5 362.154 179.5 362.154 180.538 353.846C175.346 362.154 175.346 362.154 175.346 362.154C174.308 363.192 173.269 364.231 172.231 363.192C171.192 362.154 172.231 360.077 173.269 359.038L179.5 352.808L173.269 353.846C172.231 353.846 172.231 351.769 172.231 350.731C173.269 349.692 174.308 347.615 175.346 347.615C175.346 347.615 175.346 347.615 180.538 349.692C179.5 342.423 179.5 342.423 179.5 342.423C179.5 340.346 180.538 339.308 181.577 338.269C182.615 337.231 183.654 338.269 183.654 339.308C183.654 339.308 183.654 339.308 182.615 347.615C187.808 339.308 187.808 339.308 187.808 339.308C188.846 338.269 189.885 337.231 190.923 338.269C191.962 339.308 190.923 341.385 189.885 342.423L183.654 348.654L189.885 347.615C190.923 347.615 190.923 348.654 190.923 350.731Z" fill="white"/>
</svg>
